G04 #@! TF.GenerationSoftware,KiCad,Pcbnew,7.0.1*
G04 #@! TF.CreationDate,2023-10-20T10:46:15+03:00*
G04 #@! TF.ProjectId,modelh,6d6f6465-6c68-42e6-9b69-6361645f7063,v0.1*
G04 #@! TF.SameCoordinates,Original*
G04 #@! TF.FileFunction,Legend,Top*
G04 #@! TF.FilePolarity,Positive*
%FSLAX46Y46*%
G04 Gerber Fmt 4.6, Leading zero omitted, Abs format (unit mm)*
G04 Created by KiCad (PCBNEW 7.0.1) date 2023-10-20 10:46:15*
%MOMM*%
%LPD*%
G01*
G04 APERTURE LIST*
%ADD10C,0.150000*%
%ADD11C,0.300000*%
%ADD12C,0.120000*%
%ADD13C,0.010000*%
G04 APERTURE END LIST*
D10*
X171019048Y-77095952D02*
X171257143Y-77762619D01*
X171257143Y-77762619D02*
X171495238Y-77095952D01*
X172400000Y-77762619D02*
X171828572Y-77762619D01*
X172114286Y-77762619D02*
X172114286Y-76762619D01*
X172114286Y-76762619D02*
X172019048Y-76905476D01*
X172019048Y-76905476D02*
X171923810Y-77000714D01*
X171923810Y-77000714D02*
X171828572Y-77048333D01*
X172828572Y-77667380D02*
X172876191Y-77715000D01*
X172876191Y-77715000D02*
X172828572Y-77762619D01*
X172828572Y-77762619D02*
X172780953Y-77715000D01*
X172780953Y-77715000D02*
X172828572Y-77667380D01*
X172828572Y-77667380D02*
X172828572Y-77762619D01*
X173495238Y-76762619D02*
X173590476Y-76762619D01*
X173590476Y-76762619D02*
X173685714Y-76810238D01*
X173685714Y-76810238D02*
X173733333Y-76857857D01*
X173733333Y-76857857D02*
X173780952Y-76953095D01*
X173780952Y-76953095D02*
X173828571Y-77143571D01*
X173828571Y-77143571D02*
X173828571Y-77381666D01*
X173828571Y-77381666D02*
X173780952Y-77572142D01*
X173780952Y-77572142D02*
X173733333Y-77667380D01*
X173733333Y-77667380D02*
X173685714Y-77715000D01*
X173685714Y-77715000D02*
X173590476Y-77762619D01*
X173590476Y-77762619D02*
X173495238Y-77762619D01*
X173495238Y-77762619D02*
X173400000Y-77715000D01*
X173400000Y-77715000D02*
X173352381Y-77667380D01*
X173352381Y-77667380D02*
X173304762Y-77572142D01*
X173304762Y-77572142D02*
X173257143Y-77381666D01*
X173257143Y-77381666D02*
X173257143Y-77143571D01*
X173257143Y-77143571D02*
X173304762Y-76953095D01*
X173304762Y-76953095D02*
X173352381Y-76857857D01*
X173352381Y-76857857D02*
X173400000Y-76810238D01*
X173400000Y-76810238D02*
X173495238Y-76762619D01*
X174685714Y-77762619D02*
X174685714Y-77238809D01*
X174685714Y-77238809D02*
X174638095Y-77143571D01*
X174638095Y-77143571D02*
X174542857Y-77095952D01*
X174542857Y-77095952D02*
X174352381Y-77095952D01*
X174352381Y-77095952D02*
X174257143Y-77143571D01*
X174685714Y-77715000D02*
X174590476Y-77762619D01*
X174590476Y-77762619D02*
X174352381Y-77762619D01*
X174352381Y-77762619D02*
X174257143Y-77715000D01*
X174257143Y-77715000D02*
X174209524Y-77619761D01*
X174209524Y-77619761D02*
X174209524Y-77524523D01*
X174209524Y-77524523D02*
X174257143Y-77429285D01*
X174257143Y-77429285D02*
X174352381Y-77381666D01*
X174352381Y-77381666D02*
X174590476Y-77381666D01*
X174590476Y-77381666D02*
X174685714Y-77334047D01*
D11*
X130557142Y-81393928D02*
X130557142Y-79893928D01*
X131200000Y-81393928D02*
X131200000Y-80608214D01*
X131200000Y-80608214D02*
X131128571Y-80465357D01*
X131128571Y-80465357D02*
X130985714Y-80393928D01*
X130985714Y-80393928D02*
X130771428Y-80393928D01*
X130771428Y-80393928D02*
X130628571Y-80465357D01*
X130628571Y-80465357D02*
X130557142Y-80536785D01*
X131700000Y-80393928D02*
X132271428Y-80393928D01*
X131914285Y-79893928D02*
X131914285Y-81179642D01*
X131914285Y-81179642D02*
X131985714Y-81322500D01*
X131985714Y-81322500D02*
X132128571Y-81393928D01*
X132128571Y-81393928D02*
X132271428Y-81393928D01*
X132557143Y-80393928D02*
X133128571Y-80393928D01*
X132771428Y-79893928D02*
X132771428Y-81179642D01*
X132771428Y-81179642D02*
X132842857Y-81322500D01*
X132842857Y-81322500D02*
X132985714Y-81393928D01*
X132985714Y-81393928D02*
X133128571Y-81393928D01*
X133628571Y-80393928D02*
X133628571Y-81893928D01*
X133628571Y-80465357D02*
X133771429Y-80393928D01*
X133771429Y-80393928D02*
X134057143Y-80393928D01*
X134057143Y-80393928D02*
X134200000Y-80465357D01*
X134200000Y-80465357D02*
X134271429Y-80536785D01*
X134271429Y-80536785D02*
X134342857Y-80679642D01*
X134342857Y-80679642D02*
X134342857Y-81108214D01*
X134342857Y-81108214D02*
X134271429Y-81251071D01*
X134271429Y-81251071D02*
X134200000Y-81322500D01*
X134200000Y-81322500D02*
X134057143Y-81393928D01*
X134057143Y-81393928D02*
X133771429Y-81393928D01*
X133771429Y-81393928D02*
X133628571Y-81322500D01*
X134914286Y-81322500D02*
X135057143Y-81393928D01*
X135057143Y-81393928D02*
X135342857Y-81393928D01*
X135342857Y-81393928D02*
X135485714Y-81322500D01*
X135485714Y-81322500D02*
X135557143Y-81179642D01*
X135557143Y-81179642D02*
X135557143Y-81108214D01*
X135557143Y-81108214D02*
X135485714Y-80965357D01*
X135485714Y-80965357D02*
X135342857Y-80893928D01*
X135342857Y-80893928D02*
X135128572Y-80893928D01*
X135128572Y-80893928D02*
X134985714Y-80822500D01*
X134985714Y-80822500D02*
X134914286Y-80679642D01*
X134914286Y-80679642D02*
X134914286Y-80608214D01*
X134914286Y-80608214D02*
X134985714Y-80465357D01*
X134985714Y-80465357D02*
X135128572Y-80393928D01*
X135128572Y-80393928D02*
X135342857Y-80393928D01*
X135342857Y-80393928D02*
X135485714Y-80465357D01*
X136200000Y-81251071D02*
X136271429Y-81322500D01*
X136271429Y-81322500D02*
X136200000Y-81393928D01*
X136200000Y-81393928D02*
X136128572Y-81322500D01*
X136128572Y-81322500D02*
X136200000Y-81251071D01*
X136200000Y-81251071D02*
X136200000Y-81393928D01*
X136200000Y-80465357D02*
X136271429Y-80536785D01*
X136271429Y-80536785D02*
X136200000Y-80608214D01*
X136200000Y-80608214D02*
X136128572Y-80536785D01*
X136128572Y-80536785D02*
X136200000Y-80465357D01*
X136200000Y-80465357D02*
X136200000Y-80608214D01*
X137985715Y-79822500D02*
X136700001Y-81751071D01*
X139557144Y-79822500D02*
X138271430Y-81751071D01*
X140057144Y-81393928D02*
X140057144Y-80393928D01*
X140057144Y-80536785D02*
X140128573Y-80465357D01*
X140128573Y-80465357D02*
X140271430Y-80393928D01*
X140271430Y-80393928D02*
X140485716Y-80393928D01*
X140485716Y-80393928D02*
X140628573Y-80465357D01*
X140628573Y-80465357D02*
X140700002Y-80608214D01*
X140700002Y-80608214D02*
X140700002Y-81393928D01*
X140700002Y-80608214D02*
X140771430Y-80465357D01*
X140771430Y-80465357D02*
X140914287Y-80393928D01*
X140914287Y-80393928D02*
X141128573Y-80393928D01*
X141128573Y-80393928D02*
X141271430Y-80465357D01*
X141271430Y-80465357D02*
X141342859Y-80608214D01*
X141342859Y-80608214D02*
X141342859Y-81393928D01*
X142271430Y-81393928D02*
X142128573Y-81322500D01*
X142128573Y-81322500D02*
X142057144Y-81251071D01*
X142057144Y-81251071D02*
X141985716Y-81108214D01*
X141985716Y-81108214D02*
X141985716Y-80679642D01*
X141985716Y-80679642D02*
X142057144Y-80536785D01*
X142057144Y-80536785D02*
X142128573Y-80465357D01*
X142128573Y-80465357D02*
X142271430Y-80393928D01*
X142271430Y-80393928D02*
X142485716Y-80393928D01*
X142485716Y-80393928D02*
X142628573Y-80465357D01*
X142628573Y-80465357D02*
X142700002Y-80536785D01*
X142700002Y-80536785D02*
X142771430Y-80679642D01*
X142771430Y-80679642D02*
X142771430Y-81108214D01*
X142771430Y-81108214D02*
X142700002Y-81251071D01*
X142700002Y-81251071D02*
X142628573Y-81322500D01*
X142628573Y-81322500D02*
X142485716Y-81393928D01*
X142485716Y-81393928D02*
X142271430Y-81393928D01*
X144057145Y-81393928D02*
X144057145Y-79893928D01*
X144057145Y-81322500D02*
X143914287Y-81393928D01*
X143914287Y-81393928D02*
X143628573Y-81393928D01*
X143628573Y-81393928D02*
X143485716Y-81322500D01*
X143485716Y-81322500D02*
X143414287Y-81251071D01*
X143414287Y-81251071D02*
X143342859Y-81108214D01*
X143342859Y-81108214D02*
X143342859Y-80679642D01*
X143342859Y-80679642D02*
X143414287Y-80536785D01*
X143414287Y-80536785D02*
X143485716Y-80465357D01*
X143485716Y-80465357D02*
X143628573Y-80393928D01*
X143628573Y-80393928D02*
X143914287Y-80393928D01*
X143914287Y-80393928D02*
X144057145Y-80465357D01*
X145342859Y-81322500D02*
X145200002Y-81393928D01*
X145200002Y-81393928D02*
X144914288Y-81393928D01*
X144914288Y-81393928D02*
X144771430Y-81322500D01*
X144771430Y-81322500D02*
X144700002Y-81179642D01*
X144700002Y-81179642D02*
X144700002Y-80608214D01*
X144700002Y-80608214D02*
X144771430Y-80465357D01*
X144771430Y-80465357D02*
X144914288Y-80393928D01*
X144914288Y-80393928D02*
X145200002Y-80393928D01*
X145200002Y-80393928D02*
X145342859Y-80465357D01*
X145342859Y-80465357D02*
X145414288Y-80608214D01*
X145414288Y-80608214D02*
X145414288Y-80751071D01*
X145414288Y-80751071D02*
X144700002Y-80893928D01*
X146271430Y-81393928D02*
X146128573Y-81322500D01*
X146128573Y-81322500D02*
X146057144Y-81179642D01*
X146057144Y-81179642D02*
X146057144Y-79893928D01*
X146842858Y-81393928D02*
X146842858Y-79893928D01*
X147485716Y-81393928D02*
X147485716Y-80608214D01*
X147485716Y-80608214D02*
X147414287Y-80465357D01*
X147414287Y-80465357D02*
X147271430Y-80393928D01*
X147271430Y-80393928D02*
X147057144Y-80393928D01*
X147057144Y-80393928D02*
X146914287Y-80465357D01*
X146914287Y-80465357D02*
X146842858Y-80536785D01*
X148200001Y-81251071D02*
X148271430Y-81322500D01*
X148271430Y-81322500D02*
X148200001Y-81393928D01*
X148200001Y-81393928D02*
X148128573Y-81322500D01*
X148128573Y-81322500D02*
X148200001Y-81251071D01*
X148200001Y-81251071D02*
X148200001Y-81393928D01*
X149557145Y-81322500D02*
X149414287Y-81393928D01*
X149414287Y-81393928D02*
X149128573Y-81393928D01*
X149128573Y-81393928D02*
X148985716Y-81322500D01*
X148985716Y-81322500D02*
X148914287Y-81251071D01*
X148914287Y-81251071D02*
X148842859Y-81108214D01*
X148842859Y-81108214D02*
X148842859Y-80679642D01*
X148842859Y-80679642D02*
X148914287Y-80536785D01*
X148914287Y-80536785D02*
X148985716Y-80465357D01*
X148985716Y-80465357D02*
X149128573Y-80393928D01*
X149128573Y-80393928D02*
X149414287Y-80393928D01*
X149414287Y-80393928D02*
X149557145Y-80465357D01*
X150414287Y-81393928D02*
X150271430Y-81322500D01*
X150271430Y-81322500D02*
X150200001Y-81179642D01*
X150200001Y-81179642D02*
X150200001Y-79893928D01*
X151628573Y-80393928D02*
X151628573Y-81393928D01*
X150985715Y-80393928D02*
X150985715Y-81179642D01*
X150985715Y-81179642D02*
X151057144Y-81322500D01*
X151057144Y-81322500D02*
X151200001Y-81393928D01*
X151200001Y-81393928D02*
X151414287Y-81393928D01*
X151414287Y-81393928D02*
X151557144Y-81322500D01*
X151557144Y-81322500D02*
X151628573Y-81251071D01*
X152342858Y-81393928D02*
X152342858Y-79893928D01*
X152342858Y-80465357D02*
X152485716Y-80393928D01*
X152485716Y-80393928D02*
X152771430Y-80393928D01*
X152771430Y-80393928D02*
X152914287Y-80465357D01*
X152914287Y-80465357D02*
X152985716Y-80536785D01*
X152985716Y-80536785D02*
X153057144Y-80679642D01*
X153057144Y-80679642D02*
X153057144Y-81108214D01*
X153057144Y-81108214D02*
X152985716Y-81251071D01*
X152985716Y-81251071D02*
X152914287Y-81322500D01*
X152914287Y-81322500D02*
X152771430Y-81393928D01*
X152771430Y-81393928D02*
X152485716Y-81393928D01*
X152485716Y-81393928D02*
X152342858Y-81322500D01*
X173714285Y-57493928D02*
X173214285Y-56779642D01*
X172857142Y-57493928D02*
X172857142Y-55993928D01*
X172857142Y-55993928D02*
X173428571Y-55993928D01*
X173428571Y-55993928D02*
X173571428Y-56065357D01*
X173571428Y-56065357D02*
X173642857Y-56136785D01*
X173642857Y-56136785D02*
X173714285Y-56279642D01*
X173714285Y-56279642D02*
X173714285Y-56493928D01*
X173714285Y-56493928D02*
X173642857Y-56636785D01*
X173642857Y-56636785D02*
X173571428Y-56708214D01*
X173571428Y-56708214D02*
X173428571Y-56779642D01*
X173428571Y-56779642D02*
X172857142Y-56779642D01*
X174571428Y-57493928D02*
X174428571Y-57422500D01*
X174428571Y-57422500D02*
X174357142Y-57351071D01*
X174357142Y-57351071D02*
X174285714Y-57208214D01*
X174285714Y-57208214D02*
X174285714Y-56779642D01*
X174285714Y-56779642D02*
X174357142Y-56636785D01*
X174357142Y-56636785D02*
X174428571Y-56565357D01*
X174428571Y-56565357D02*
X174571428Y-56493928D01*
X174571428Y-56493928D02*
X174785714Y-56493928D01*
X174785714Y-56493928D02*
X174928571Y-56565357D01*
X174928571Y-56565357D02*
X175000000Y-56636785D01*
X175000000Y-56636785D02*
X175071428Y-56779642D01*
X175071428Y-56779642D02*
X175071428Y-57208214D01*
X175071428Y-57208214D02*
X175000000Y-57351071D01*
X175000000Y-57351071D02*
X174928571Y-57422500D01*
X174928571Y-57422500D02*
X174785714Y-57493928D01*
X174785714Y-57493928D02*
X174571428Y-57493928D01*
X175571428Y-56493928D02*
X175857143Y-57493928D01*
X175857143Y-57493928D02*
X176142857Y-56779642D01*
X176142857Y-56779642D02*
X176428571Y-57493928D01*
X176428571Y-57493928D02*
X176714285Y-56493928D01*
X177214286Y-57422500D02*
X177357143Y-57493928D01*
X177357143Y-57493928D02*
X177642857Y-57493928D01*
X177642857Y-57493928D02*
X177785714Y-57422500D01*
X177785714Y-57422500D02*
X177857143Y-57279642D01*
X177857143Y-57279642D02*
X177857143Y-57208214D01*
X177857143Y-57208214D02*
X177785714Y-57065357D01*
X177785714Y-57065357D02*
X177642857Y-56993928D01*
X177642857Y-56993928D02*
X177428572Y-56993928D01*
X177428572Y-56993928D02*
X177285714Y-56922500D01*
X177285714Y-56922500D02*
X177214286Y-56779642D01*
X177214286Y-56779642D02*
X177214286Y-56708214D01*
X177214286Y-56708214D02*
X177285714Y-56565357D01*
X177285714Y-56565357D02*
X177428572Y-56493928D01*
X177428572Y-56493928D02*
X177642857Y-56493928D01*
X177642857Y-56493928D02*
X177785714Y-56565357D01*
D10*
X191550952Y-70952619D02*
X191074762Y-70952619D01*
X191074762Y-70952619D02*
X191074762Y-69952619D01*
X191884286Y-70428809D02*
X192217619Y-70428809D01*
X192360476Y-70952619D02*
X191884286Y-70952619D01*
X191884286Y-70952619D02*
X191884286Y-69952619D01*
X191884286Y-69952619D02*
X192360476Y-69952619D01*
X192789048Y-70952619D02*
X192789048Y-69952619D01*
X192789048Y-69952619D02*
X193027143Y-69952619D01*
X193027143Y-69952619D02*
X193170000Y-70000238D01*
X193170000Y-70000238D02*
X193265238Y-70095476D01*
X193265238Y-70095476D02*
X193312857Y-70190714D01*
X193312857Y-70190714D02*
X193360476Y-70381190D01*
X193360476Y-70381190D02*
X193360476Y-70524047D01*
X193360476Y-70524047D02*
X193312857Y-70714523D01*
X193312857Y-70714523D02*
X193265238Y-70809761D01*
X193265238Y-70809761D02*
X193170000Y-70905000D01*
X193170000Y-70905000D02*
X193027143Y-70952619D01*
X193027143Y-70952619D02*
X192789048Y-70952619D01*
X194312857Y-70952619D02*
X193741429Y-70952619D01*
X194027143Y-70952619D02*
X194027143Y-69952619D01*
X194027143Y-69952619D02*
X193931905Y-70095476D01*
X193931905Y-70095476D02*
X193836667Y-70190714D01*
X193836667Y-70190714D02*
X193741429Y-70238333D01*
X191500952Y-73502619D02*
X191024762Y-73502619D01*
X191024762Y-73502619D02*
X191024762Y-72502619D01*
X191834286Y-72978809D02*
X192167619Y-72978809D01*
X192310476Y-73502619D02*
X191834286Y-73502619D01*
X191834286Y-73502619D02*
X191834286Y-72502619D01*
X191834286Y-72502619D02*
X192310476Y-72502619D01*
X192739048Y-73502619D02*
X192739048Y-72502619D01*
X192739048Y-72502619D02*
X192977143Y-72502619D01*
X192977143Y-72502619D02*
X193120000Y-72550238D01*
X193120000Y-72550238D02*
X193215238Y-72645476D01*
X193215238Y-72645476D02*
X193262857Y-72740714D01*
X193262857Y-72740714D02*
X193310476Y-72931190D01*
X193310476Y-72931190D02*
X193310476Y-73074047D01*
X193310476Y-73074047D02*
X193262857Y-73264523D01*
X193262857Y-73264523D02*
X193215238Y-73359761D01*
X193215238Y-73359761D02*
X193120000Y-73455000D01*
X193120000Y-73455000D02*
X192977143Y-73502619D01*
X192977143Y-73502619D02*
X192739048Y-73502619D01*
X193691429Y-72597857D02*
X193739048Y-72550238D01*
X193739048Y-72550238D02*
X193834286Y-72502619D01*
X193834286Y-72502619D02*
X194072381Y-72502619D01*
X194072381Y-72502619D02*
X194167619Y-72550238D01*
X194167619Y-72550238D02*
X194215238Y-72597857D01*
X194215238Y-72597857D02*
X194262857Y-72693095D01*
X194262857Y-72693095D02*
X194262857Y-72788333D01*
X194262857Y-72788333D02*
X194215238Y-72931190D01*
X194215238Y-72931190D02*
X193643810Y-73502619D01*
X193643810Y-73502619D02*
X194262857Y-73502619D01*
X191193810Y-75102619D02*
X191812857Y-75102619D01*
X191812857Y-75102619D02*
X191479524Y-75483571D01*
X191479524Y-75483571D02*
X191622381Y-75483571D01*
X191622381Y-75483571D02*
X191717619Y-75531190D01*
X191717619Y-75531190D02*
X191765238Y-75578809D01*
X191765238Y-75578809D02*
X191812857Y-75674047D01*
X191812857Y-75674047D02*
X191812857Y-75912142D01*
X191812857Y-75912142D02*
X191765238Y-76007380D01*
X191765238Y-76007380D02*
X191717619Y-76055000D01*
X191717619Y-76055000D02*
X191622381Y-76102619D01*
X191622381Y-76102619D02*
X191336667Y-76102619D01*
X191336667Y-76102619D02*
X191241429Y-76055000D01*
X191241429Y-76055000D02*
X191193810Y-76007380D01*
X192241429Y-76007380D02*
X192289048Y-76055000D01*
X192289048Y-76055000D02*
X192241429Y-76102619D01*
X192241429Y-76102619D02*
X192193810Y-76055000D01*
X192193810Y-76055000D02*
X192241429Y-76007380D01*
X192241429Y-76007380D02*
X192241429Y-76102619D01*
X192622381Y-75102619D02*
X193241428Y-75102619D01*
X193241428Y-75102619D02*
X192908095Y-75483571D01*
X192908095Y-75483571D02*
X193050952Y-75483571D01*
X193050952Y-75483571D02*
X193146190Y-75531190D01*
X193146190Y-75531190D02*
X193193809Y-75578809D01*
X193193809Y-75578809D02*
X193241428Y-75674047D01*
X193241428Y-75674047D02*
X193241428Y-75912142D01*
X193241428Y-75912142D02*
X193193809Y-76007380D01*
X193193809Y-76007380D02*
X193146190Y-76055000D01*
X193146190Y-76055000D02*
X193050952Y-76102619D01*
X193050952Y-76102619D02*
X192765238Y-76102619D01*
X192765238Y-76102619D02*
X192670000Y-76055000D01*
X192670000Y-76055000D02*
X192622381Y-76007380D01*
X193527143Y-75102619D02*
X193860476Y-76102619D01*
X193860476Y-76102619D02*
X194193809Y-75102619D01*
X192008095Y-77700238D02*
X191912857Y-77652619D01*
X191912857Y-77652619D02*
X191770000Y-77652619D01*
X191770000Y-77652619D02*
X191627143Y-77700238D01*
X191627143Y-77700238D02*
X191531905Y-77795476D01*
X191531905Y-77795476D02*
X191484286Y-77890714D01*
X191484286Y-77890714D02*
X191436667Y-78081190D01*
X191436667Y-78081190D02*
X191436667Y-78224047D01*
X191436667Y-78224047D02*
X191484286Y-78414523D01*
X191484286Y-78414523D02*
X191531905Y-78509761D01*
X191531905Y-78509761D02*
X191627143Y-78605000D01*
X191627143Y-78605000D02*
X191770000Y-78652619D01*
X191770000Y-78652619D02*
X191865238Y-78652619D01*
X191865238Y-78652619D02*
X192008095Y-78605000D01*
X192008095Y-78605000D02*
X192055714Y-78557380D01*
X192055714Y-78557380D02*
X192055714Y-78224047D01*
X192055714Y-78224047D02*
X191865238Y-78224047D01*
X192484286Y-78652619D02*
X192484286Y-77652619D01*
X192484286Y-77652619D02*
X193055714Y-78652619D01*
X193055714Y-78652619D02*
X193055714Y-77652619D01*
X193531905Y-78652619D02*
X193531905Y-77652619D01*
X193531905Y-77652619D02*
X193770000Y-77652619D01*
X193770000Y-77652619D02*
X193912857Y-77700238D01*
X193912857Y-77700238D02*
X194008095Y-77795476D01*
X194008095Y-77795476D02*
X194055714Y-77890714D01*
X194055714Y-77890714D02*
X194103333Y-78081190D01*
X194103333Y-78081190D02*
X194103333Y-78224047D01*
X194103333Y-78224047D02*
X194055714Y-78414523D01*
X194055714Y-78414523D02*
X194008095Y-78509761D01*
X194008095Y-78509761D02*
X193912857Y-78605000D01*
X193912857Y-78605000D02*
X193770000Y-78652619D01*
X193770000Y-78652619D02*
X193531905Y-78652619D01*
X98204761Y-70238809D02*
X98347618Y-70286428D01*
X98347618Y-70286428D02*
X98395237Y-70334047D01*
X98395237Y-70334047D02*
X98442856Y-70429285D01*
X98442856Y-70429285D02*
X98442856Y-70572142D01*
X98442856Y-70572142D02*
X98395237Y-70667380D01*
X98395237Y-70667380D02*
X98347618Y-70715000D01*
X98347618Y-70715000D02*
X98252380Y-70762619D01*
X98252380Y-70762619D02*
X97871428Y-70762619D01*
X97871428Y-70762619D02*
X97871428Y-69762619D01*
X97871428Y-69762619D02*
X98204761Y-69762619D01*
X98204761Y-69762619D02*
X98299999Y-69810238D01*
X98299999Y-69810238D02*
X98347618Y-69857857D01*
X98347618Y-69857857D02*
X98395237Y-69953095D01*
X98395237Y-69953095D02*
X98395237Y-70048333D01*
X98395237Y-70048333D02*
X98347618Y-70143571D01*
X98347618Y-70143571D02*
X98299999Y-70191190D01*
X98299999Y-70191190D02*
X98204761Y-70238809D01*
X98204761Y-70238809D02*
X97871428Y-70238809D01*
X99014285Y-70762619D02*
X98919047Y-70715000D01*
X98919047Y-70715000D02*
X98871428Y-70667380D01*
X98871428Y-70667380D02*
X98823809Y-70572142D01*
X98823809Y-70572142D02*
X98823809Y-70286428D01*
X98823809Y-70286428D02*
X98871428Y-70191190D01*
X98871428Y-70191190D02*
X98919047Y-70143571D01*
X98919047Y-70143571D02*
X99014285Y-70095952D01*
X99014285Y-70095952D02*
X99157142Y-70095952D01*
X99157142Y-70095952D02*
X99252380Y-70143571D01*
X99252380Y-70143571D02*
X99299999Y-70191190D01*
X99299999Y-70191190D02*
X99347618Y-70286428D01*
X99347618Y-70286428D02*
X99347618Y-70572142D01*
X99347618Y-70572142D02*
X99299999Y-70667380D01*
X99299999Y-70667380D02*
X99252380Y-70715000D01*
X99252380Y-70715000D02*
X99157142Y-70762619D01*
X99157142Y-70762619D02*
X99014285Y-70762619D01*
X99919047Y-70762619D02*
X99823809Y-70715000D01*
X99823809Y-70715000D02*
X99776190Y-70667380D01*
X99776190Y-70667380D02*
X99728571Y-70572142D01*
X99728571Y-70572142D02*
X99728571Y-70286428D01*
X99728571Y-70286428D02*
X99776190Y-70191190D01*
X99776190Y-70191190D02*
X99823809Y-70143571D01*
X99823809Y-70143571D02*
X99919047Y-70095952D01*
X99919047Y-70095952D02*
X100061904Y-70095952D01*
X100061904Y-70095952D02*
X100157142Y-70143571D01*
X100157142Y-70143571D02*
X100204761Y-70191190D01*
X100204761Y-70191190D02*
X100252380Y-70286428D01*
X100252380Y-70286428D02*
X100252380Y-70572142D01*
X100252380Y-70572142D02*
X100204761Y-70667380D01*
X100204761Y-70667380D02*
X100157142Y-70715000D01*
X100157142Y-70715000D02*
X100061904Y-70762619D01*
X100061904Y-70762619D02*
X99919047Y-70762619D01*
X100538095Y-70095952D02*
X100919047Y-70095952D01*
X100680952Y-69762619D02*
X100680952Y-70619761D01*
X100680952Y-70619761D02*
X100728571Y-70715000D01*
X100728571Y-70715000D02*
X100823809Y-70762619D01*
X100823809Y-70762619D02*
X100919047Y-70762619D01*
X101442857Y-69762619D02*
X101538095Y-69762619D01*
X101538095Y-69762619D02*
X101633333Y-69810238D01*
X101633333Y-69810238D02*
X101680952Y-69857857D01*
X101680952Y-69857857D02*
X101728571Y-69953095D01*
X101728571Y-69953095D02*
X101776190Y-70143571D01*
X101776190Y-70143571D02*
X101776190Y-70381666D01*
X101776190Y-70381666D02*
X101728571Y-70572142D01*
X101728571Y-70572142D02*
X101680952Y-70667380D01*
X101680952Y-70667380D02*
X101633333Y-70715000D01*
X101633333Y-70715000D02*
X101538095Y-70762619D01*
X101538095Y-70762619D02*
X101442857Y-70762619D01*
X101442857Y-70762619D02*
X101347619Y-70715000D01*
X101347619Y-70715000D02*
X101300000Y-70667380D01*
X101300000Y-70667380D02*
X101252381Y-70572142D01*
X101252381Y-70572142D02*
X101204762Y-70381666D01*
X101204762Y-70381666D02*
X101204762Y-70143571D01*
X101204762Y-70143571D02*
X101252381Y-69953095D01*
X101252381Y-69953095D02*
X101300000Y-69857857D01*
X101300000Y-69857857D02*
X101347619Y-69810238D01*
X101347619Y-69810238D02*
X101442857Y-69762619D01*
D11*
X207298571Y-65033928D02*
X206584285Y-65033928D01*
X206584285Y-65033928D02*
X206584285Y-63533928D01*
X207798571Y-64248214D02*
X208298571Y-64248214D01*
X208512857Y-65033928D02*
X207798571Y-65033928D01*
X207798571Y-65033928D02*
X207798571Y-63533928D01*
X207798571Y-63533928D02*
X208512857Y-63533928D01*
X209155714Y-65033928D02*
X209155714Y-63533928D01*
X209155714Y-63533928D02*
X209512857Y-63533928D01*
X209512857Y-63533928D02*
X209727143Y-63605357D01*
X209727143Y-63605357D02*
X209870000Y-63748214D01*
X209870000Y-63748214D02*
X209941429Y-63891071D01*
X209941429Y-63891071D02*
X210012857Y-64176785D01*
X210012857Y-64176785D02*
X210012857Y-64391071D01*
X210012857Y-64391071D02*
X209941429Y-64676785D01*
X209941429Y-64676785D02*
X209870000Y-64819642D01*
X209870000Y-64819642D02*
X209727143Y-64962500D01*
X209727143Y-64962500D02*
X209512857Y-65033928D01*
X209512857Y-65033928D02*
X209155714Y-65033928D01*
X210584286Y-64962500D02*
X210727143Y-65033928D01*
X210727143Y-65033928D02*
X211012857Y-65033928D01*
X211012857Y-65033928D02*
X211155714Y-64962500D01*
X211155714Y-64962500D02*
X211227143Y-64819642D01*
X211227143Y-64819642D02*
X211227143Y-64748214D01*
X211227143Y-64748214D02*
X211155714Y-64605357D01*
X211155714Y-64605357D02*
X211012857Y-64533928D01*
X211012857Y-64533928D02*
X210798572Y-64533928D01*
X210798572Y-64533928D02*
X210655714Y-64462500D01*
X210655714Y-64462500D02*
X210584286Y-64319642D01*
X210584286Y-64319642D02*
X210584286Y-64248214D01*
X210584286Y-64248214D02*
X210655714Y-64105357D01*
X210655714Y-64105357D02*
X210798572Y-64033928D01*
X210798572Y-64033928D02*
X211012857Y-64033928D01*
X211012857Y-64033928D02*
X211155714Y-64105357D01*
D10*
X87504761Y-70238809D02*
X87647618Y-70286428D01*
X87647618Y-70286428D02*
X87695237Y-70334047D01*
X87695237Y-70334047D02*
X87742856Y-70429285D01*
X87742856Y-70429285D02*
X87742856Y-70572142D01*
X87742856Y-70572142D02*
X87695237Y-70667380D01*
X87695237Y-70667380D02*
X87647618Y-70715000D01*
X87647618Y-70715000D02*
X87552380Y-70762619D01*
X87552380Y-70762619D02*
X87171428Y-70762619D01*
X87171428Y-70762619D02*
X87171428Y-69762619D01*
X87171428Y-69762619D02*
X87504761Y-69762619D01*
X87504761Y-69762619D02*
X87599999Y-69810238D01*
X87599999Y-69810238D02*
X87647618Y-69857857D01*
X87647618Y-69857857D02*
X87695237Y-69953095D01*
X87695237Y-69953095D02*
X87695237Y-70048333D01*
X87695237Y-70048333D02*
X87647618Y-70143571D01*
X87647618Y-70143571D02*
X87599999Y-70191190D01*
X87599999Y-70191190D02*
X87504761Y-70238809D01*
X87504761Y-70238809D02*
X87171428Y-70238809D01*
X88314285Y-70762619D02*
X88219047Y-70715000D01*
X88219047Y-70715000D02*
X88171428Y-70667380D01*
X88171428Y-70667380D02*
X88123809Y-70572142D01*
X88123809Y-70572142D02*
X88123809Y-70286428D01*
X88123809Y-70286428D02*
X88171428Y-70191190D01*
X88171428Y-70191190D02*
X88219047Y-70143571D01*
X88219047Y-70143571D02*
X88314285Y-70095952D01*
X88314285Y-70095952D02*
X88457142Y-70095952D01*
X88457142Y-70095952D02*
X88552380Y-70143571D01*
X88552380Y-70143571D02*
X88599999Y-70191190D01*
X88599999Y-70191190D02*
X88647618Y-70286428D01*
X88647618Y-70286428D02*
X88647618Y-70572142D01*
X88647618Y-70572142D02*
X88599999Y-70667380D01*
X88599999Y-70667380D02*
X88552380Y-70715000D01*
X88552380Y-70715000D02*
X88457142Y-70762619D01*
X88457142Y-70762619D02*
X88314285Y-70762619D01*
X89219047Y-70762619D02*
X89123809Y-70715000D01*
X89123809Y-70715000D02*
X89076190Y-70667380D01*
X89076190Y-70667380D02*
X89028571Y-70572142D01*
X89028571Y-70572142D02*
X89028571Y-70286428D01*
X89028571Y-70286428D02*
X89076190Y-70191190D01*
X89076190Y-70191190D02*
X89123809Y-70143571D01*
X89123809Y-70143571D02*
X89219047Y-70095952D01*
X89219047Y-70095952D02*
X89361904Y-70095952D01*
X89361904Y-70095952D02*
X89457142Y-70143571D01*
X89457142Y-70143571D02*
X89504761Y-70191190D01*
X89504761Y-70191190D02*
X89552380Y-70286428D01*
X89552380Y-70286428D02*
X89552380Y-70572142D01*
X89552380Y-70572142D02*
X89504761Y-70667380D01*
X89504761Y-70667380D02*
X89457142Y-70715000D01*
X89457142Y-70715000D02*
X89361904Y-70762619D01*
X89361904Y-70762619D02*
X89219047Y-70762619D01*
X89838095Y-70095952D02*
X90219047Y-70095952D01*
X89980952Y-69762619D02*
X89980952Y-70619761D01*
X89980952Y-70619761D02*
X90028571Y-70715000D01*
X90028571Y-70715000D02*
X90123809Y-70762619D01*
X90123809Y-70762619D02*
X90219047Y-70762619D01*
X91076190Y-70762619D02*
X90504762Y-70762619D01*
X90790476Y-70762619D02*
X90790476Y-69762619D01*
X90790476Y-69762619D02*
X90695238Y-69905476D01*
X90695238Y-69905476D02*
X90600000Y-70000714D01*
X90600000Y-70000714D02*
X90504762Y-70048333D01*
D11*
X107214285Y-80943928D02*
X106714285Y-80229642D01*
X106357142Y-80943928D02*
X106357142Y-79443928D01*
X106357142Y-79443928D02*
X106928571Y-79443928D01*
X106928571Y-79443928D02*
X107071428Y-79515357D01*
X107071428Y-79515357D02*
X107142857Y-79586785D01*
X107142857Y-79586785D02*
X107214285Y-79729642D01*
X107214285Y-79729642D02*
X107214285Y-79943928D01*
X107214285Y-79943928D02*
X107142857Y-80086785D01*
X107142857Y-80086785D02*
X107071428Y-80158214D01*
X107071428Y-80158214D02*
X106928571Y-80229642D01*
X106928571Y-80229642D02*
X106357142Y-80229642D01*
X108428571Y-80872500D02*
X108285714Y-80943928D01*
X108285714Y-80943928D02*
X108000000Y-80943928D01*
X108000000Y-80943928D02*
X107857142Y-80872500D01*
X107857142Y-80872500D02*
X107785714Y-80729642D01*
X107785714Y-80729642D02*
X107785714Y-80158214D01*
X107785714Y-80158214D02*
X107857142Y-80015357D01*
X107857142Y-80015357D02*
X108000000Y-79943928D01*
X108000000Y-79943928D02*
X108285714Y-79943928D01*
X108285714Y-79943928D02*
X108428571Y-80015357D01*
X108428571Y-80015357D02*
X108500000Y-80158214D01*
X108500000Y-80158214D02*
X108500000Y-80301071D01*
X108500000Y-80301071D02*
X107785714Y-80443928D01*
X109071428Y-80872500D02*
X109214285Y-80943928D01*
X109214285Y-80943928D02*
X109499999Y-80943928D01*
X109499999Y-80943928D02*
X109642856Y-80872500D01*
X109642856Y-80872500D02*
X109714285Y-80729642D01*
X109714285Y-80729642D02*
X109714285Y-80658214D01*
X109714285Y-80658214D02*
X109642856Y-80515357D01*
X109642856Y-80515357D02*
X109499999Y-80443928D01*
X109499999Y-80443928D02*
X109285714Y-80443928D01*
X109285714Y-80443928D02*
X109142856Y-80372500D01*
X109142856Y-80372500D02*
X109071428Y-80229642D01*
X109071428Y-80229642D02*
X109071428Y-80158214D01*
X109071428Y-80158214D02*
X109142856Y-80015357D01*
X109142856Y-80015357D02*
X109285714Y-79943928D01*
X109285714Y-79943928D02*
X109499999Y-79943928D01*
X109499999Y-79943928D02*
X109642856Y-80015357D01*
X110928571Y-80872500D02*
X110785714Y-80943928D01*
X110785714Y-80943928D02*
X110500000Y-80943928D01*
X110500000Y-80943928D02*
X110357142Y-80872500D01*
X110357142Y-80872500D02*
X110285714Y-80729642D01*
X110285714Y-80729642D02*
X110285714Y-80158214D01*
X110285714Y-80158214D02*
X110357142Y-80015357D01*
X110357142Y-80015357D02*
X110500000Y-79943928D01*
X110500000Y-79943928D02*
X110785714Y-79943928D01*
X110785714Y-79943928D02*
X110928571Y-80015357D01*
X110928571Y-80015357D02*
X111000000Y-80158214D01*
X111000000Y-80158214D02*
X111000000Y-80301071D01*
X111000000Y-80301071D02*
X110285714Y-80443928D01*
X111428571Y-79943928D02*
X111999999Y-79943928D01*
X111642856Y-79443928D02*
X111642856Y-80729642D01*
X111642856Y-80729642D02*
X111714285Y-80872500D01*
X111714285Y-80872500D02*
X111857142Y-80943928D01*
X111857142Y-80943928D02*
X111999999Y-80943928D01*
X116314285Y-55651071D02*
X116242857Y-55722500D01*
X116242857Y-55722500D02*
X116028571Y-55793928D01*
X116028571Y-55793928D02*
X115885714Y-55793928D01*
X115885714Y-55793928D02*
X115671428Y-55722500D01*
X115671428Y-55722500D02*
X115528571Y-55579642D01*
X115528571Y-55579642D02*
X115457142Y-55436785D01*
X115457142Y-55436785D02*
X115385714Y-55151071D01*
X115385714Y-55151071D02*
X115385714Y-54936785D01*
X115385714Y-54936785D02*
X115457142Y-54651071D01*
X115457142Y-54651071D02*
X115528571Y-54508214D01*
X115528571Y-54508214D02*
X115671428Y-54365357D01*
X115671428Y-54365357D02*
X115885714Y-54293928D01*
X115885714Y-54293928D02*
X116028571Y-54293928D01*
X116028571Y-54293928D02*
X116242857Y-54365357D01*
X116242857Y-54365357D02*
X116314285Y-54436785D01*
X117171428Y-55793928D02*
X117028571Y-55722500D01*
X117028571Y-55722500D02*
X116957142Y-55651071D01*
X116957142Y-55651071D02*
X116885714Y-55508214D01*
X116885714Y-55508214D02*
X116885714Y-55079642D01*
X116885714Y-55079642D02*
X116957142Y-54936785D01*
X116957142Y-54936785D02*
X117028571Y-54865357D01*
X117028571Y-54865357D02*
X117171428Y-54793928D01*
X117171428Y-54793928D02*
X117385714Y-54793928D01*
X117385714Y-54793928D02*
X117528571Y-54865357D01*
X117528571Y-54865357D02*
X117600000Y-54936785D01*
X117600000Y-54936785D02*
X117671428Y-55079642D01*
X117671428Y-55079642D02*
X117671428Y-55508214D01*
X117671428Y-55508214D02*
X117600000Y-55651071D01*
X117600000Y-55651071D02*
X117528571Y-55722500D01*
X117528571Y-55722500D02*
X117385714Y-55793928D01*
X117385714Y-55793928D02*
X117171428Y-55793928D01*
X118528571Y-55793928D02*
X118385714Y-55722500D01*
X118385714Y-55722500D02*
X118314285Y-55579642D01*
X118314285Y-55579642D02*
X118314285Y-54293928D01*
X119742857Y-54793928D02*
X119742857Y-55793928D01*
X119099999Y-54793928D02*
X119099999Y-55579642D01*
X119099999Y-55579642D02*
X119171428Y-55722500D01*
X119171428Y-55722500D02*
X119314285Y-55793928D01*
X119314285Y-55793928D02*
X119528571Y-55793928D01*
X119528571Y-55793928D02*
X119671428Y-55722500D01*
X119671428Y-55722500D02*
X119742857Y-55651071D01*
X120457142Y-55793928D02*
X120457142Y-54793928D01*
X120457142Y-54936785D02*
X120528571Y-54865357D01*
X120528571Y-54865357D02*
X120671428Y-54793928D01*
X120671428Y-54793928D02*
X120885714Y-54793928D01*
X120885714Y-54793928D02*
X121028571Y-54865357D01*
X121028571Y-54865357D02*
X121100000Y-55008214D01*
X121100000Y-55008214D02*
X121100000Y-55793928D01*
X121100000Y-55008214D02*
X121171428Y-54865357D01*
X121171428Y-54865357D02*
X121314285Y-54793928D01*
X121314285Y-54793928D02*
X121528571Y-54793928D01*
X121528571Y-54793928D02*
X121671428Y-54865357D01*
X121671428Y-54865357D02*
X121742857Y-55008214D01*
X121742857Y-55008214D02*
X121742857Y-55793928D01*
X122457142Y-54793928D02*
X122457142Y-55793928D01*
X122457142Y-54936785D02*
X122528571Y-54865357D01*
X122528571Y-54865357D02*
X122671428Y-54793928D01*
X122671428Y-54793928D02*
X122885714Y-54793928D01*
X122885714Y-54793928D02*
X123028571Y-54865357D01*
X123028571Y-54865357D02*
X123100000Y-55008214D01*
X123100000Y-55008214D02*
X123100000Y-55793928D01*
X123742857Y-55722500D02*
X123885714Y-55793928D01*
X123885714Y-55793928D02*
X124171428Y-55793928D01*
X124171428Y-55793928D02*
X124314285Y-55722500D01*
X124314285Y-55722500D02*
X124385714Y-55579642D01*
X124385714Y-55579642D02*
X124385714Y-55508214D01*
X124385714Y-55508214D02*
X124314285Y-55365357D01*
X124314285Y-55365357D02*
X124171428Y-55293928D01*
X124171428Y-55293928D02*
X123957143Y-55293928D01*
X123957143Y-55293928D02*
X123814285Y-55222500D01*
X123814285Y-55222500D02*
X123742857Y-55079642D01*
X123742857Y-55079642D02*
X123742857Y-55008214D01*
X123742857Y-55008214D02*
X123814285Y-54865357D01*
X123814285Y-54865357D02*
X123957143Y-54793928D01*
X123957143Y-54793928D02*
X124171428Y-54793928D01*
X124171428Y-54793928D02*
X124314285Y-54865357D01*
D10*
X78379523Y-54902619D02*
X77903333Y-54902619D01*
X77903333Y-54902619D02*
X77855714Y-55378809D01*
X77855714Y-55378809D02*
X77903333Y-55331190D01*
X77903333Y-55331190D02*
X77998571Y-55283571D01*
X77998571Y-55283571D02*
X78236666Y-55283571D01*
X78236666Y-55283571D02*
X78331904Y-55331190D01*
X78331904Y-55331190D02*
X78379523Y-55378809D01*
X78379523Y-55378809D02*
X78427142Y-55474047D01*
X78427142Y-55474047D02*
X78427142Y-55712142D01*
X78427142Y-55712142D02*
X78379523Y-55807380D01*
X78379523Y-55807380D02*
X78331904Y-55855000D01*
X78331904Y-55855000D02*
X78236666Y-55902619D01*
X78236666Y-55902619D02*
X77998571Y-55902619D01*
X77998571Y-55902619D02*
X77903333Y-55855000D01*
X77903333Y-55855000D02*
X77855714Y-55807380D01*
X78712857Y-54902619D02*
X79046190Y-55902619D01*
X79046190Y-55902619D02*
X79379523Y-54902619D01*
X191550952Y-68402619D02*
X191074762Y-68402619D01*
X191074762Y-68402619D02*
X191074762Y-67402619D01*
X191884286Y-67878809D02*
X192217619Y-67878809D01*
X192360476Y-68402619D02*
X191884286Y-68402619D01*
X191884286Y-68402619D02*
X191884286Y-67402619D01*
X191884286Y-67402619D02*
X192360476Y-67402619D01*
X192789048Y-68402619D02*
X192789048Y-67402619D01*
X192789048Y-67402619D02*
X193027143Y-67402619D01*
X193027143Y-67402619D02*
X193170000Y-67450238D01*
X193170000Y-67450238D02*
X193265238Y-67545476D01*
X193265238Y-67545476D02*
X193312857Y-67640714D01*
X193312857Y-67640714D02*
X193360476Y-67831190D01*
X193360476Y-67831190D02*
X193360476Y-67974047D01*
X193360476Y-67974047D02*
X193312857Y-68164523D01*
X193312857Y-68164523D02*
X193265238Y-68259761D01*
X193265238Y-68259761D02*
X193170000Y-68355000D01*
X193170000Y-68355000D02*
X193027143Y-68402619D01*
X193027143Y-68402619D02*
X192789048Y-68402619D01*
X193979524Y-67402619D02*
X194074762Y-67402619D01*
X194074762Y-67402619D02*
X194170000Y-67450238D01*
X194170000Y-67450238D02*
X194217619Y-67497857D01*
X194217619Y-67497857D02*
X194265238Y-67593095D01*
X194265238Y-67593095D02*
X194312857Y-67783571D01*
X194312857Y-67783571D02*
X194312857Y-68021666D01*
X194312857Y-68021666D02*
X194265238Y-68212142D01*
X194265238Y-68212142D02*
X194217619Y-68307380D01*
X194217619Y-68307380D02*
X194170000Y-68355000D01*
X194170000Y-68355000D02*
X194074762Y-68402619D01*
X194074762Y-68402619D02*
X193979524Y-68402619D01*
X193979524Y-68402619D02*
X193884286Y-68355000D01*
X193884286Y-68355000D02*
X193836667Y-68307380D01*
X193836667Y-68307380D02*
X193789048Y-68212142D01*
X193789048Y-68212142D02*
X193741429Y-68021666D01*
X193741429Y-68021666D02*
X193741429Y-67783571D01*
X193741429Y-67783571D02*
X193789048Y-67593095D01*
X193789048Y-67593095D02*
X193836667Y-67497857D01*
X193836667Y-67497857D02*
X193884286Y-67450238D01*
X193884286Y-67450238D02*
X193979524Y-67402619D01*
X196409523Y-81217380D02*
X196361904Y-81265000D01*
X196361904Y-81265000D02*
X196219047Y-81312619D01*
X196219047Y-81312619D02*
X196123809Y-81312619D01*
X196123809Y-81312619D02*
X195980952Y-81265000D01*
X195980952Y-81265000D02*
X195885714Y-81169761D01*
X195885714Y-81169761D02*
X195838095Y-81074523D01*
X195838095Y-81074523D02*
X195790476Y-80884047D01*
X195790476Y-80884047D02*
X195790476Y-80741190D01*
X195790476Y-80741190D02*
X195838095Y-80550714D01*
X195838095Y-80550714D02*
X195885714Y-80455476D01*
X195885714Y-80455476D02*
X195980952Y-80360238D01*
X195980952Y-80360238D02*
X196123809Y-80312619D01*
X196123809Y-80312619D02*
X196219047Y-80312619D01*
X196219047Y-80312619D02*
X196361904Y-80360238D01*
X196361904Y-80360238D02*
X196409523Y-80407857D01*
X197266666Y-80645952D02*
X197266666Y-81312619D01*
X196838095Y-80645952D02*
X196838095Y-81169761D01*
X196838095Y-81169761D02*
X196885714Y-81265000D01*
X196885714Y-81265000D02*
X196980952Y-81312619D01*
X196980952Y-81312619D02*
X197123809Y-81312619D01*
X197123809Y-81312619D02*
X197219047Y-81265000D01*
X197219047Y-81265000D02*
X197266666Y-81217380D01*
X197695238Y-81265000D02*
X197790476Y-81312619D01*
X197790476Y-81312619D02*
X197980952Y-81312619D01*
X197980952Y-81312619D02*
X198076190Y-81265000D01*
X198076190Y-81265000D02*
X198123809Y-81169761D01*
X198123809Y-81169761D02*
X198123809Y-81122142D01*
X198123809Y-81122142D02*
X198076190Y-81026904D01*
X198076190Y-81026904D02*
X197980952Y-80979285D01*
X197980952Y-80979285D02*
X197838095Y-80979285D01*
X197838095Y-80979285D02*
X197742857Y-80931666D01*
X197742857Y-80931666D02*
X197695238Y-80836428D01*
X197695238Y-80836428D02*
X197695238Y-80788809D01*
X197695238Y-80788809D02*
X197742857Y-80693571D01*
X197742857Y-80693571D02*
X197838095Y-80645952D01*
X197838095Y-80645952D02*
X197980952Y-80645952D01*
X197980952Y-80645952D02*
X198076190Y-80693571D01*
X198409524Y-80645952D02*
X198790476Y-80645952D01*
X198552381Y-80312619D02*
X198552381Y-81169761D01*
X198552381Y-81169761D02*
X198600000Y-81265000D01*
X198600000Y-81265000D02*
X198695238Y-81312619D01*
X198695238Y-81312619D02*
X198790476Y-81312619D01*
X199266667Y-81312619D02*
X199171429Y-81265000D01*
X199171429Y-81265000D02*
X199123810Y-81217380D01*
X199123810Y-81217380D02*
X199076191Y-81122142D01*
X199076191Y-81122142D02*
X199076191Y-80836428D01*
X199076191Y-80836428D02*
X199123810Y-80741190D01*
X199123810Y-80741190D02*
X199171429Y-80693571D01*
X199171429Y-80693571D02*
X199266667Y-80645952D01*
X199266667Y-80645952D02*
X199409524Y-80645952D01*
X199409524Y-80645952D02*
X199504762Y-80693571D01*
X199504762Y-80693571D02*
X199552381Y-80741190D01*
X199552381Y-80741190D02*
X199600000Y-80836428D01*
X199600000Y-80836428D02*
X199600000Y-81122142D01*
X199600000Y-81122142D02*
X199552381Y-81217380D01*
X199552381Y-81217380D02*
X199504762Y-81265000D01*
X199504762Y-81265000D02*
X199409524Y-81312619D01*
X199409524Y-81312619D02*
X199266667Y-81312619D01*
X200028572Y-81312619D02*
X200028572Y-80645952D01*
X200028572Y-80741190D02*
X200076191Y-80693571D01*
X200076191Y-80693571D02*
X200171429Y-80645952D01*
X200171429Y-80645952D02*
X200314286Y-80645952D01*
X200314286Y-80645952D02*
X200409524Y-80693571D01*
X200409524Y-80693571D02*
X200457143Y-80788809D01*
X200457143Y-80788809D02*
X200457143Y-81312619D01*
X200457143Y-80788809D02*
X200504762Y-80693571D01*
X200504762Y-80693571D02*
X200600000Y-80645952D01*
X200600000Y-80645952D02*
X200742857Y-80645952D01*
X200742857Y-80645952D02*
X200838096Y-80693571D01*
X200838096Y-80693571D02*
X200885715Y-80788809D01*
X200885715Y-80788809D02*
X200885715Y-81312619D01*
X202600000Y-81312619D02*
X202123810Y-81312619D01*
X202123810Y-81312619D02*
X202123810Y-80312619D01*
X202933334Y-80788809D02*
X203266667Y-80788809D01*
X203409524Y-81312619D02*
X202933334Y-81312619D01*
X202933334Y-81312619D02*
X202933334Y-80312619D01*
X202933334Y-80312619D02*
X203409524Y-80312619D01*
X203838096Y-81312619D02*
X203838096Y-80312619D01*
X203838096Y-80312619D02*
X204076191Y-80312619D01*
X204076191Y-80312619D02*
X204219048Y-80360238D01*
X204219048Y-80360238D02*
X204314286Y-80455476D01*
X204314286Y-80455476D02*
X204361905Y-80550714D01*
X204361905Y-80550714D02*
X204409524Y-80741190D01*
X204409524Y-80741190D02*
X204409524Y-80884047D01*
X204409524Y-80884047D02*
X204361905Y-81074523D01*
X204361905Y-81074523D02*
X204314286Y-81169761D01*
X204314286Y-81169761D02*
X204219048Y-81265000D01*
X204219048Y-81265000D02*
X204076191Y-81312619D01*
X204076191Y-81312619D02*
X203838096Y-81312619D01*
D11*
X74727142Y-73433928D02*
X74727142Y-71933928D01*
X74727142Y-71933928D02*
X75084285Y-71933928D01*
X75084285Y-71933928D02*
X75298571Y-72005357D01*
X75298571Y-72005357D02*
X75441428Y-72148214D01*
X75441428Y-72148214D02*
X75512857Y-72291071D01*
X75512857Y-72291071D02*
X75584285Y-72576785D01*
X75584285Y-72576785D02*
X75584285Y-72791071D01*
X75584285Y-72791071D02*
X75512857Y-73076785D01*
X75512857Y-73076785D02*
X75441428Y-73219642D01*
X75441428Y-73219642D02*
X75298571Y-73362500D01*
X75298571Y-73362500D02*
X75084285Y-73433928D01*
X75084285Y-73433928D02*
X74727142Y-73433928D01*
X76798571Y-73362500D02*
X76655714Y-73433928D01*
X76655714Y-73433928D02*
X76370000Y-73433928D01*
X76370000Y-73433928D02*
X76227142Y-73362500D01*
X76227142Y-73362500D02*
X76155714Y-73219642D01*
X76155714Y-73219642D02*
X76155714Y-72648214D01*
X76155714Y-72648214D02*
X76227142Y-72505357D01*
X76227142Y-72505357D02*
X76370000Y-72433928D01*
X76370000Y-72433928D02*
X76655714Y-72433928D01*
X76655714Y-72433928D02*
X76798571Y-72505357D01*
X76798571Y-72505357D02*
X76870000Y-72648214D01*
X76870000Y-72648214D02*
X76870000Y-72791071D01*
X76870000Y-72791071D02*
X76155714Y-72933928D01*
X77512856Y-73433928D02*
X77512856Y-71933928D01*
X77512856Y-72505357D02*
X77655714Y-72433928D01*
X77655714Y-72433928D02*
X77941428Y-72433928D01*
X77941428Y-72433928D02*
X78084285Y-72505357D01*
X78084285Y-72505357D02*
X78155714Y-72576785D01*
X78155714Y-72576785D02*
X78227142Y-72719642D01*
X78227142Y-72719642D02*
X78227142Y-73148214D01*
X78227142Y-73148214D02*
X78155714Y-73291071D01*
X78155714Y-73291071D02*
X78084285Y-73362500D01*
X78084285Y-73362500D02*
X77941428Y-73433928D01*
X77941428Y-73433928D02*
X77655714Y-73433928D01*
X77655714Y-73433928D02*
X77512856Y-73362500D01*
X79512857Y-72433928D02*
X79512857Y-73433928D01*
X78869999Y-72433928D02*
X78869999Y-73219642D01*
X78869999Y-73219642D02*
X78941428Y-73362500D01*
X78941428Y-73362500D02*
X79084285Y-73433928D01*
X79084285Y-73433928D02*
X79298571Y-73433928D01*
X79298571Y-73433928D02*
X79441428Y-73362500D01*
X79441428Y-73362500D02*
X79512857Y-73291071D01*
X80870000Y-72433928D02*
X80870000Y-73648214D01*
X80870000Y-73648214D02*
X80798571Y-73791071D01*
X80798571Y-73791071D02*
X80727142Y-73862500D01*
X80727142Y-73862500D02*
X80584285Y-73933928D01*
X80584285Y-73933928D02*
X80370000Y-73933928D01*
X80370000Y-73933928D02*
X80227142Y-73862500D01*
X80870000Y-73362500D02*
X80727142Y-73433928D01*
X80727142Y-73433928D02*
X80441428Y-73433928D01*
X80441428Y-73433928D02*
X80298571Y-73362500D01*
X80298571Y-73362500D02*
X80227142Y-73291071D01*
X80227142Y-73291071D02*
X80155714Y-73148214D01*
X80155714Y-73148214D02*
X80155714Y-72719642D01*
X80155714Y-72719642D02*
X80227142Y-72576785D01*
X80227142Y-72576785D02*
X80298571Y-72505357D01*
X80298571Y-72505357D02*
X80441428Y-72433928D01*
X80441428Y-72433928D02*
X80727142Y-72433928D01*
X80727142Y-72433928D02*
X80870000Y-72505357D01*
D12*
X210250000Y-51800000D02*
X210250000Y-62420000D01*
X207250000Y-51800000D02*
X210250000Y-51800000D01*
X207250000Y-51800000D02*
X207250000Y-53300000D01*
X207250000Y-53300000D02*
X206250000Y-53300000D01*
X207250000Y-60920000D02*
X206250000Y-60920000D01*
X206250000Y-60920000D02*
X206250000Y-53300000D01*
X210250000Y-62420000D02*
X207250000Y-62420000D01*
X207250000Y-62420000D02*
X207250000Y-60920000D01*
X99107221Y-57830000D02*
X99432779Y-57830000D01*
X99107221Y-58850000D02*
X99432779Y-58850000D01*
X86660000Y-67402779D02*
X86660000Y-67077221D01*
X87680000Y-67402779D02*
X87680000Y-67077221D01*
X85930000Y-63140000D02*
X85930000Y-69150000D01*
X79110000Y-65390000D02*
X79110000Y-69150000D01*
X85930000Y-69150000D02*
X84670000Y-69150000D01*
X79110000Y-69150000D02*
X80370000Y-69150000D01*
X99107221Y-56230000D02*
X99432779Y-56230000D01*
X99107221Y-57250000D02*
X99432779Y-57250000D01*
X99107221Y-66130000D02*
X99432779Y-66130000D01*
X99107221Y-67150000D02*
X99432779Y-67150000D01*
X99432779Y-65550000D02*
X99107221Y-65550000D01*
X99432779Y-64530000D02*
X99107221Y-64530000D01*
X74170000Y-83795000D02*
X76710000Y-83795000D01*
X74170000Y-83795000D02*
X74170000Y-81255000D01*
X74420000Y-83545000D02*
X74420000Y-74195000D01*
X95280000Y-83545000D02*
X74420000Y-83545000D01*
X74420000Y-74195000D02*
X95280000Y-74195000D01*
X95280000Y-74195000D02*
X95280000Y-83545000D01*
X119030000Y-73077221D02*
X119030000Y-73402779D01*
X118010000Y-73077221D02*
X118010000Y-73402779D01*
X114682779Y-74750000D02*
X114357221Y-74750000D01*
X114682779Y-73730000D02*
X114357221Y-73730000D01*
X104020000Y-83390000D02*
X97720000Y-83390000D01*
X104020000Y-82940000D02*
X104020000Y-83390000D01*
X104020000Y-78940000D02*
X104020000Y-81640000D01*
X104020000Y-77640000D02*
X104020000Y-77190000D01*
X104020000Y-77190000D02*
X97720000Y-77190000D01*
X97720000Y-83390000D02*
X97720000Y-82940000D01*
X97720000Y-81640000D02*
X97720000Y-78940000D01*
X97720000Y-77190000D02*
X97720000Y-77590000D01*
X96940000Y-71670000D02*
X95610000Y-71670000D01*
X96940000Y-70340000D02*
X96940000Y-71670000D01*
X96940000Y-69070000D02*
X96940000Y-63930000D01*
X96940000Y-69070000D02*
X91740000Y-69070000D01*
X96940000Y-63930000D02*
X91740000Y-63930000D01*
X91740000Y-69070000D02*
X91740000Y-63930000D01*
X108270000Y-68095311D02*
X108588198Y-67777113D01*
X108588198Y-67777113D02*
X109500366Y-68689281D01*
X113375311Y-62990000D02*
X113057113Y-63308198D01*
X107951802Y-67777113D02*
X108270000Y-68095311D01*
X113057113Y-62671802D02*
X113375311Y-62990000D01*
X103482887Y-63308198D02*
X103164689Y-62990000D01*
X108588198Y-58202887D02*
X108270000Y-57884689D01*
X103164689Y-62990000D02*
X103482887Y-62671802D01*
X108270000Y-57884689D02*
X107951802Y-58202887D01*
X90332779Y-61550000D02*
X90007221Y-61550000D01*
X90332779Y-60530000D02*
X90007221Y-60530000D01*
X111030000Y-73077221D02*
X111030000Y-73402779D01*
X110010000Y-73077221D02*
X110010000Y-73402779D01*
X117570000Y-73290000D02*
X117570000Y-69690000D01*
X117570000Y-69690000D02*
X111820000Y-69690000D01*
X111820000Y-73290000D02*
X117570000Y-73290000D01*
X101810000Y-75825000D02*
X103730000Y-75825000D01*
X103730000Y-75825000D02*
X103730000Y-73140000D01*
X101810000Y-73140000D02*
X101810000Y-75825000D01*
X101480000Y-73777221D02*
X101480000Y-74102779D01*
X100460000Y-73777221D02*
X100460000Y-74102779D01*
X99432779Y-68750000D02*
X99107221Y-68750000D01*
X99432779Y-67730000D02*
X99107221Y-67730000D01*
X99432779Y-63950000D02*
X99107221Y-63950000D01*
X99432779Y-62930000D02*
X99107221Y-62930000D01*
X172580000Y-52100000D02*
X174080000Y-52100000D01*
X172580000Y-55100000D02*
X172580000Y-52100000D01*
X174080000Y-51100000D02*
X202020000Y-51100000D01*
X174080000Y-52100000D02*
X174080000Y-51100000D01*
X191610000Y-52100000D02*
X191610000Y-51100000D01*
X193110000Y-52100000D02*
X191610000Y-52100000D01*
X193110000Y-55100000D02*
X193110000Y-52100000D01*
X202020000Y-51100000D02*
X202020000Y-52100000D01*
X202020000Y-52100000D02*
X203520000Y-52100000D01*
X203520000Y-52100000D02*
X203520000Y-55100000D01*
X203520000Y-55100000D02*
X172580000Y-55100000D01*
X197680000Y-57578748D02*
X197680000Y-58101252D01*
X196260000Y-57578748D02*
X196260000Y-58101252D01*
X195080000Y-57553748D02*
X195080000Y-58076252D01*
X193660000Y-57553748D02*
X193660000Y-58076252D01*
X202780000Y-57578748D02*
X202780000Y-58101252D01*
X201360000Y-57578748D02*
X201360000Y-58101252D01*
X200180000Y-57578748D02*
X200180000Y-58101252D01*
X198760000Y-57578748D02*
X198760000Y-58101252D01*
X191058578Y-61150000D02*
X190541422Y-61150000D01*
X191058578Y-59730000D02*
X190541422Y-59730000D01*
X191058578Y-63180000D02*
X190541422Y-63180000D01*
X191058578Y-61760000D02*
X190541422Y-61760000D01*
X191058578Y-65250000D02*
X190541422Y-65250000D01*
X191058578Y-63830000D02*
X190541422Y-63830000D01*
X84008748Y-60530000D02*
X84531252Y-60530000D01*
X84008748Y-61950000D02*
X84531252Y-61950000D01*
X115200000Y-49600000D02*
X156300000Y-49600000D01*
X115200000Y-52600000D02*
X115200000Y-49600000D01*
X115200000Y-52600000D02*
X116700000Y-52600000D01*
X116700000Y-52600000D02*
X116700000Y-53600000D01*
X154800000Y-52600000D02*
X154800000Y-53600000D01*
X154800000Y-53600000D02*
X116700000Y-53600000D01*
X156300000Y-49600000D02*
X156300000Y-52600000D01*
X156300000Y-52600000D02*
X154800000Y-52600000D01*
X77245279Y-62050000D02*
X76919721Y-62050000D01*
X77245279Y-61030000D02*
X76919721Y-61030000D01*
X70730000Y-50055000D02*
X68810000Y-50055000D01*
X68810000Y-50055000D02*
X68810000Y-52740000D01*
X70730000Y-52740000D02*
X70730000Y-50055000D01*
X76907221Y-59230000D02*
X77232779Y-59230000D01*
X76907221Y-60250000D02*
X77232779Y-60250000D01*
D13*
X165651667Y-71617667D02*
X164974333Y-71617667D01*
X164974333Y-73946000D01*
X167556667Y-73946000D01*
X167556667Y-71617667D01*
X166879333Y-71617667D01*
X166879333Y-70940333D01*
X169885000Y-70940333D01*
X169885000Y-71617667D01*
X169207667Y-71617667D01*
X169207667Y-77205667D01*
X169885000Y-77205667D01*
X169885000Y-77840667D01*
X166879333Y-77840667D01*
X166879333Y-77205667D01*
X167556667Y-77205667D01*
X167556667Y-74665667D01*
X164974333Y-74665667D01*
X164974333Y-77205667D01*
X165651667Y-77205667D01*
X165651667Y-77840667D01*
X162646000Y-77840667D01*
X162646000Y-77205667D01*
X163323333Y-77205667D01*
X163323333Y-71617667D01*
X162646000Y-71617667D01*
X162646000Y-70940333D01*
X165651667Y-70940333D01*
X165651667Y-71617667D01*
G36*
X165651667Y-71617667D02*
G01*
X164974333Y-71617667D01*
X164974333Y-73946000D01*
X167556667Y-73946000D01*
X167556667Y-71617667D01*
X166879333Y-71617667D01*
X166879333Y-70940333D01*
X169885000Y-70940333D01*
X169885000Y-71617667D01*
X169207667Y-71617667D01*
X169207667Y-77205667D01*
X169885000Y-77205667D01*
X169885000Y-77840667D01*
X166879333Y-77840667D01*
X166879333Y-77205667D01*
X167556667Y-77205667D01*
X167556667Y-74665667D01*
X164974333Y-74665667D01*
X164974333Y-77205667D01*
X165651667Y-77205667D01*
X165651667Y-77840667D01*
X162646000Y-77840667D01*
X162646000Y-77205667D01*
X163323333Y-77205667D01*
X163323333Y-71617667D01*
X162646000Y-71617667D01*
X162646000Y-70940333D01*
X165651667Y-70940333D01*
X165651667Y-71617667D01*
G37*
X159046994Y-70365149D02*
X159055670Y-70415343D01*
X159063181Y-70504860D01*
X159069597Y-70638273D01*
X159074989Y-70820154D01*
X159079428Y-71055076D01*
X159082984Y-71347612D01*
X159085729Y-71702335D01*
X159087732Y-72123817D01*
X159089064Y-72616631D01*
X159089796Y-73185350D01*
X159090000Y-73776667D01*
X159090000Y-77205667D01*
X159682667Y-77205667D01*
X159682667Y-77840667D01*
X156973333Y-77840667D01*
X156973333Y-77205667D01*
X157566000Y-77205667D01*
X157566000Y-71454336D01*
X157322583Y-71406501D01*
X157151622Y-71372457D01*
X157047381Y-71341432D01*
X156994279Y-71296569D01*
X156976736Y-71221012D01*
X156979171Y-71097904D01*
X156981969Y-71037992D01*
X156994500Y-70753488D01*
X157989333Y-70552615D01*
X158270409Y-70496209D01*
X158525137Y-70445753D01*
X158741359Y-70403601D01*
X158906916Y-70372107D01*
X159009652Y-70353627D01*
X159037083Y-70349704D01*
X159046994Y-70365149D01*
G36*
X159046994Y-70365149D02*
G01*
X159055670Y-70415343D01*
X159063181Y-70504860D01*
X159069597Y-70638273D01*
X159074989Y-70820154D01*
X159079428Y-71055076D01*
X159082984Y-71347612D01*
X159085729Y-71702335D01*
X159087732Y-72123817D01*
X159089064Y-72616631D01*
X159089796Y-73185350D01*
X159090000Y-73776667D01*
X159090000Y-77205667D01*
X159682667Y-77205667D01*
X159682667Y-77840667D01*
X156973333Y-77840667D01*
X156973333Y-77205667D01*
X157566000Y-77205667D01*
X157566000Y-71454336D01*
X157322583Y-71406501D01*
X157151622Y-71372457D01*
X157047381Y-71341432D01*
X156994279Y-71296569D01*
X156976736Y-71221012D01*
X156979171Y-71097904D01*
X156981969Y-71037992D01*
X156994500Y-70753488D01*
X157989333Y-70552615D01*
X158270409Y-70496209D01*
X158525137Y-70445753D01*
X158741359Y-70403601D01*
X158906916Y-70372107D01*
X159009652Y-70353627D01*
X159037083Y-70349704D01*
X159046994Y-70365149D01*
G37*
X151570335Y-74532149D02*
X153095055Y-74532149D01*
X153097999Y-74614202D01*
X153101559Y-74626125D01*
X153150059Y-74638728D01*
X153270920Y-74649553D01*
X153451846Y-74658031D01*
X153680540Y-74663592D01*
X153944705Y-74665664D01*
X153954176Y-74665667D01*
X154782356Y-74665667D01*
X154764335Y-74295250D01*
X154723994Y-73949741D01*
X154639273Y-73675489D01*
X154508918Y-73470890D01*
X154331676Y-73334342D01*
X154106294Y-73264240D01*
X153949827Y-73253399D01*
X153703602Y-73277105D01*
X153507285Y-73351178D01*
X153355443Y-73481986D01*
X153242640Y-73675896D01*
X153163444Y-73939275D01*
X153117827Y-74228343D01*
X153101967Y-74396141D01*
X153095055Y-74532149D01*
X151570335Y-74532149D01*
X151585619Y-74437639D01*
X151596263Y-74393379D01*
X151748398Y-73945438D01*
X151959623Y-73553870D01*
X152226636Y-73222021D01*
X152546135Y-72953237D01*
X152914815Y-72750865D01*
X153329373Y-72618249D01*
X153353833Y-72612962D01*
X153807472Y-72553515D01*
X154253954Y-72564414D01*
X154681630Y-72642712D01*
X155078848Y-72785466D01*
X155433958Y-72989730D01*
X155687277Y-73202778D01*
X155955578Y-73529301D01*
X156153106Y-73902189D01*
X156279767Y-74321193D01*
X156335466Y-74786063D01*
X156338333Y-74926438D01*
X156338333Y-75300667D01*
X153067023Y-75300667D01*
X153095674Y-75671083D01*
X153129490Y-75973448D01*
X153182866Y-76211146D01*
X153262838Y-76403247D01*
X153376439Y-76568817D01*
X153460563Y-76660262D01*
X153693846Y-76836713D01*
X153965818Y-76949107D01*
X154261675Y-76999012D01*
X154566612Y-76987997D01*
X154865827Y-76917632D01*
X155144514Y-76789486D01*
X155387869Y-76605129D01*
X155531233Y-76440768D01*
X155606757Y-76331679D01*
X155659241Y-76246938D01*
X155671602Y-76221360D01*
X155710935Y-76218615D01*
X155797921Y-76252796D01*
X155911367Y-76311548D01*
X156030082Y-76382514D01*
X156132873Y-76453338D01*
X156198548Y-76511663D01*
X156211333Y-76536056D01*
X156192611Y-76593946D01*
X156143784Y-76701430D01*
X156082865Y-76821013D01*
X155863053Y-77147294D01*
X155578262Y-77433842D01*
X155243757Y-77667935D01*
X154874800Y-77836850D01*
X154856667Y-77843040D01*
X154612904Y-77902511D01*
X154317078Y-77940514D01*
X153999338Y-77955805D01*
X153689836Y-77947142D01*
X153418723Y-77913282D01*
X153375000Y-77904115D01*
X152962112Y-77768647D01*
X152588130Y-77561663D01*
X152259444Y-77289822D01*
X151982439Y-76959781D01*
X151763504Y-76578198D01*
X151609025Y-76151729D01*
X151579946Y-76033143D01*
X151534963Y-75744353D01*
X151513342Y-75409922D01*
X151514780Y-75060336D01*
X151538973Y-74726080D01*
X151570335Y-74532149D01*
G36*
X151570335Y-74532149D02*
G01*
X153095055Y-74532149D01*
X153097999Y-74614202D01*
X153101559Y-74626125D01*
X153150059Y-74638728D01*
X153270920Y-74649553D01*
X153451846Y-74658031D01*
X153680540Y-74663592D01*
X153944705Y-74665664D01*
X153954176Y-74665667D01*
X154782356Y-74665667D01*
X154764335Y-74295250D01*
X154723994Y-73949741D01*
X154639273Y-73675489D01*
X154508918Y-73470890D01*
X154331676Y-73334342D01*
X154106294Y-73264240D01*
X153949827Y-73253399D01*
X153703602Y-73277105D01*
X153507285Y-73351178D01*
X153355443Y-73481986D01*
X153242640Y-73675896D01*
X153163444Y-73939275D01*
X153117827Y-74228343D01*
X153101967Y-74396141D01*
X153095055Y-74532149D01*
X151570335Y-74532149D01*
X151585619Y-74437639D01*
X151596263Y-74393379D01*
X151748398Y-73945438D01*
X151959623Y-73553870D01*
X152226636Y-73222021D01*
X152546135Y-72953237D01*
X152914815Y-72750865D01*
X153329373Y-72618249D01*
X153353833Y-72612962D01*
X153807472Y-72553515D01*
X154253954Y-72564414D01*
X154681630Y-72642712D01*
X155078848Y-72785466D01*
X155433958Y-72989730D01*
X155687277Y-73202778D01*
X155955578Y-73529301D01*
X156153106Y-73902189D01*
X156279767Y-74321193D01*
X156335466Y-74786063D01*
X156338333Y-74926438D01*
X156338333Y-75300667D01*
X153067023Y-75300667D01*
X153095674Y-75671083D01*
X153129490Y-75973448D01*
X153182866Y-76211146D01*
X153262838Y-76403247D01*
X153376439Y-76568817D01*
X153460563Y-76660262D01*
X153693846Y-76836713D01*
X153965818Y-76949107D01*
X154261675Y-76999012D01*
X154566612Y-76987997D01*
X154865827Y-76917632D01*
X155144514Y-76789486D01*
X155387869Y-76605129D01*
X155531233Y-76440768D01*
X155606757Y-76331679D01*
X155659241Y-76246938D01*
X155671602Y-76221360D01*
X155710935Y-76218615D01*
X155797921Y-76252796D01*
X155911367Y-76311548D01*
X156030082Y-76382514D01*
X156132873Y-76453338D01*
X156198548Y-76511663D01*
X156211333Y-76536056D01*
X156192611Y-76593946D01*
X156143784Y-76701430D01*
X156082865Y-76821013D01*
X155863053Y-77147294D01*
X155578262Y-77433842D01*
X155243757Y-77667935D01*
X154874800Y-77836850D01*
X154856667Y-77843040D01*
X154612904Y-77902511D01*
X154317078Y-77940514D01*
X153999338Y-77955805D01*
X153689836Y-77947142D01*
X153418723Y-77913282D01*
X153375000Y-77904115D01*
X152962112Y-77768647D01*
X152588130Y-77561663D01*
X152259444Y-77289822D01*
X151982439Y-76959781D01*
X151763504Y-76578198D01*
X151609025Y-76151729D01*
X151579946Y-76033143D01*
X151534963Y-75744353D01*
X151513342Y-75409922D01*
X151514780Y-75060336D01*
X151538973Y-74726080D01*
X151570335Y-74532149D01*
G37*
X139401576Y-75257761D02*
X140988562Y-75257761D01*
X140989931Y-75571308D01*
X140994597Y-75871207D01*
X141002564Y-76143654D01*
X141013832Y-76374845D01*
X141028405Y-76550976D01*
X141046284Y-76658245D01*
X141049054Y-76666992D01*
X141172493Y-76898746D01*
X141355291Y-77084216D01*
X141498748Y-77171109D01*
X141705148Y-77230011D01*
X141943752Y-77240013D01*
X142180781Y-77203458D01*
X142382457Y-77122684D01*
X142405492Y-77108282D01*
X142554386Y-76971549D01*
X142670121Y-76795710D01*
X142699038Y-76734291D01*
X142721926Y-76673814D01*
X142739616Y-76603703D01*
X142752937Y-76513382D01*
X142762720Y-76392273D01*
X142769793Y-76229801D01*
X142774988Y-76015389D01*
X142779134Y-75738461D01*
X142783060Y-75388440D01*
X142783448Y-75351384D01*
X142786546Y-74938772D01*
X142785476Y-74601212D01*
X142778883Y-74329134D01*
X142765413Y-74112968D01*
X142743711Y-73943145D01*
X142712424Y-73810098D01*
X142670196Y-73704255D01*
X142615674Y-73616050D01*
X142547504Y-73535911D01*
X142522963Y-73510786D01*
X142322794Y-73364694D01*
X142094660Y-73285798D01*
X141854297Y-73270338D01*
X141617436Y-73314556D01*
X141399813Y-73414692D01*
X141217160Y-73566985D01*
X141085211Y-73767678D01*
X141049485Y-73862868D01*
X141031111Y-73968428D01*
X141016023Y-74143162D01*
X141004222Y-74373266D01*
X140995710Y-74644936D01*
X140990489Y-74944369D01*
X140988562Y-75257761D01*
X139401576Y-75257761D01*
X139401390Y-75076016D01*
X139429271Y-74716752D01*
X139485415Y-74404686D01*
X139487329Y-74397190D01*
X139642050Y-73945793D01*
X139856798Y-73553180D01*
X140128455Y-73221738D01*
X140453902Y-72953850D01*
X140830020Y-72751900D01*
X141253692Y-72618273D01*
X141721798Y-72555353D01*
X141902667Y-72550470D01*
X142378681Y-72588227D01*
X142814878Y-72699425D01*
X143207206Y-72880949D01*
X143551613Y-73129688D01*
X143844046Y-73442529D01*
X144080454Y-73816359D01*
X144256784Y-74248065D01*
X144297916Y-74390500D01*
X144342852Y-74632014D01*
X144369972Y-74928898D01*
X144379259Y-75253748D01*
X144370700Y-75579160D01*
X144344277Y-75877730D01*
X144299975Y-76122053D01*
X144298915Y-76126167D01*
X144153537Y-76543630D01*
X143947699Y-76922943D01*
X143689580Y-77253431D01*
X143387357Y-77524420D01*
X143088000Y-77706865D01*
X142700108Y-77853421D01*
X142271423Y-77939509D01*
X141822526Y-77962985D01*
X141373997Y-77921705D01*
X141251026Y-77898196D01*
X140828499Y-77767402D01*
X140454236Y-77567927D01*
X140130818Y-77302371D01*
X139860825Y-76973338D01*
X139646837Y-76583430D01*
X139491434Y-76135248D01*
X139487329Y-76119476D01*
X139430419Y-75809130D01*
X139401773Y-75450726D01*
X139401576Y-75257761D01*
G36*
X139401576Y-75257761D02*
G01*
X140988562Y-75257761D01*
X140989931Y-75571308D01*
X140994597Y-75871207D01*
X141002564Y-76143654D01*
X141013832Y-76374845D01*
X141028405Y-76550976D01*
X141046284Y-76658245D01*
X141049054Y-76666992D01*
X141172493Y-76898746D01*
X141355291Y-77084216D01*
X141498748Y-77171109D01*
X141705148Y-77230011D01*
X141943752Y-77240013D01*
X142180781Y-77203458D01*
X142382457Y-77122684D01*
X142405492Y-77108282D01*
X142554386Y-76971549D01*
X142670121Y-76795710D01*
X142699038Y-76734291D01*
X142721926Y-76673814D01*
X142739616Y-76603703D01*
X142752937Y-76513382D01*
X142762720Y-76392273D01*
X142769793Y-76229801D01*
X142774988Y-76015389D01*
X142779134Y-75738461D01*
X142783060Y-75388440D01*
X142783448Y-75351384D01*
X142786546Y-74938772D01*
X142785476Y-74601212D01*
X142778883Y-74329134D01*
X142765413Y-74112968D01*
X142743711Y-73943145D01*
X142712424Y-73810098D01*
X142670196Y-73704255D01*
X142615674Y-73616050D01*
X142547504Y-73535911D01*
X142522963Y-73510786D01*
X142322794Y-73364694D01*
X142094660Y-73285798D01*
X141854297Y-73270338D01*
X141617436Y-73314556D01*
X141399813Y-73414692D01*
X141217160Y-73566985D01*
X141085211Y-73767678D01*
X141049485Y-73862868D01*
X141031111Y-73968428D01*
X141016023Y-74143162D01*
X141004222Y-74373266D01*
X140995710Y-74644936D01*
X140990489Y-74944369D01*
X140988562Y-75257761D01*
X139401576Y-75257761D01*
X139401390Y-75076016D01*
X139429271Y-74716752D01*
X139485415Y-74404686D01*
X139487329Y-74397190D01*
X139642050Y-73945793D01*
X139856798Y-73553180D01*
X140128455Y-73221738D01*
X140453902Y-72953850D01*
X140830020Y-72751900D01*
X141253692Y-72618273D01*
X141721798Y-72555353D01*
X141902667Y-72550470D01*
X142378681Y-72588227D01*
X142814878Y-72699425D01*
X143207206Y-72880949D01*
X143551613Y-73129688D01*
X143844046Y-73442529D01*
X144080454Y-73816359D01*
X144256784Y-74248065D01*
X144297916Y-74390500D01*
X144342852Y-74632014D01*
X144369972Y-74928898D01*
X144379259Y-75253748D01*
X144370700Y-75579160D01*
X144344277Y-75877730D01*
X144299975Y-76122053D01*
X144298915Y-76126167D01*
X144153537Y-76543630D01*
X143947699Y-76922943D01*
X143689580Y-77253431D01*
X143387357Y-77524420D01*
X143088000Y-77706865D01*
X142700108Y-77853421D01*
X142271423Y-77939509D01*
X141822526Y-77962985D01*
X141373997Y-77921705D01*
X141251026Y-77898196D01*
X140828499Y-77767402D01*
X140454236Y-77567927D01*
X140130818Y-77302371D01*
X139860825Y-76973338D01*
X139646837Y-76583430D01*
X139491434Y-76135248D01*
X139487329Y-76119476D01*
X139430419Y-75809130D01*
X139401773Y-75450726D01*
X139401576Y-75257761D01*
G37*
X133670367Y-72284416D02*
X133823886Y-72614104D01*
X133972263Y-72933090D01*
X134110120Y-73229784D01*
X134232075Y-73492595D01*
X134332749Y-73709931D01*
X134406763Y-73870201D01*
X134439708Y-73941967D01*
X134516004Y-74095170D01*
X134577436Y-74191061D01*
X134617280Y-74219460D01*
X134621383Y-74216883D01*
X134643404Y-74173939D01*
X134694946Y-74063298D01*
X134771633Y-73894851D01*
X134869088Y-73678485D01*
X134982934Y-73424088D01*
X135108793Y-73141549D01*
X135242289Y-72840756D01*
X135379045Y-72531599D01*
X135514683Y-72223964D01*
X135644827Y-71927742D01*
X135765099Y-71652819D01*
X135871123Y-71409085D01*
X135958521Y-71206428D01*
X136022916Y-71054736D01*
X136048306Y-70993250D01*
X136074270Y-70977342D01*
X136142642Y-70964707D01*
X136260561Y-70955050D01*
X136435167Y-70948079D01*
X136673598Y-70943499D01*
X136982996Y-70941016D01*
X137335196Y-70940333D01*
X138600667Y-70940333D01*
X138600667Y-71617667D01*
X137923333Y-71617667D01*
X137923333Y-77205667D01*
X138600667Y-77205667D01*
X138600667Y-77840667D01*
X135595000Y-77840667D01*
X135595000Y-77209091D01*
X135944250Y-77196795D01*
X136293500Y-77184500D01*
X136304419Y-74676250D01*
X136305861Y-74224157D01*
X136306201Y-73798252D01*
X136305500Y-73405897D01*
X136303820Y-73054452D01*
X136301224Y-72751278D01*
X136297774Y-72503738D01*
X136293531Y-72319192D01*
X136288559Y-72205001D01*
X136283252Y-72168389D01*
X136258086Y-72205926D01*
X136208168Y-72309809D01*
X136139091Y-72467344D01*
X136056452Y-72665834D01*
X135980102Y-72856306D01*
X135906011Y-73037129D01*
X135807825Y-73265960D01*
X135689553Y-73534284D01*
X135555202Y-73833586D01*
X135408780Y-74155351D01*
X135254294Y-74491064D01*
X135095753Y-74832211D01*
X134937163Y-75170277D01*
X134782532Y-75496747D01*
X134635868Y-75803105D01*
X134501179Y-76080838D01*
X134382473Y-76321429D01*
X134283756Y-76516366D01*
X134209036Y-76657132D01*
X134162322Y-76735212D01*
X134148419Y-76747999D01*
X134118189Y-76697071D01*
X134057331Y-76578096D01*
X133970068Y-76400186D01*
X133860625Y-76172455D01*
X133733224Y-75904016D01*
X133592090Y-75603982D01*
X133441446Y-75281467D01*
X133285515Y-74945584D01*
X133128522Y-74605445D01*
X132974690Y-74270165D01*
X132828242Y-73948856D01*
X132693402Y-73650631D01*
X132574393Y-73384605D01*
X132475440Y-73159890D01*
X132400766Y-72985599D01*
X132370334Y-72911432D01*
X132281774Y-72691314D01*
X132201862Y-72495967D01*
X132136795Y-72340287D01*
X132092769Y-72239171D01*
X132078709Y-72210333D01*
X132071499Y-72238982D01*
X132064815Y-72346563D01*
X132058746Y-72527346D01*
X132053382Y-72775599D01*
X132048813Y-73085588D01*
X132045127Y-73451581D01*
X132042414Y-73867848D01*
X132040764Y-74328655D01*
X132040287Y-74676250D01*
X132039000Y-77205667D01*
X132716333Y-77205667D01*
X132716333Y-77840667D01*
X130557333Y-77840667D01*
X130557333Y-77205667D01*
X131234667Y-77205667D01*
X131234667Y-71617667D01*
X130557333Y-71617667D01*
X130557333Y-70940333D01*
X133044151Y-70940333D01*
X133670367Y-72284416D01*
G36*
X133670367Y-72284416D02*
G01*
X133823886Y-72614104D01*
X133972263Y-72933090D01*
X134110120Y-73229784D01*
X134232075Y-73492595D01*
X134332749Y-73709931D01*
X134406763Y-73870201D01*
X134439708Y-73941967D01*
X134516004Y-74095170D01*
X134577436Y-74191061D01*
X134617280Y-74219460D01*
X134621383Y-74216883D01*
X134643404Y-74173939D01*
X134694946Y-74063298D01*
X134771633Y-73894851D01*
X134869088Y-73678485D01*
X134982934Y-73424088D01*
X135108793Y-73141549D01*
X135242289Y-72840756D01*
X135379045Y-72531599D01*
X135514683Y-72223964D01*
X135644827Y-71927742D01*
X135765099Y-71652819D01*
X135871123Y-71409085D01*
X135958521Y-71206428D01*
X136022916Y-71054736D01*
X136048306Y-70993250D01*
X136074270Y-70977342D01*
X136142642Y-70964707D01*
X136260561Y-70955050D01*
X136435167Y-70948079D01*
X136673598Y-70943499D01*
X136982996Y-70941016D01*
X137335196Y-70940333D01*
X138600667Y-70940333D01*
X138600667Y-71617667D01*
X137923333Y-71617667D01*
X137923333Y-77205667D01*
X138600667Y-77205667D01*
X138600667Y-77840667D01*
X135595000Y-77840667D01*
X135595000Y-77209091D01*
X135944250Y-77196795D01*
X136293500Y-77184500D01*
X136304419Y-74676250D01*
X136305861Y-74224157D01*
X136306201Y-73798252D01*
X136305500Y-73405897D01*
X136303820Y-73054452D01*
X136301224Y-72751278D01*
X136297774Y-72503738D01*
X136293531Y-72319192D01*
X136288559Y-72205001D01*
X136283252Y-72168389D01*
X136258086Y-72205926D01*
X136208168Y-72309809D01*
X136139091Y-72467344D01*
X136056452Y-72665834D01*
X135980102Y-72856306D01*
X135906011Y-73037129D01*
X135807825Y-73265960D01*
X135689553Y-73534284D01*
X135555202Y-73833586D01*
X135408780Y-74155351D01*
X135254294Y-74491064D01*
X135095753Y-74832211D01*
X134937163Y-75170277D01*
X134782532Y-75496747D01*
X134635868Y-75803105D01*
X134501179Y-76080838D01*
X134382473Y-76321429D01*
X134283756Y-76516366D01*
X134209036Y-76657132D01*
X134162322Y-76735212D01*
X134148419Y-76747999D01*
X134118189Y-76697071D01*
X134057331Y-76578096D01*
X133970068Y-76400186D01*
X133860625Y-76172455D01*
X133733224Y-75904016D01*
X133592090Y-75603982D01*
X133441446Y-75281467D01*
X133285515Y-74945584D01*
X133128522Y-74605445D01*
X132974690Y-74270165D01*
X132828242Y-73948856D01*
X132693402Y-73650631D01*
X132574393Y-73384605D01*
X132475440Y-73159890D01*
X132400766Y-72985599D01*
X132370334Y-72911432D01*
X132281774Y-72691314D01*
X132201862Y-72495967D01*
X132136795Y-72340287D01*
X132092769Y-72239171D01*
X132078709Y-72210333D01*
X132071499Y-72238982D01*
X132064815Y-72346563D01*
X132058746Y-72527346D01*
X132053382Y-72775599D01*
X132048813Y-73085588D01*
X132045127Y-73451581D01*
X132042414Y-73867848D01*
X132040764Y-74328655D01*
X132040287Y-74676250D01*
X132039000Y-77205667D01*
X132716333Y-77205667D01*
X132716333Y-77840667D01*
X130557333Y-77840667D01*
X130557333Y-77205667D01*
X131234667Y-77205667D01*
X131234667Y-71617667D01*
X130557333Y-71617667D01*
X130557333Y-70940333D01*
X133044151Y-70940333D01*
X133670367Y-72284416D01*
G37*
X145310225Y-74800534D02*
X146902291Y-74800534D01*
X146903606Y-75126182D01*
X146905837Y-75324547D01*
X146910404Y-75653451D01*
X146915430Y-75909164D01*
X146921895Y-76103161D01*
X146930775Y-76246916D01*
X146943051Y-76351904D01*
X146959699Y-76429598D01*
X146981700Y-76491474D01*
X147010030Y-76549005D01*
X147010297Y-76549500D01*
X147166497Y-76773002D01*
X147360072Y-76924978D01*
X147599781Y-77010463D01*
X147854425Y-77034676D01*
X148062959Y-77020528D01*
X148235258Y-76968652D01*
X148298925Y-76937796D01*
X148494595Y-76787831D01*
X148612500Y-76634340D01*
X148739500Y-76429420D01*
X148752838Y-75369194D01*
X148756193Y-74989850D01*
X148754826Y-74684359D01*
X148747438Y-74441976D01*
X148732731Y-74251955D01*
X148709406Y-74103552D01*
X148676164Y-73986022D01*
X148631705Y-73888620D01*
X148574732Y-73800601D01*
X148560992Y-73782219D01*
X148389896Y-73623218D01*
X148174199Y-73520637D01*
X147932536Y-73474594D01*
X147683541Y-73485209D01*
X147445851Y-73552600D01*
X147238098Y-73676886D01*
X147140298Y-73773138D01*
X147067806Y-73865176D01*
X147011003Y-73956547D01*
X146968173Y-74058598D01*
X146937601Y-74182676D01*
X146917573Y-74340127D01*
X146906375Y-74542297D01*
X146902291Y-74800534D01*
X145310225Y-74800534D01*
X145328517Y-74589508D01*
X145350917Y-74449496D01*
X145478080Y-73983235D01*
X145658617Y-73575189D01*
X145890245Y-73229314D01*
X146170678Y-72949567D01*
X146253312Y-72886711D01*
X146480659Y-72742887D01*
X146703700Y-72647458D01*
X146948356Y-72592905D01*
X147240551Y-72571706D01*
X147342500Y-72570728D01*
X147551852Y-72573957D01*
X147703404Y-72585990D01*
X147823911Y-72611329D01*
X147940131Y-72654476D01*
X147998667Y-72681141D01*
X148188032Y-72793033D01*
X148371180Y-72940066D01*
X148525147Y-73100875D01*
X148626972Y-73254093D01*
X148635922Y-73274112D01*
X148681812Y-73359128D01*
X148722692Y-73395641D01*
X148723469Y-73395667D01*
X148734079Y-73355310D01*
X148743511Y-73242143D01*
X148751308Y-73068019D01*
X148757016Y-72844791D01*
X148760178Y-72584312D01*
X148760667Y-72427896D01*
X148760667Y-71460125D01*
X148189167Y-71338261D01*
X148189167Y-70755285D01*
X149184000Y-70552700D01*
X149465025Y-70495858D01*
X149719714Y-70445073D01*
X149935916Y-70402710D01*
X150101480Y-70371132D01*
X150204255Y-70352703D01*
X150231750Y-70348891D01*
X150241911Y-70364572D01*
X150250772Y-70415242D01*
X150258408Y-70505590D01*
X150264896Y-70640304D01*
X150270313Y-70824073D01*
X150274734Y-71061586D01*
X150278235Y-71357532D01*
X150280894Y-71716598D01*
X150282787Y-72143474D01*
X150283989Y-72642849D01*
X150284577Y-73219411D01*
X150284667Y-73600975D01*
X150284667Y-76854284D01*
X150570417Y-76913559D01*
X150856167Y-76972833D01*
X150868569Y-77253537D01*
X150873540Y-77403648D01*
X150866988Y-77490211D01*
X150841754Y-77534231D01*
X150790678Y-77556714D01*
X150762736Y-77564048D01*
X150696931Y-77578691D01*
X150566079Y-77606300D01*
X150384284Y-77644012D01*
X150165650Y-77688962D01*
X149924282Y-77738285D01*
X149674283Y-77789117D01*
X149429757Y-77838594D01*
X149204808Y-77883851D01*
X149013541Y-77922024D01*
X148870060Y-77950248D01*
X148788467Y-77965660D01*
X148775343Y-77967667D01*
X148769505Y-77928222D01*
X148762825Y-77821410D01*
X148756208Y-77664510D01*
X148751515Y-77512583D01*
X148739500Y-77057500D01*
X148647837Y-77226833D01*
X148530923Y-77395368D01*
X148368141Y-77570260D01*
X148189638Y-77720586D01*
X148122385Y-77765806D01*
X147876905Y-77875647D01*
X147582539Y-77941227D01*
X147264072Y-77960009D01*
X146946290Y-77929456D01*
X146813333Y-77899800D01*
X146466709Y-77764112D01*
X146154495Y-77554387D01*
X145881299Y-77275834D01*
X145651730Y-76933664D01*
X145470395Y-76533087D01*
X145394478Y-76295500D01*
X145350872Y-76079197D01*
X145319548Y-75803316D01*
X145301077Y-75492131D01*
X145296033Y-75169918D01*
X145304989Y-74860952D01*
X145310225Y-74800534D01*
G36*
X145310225Y-74800534D02*
G01*
X146902291Y-74800534D01*
X146903606Y-75126182D01*
X146905837Y-75324547D01*
X146910404Y-75653451D01*
X146915430Y-75909164D01*
X146921895Y-76103161D01*
X146930775Y-76246916D01*
X146943051Y-76351904D01*
X146959699Y-76429598D01*
X146981700Y-76491474D01*
X147010030Y-76549005D01*
X147010297Y-76549500D01*
X147166497Y-76773002D01*
X147360072Y-76924978D01*
X147599781Y-77010463D01*
X147854425Y-77034676D01*
X148062959Y-77020528D01*
X148235258Y-76968652D01*
X148298925Y-76937796D01*
X148494595Y-76787831D01*
X148612500Y-76634340D01*
X148739500Y-76429420D01*
X148752838Y-75369194D01*
X148756193Y-74989850D01*
X148754826Y-74684359D01*
X148747438Y-74441976D01*
X148732731Y-74251955D01*
X148709406Y-74103552D01*
X148676164Y-73986022D01*
X148631705Y-73888620D01*
X148574732Y-73800601D01*
X148560992Y-73782219D01*
X148389896Y-73623218D01*
X148174199Y-73520637D01*
X147932536Y-73474594D01*
X147683541Y-73485209D01*
X147445851Y-73552600D01*
X147238098Y-73676886D01*
X147140298Y-73773138D01*
X147067806Y-73865176D01*
X147011003Y-73956547D01*
X146968173Y-74058598D01*
X146937601Y-74182676D01*
X146917573Y-74340127D01*
X146906375Y-74542297D01*
X146902291Y-74800534D01*
X145310225Y-74800534D01*
X145328517Y-74589508D01*
X145350917Y-74449496D01*
X145478080Y-73983235D01*
X145658617Y-73575189D01*
X145890245Y-73229314D01*
X146170678Y-72949567D01*
X146253312Y-72886711D01*
X146480659Y-72742887D01*
X146703700Y-72647458D01*
X146948356Y-72592905D01*
X147240551Y-72571706D01*
X147342500Y-72570728D01*
X147551852Y-72573957D01*
X147703404Y-72585990D01*
X147823911Y-72611329D01*
X147940131Y-72654476D01*
X147998667Y-72681141D01*
X148188032Y-72793033D01*
X148371180Y-72940066D01*
X148525147Y-73100875D01*
X148626972Y-73254093D01*
X148635922Y-73274112D01*
X148681812Y-73359128D01*
X148722692Y-73395641D01*
X148723469Y-73395667D01*
X148734079Y-73355310D01*
X148743511Y-73242143D01*
X148751308Y-73068019D01*
X148757016Y-72844791D01*
X148760178Y-72584312D01*
X148760667Y-72427896D01*
X148760667Y-71460125D01*
X148189167Y-71338261D01*
X148189167Y-70755285D01*
X149184000Y-70552700D01*
X149465025Y-70495858D01*
X149719714Y-70445073D01*
X149935916Y-70402710D01*
X150101480Y-70371132D01*
X150204255Y-70352703D01*
X150231750Y-70348891D01*
X150241911Y-70364572D01*
X150250772Y-70415242D01*
X150258408Y-70505590D01*
X150264896Y-70640304D01*
X150270313Y-70824073D01*
X150274734Y-71061586D01*
X150278235Y-71357532D01*
X150280894Y-71716598D01*
X150282787Y-72143474D01*
X150283989Y-72642849D01*
X150284577Y-73219411D01*
X150284667Y-73600975D01*
X150284667Y-76854284D01*
X150570417Y-76913559D01*
X150856167Y-76972833D01*
X150868569Y-77253537D01*
X150873540Y-77403648D01*
X150866988Y-77490211D01*
X150841754Y-77534231D01*
X150790678Y-77556714D01*
X150762736Y-77564048D01*
X150696931Y-77578691D01*
X150566079Y-77606300D01*
X150384284Y-77644012D01*
X150165650Y-77688962D01*
X149924282Y-77738285D01*
X149674283Y-77789117D01*
X149429757Y-77838594D01*
X149204808Y-77883851D01*
X149013541Y-77922024D01*
X148870060Y-77950248D01*
X148788467Y-77965660D01*
X148775343Y-77967667D01*
X148769505Y-77928222D01*
X148762825Y-77821410D01*
X148756208Y-77664510D01*
X148751515Y-77512583D01*
X148739500Y-77057500D01*
X148647837Y-77226833D01*
X148530923Y-77395368D01*
X148368141Y-77570260D01*
X148189638Y-77720586D01*
X148122385Y-77765806D01*
X147876905Y-77875647D01*
X147582539Y-77941227D01*
X147264072Y-77960009D01*
X146946290Y-77929456D01*
X146813333Y-77899800D01*
X146466709Y-77764112D01*
X146154495Y-77554387D01*
X145881299Y-77275834D01*
X145651730Y-76933664D01*
X145470395Y-76533087D01*
X145394478Y-76295500D01*
X145350872Y-76079197D01*
X145319548Y-75803316D01*
X145301077Y-75492131D01*
X145296033Y-75169918D01*
X145304989Y-74860952D01*
X145310225Y-74800534D01*
G37*
M02*
