G04 #@! TF.GenerationSoftware,KiCad,Pcbnew,7.0.1*
G04 #@! TF.CreationDate,2023-10-20T10:46:15+03:00*
G04 #@! TF.ProjectId,modelh,6d6f6465-6c68-42e6-9b69-6361645f7063,v0.1*
G04 #@! TF.SameCoordinates,Original*
G04 #@! TF.FileFunction,Copper,L1,Top*
G04 #@! TF.FilePolarity,Positive*
%FSLAX46Y46*%
G04 Gerber Fmt 4.6, Leading zero omitted, Abs format (unit mm)*
G04 Created by KiCad (PCBNEW 7.0.1) date 2023-10-20 10:46:15*
%MOMM*%
%LPD*%
G01*
G04 APERTURE LIST*
G04 Aperture macros list*
%AMRoundRect*
0 Rectangle with rounded corners*
0 $1 Rounding radius*
0 $2 $3 $4 $5 $6 $7 $8 $9 X,Y pos of 4 corners*
0 Add a 4 corners polygon primitive as box body*
4,1,4,$2,$3,$4,$5,$6,$7,$8,$9,$2,$3,0*
0 Add four circle primitives for the rounded corners*
1,1,$1+$1,$2,$3*
1,1,$1+$1,$4,$5*
1,1,$1+$1,$6,$7*
1,1,$1+$1,$8,$9*
0 Add four rect primitives between the rounded corners*
20,1,$1+$1,$2,$3,$4,$5,0*
20,1,$1+$1,$4,$5,$6,$7,0*
20,1,$1+$1,$6,$7,$8,$9,0*
20,1,$1+$1,$8,$9,$2,$3,0*%
G04 Aperture macros list end*
G04 #@! TA.AperFunction,ComponentPad*
%ADD10C,2.000000*%
G04 #@! TD*
G04 #@! TA.AperFunction,ComponentPad*
%ADD11R,1.700000X1.700000*%
G04 #@! TD*
G04 #@! TA.AperFunction,ComponentPad*
%ADD12C,1.700000*%
G04 #@! TD*
G04 #@! TA.AperFunction,ComponentPad*
%ADD13C,3.500000*%
G04 #@! TD*
G04 #@! TA.AperFunction,SMDPad,CuDef*
%ADD14RoundRect,0.218750X-0.218750X-0.256250X0.218750X-0.256250X0.218750X0.256250X-0.218750X0.256250X0*%
G04 #@! TD*
G04 #@! TA.AperFunction,SMDPad,CuDef*
%ADD15RoundRect,0.218750X0.256250X-0.218750X0.256250X0.218750X-0.256250X0.218750X-0.256250X-0.218750X0*%
G04 #@! TD*
G04 #@! TA.AperFunction,SMDPad,CuDef*
%ADD16R,1.500000X2.000000*%
G04 #@! TD*
G04 #@! TA.AperFunction,SMDPad,CuDef*
%ADD17R,3.800000X2.000000*%
G04 #@! TD*
G04 #@! TA.AperFunction,SMDPad,CuDef*
%ADD18RoundRect,0.218750X0.218750X0.256250X-0.218750X0.256250X-0.218750X-0.256250X0.218750X-0.256250X0*%
G04 #@! TD*
G04 #@! TA.AperFunction,ComponentPad*
%ADD19R,1.727200X1.727200*%
G04 #@! TD*
G04 #@! TA.AperFunction,ComponentPad*
%ADD20O,1.727200X1.727200*%
G04 #@! TD*
G04 #@! TA.AperFunction,SMDPad,CuDef*
%ADD21RoundRect,0.218750X-0.256250X0.218750X-0.256250X-0.218750X0.256250X-0.218750X0.256250X0.218750X0*%
G04 #@! TD*
G04 #@! TA.AperFunction,SMDPad,CuDef*
%ADD22RoundRect,0.147500X0.172500X-0.147500X0.172500X0.147500X-0.172500X0.147500X-0.172500X-0.147500X0*%
G04 #@! TD*
G04 #@! TA.AperFunction,SMDPad,CuDef*
%ADD23RoundRect,0.147500X0.147500X0.172500X-0.147500X0.172500X-0.147500X-0.172500X0.147500X-0.172500X0*%
G04 #@! TD*
G04 #@! TA.AperFunction,SMDPad,CuDef*
%ADD24R,2.750000X1.000000*%
G04 #@! TD*
G04 #@! TA.AperFunction,ComponentPad*
%ADD25O,1.700000X1.700000*%
G04 #@! TD*
G04 #@! TA.AperFunction,SMDPad,CuDef*
%ADD26RoundRect,0.075000X0.521491X-0.415425X-0.415425X0.521491X-0.521491X0.415425X0.415425X-0.521491X0*%
G04 #@! TD*
G04 #@! TA.AperFunction,SMDPad,CuDef*
%ADD27RoundRect,0.075000X0.521491X0.415425X0.415425X0.521491X-0.521491X-0.415425X-0.415425X-0.521491X0*%
G04 #@! TD*
G04 #@! TA.AperFunction,SMDPad,CuDef*
%ADD28R,2.000000X2.400000*%
G04 #@! TD*
G04 #@! TA.AperFunction,SMDPad,CuDef*
%ADD29RoundRect,0.243750X0.456250X-0.243750X0.456250X0.243750X-0.456250X0.243750X-0.456250X-0.243750X0*%
G04 #@! TD*
G04 #@! TA.AperFunction,SMDPad,CuDef*
%ADD30RoundRect,0.147500X-0.172500X0.147500X-0.172500X-0.147500X0.172500X-0.147500X0.172500X0.147500X0*%
G04 #@! TD*
G04 #@! TA.AperFunction,SMDPad,CuDef*
%ADD31RoundRect,0.250000X-0.450000X0.325000X-0.450000X-0.325000X0.450000X-0.325000X0.450000X0.325000X0*%
G04 #@! TD*
G04 #@! TA.AperFunction,SMDPad,CuDef*
%ADD32RoundRect,0.243750X0.243750X0.456250X-0.243750X0.456250X-0.243750X-0.456250X0.243750X-0.456250X0*%
G04 #@! TD*
G04 #@! TA.AperFunction,SMDPad,CuDef*
%ADD33RoundRect,0.147500X-0.147500X-0.172500X0.147500X-0.172500X0.147500X0.172500X-0.147500X0.172500X0*%
G04 #@! TD*
G04 #@! TA.AperFunction,SMDPad,CuDef*
%ADD34RoundRect,0.250000X-0.325000X-0.450000X0.325000X-0.450000X0.325000X0.450000X-0.325000X0.450000X0*%
G04 #@! TD*
G04 #@! TA.AperFunction,SMDPad,CuDef*
%ADD35RoundRect,0.243750X-0.456250X0.243750X-0.456250X-0.243750X0.456250X-0.243750X0.456250X0.243750X0*%
G04 #@! TD*
G04 #@! TA.AperFunction,ViaPad*
%ADD36C,0.800000*%
G04 #@! TD*
G04 #@! TA.AperFunction,ViaPad*
%ADD37C,0.600000*%
G04 #@! TD*
G04 #@! TA.AperFunction,Conductor*
%ADD38C,0.500000*%
G04 #@! TD*
G04 #@! TA.AperFunction,Conductor*
%ADD39C,0.250000*%
G04 #@! TD*
G04 #@! TA.AperFunction,Conductor*
%ADD40C,0.800000*%
G04 #@! TD*
G04 #@! TA.AperFunction,Conductor*
%ADD41C,1.000000*%
G04 #@! TD*
G04 #@! TA.AperFunction,Conductor*
%ADD42C,0.300000*%
G04 #@! TD*
G04 APERTURE END LIST*
D10*
X208750000Y-53300000D03*
X208750000Y-55840000D03*
X208750000Y-58380000D03*
X208750000Y-60920000D03*
D11*
X87470000Y-57490000D03*
D12*
X89970000Y-57490000D03*
X89970000Y-55490000D03*
X87470000Y-55490000D03*
D13*
X82700000Y-52780000D03*
X94740000Y-52780000D03*
D14*
X98482500Y-58340000D03*
X100057500Y-58340000D03*
D15*
X87170000Y-68027500D03*
X87170000Y-66452500D03*
D16*
X84820000Y-64090000D03*
X82520000Y-64090000D03*
D17*
X82520000Y-70390000D03*
D16*
X80220000Y-64090000D03*
D14*
X98482500Y-56740000D03*
X100057500Y-56740000D03*
X98482500Y-66640000D03*
X100057500Y-66640000D03*
D18*
X100057500Y-65040000D03*
X98482500Y-65040000D03*
D19*
X79770000Y-80140000D03*
D20*
X79770000Y-77600000D03*
X82310000Y-80140000D03*
X82310000Y-77600000D03*
X84850000Y-80140000D03*
X84850000Y-77600000D03*
X87390000Y-80140000D03*
X87390000Y-77600000D03*
X89930000Y-80140000D03*
X89930000Y-77600000D03*
D21*
X118520000Y-72452500D03*
X118520000Y-74027500D03*
D18*
X115307500Y-74240000D03*
X113732500Y-74240000D03*
D22*
X101870000Y-61325000D03*
X101870000Y-60355000D03*
D23*
X108505000Y-69440000D03*
X107535000Y-69440000D03*
D24*
X103750000Y-82290000D03*
X97990000Y-82290000D03*
X103750000Y-78290000D03*
X97990000Y-78290000D03*
D11*
X95610000Y-70340000D03*
X93070000Y-70340000D03*
D25*
X95610000Y-67800000D03*
X93070000Y-67800000D03*
X95610000Y-65260000D03*
X93070000Y-65260000D03*
D23*
X78040000Y-63240000D03*
X77070000Y-63240000D03*
D22*
X88470000Y-67675000D03*
X88470000Y-66705000D03*
D26*
X109268788Y-67877876D03*
X109622342Y-67524322D03*
X109975895Y-67170769D03*
X110329449Y-66817215D03*
X110683002Y-66463662D03*
X111036555Y-66110109D03*
X111390109Y-65756555D03*
X111743662Y-65403002D03*
X112097215Y-65049449D03*
X112450769Y-64695895D03*
X112804322Y-64342342D03*
X113157876Y-63988788D03*
D27*
X113157876Y-61991212D03*
X112804322Y-61637658D03*
X112450769Y-61284105D03*
X112097215Y-60930551D03*
X111743662Y-60576998D03*
X111390109Y-60223445D03*
X111036555Y-59869891D03*
X110683002Y-59516338D03*
X110329449Y-59162785D03*
X109975895Y-58809231D03*
X109622342Y-58455678D03*
X109268788Y-58102124D03*
D26*
X107271212Y-58102124D03*
X106917658Y-58455678D03*
X106564105Y-58809231D03*
X106210551Y-59162785D03*
X105856998Y-59516338D03*
X105503445Y-59869891D03*
X105149891Y-60223445D03*
X104796338Y-60576998D03*
X104442785Y-60930551D03*
X104089231Y-61284105D03*
X103735678Y-61637658D03*
X103382124Y-61991212D03*
D27*
X103382124Y-63988788D03*
X103735678Y-64342342D03*
X104089231Y-64695895D03*
X104442785Y-65049449D03*
X104796338Y-65403002D03*
X105149891Y-65756555D03*
X105503445Y-66110109D03*
X105856998Y-66463662D03*
X106210551Y-66817215D03*
X106564105Y-67170769D03*
X106917658Y-67524322D03*
X107271212Y-67877876D03*
D18*
X90957500Y-61040000D03*
X89382500Y-61040000D03*
D23*
X106355000Y-69440000D03*
X105385000Y-69440000D03*
D12*
X204170000Y-67940000D03*
D25*
X204170000Y-70480000D03*
X204170000Y-73020000D03*
X204170000Y-75560000D03*
X204170000Y-78100000D03*
D21*
X110520000Y-72452500D03*
X110520000Y-74027500D03*
D12*
X200070000Y-67940000D03*
D25*
X200070000Y-70480000D03*
X200070000Y-73020000D03*
X200070000Y-75560000D03*
X200070000Y-78100000D03*
D12*
X196370000Y-67940000D03*
D25*
X196370000Y-70480000D03*
X196370000Y-73020000D03*
X196370000Y-75560000D03*
X196370000Y-78100000D03*
D28*
X116370000Y-71490000D03*
X112670000Y-71490000D03*
D29*
X102770000Y-75077500D03*
X102770000Y-73202500D03*
D21*
X100970000Y-73152500D03*
X100970000Y-74727500D03*
D18*
X100057500Y-68240000D03*
X98482500Y-68240000D03*
X100057500Y-63440000D03*
X98482500Y-63440000D03*
D10*
X174080000Y-53600000D03*
X176620000Y-53600000D03*
X179160000Y-53600000D03*
X181700000Y-53600000D03*
X184240000Y-53600000D03*
X186780000Y-53600000D03*
X189320000Y-53600000D03*
X191860000Y-53600000D03*
X194400000Y-53600000D03*
X196940000Y-53600000D03*
X199480000Y-53600000D03*
X202020000Y-53600000D03*
D30*
X99470000Y-72905000D03*
X99470000Y-73875000D03*
D31*
X196970000Y-56815000D03*
X196970000Y-58865000D03*
X194370000Y-56790000D03*
X194370000Y-58840000D03*
X202070000Y-56815000D03*
X202070000Y-58865000D03*
X199470000Y-56815000D03*
X199470000Y-58865000D03*
D32*
X191737500Y-60440000D03*
X189862500Y-60440000D03*
X191737500Y-62470000D03*
X189862500Y-62470000D03*
X191737500Y-64540000D03*
X189862500Y-64540000D03*
D33*
X110385000Y-56740000D03*
X111355000Y-56740000D03*
D34*
X83245000Y-61240000D03*
X85295000Y-61240000D03*
D10*
X116700000Y-51100000D03*
X119240000Y-51100000D03*
X121780000Y-51100000D03*
X124320000Y-51100000D03*
X126860000Y-51100000D03*
X129400000Y-51100000D03*
X131940000Y-51100000D03*
X134480000Y-51100000D03*
X137020000Y-51100000D03*
X139560000Y-51100000D03*
X142100000Y-51100000D03*
X144640000Y-51100000D03*
X147180000Y-51100000D03*
X149720000Y-51100000D03*
X152260000Y-51100000D03*
X154800000Y-51100000D03*
D12*
X78670000Y-57340000D03*
D18*
X77870000Y-61540000D03*
X76295000Y-61540000D03*
D35*
X69770000Y-50802500D03*
X69770000Y-52677500D03*
D14*
X76282500Y-59740000D03*
X77857500Y-59740000D03*
D30*
X113800000Y-65815000D03*
X113800000Y-66785000D03*
D36*
X102270000Y-69110000D03*
X138000000Y-69000000D03*
X136000000Y-69000000D03*
X134000000Y-69000000D03*
X130000000Y-69000000D03*
X132000000Y-69000000D03*
X148000000Y-69000000D03*
X146000000Y-69000000D03*
X150000000Y-69000000D03*
X158000000Y-69000000D03*
X156000000Y-69000000D03*
X152000000Y-69000000D03*
X154000000Y-69000000D03*
X144000000Y-69000000D03*
X140000000Y-69000000D03*
X142000000Y-69000000D03*
X178000000Y-69000000D03*
X170000000Y-69000000D03*
X176000000Y-69000000D03*
X164000000Y-69000000D03*
X172000000Y-69000000D03*
X174000000Y-69000000D03*
X166000000Y-69000000D03*
X168000000Y-69000000D03*
X162000000Y-69000000D03*
X160000000Y-69000000D03*
X148000000Y-83000000D03*
X170000000Y-83000000D03*
X154000000Y-83000000D03*
X168000000Y-83000000D03*
X156000000Y-83000000D03*
X116000000Y-83000000D03*
X162000000Y-83000000D03*
X166000000Y-83000000D03*
X160000000Y-83000000D03*
X114000000Y-83000000D03*
X152000000Y-83000000D03*
X150000000Y-83000000D03*
X164000000Y-83000000D03*
X158000000Y-83000000D03*
X172000000Y-83000000D03*
X118000000Y-83000000D03*
X146000000Y-83000000D03*
X138000000Y-83000000D03*
X144000000Y-83000000D03*
X132000000Y-83000000D03*
X140000000Y-83000000D03*
X126000000Y-83000000D03*
X142000000Y-83000000D03*
X174000000Y-83000000D03*
X134000000Y-83000000D03*
X124000000Y-83000000D03*
X120000000Y-83000000D03*
X122000000Y-83000000D03*
X136000000Y-83000000D03*
X130000000Y-83000000D03*
X128000000Y-83000000D03*
X112000000Y-83000000D03*
X176000000Y-83000000D03*
X108000000Y-83000000D03*
X110000000Y-83000000D03*
X178000000Y-83000000D03*
X182000000Y-83000000D03*
X186000000Y-83000000D03*
X190000000Y-83000000D03*
X184000000Y-83000000D03*
X194000000Y-83000000D03*
X192000000Y-83000000D03*
X188000000Y-83000000D03*
X180000000Y-83000000D03*
X211000000Y-49000000D03*
X199000000Y-49000000D03*
X207000000Y-49000000D03*
X203000000Y-49000000D03*
X209000000Y-49000000D03*
X205000000Y-49000000D03*
X201000000Y-49000000D03*
X195000000Y-49000000D03*
X193000000Y-49000000D03*
X197000000Y-49000000D03*
X181000000Y-49000000D03*
X177000000Y-49000000D03*
X185000000Y-49000000D03*
X183000000Y-49000000D03*
X187000000Y-49000000D03*
X179000000Y-49000000D03*
X191000000Y-49000000D03*
X175000000Y-49000000D03*
X189000000Y-49000000D03*
X173000000Y-49000000D03*
X171000000Y-49000000D03*
X167000000Y-49000000D03*
X163000000Y-49000000D03*
X159000000Y-49000000D03*
X153000000Y-49000000D03*
X161000000Y-49000000D03*
X155000000Y-49000000D03*
X157000000Y-49000000D03*
X169000000Y-49000000D03*
X165000000Y-49000000D03*
X143000000Y-49000000D03*
X151000000Y-49000000D03*
X133000000Y-49000000D03*
X145000000Y-49000000D03*
X139000000Y-49000000D03*
X149000000Y-49000000D03*
X141000000Y-49000000D03*
X135000000Y-49000000D03*
X147000000Y-49000000D03*
X137000000Y-49000000D03*
X113000000Y-49000000D03*
X131000000Y-49000000D03*
X115000000Y-49000000D03*
X123000000Y-49000000D03*
X117000000Y-49000000D03*
X127000000Y-49000000D03*
X121000000Y-49000000D03*
X129000000Y-49000000D03*
X119000000Y-49000000D03*
X125000000Y-49000000D03*
X67000000Y-81000000D03*
X67000000Y-79000000D03*
X213000000Y-63000000D03*
X76370000Y-64340000D03*
X149000000Y-59000000D03*
X79000000Y-49000000D03*
X67000000Y-67000000D03*
X90000000Y-52000000D03*
X87870000Y-64440000D03*
X108000000Y-60600000D03*
X105000000Y-49000000D03*
X88870000Y-63440000D03*
X103270000Y-69110010D03*
X99000000Y-49000000D03*
X126000000Y-69000000D03*
X77000000Y-49000000D03*
X151000000Y-59000000D03*
X178000000Y-77000000D03*
X184000000Y-69000000D03*
X205000000Y-55000000D03*
X205000000Y-65000000D03*
X205000000Y-51000000D03*
X67000000Y-59000000D03*
X126000000Y-79000000D03*
X213000000Y-59000000D03*
X73000000Y-49000000D03*
X98870000Y-60440000D03*
X75000000Y-49000000D03*
X190000000Y-69000000D03*
X86870000Y-63440000D03*
X71000000Y-83000000D03*
X81000000Y-83000000D03*
X67000000Y-63000000D03*
X213000000Y-53000000D03*
X88870000Y-64440000D03*
X67000000Y-51000000D03*
X113570000Y-77140000D03*
X167000000Y-59000000D03*
X87870000Y-63440000D03*
X88000000Y-50000000D03*
X104500000Y-73750000D03*
X124000000Y-69000000D03*
X204000000Y-83000000D03*
X108000000Y-73750000D03*
X99770000Y-60440000D03*
X117800000Y-66700000D03*
X76370000Y-65440000D03*
X115570000Y-66690000D03*
X108700000Y-59900004D03*
X203000000Y-65000000D03*
X95000000Y-49000000D03*
X122000000Y-69000000D03*
X85000000Y-49000000D03*
X213000000Y-69000000D03*
X101000000Y-49000000D03*
X206000000Y-83000000D03*
X67000000Y-65000000D03*
X77000000Y-83000000D03*
X98250000Y-74500000D03*
X178000000Y-81000000D03*
X93000000Y-49000000D03*
X67000000Y-61000000D03*
X79000000Y-83000000D03*
X69000000Y-49000000D03*
X126000000Y-81000000D03*
X163000000Y-59000000D03*
X199000000Y-65000000D03*
X87000000Y-83000000D03*
X213000000Y-77000000D03*
X100670000Y-60459990D03*
X86870000Y-64440000D03*
X92000000Y-50000000D03*
X86000000Y-52000000D03*
X126000000Y-73000000D03*
X208000000Y-83000000D03*
X126000000Y-71000000D03*
X200000000Y-83000000D03*
X186000000Y-69000000D03*
X178000000Y-79000000D03*
X77370000Y-64840000D03*
X73000000Y-83000000D03*
X213000000Y-51000000D03*
X67000000Y-77000000D03*
X97000000Y-49000000D03*
X114570000Y-77140000D03*
X115570000Y-77140000D03*
X107000000Y-49000000D03*
X106000000Y-83000000D03*
X178000000Y-73000000D03*
X88000000Y-52000000D03*
X213000000Y-61000000D03*
X153000000Y-59000000D03*
X107794990Y-68540000D03*
X178000000Y-75000000D03*
X128000000Y-69000000D03*
X155000000Y-59000000D03*
X77370000Y-65940000D03*
X116700000Y-66700000D03*
X205000000Y-53000000D03*
X201000000Y-65000000D03*
X213000000Y-65000000D03*
X83000000Y-83000000D03*
X89000000Y-83000000D03*
X213000000Y-55000000D03*
X196000000Y-83000000D03*
X83000000Y-49000000D03*
X93000000Y-83000000D03*
X213000000Y-57000000D03*
X67000000Y-53000000D03*
X96500000Y-76000000D03*
X98250000Y-76000000D03*
X197000000Y-65000000D03*
X85000000Y-83000000D03*
X67000000Y-75000000D03*
X182000000Y-69000000D03*
X157000000Y-59000000D03*
X213000000Y-75000000D03*
X96500000Y-74500000D03*
X198000000Y-83000000D03*
X69000000Y-83000000D03*
X106250000Y-73750000D03*
X159000000Y-59000000D03*
X91000000Y-83000000D03*
X188000000Y-69000000D03*
X120000000Y-69000000D03*
X213000000Y-73000000D03*
X81000000Y-49000000D03*
X90000000Y-50000000D03*
X213000000Y-71000000D03*
X126000000Y-77000000D03*
X67000000Y-57000000D03*
X86000000Y-50000000D03*
X67000000Y-55000000D03*
X161000000Y-59000000D03*
X202000000Y-83000000D03*
X213000000Y-67000000D03*
X165000000Y-59000000D03*
X103000000Y-49000000D03*
X104270000Y-69110010D03*
X109000000Y-49000000D03*
X92000000Y-52000000D03*
X178000000Y-71000000D03*
X213000000Y-79000000D03*
X180000000Y-69000000D03*
X126000000Y-75000000D03*
X111000000Y-49000000D03*
X71000000Y-49000000D03*
X67000000Y-69000000D03*
X194170000Y-62440000D03*
X199470000Y-61440000D03*
X194157340Y-61427340D03*
X199470000Y-60440000D03*
X194170161Y-60427411D03*
X109370000Y-70140000D03*
X114670000Y-65440000D03*
X109370000Y-69140000D03*
X115720000Y-65440000D03*
D37*
X109528158Y-65366699D03*
X108520000Y-71540004D03*
X107770000Y-62140000D03*
X117670000Y-62140000D03*
X106970000Y-62140000D03*
X118470000Y-62140000D03*
X108570000Y-62140000D03*
X116870000Y-62140000D03*
X109370000Y-62140000D03*
X116070000Y-62140000D03*
X110170000Y-62140000D03*
X115270000Y-62140000D03*
X101270000Y-67215000D03*
X98020000Y-72490000D03*
X89800000Y-66300000D03*
X89200000Y-69300000D03*
D36*
X188590000Y-60420000D03*
D37*
X108670000Y-65340000D03*
X120470000Y-65340000D03*
X107870000Y-65340000D03*
D36*
X188540000Y-62470000D03*
D37*
X121270000Y-65340000D03*
X122070000Y-65340000D03*
X107028051Y-65298051D03*
D36*
X188570000Y-64540000D03*
D37*
X107400000Y-61400000D03*
X102100000Y-62700000D03*
D38*
X100774990Y-60355000D02*
X100670000Y-60459990D01*
D39*
X103735678Y-61637658D02*
X102453020Y-60355000D01*
D38*
X110520000Y-74465000D02*
X111795000Y-75740000D01*
X110520000Y-74027500D02*
X110520000Y-74465000D01*
X118520000Y-74465000D02*
X117245000Y-75740000D01*
X107535000Y-69490000D02*
X107535000Y-68799990D01*
X77070000Y-63640000D02*
X76370000Y-64340000D01*
D39*
X109622342Y-58455678D02*
X109657554Y-58455678D01*
D38*
X105214990Y-69410010D02*
X105385000Y-69240000D01*
X111795000Y-75740000D02*
X114570000Y-75740000D01*
D39*
X106917658Y-67524322D02*
X105385000Y-69056980D01*
X108700000Y-59378020D02*
X108700000Y-59900004D01*
X105385000Y-69056980D02*
X105385000Y-69240000D01*
X109622342Y-58455678D02*
X108700000Y-59378020D01*
D38*
X114570000Y-75740000D02*
X114570000Y-77140000D01*
D39*
X102453020Y-60355000D02*
X101870000Y-60355000D01*
D38*
X77070000Y-63240000D02*
X77070000Y-63640000D01*
D40*
X87170000Y-66452500D02*
X87170000Y-64990000D01*
D39*
X111743662Y-65403002D02*
X113125660Y-66785000D01*
D38*
X107535000Y-68799990D02*
X107794990Y-68540000D01*
X118520000Y-74027500D02*
X118520000Y-74465000D01*
X114570000Y-75740000D02*
X117245000Y-75740000D01*
D39*
X111355000Y-56758232D02*
X111355000Y-56740000D01*
X113125660Y-66785000D02*
X113800000Y-66785000D01*
X106917658Y-67524322D02*
X106882318Y-67524322D01*
D38*
X76295000Y-61540000D02*
X76295000Y-64265000D01*
D39*
X111743662Y-65403002D02*
X111748002Y-65403002D01*
X109657554Y-58455678D02*
X111355000Y-56758232D01*
D38*
X101870000Y-60355000D02*
X100774990Y-60355000D01*
X76295000Y-64265000D02*
X76370000Y-64340000D01*
D41*
X83245000Y-61240000D02*
X79570000Y-61240000D01*
X77870000Y-62015000D02*
X78065010Y-62210010D01*
D39*
X80620000Y-62440000D02*
X88457500Y-62440000D01*
D41*
X79570000Y-61240000D02*
X78170000Y-61240000D01*
X78065010Y-63685010D02*
X78470000Y-64090000D01*
X78470000Y-64090000D02*
X80220000Y-64090000D01*
D39*
X88457500Y-62440000D02*
X89382500Y-61515000D01*
X89382500Y-61515000D02*
X89382500Y-61040000D01*
D41*
X78170000Y-61240000D02*
X77870000Y-61540000D01*
D39*
X80220000Y-62840000D02*
X80620000Y-62440000D01*
X80220000Y-64090000D02*
X80220000Y-62840000D01*
D41*
X77870000Y-61540000D02*
X77870000Y-62015000D01*
D40*
X79570000Y-58240000D02*
X78670000Y-57340000D01*
X79570000Y-61240000D02*
X79570000Y-58240000D01*
D41*
X78065010Y-62210010D02*
X78065010Y-63685010D01*
D39*
X194870000Y-62440000D02*
X195370000Y-61940000D01*
X191737500Y-64540000D02*
X192670000Y-64540000D01*
X195370000Y-61940000D02*
X195370000Y-60415000D01*
X194170000Y-62440000D02*
X194870000Y-62440000D01*
X194370000Y-59415000D02*
X194370000Y-58840000D01*
X192670000Y-64540000D02*
X194170000Y-63040000D01*
X195370000Y-60415000D02*
X194370000Y-59415000D01*
X194170000Y-63040000D02*
X194170000Y-62440000D01*
X198370000Y-59265000D02*
X198770000Y-58865000D01*
X198904315Y-61440000D02*
X198370000Y-60905685D01*
X198770000Y-58865000D02*
X199470000Y-58865000D01*
X198370000Y-60905685D02*
X198370000Y-59265000D01*
X203170000Y-61440000D02*
X208770000Y-55840000D01*
X199470000Y-61440000D02*
X203170000Y-61440000D01*
X191737500Y-62470000D02*
X192240000Y-62470000D01*
X193282660Y-61427340D02*
X194157340Y-61427340D01*
X199470000Y-61440000D02*
X198904315Y-61440000D01*
X192240000Y-62470000D02*
X193282660Y-61427340D01*
X201070000Y-60440000D02*
X202070000Y-59440000D01*
X202070000Y-59440000D02*
X202070000Y-58865000D01*
X199470000Y-60440000D02*
X201070000Y-60440000D01*
X191587500Y-60420000D02*
X194162750Y-60420000D01*
X203195000Y-58865000D02*
X202070000Y-58865000D01*
X208760000Y-53300000D02*
X203195000Y-58865000D01*
X208770000Y-53300000D02*
X208760000Y-53300000D01*
X194162750Y-60420000D02*
X194170161Y-60427411D01*
X75532500Y-56940000D02*
X74032500Y-56940000D01*
X77857500Y-59265000D02*
X75532500Y-56940000D01*
X74032500Y-56940000D02*
X69770000Y-52677500D01*
X77857500Y-59740000D02*
X77857500Y-59265000D01*
X91020000Y-55490000D02*
X89970000Y-55490000D01*
X98482500Y-58340000D02*
X93870000Y-58340000D01*
X93870000Y-58340000D02*
X91020000Y-55490000D01*
X90534001Y-54314999D02*
X92959002Y-56740000D01*
X89970000Y-57490000D02*
X88794999Y-56314999D01*
X89405999Y-54314999D02*
X90534001Y-54314999D01*
X88794999Y-56314999D02*
X88794999Y-54925999D01*
X92959002Y-56740000D02*
X98482500Y-56740000D01*
X88794999Y-54925999D02*
X89405999Y-54314999D01*
D38*
X114670000Y-65440000D02*
X114670000Y-65440000D01*
D40*
X115720000Y-65440000D02*
X118970000Y-65440000D01*
D41*
X101569986Y-61350010D02*
X101360005Y-61559991D01*
D38*
X102856212Y-61991212D02*
X103240688Y-61991212D01*
D40*
X108800000Y-69490000D02*
X108970001Y-69319999D01*
X119770001Y-66240001D02*
X120109999Y-66240001D01*
D39*
X79620000Y-70390000D02*
X75519990Y-66289990D01*
D41*
X101360005Y-61559991D02*
X94476007Y-61559991D01*
D38*
X103240688Y-61991212D02*
X103311406Y-62061930D01*
D41*
X84807500Y-70390000D02*
X87170000Y-68027500D01*
D38*
X108505000Y-69490000D02*
X108505000Y-69810000D01*
D41*
X106033552Y-70510010D02*
X106530010Y-70013552D01*
D40*
X109370000Y-70114682D02*
X109370000Y-69140000D01*
D39*
X109268788Y-58102124D02*
X109268788Y-57856212D01*
D42*
X109268788Y-58102124D02*
X109056656Y-58102124D01*
D38*
X102190000Y-61325000D02*
X102856212Y-61991212D01*
D39*
X112862766Y-65815000D02*
X113800000Y-65815000D01*
D38*
X108554999Y-69539999D02*
X108505000Y-69490000D01*
D40*
X196970000Y-62640000D02*
X204510000Y-62640000D01*
D41*
X88092510Y-68027500D02*
X87170000Y-68027500D01*
X82520000Y-64090000D02*
X82520000Y-70390000D01*
D40*
X108970001Y-68176663D02*
X109092004Y-68054660D01*
D39*
X76282500Y-60215000D02*
X75519990Y-60977510D01*
D41*
X91770000Y-70265000D02*
X89532500Y-68027500D01*
D40*
X193370000Y-66240000D02*
X196970000Y-62640000D01*
D41*
X108530010Y-70013552D02*
X108530010Y-69490000D01*
D38*
X108970001Y-69539999D02*
X108554999Y-69539999D01*
D41*
X90900000Y-65135998D02*
X90900000Y-66660000D01*
D38*
X114670000Y-65440000D02*
X114175000Y-65440000D01*
D41*
X79770000Y-80140000D02*
X78206399Y-78576399D01*
X94476007Y-61559991D02*
X90900000Y-65135998D01*
D39*
X75519990Y-60977510D02*
X75519990Y-66289990D01*
D41*
X95610000Y-70340000D02*
X93070000Y-70340000D01*
D40*
X108505000Y-69490000D02*
X108800000Y-69490000D01*
D38*
X108054990Y-70260010D02*
X108375000Y-69940000D01*
D41*
X78206399Y-78576399D02*
X78206399Y-71803601D01*
D40*
X120109999Y-66240000D02*
X193370000Y-66240000D01*
D42*
X108632417Y-58526363D02*
X108632417Y-58632417D01*
D38*
X106490010Y-70260010D02*
X106505000Y-70245020D01*
D40*
X196970000Y-62640000D02*
X196970000Y-58865000D01*
X118970000Y-65440000D02*
X119770001Y-66240001D01*
D41*
X93070000Y-70340000D02*
X91770000Y-70340000D01*
D38*
X102856212Y-61991212D02*
X103549159Y-62684159D01*
D40*
X204510000Y-62640000D02*
X208770000Y-58380000D01*
D41*
X89532500Y-68027500D02*
X88092510Y-68027500D01*
D38*
X103549159Y-62684159D02*
X104580675Y-62684159D01*
D42*
X109268788Y-58102124D02*
X109268788Y-57956212D01*
D38*
X108054990Y-70260010D02*
X106490010Y-70260010D01*
D39*
X76282500Y-59740000D02*
X76282500Y-60215000D01*
D38*
X101870000Y-61325000D02*
X102190000Y-61325000D01*
D40*
X108033552Y-70510010D02*
X108974672Y-70510010D01*
D41*
X101870000Y-61350010D02*
X101569986Y-61350010D01*
X78206399Y-71803601D02*
X79620000Y-70390000D01*
D40*
X108970001Y-69319999D02*
X108970001Y-68176663D01*
D41*
X106033552Y-70510010D02*
X97399989Y-70510011D01*
X79620000Y-70390000D02*
X82520000Y-70390000D01*
X82520000Y-70390000D02*
X84807500Y-70390000D01*
D42*
X106505000Y-69490000D02*
X106505000Y-68644088D01*
D41*
X91770000Y-70340000D02*
X91770000Y-70265000D01*
D40*
X108970001Y-68740001D02*
X108970001Y-68176663D01*
D41*
X106033552Y-70510010D02*
X108033552Y-70510010D01*
D38*
X109370000Y-69140000D02*
X108970001Y-69539999D01*
X114175000Y-65440000D02*
X113800000Y-65815000D01*
D41*
X97399989Y-70510011D02*
X97229978Y-70340000D01*
D38*
X108632417Y-58632417D02*
X108575841Y-58688993D01*
D39*
X112097215Y-65049449D02*
X112862766Y-65815000D01*
D38*
X108505000Y-69490000D02*
X109020000Y-69490000D01*
X106505000Y-70245020D02*
X106505000Y-69490000D01*
D42*
X103382124Y-62203344D02*
X103382124Y-61991212D01*
D39*
X109268788Y-57856212D02*
X110385000Y-56740000D01*
D41*
X108033552Y-70510010D02*
X108530010Y-70013552D01*
D40*
X109370000Y-69140000D02*
X108970001Y-68740001D01*
D41*
X106530010Y-70013552D02*
X106530010Y-69490000D01*
D40*
X193370000Y-72560000D02*
X196370000Y-75560000D01*
D41*
X90900000Y-66660000D02*
X89532500Y-68027500D01*
D40*
X108974672Y-70510010D02*
X109370000Y-70114682D01*
D38*
X104580675Y-62684159D02*
X108632417Y-58632417D01*
X108505000Y-69810000D02*
X108054990Y-70260010D01*
D42*
X106505000Y-68644088D02*
X107271212Y-67877876D01*
D38*
X109020000Y-69490000D02*
X109370000Y-69140000D01*
D41*
X97229978Y-70340000D02*
X95610000Y-70340000D01*
D42*
X109056656Y-58102124D02*
X108632417Y-58526363D01*
D40*
X114670000Y-65440000D02*
X115720000Y-65440000D01*
X193370000Y-66240000D02*
X193370000Y-72560000D01*
D39*
X100970000Y-74640000D02*
X102407500Y-73202500D01*
X102407500Y-73202500D02*
X102770000Y-73202500D01*
X100970000Y-74727500D02*
X100970000Y-74640000D01*
X93870998Y-67800000D02*
X95235997Y-66435001D01*
X93070000Y-67800000D02*
X93870998Y-67800000D01*
X95235997Y-66435001D02*
X96174999Y-66435001D01*
X97570000Y-65040000D02*
X98045000Y-65040000D01*
X96174999Y-66435001D02*
X97570000Y-65040000D01*
X98045000Y-65040000D02*
X98482500Y-65040000D01*
X96770000Y-66640000D02*
X95610000Y-67800000D01*
X98482500Y-66640000D02*
X96770000Y-66640000D01*
D38*
X115307500Y-74240000D02*
X115307500Y-72552500D01*
D39*
X116370000Y-71290000D02*
X116370000Y-71490000D01*
D38*
X116370000Y-71490000D02*
X117557500Y-71490000D01*
X117557500Y-71490000D02*
X118520000Y-72452500D01*
D39*
X111036555Y-66110109D02*
X114966446Y-70040000D01*
D38*
X115307500Y-72552500D02*
X116370000Y-71490000D01*
D39*
X114966446Y-70040000D02*
X115120000Y-70040000D01*
X115120000Y-70040000D02*
X116370000Y-71290000D01*
X112670000Y-68450660D02*
X112670000Y-71490000D01*
D38*
X111482500Y-71490000D02*
X110520000Y-72452500D01*
X113732500Y-72552500D02*
X112670000Y-71490000D01*
D39*
X110683002Y-66463662D02*
X112670000Y-68450660D01*
D38*
X113732500Y-74240000D02*
X113732500Y-72552500D01*
D39*
X110683002Y-66463662D02*
X110693662Y-66463662D01*
D38*
X112670000Y-71490000D02*
X111482500Y-71490000D01*
D39*
X97990000Y-78290000D02*
X103750000Y-78290000D01*
X111390109Y-65756555D02*
X110723554Y-65090000D01*
X110723554Y-65090000D02*
X109804857Y-65090000D01*
X90620000Y-78290000D02*
X89930000Y-77600000D01*
X89930000Y-74730000D02*
X89930000Y-77600000D01*
X100319996Y-71540004D02*
X99470000Y-72390000D01*
X97990000Y-78290000D02*
X90620000Y-78290000D01*
X108520000Y-71540004D02*
X100319996Y-71540004D01*
X99470000Y-72905000D02*
X99150000Y-72905000D01*
X98939999Y-73115001D02*
X91544999Y-73115001D01*
X99470000Y-72390000D02*
X99470000Y-72905000D01*
X109804857Y-65090000D02*
X109528158Y-65366699D01*
X91544999Y-73115001D02*
X89930000Y-74730000D01*
X99150000Y-72905000D02*
X98939999Y-73115001D01*
X115216140Y-60145080D02*
X145718920Y-60145080D01*
X113370008Y-61991212D02*
X115216140Y-60145080D01*
X145718920Y-60145080D02*
X154810000Y-51054000D01*
X113157876Y-61991212D02*
X113370008Y-61991212D01*
X112804322Y-61637658D02*
X114746910Y-59695070D01*
X143628930Y-59695070D02*
X152270000Y-51054000D01*
X114746910Y-59695070D02*
X143628930Y-59695070D01*
X112450769Y-61284105D02*
X112486109Y-61284105D01*
X112486109Y-61284105D02*
X114525154Y-59245060D01*
X114525154Y-59245060D02*
X141538940Y-59245060D01*
X141538940Y-59245060D02*
X149730000Y-51054000D01*
X114232716Y-58795050D02*
X139448950Y-58795050D01*
X112097215Y-60930551D02*
X114232716Y-58795050D01*
X139448950Y-58795050D02*
X147190000Y-51054000D01*
X113975620Y-58345040D02*
X137358960Y-58345040D01*
X137358960Y-58345040D02*
X144650000Y-51054000D01*
X111743662Y-60576998D02*
X113975620Y-58345040D01*
X111390109Y-60223445D02*
X113718524Y-57895030D01*
X113718524Y-57895030D02*
X135268970Y-57895030D01*
X135268970Y-57895030D02*
X142110000Y-51054000D01*
X111036555Y-59869891D02*
X113461426Y-57445020D01*
X133178980Y-57445020D02*
X139570000Y-51054000D01*
X113461426Y-57445020D02*
X133178980Y-57445020D01*
X110329449Y-59162785D02*
X110897397Y-58594837D01*
X110897397Y-58594837D02*
X111615163Y-58594837D01*
X131088990Y-56995010D02*
X136180001Y-51903999D01*
X111615163Y-58594837D02*
X113214990Y-56995010D01*
X136180001Y-51903999D02*
X137030000Y-51054000D01*
X113214990Y-56995010D02*
X131088990Y-56995010D01*
X110950106Y-57835020D02*
X111348212Y-57835020D01*
X111348212Y-57835020D02*
X112638232Y-56545000D01*
X109975895Y-58809231D02*
X110950106Y-57835020D01*
X112638232Y-56545000D02*
X128999000Y-56545000D01*
X128999000Y-56545000D02*
X134490000Y-51054000D01*
X107271212Y-57238788D02*
X108415010Y-56094990D01*
X108415010Y-56094990D02*
X126909010Y-56094990D01*
X126909010Y-56094990D02*
X131100001Y-51903999D01*
X107271212Y-58102124D02*
X107271212Y-57238788D01*
X131100001Y-51903999D02*
X131950000Y-51054000D01*
X124819020Y-55644980D02*
X129410000Y-51054000D01*
X108225738Y-55644980D02*
X124819020Y-55644980D01*
X106349711Y-57887731D02*
X106349711Y-57521007D01*
X106349711Y-57521007D02*
X108225738Y-55644980D01*
X106917658Y-58455678D02*
X106349711Y-57887731D01*
X108039338Y-55194970D02*
X122729030Y-55194970D01*
X105899702Y-58144828D02*
X105899702Y-57334606D01*
X105899702Y-57334606D02*
X108039338Y-55194970D01*
X122729030Y-55194970D02*
X126870000Y-51054000D01*
X106564105Y-58809231D02*
X105899702Y-58144828D01*
X106210551Y-59127443D02*
X105449692Y-58366584D01*
X120644000Y-54740000D02*
X124330000Y-51054000D01*
X106210551Y-59162785D02*
X106210551Y-59127443D01*
X105449692Y-58366584D02*
X105449693Y-57148205D01*
X107857898Y-54740000D02*
X120644000Y-54740000D01*
X105449693Y-57148205D02*
X107857898Y-54740000D01*
X104999684Y-56961804D02*
X107721488Y-54240000D01*
X107721488Y-54240000D02*
X118604000Y-54240000D01*
X105856998Y-59516338D02*
X104999684Y-58659024D01*
X104999684Y-58659024D02*
X104999684Y-56961804D01*
X118604000Y-54240000D02*
X121790000Y-51054000D01*
X104549675Y-56775403D02*
X107535088Y-53789990D01*
X116514010Y-53789990D02*
X119250000Y-51054000D01*
X105503445Y-59869891D02*
X104549675Y-58916121D01*
X104549675Y-58916121D02*
X104549675Y-56775403D01*
X107535088Y-53789990D02*
X116514010Y-53789990D01*
X104099665Y-59173219D02*
X104099666Y-56589002D01*
X114670000Y-53330000D02*
X116710000Y-51290000D01*
X105149891Y-60223445D02*
X104099665Y-59173219D01*
X114670000Y-53339980D02*
X114670000Y-53330000D01*
X104099666Y-56589002D02*
X107348688Y-53339980D01*
X107348688Y-53339980D02*
X114670000Y-53339980D01*
X116710000Y-51290000D02*
X116710000Y-51054000D01*
X113372269Y-64910289D02*
X113889711Y-64910289D01*
X119764840Y-63745160D02*
X181702840Y-63745160D01*
X181702840Y-63745160D02*
X191894000Y-53554000D01*
X113889711Y-64910289D02*
X114684971Y-64115029D01*
X114684971Y-64115029D02*
X119394971Y-64115029D01*
X119394971Y-64115029D02*
X119764840Y-63745160D01*
X112804322Y-64342342D02*
X112839664Y-64342342D01*
X112804322Y-64342342D02*
X113372269Y-64910289D01*
X119142803Y-63665019D02*
X119512672Y-63295150D01*
X113481645Y-63665019D02*
X119142803Y-63665019D01*
X113157876Y-63988788D02*
X113481645Y-63665019D01*
X179612850Y-63295150D02*
X189354000Y-53554000D01*
X119512672Y-63295150D02*
X179612850Y-63295150D01*
X112450769Y-64695895D02*
X112450769Y-64660555D01*
X112597287Y-62912713D02*
X117681301Y-62912713D01*
X117681301Y-62912713D02*
X117983599Y-63215011D01*
X111882821Y-63627179D02*
X112597287Y-62912713D01*
X117983599Y-63215011D02*
X118956402Y-63215010D01*
X111882821Y-64092607D02*
X111882821Y-63627179D01*
X118956402Y-63215010D02*
X119326272Y-62845140D01*
X177522860Y-62845140D02*
X186814000Y-53554000D01*
X112450769Y-64660555D02*
X111882821Y-64092607D01*
X119326272Y-62845140D02*
X177522860Y-62845140D01*
X104089231Y-64695895D02*
X104089231Y-64660555D01*
X105585126Y-63200000D02*
X107134264Y-63200000D01*
X175432870Y-62395130D02*
X184274000Y-53554000D01*
X118169999Y-62765001D02*
X118770001Y-62765001D01*
X107770000Y-62564264D02*
X107770000Y-62140000D01*
X118770001Y-62765001D02*
X119139872Y-62395130D01*
X119139872Y-62395130D02*
X175432870Y-62395130D01*
X117670000Y-62140000D02*
X117844999Y-62314999D01*
X107134264Y-63200000D02*
X107770000Y-62564264D01*
X117844999Y-62314999D02*
X117844999Y-62440001D01*
X104089231Y-64695895D02*
X105585126Y-63200000D01*
X117844999Y-62440001D02*
X118169999Y-62765001D01*
X173342880Y-61945120D02*
X181734000Y-53554000D01*
X118670000Y-62140000D02*
X118864880Y-61945120D01*
X106410000Y-62700000D02*
X106970000Y-62140000D01*
X105378020Y-62700000D02*
X106410000Y-62700000D01*
X103735678Y-64342342D02*
X103771018Y-64342342D01*
X118864880Y-61945120D02*
X173342880Y-61945120D01*
X118470000Y-62140000D02*
X118670000Y-62140000D01*
X103735678Y-64342342D02*
X105378020Y-62700000D01*
X104442785Y-65049449D02*
X104442785Y-65014107D01*
X117014890Y-61495110D02*
X171252890Y-61495110D01*
X105792234Y-63700000D02*
X107434264Y-63700000D01*
X107434264Y-63700000D02*
X108570000Y-62564264D01*
X116870000Y-62140000D02*
X116870000Y-61640000D01*
X104442785Y-65049449D02*
X105792234Y-63700000D01*
X108570000Y-62564264D02*
X108570000Y-62140000D01*
X116870000Y-61640000D02*
X117014890Y-61495110D01*
X171252890Y-61495110D02*
X179194000Y-53554000D01*
X105999340Y-64200000D02*
X107734264Y-64200000D01*
X107734264Y-64200000D02*
X109370000Y-62564264D01*
X116740636Y-61045100D02*
X169162900Y-61045100D01*
X109370000Y-62564264D02*
X109370000Y-62140000D01*
X169162900Y-61045100D02*
X176654000Y-53554000D01*
X116070000Y-61715736D02*
X116740636Y-61045100D01*
X104796338Y-65403002D02*
X105999340Y-64200000D01*
X116070000Y-62140000D02*
X116070000Y-61715736D01*
X108061214Y-64673050D02*
X110170000Y-62564264D01*
X115270000Y-62140000D02*
X115270000Y-61715736D01*
X105149891Y-65756555D02*
X106233396Y-64673050D01*
X174114000Y-53586000D02*
X174114000Y-53554000D01*
X115270000Y-61715736D02*
X116390646Y-60595090D01*
X110170000Y-62564264D02*
X110170000Y-62140000D01*
X106233396Y-64673050D02*
X108061214Y-64673050D01*
X167104910Y-60595090D02*
X174114000Y-53586000D01*
X116390646Y-60595090D02*
X167104910Y-60595090D01*
X83173599Y-76736401D02*
X82310000Y-77600000D01*
X98020000Y-72490000D02*
X87420000Y-72490000D01*
X103169992Y-63988788D02*
X101270000Y-65888780D01*
X87420000Y-72490000D02*
X82310000Y-77600000D01*
X101270000Y-65888780D02*
X101270000Y-67215000D01*
X103382124Y-63988788D02*
X103169992Y-63988788D01*
X104089231Y-61284105D02*
X102520125Y-59714999D01*
X89800000Y-65875736D02*
X89800000Y-66300000D01*
X88070000Y-69300000D02*
X89200000Y-69300000D01*
X89800000Y-64975736D02*
X89800000Y-65875736D01*
X95060737Y-59714999D02*
X89800000Y-64975736D01*
X102520125Y-59714999D02*
X95060737Y-59714999D01*
X79770000Y-77600000D02*
X88070000Y-69300000D01*
X109622342Y-67524322D02*
X110270000Y-68171980D01*
X110270000Y-70715006D02*
X108745006Y-72240000D01*
X101445000Y-72240000D02*
X100970000Y-72715000D01*
X110270000Y-68171980D02*
X110270000Y-70715006D01*
X108745006Y-72240000D02*
X101445000Y-72240000D01*
X100970000Y-72715000D02*
X100970000Y-73152500D01*
X99732490Y-59140010D02*
X100057500Y-58815000D01*
X100057500Y-58815000D02*
X100057500Y-58340000D01*
X90957500Y-60565000D02*
X92382490Y-59140010D01*
X92382490Y-59140010D02*
X99732490Y-59140010D01*
X100057500Y-58340000D02*
X101852234Y-58340000D01*
X101852234Y-58340000D02*
X104442785Y-60930551D01*
X90957500Y-61040000D02*
X90957500Y-60565000D01*
X100057500Y-56740000D02*
X100959340Y-56740000D01*
X100959340Y-56740000D02*
X104796338Y-60576998D01*
X102378392Y-67031610D02*
X101170002Y-68240000D01*
X101170002Y-68240000D02*
X100495000Y-68240000D01*
X100495000Y-68240000D02*
X100057500Y-68240000D01*
X105856998Y-66463662D02*
X105289050Y-67031610D01*
X100057500Y-66640000D02*
X100057500Y-68240000D01*
X105289050Y-67031610D02*
X102378392Y-67031610D01*
X187740000Y-60420000D02*
X188590000Y-60420000D01*
X188590000Y-60420000D02*
X188590000Y-60420000D01*
X188590000Y-60420000D02*
X190012500Y-60420000D01*
X187690000Y-60420000D02*
X187740000Y-60420000D01*
X108670000Y-65990000D02*
X108670000Y-65340000D01*
X107117393Y-66652821D02*
X107167393Y-66602821D01*
X183914830Y-64195170D02*
X187690000Y-60420000D01*
X108070000Y-66590000D02*
X108670000Y-65990000D01*
X107167393Y-66602821D02*
X107498775Y-66602821D01*
X107082053Y-66652821D02*
X107117393Y-66652821D01*
X120470000Y-65340000D02*
X120470000Y-64915736D01*
X121190566Y-64195170D02*
X183914830Y-64195170D01*
X106564105Y-67170769D02*
X107082053Y-66652821D01*
X120470000Y-64915736D02*
X121190566Y-64195170D01*
X107511596Y-66590000D02*
X108070000Y-66590000D01*
X107498775Y-66602821D02*
X107511596Y-66590000D01*
X188540000Y-62470000D02*
X188540000Y-62470000D01*
X188540000Y-62470000D02*
X189862500Y-62470000D01*
X106210551Y-66817215D02*
X106912765Y-66115001D01*
X107094999Y-66115001D02*
X107870000Y-65340000D01*
X121464820Y-64645180D02*
X185939820Y-64645180D01*
X121270000Y-65340000D02*
X121270000Y-64840000D01*
X106912765Y-66115001D02*
X107094999Y-66115001D01*
X121270000Y-64840000D02*
X121464820Y-64645180D01*
X185939820Y-64645180D02*
X188115000Y-62470000D01*
X188115000Y-62470000D02*
X188540000Y-62470000D01*
X188570000Y-64540000D02*
X188570000Y-64540000D01*
X188570000Y-64540000D02*
X189862500Y-64540000D01*
X122070000Y-65340000D02*
X122170000Y-65340000D01*
X122070000Y-65340000D02*
X122494264Y-65340000D01*
X188170000Y-64540000D02*
X188570000Y-64540000D01*
X122494264Y-65340000D02*
X122739074Y-65095190D01*
X187614810Y-65095190D02*
X188170000Y-64540000D01*
X106315503Y-65298051D02*
X106603787Y-65298051D01*
X105503445Y-66110109D02*
X106315503Y-65298051D01*
X106603787Y-65298051D02*
X107028051Y-65298051D01*
X122739074Y-65095190D02*
X187614810Y-65095190D01*
X108799340Y-61400000D02*
X107824264Y-61400000D01*
X100057500Y-63440000D02*
X101360000Y-63440000D01*
X110683002Y-59516338D02*
X108799340Y-61400000D01*
X101360000Y-63440000D02*
X102100000Y-62700000D01*
X107824264Y-61400000D02*
X107400000Y-61400000D01*
X100057500Y-65040000D02*
X100057500Y-63440000D01*
D40*
X202070000Y-53600000D02*
X202010000Y-53540000D01*
X202070000Y-56815000D02*
X202070000Y-53600000D01*
X199470000Y-56815000D02*
X199470000Y-53540000D01*
X196970000Y-56815000D02*
X196970000Y-53580000D01*
X196970000Y-53580000D02*
X196930000Y-53540000D01*
X194370000Y-56790000D02*
X194370000Y-53560000D01*
X194370000Y-53560000D02*
X194390000Y-53540000D01*
D41*
X87520000Y-57540000D02*
X87470000Y-57490000D01*
X87470000Y-57490000D02*
X87470000Y-59065000D01*
X87470000Y-59065000D02*
X85295000Y-61240000D01*
D40*
X200060000Y-78090000D02*
X204160000Y-78090000D01*
X204160000Y-78090000D02*
X204170000Y-78100000D01*
X200070000Y-75490000D02*
X204100000Y-75490000D01*
X204100000Y-75490000D02*
X204170000Y-75560000D01*
X204150000Y-73040000D02*
X204170000Y-73020000D01*
X200060000Y-73040000D02*
X204150000Y-73040000D01*
X204160000Y-70490000D02*
X204170000Y-70480000D01*
X200070000Y-70490000D02*
X204160000Y-70490000D01*
X200060000Y-67940000D02*
X204170000Y-67940000D01*
G04 #@! TA.AperFunction,Conductor*
G36*
X97637526Y-67281476D02*
G01*
X97683360Y-67325354D01*
X97695720Y-67345393D01*
X97814605Y-67464278D01*
X97814607Y-67464279D01*
X97814609Y-67464281D01*
X97928628Y-67534609D01*
X97957715Y-67552550D01*
X98117310Y-67605435D01*
X98117312Y-67605435D01*
X98117315Y-67605436D01*
X98215826Y-67615500D01*
X98749169Y-67615500D01*
X98749174Y-67615500D01*
X98847685Y-67605436D01*
X99007287Y-67552549D01*
X99007290Y-67552547D01*
X99012493Y-67550823D01*
X99081184Y-67547823D01*
X99141222Y-67581331D01*
X99174731Y-67641369D01*
X99171732Y-67710059D01*
X99129564Y-67837313D01*
X99129563Y-67837315D01*
X99129564Y-67837315D01*
X99119500Y-67935826D01*
X99119500Y-68544174D01*
X99121312Y-68561911D01*
X99129564Y-68642689D01*
X99182449Y-68802284D01*
X99188074Y-68811404D01*
X99236245Y-68889501D01*
X99270721Y-68945394D01*
X99389605Y-69064278D01*
X99389607Y-69064279D01*
X99389609Y-69064281D01*
X99531531Y-69151820D01*
X99532715Y-69152550D01*
X99692310Y-69205435D01*
X99692312Y-69205435D01*
X99692315Y-69205436D01*
X99790826Y-69215500D01*
X100324169Y-69215500D01*
X100324174Y-69215500D01*
X100422685Y-69205436D01*
X100422687Y-69205435D01*
X100422689Y-69205435D01*
X100582284Y-69152550D01*
X100582284Y-69152549D01*
X100582287Y-69152549D01*
X100725391Y-69064281D01*
X100844281Y-68945391D01*
X100856640Y-68925353D01*
X100902474Y-68881476D01*
X100963881Y-68865500D01*
X101087037Y-68865500D01*
X101107594Y-68867769D01*
X101110666Y-68867672D01*
X101110669Y-68867673D01*
X101177843Y-68865561D01*
X101181801Y-68865500D01*
X101209348Y-68865500D01*
X101209352Y-68865500D01*
X101213243Y-68865008D01*
X101225070Y-68864077D01*
X101268629Y-68862709D01*
X101287717Y-68857162D01*
X101307076Y-68853154D01*
X101326794Y-68850664D01*
X101367318Y-68834618D01*
X101378526Y-68830780D01*
X101420392Y-68818618D01*
X101437495Y-68808502D01*
X101455256Y-68799802D01*
X101473731Y-68792487D01*
X101473730Y-68792487D01*
X101473734Y-68792486D01*
X101509003Y-68766860D01*
X101518891Y-68760365D01*
X101556422Y-68738170D01*
X101570471Y-68724120D01*
X101585511Y-68711275D01*
X101590754Y-68707465D01*
X101601589Y-68699594D01*
X101629382Y-68665996D01*
X101637341Y-68657249D01*
X102600579Y-67694012D01*
X102641454Y-67666701D01*
X102689672Y-67657110D01*
X105206085Y-67657110D01*
X105226642Y-67659379D01*
X105229714Y-67659282D01*
X105229717Y-67659283D01*
X105296891Y-67657171D01*
X105300849Y-67657110D01*
X105328396Y-67657110D01*
X105328400Y-67657110D01*
X105332291Y-67656618D01*
X105344118Y-67655687D01*
X105387677Y-67654319D01*
X105406765Y-67648772D01*
X105426124Y-67644764D01*
X105445842Y-67642274D01*
X105486366Y-67626228D01*
X105497574Y-67622390D01*
X105539440Y-67610228D01*
X105556543Y-67600112D01*
X105574300Y-67591413D01*
X105588928Y-67585621D01*
X105648645Y-67577482D01*
X105666912Y-67584099D01*
X105666950Y-67583911D01*
X105693192Y-67589131D01*
X105738612Y-67607945D01*
X105773374Y-67642707D01*
X105792188Y-67688126D01*
X105792518Y-67689785D01*
X105792518Y-67689786D01*
X105792519Y-67689787D01*
X105836388Y-67755442D01*
X105979432Y-67898484D01*
X106035316Y-67935826D01*
X106060635Y-67952744D01*
X106098194Y-67991886D01*
X106115815Y-68043191D01*
X106110232Y-68097151D01*
X106082480Y-68143762D01*
X106039164Y-68189888D01*
X106036414Y-68192726D01*
X106016088Y-68213052D01*
X106013439Y-68216468D01*
X106005742Y-68225479D01*
X105974551Y-68258695D01*
X105964404Y-68277153D01*
X105953554Y-68293671D01*
X105940638Y-68310323D01*
X105922546Y-68352130D01*
X105917326Y-68362785D01*
X105895372Y-68402719D01*
X105890130Y-68423136D01*
X105883728Y-68441834D01*
X105875364Y-68461163D01*
X105868237Y-68506157D01*
X105865831Y-68517777D01*
X105854500Y-68561911D01*
X105854500Y-68582973D01*
X105852949Y-68602684D01*
X105849652Y-68623495D01*
X105851452Y-68642531D01*
X105844562Y-68697068D01*
X105815107Y-68743482D01*
X105691410Y-68867178D01*
X105608069Y-69008103D01*
X105566103Y-69152550D01*
X105562391Y-69165325D01*
X105560533Y-69188942D01*
X105559500Y-69202064D01*
X105559500Y-69229511D01*
X105556921Y-69254873D01*
X105550203Y-69287562D01*
X105526931Y-69400809D01*
X105524982Y-69400408D01*
X105512629Y-69446510D01*
X105466510Y-69492629D01*
X105403510Y-69509510D01*
X97831939Y-69509510D01*
X97773599Y-69495190D01*
X97756531Y-69486274D01*
X97742893Y-69478011D01*
X97718027Y-69460704D01*
X97663893Y-69437473D01*
X97655248Y-69433368D01*
X97625518Y-69417839D01*
X97603027Y-69406091D01*
X97603024Y-69406090D01*
X97573902Y-69397756D01*
X97558884Y-69392409D01*
X97531037Y-69380460D01*
X97473327Y-69368599D01*
X97464032Y-69366318D01*
X97407394Y-69350112D01*
X97377179Y-69347811D01*
X97361390Y-69345596D01*
X97331722Y-69339500D01*
X97331719Y-69339500D01*
X97272810Y-69339500D01*
X97263243Y-69339136D01*
X97204501Y-69334662D01*
X97176077Y-69338283D01*
X97174451Y-69338490D01*
X97158534Y-69339500D01*
X97025531Y-69339500D01*
X96975931Y-69329327D01*
X96934340Y-69300450D01*
X96907475Y-69257532D01*
X96903796Y-69247669D01*
X96872180Y-69205436D01*
X96817546Y-69132454D01*
X96817544Y-69132453D01*
X96817544Y-69132452D01*
X96702331Y-69046204D01*
X96573833Y-68998277D01*
X96522641Y-68962733D01*
X96494744Y-68907004D01*
X96496969Y-68844722D01*
X96528768Y-68791127D01*
X96648495Y-68671401D01*
X96784035Y-68477830D01*
X96883903Y-68263663D01*
X96945063Y-68035408D01*
X96965659Y-67800000D01*
X96945063Y-67564592D01*
X96918442Y-67465241D01*
X96918443Y-67400019D01*
X96951055Y-67343534D01*
X96969236Y-67325354D01*
X96992186Y-67302403D01*
X97033064Y-67275091D01*
X97081281Y-67265500D01*
X97576119Y-67265500D01*
X97637526Y-67281476D01*
G37*
G04 #@! TD.AperFunction*
G04 #@! TA.AperFunction,Conductor*
G36*
X77159095Y-60533768D02*
G01*
X77182482Y-60557155D01*
X77215094Y-60613639D01*
X77215094Y-60678861D01*
X77182482Y-60735345D01*
X77083221Y-60834605D01*
X76994949Y-60977715D01*
X76942063Y-61137314D01*
X76941806Y-61139832D01*
X76937597Y-61161682D01*
X76927755Y-61196077D01*
X76922407Y-61211099D01*
X76910460Y-61238941D01*
X76898602Y-61296637D01*
X76896321Y-61305930D01*
X76880113Y-61362579D01*
X76877811Y-61392798D01*
X76875597Y-61408587D01*
X76869500Y-61438260D01*
X76869500Y-61497168D01*
X76869136Y-61506735D01*
X76864662Y-61565476D01*
X76868490Y-61595525D01*
X76869500Y-61611444D01*
X76869500Y-62000672D01*
X76869460Y-62003862D01*
X76868139Y-62056020D01*
X76867243Y-62091364D01*
X76877637Y-62149358D01*
X76878966Y-62158837D01*
X76884925Y-62217438D01*
X76893995Y-62246346D01*
X76897796Y-62261832D01*
X76903141Y-62291654D01*
X76924995Y-62346366D01*
X76928205Y-62355382D01*
X76945840Y-62411588D01*
X76960544Y-62438079D01*
X76967384Y-62452481D01*
X76978623Y-62480617D01*
X77011045Y-62529813D01*
X77015994Y-62537982D01*
X77044591Y-62589502D01*
X77048677Y-62596863D01*
X77064510Y-62658012D01*
X77064510Y-63670682D01*
X77064470Y-63673873D01*
X77062253Y-63761374D01*
X77072647Y-63819368D01*
X77073976Y-63828847D01*
X77079935Y-63887448D01*
X77089005Y-63916356D01*
X77092806Y-63931842D01*
X77098151Y-63961664D01*
X77120005Y-64016376D01*
X77123215Y-64025392D01*
X77140850Y-64081598D01*
X77155554Y-64108089D01*
X77162394Y-64122491D01*
X77173633Y-64150627D01*
X77200394Y-64191233D01*
X77206050Y-64199815D01*
X77211009Y-64208001D01*
X77239601Y-64259513D01*
X77259337Y-64282503D01*
X77268939Y-64295238D01*
X77285605Y-64320526D01*
X77285607Y-64320528D01*
X77285608Y-64320529D01*
X77327274Y-64362195D01*
X77333769Y-64369204D01*
X77372144Y-64413905D01*
X77396109Y-64432455D01*
X77408071Y-64442992D01*
X77752414Y-64787335D01*
X77754643Y-64789620D01*
X77805275Y-64842885D01*
X77814941Y-64853053D01*
X77863299Y-64886711D01*
X77870926Y-64892462D01*
X77916593Y-64929698D01*
X77943454Y-64943729D01*
X77957075Y-64951981D01*
X77981951Y-64969295D01*
X78036093Y-64992529D01*
X78044729Y-64996630D01*
X78096951Y-65023909D01*
X78126081Y-65032243D01*
X78141101Y-65037591D01*
X78168942Y-65049540D01*
X78226675Y-65061403D01*
X78235938Y-65063677D01*
X78292582Y-65079886D01*
X78322794Y-65082186D01*
X78338575Y-65084399D01*
X78368259Y-65090500D01*
X78427171Y-65090500D01*
X78436738Y-65090863D01*
X78495476Y-65095337D01*
X78525526Y-65091509D01*
X78541444Y-65090500D01*
X78851227Y-65090500D01*
X78910293Y-65105202D01*
X78955574Y-65145877D01*
X78969202Y-65183092D01*
X78970378Y-65182654D01*
X79026204Y-65332331D01*
X79112453Y-65447546D01*
X79198703Y-65512112D01*
X79227669Y-65533796D01*
X79362517Y-65584091D01*
X79422127Y-65590500D01*
X81017872Y-65590499D01*
X81017874Y-65590499D01*
X81047677Y-65587294D01*
X81077483Y-65584091D01*
X81212331Y-65533796D01*
X81294490Y-65472291D01*
X81343215Y-65450039D01*
X81396783Y-65450039D01*
X81445509Y-65472292D01*
X81469010Y-65489885D01*
X81506173Y-65534353D01*
X81519500Y-65590752D01*
X81519500Y-68763501D01*
X81502619Y-68826501D01*
X81456500Y-68872620D01*
X81393500Y-68889501D01*
X80572125Y-68889501D01*
X80512518Y-68895908D01*
X80377668Y-68946204D01*
X80262453Y-69032453D01*
X80176204Y-69147668D01*
X80160810Y-69188942D01*
X80131257Y-69268180D01*
X80120379Y-69297345D01*
X80119204Y-69296906D01*
X80105576Y-69334123D01*
X80060294Y-69374798D01*
X80001228Y-69389500D01*
X79634328Y-69389500D01*
X79631138Y-69389460D01*
X79607340Y-69388857D01*
X79551060Y-69387431D01*
X79504563Y-69377260D01*
X79465157Y-69350566D01*
X76182395Y-66067804D01*
X76155081Y-66026927D01*
X76145490Y-65978709D01*
X76145490Y-61288790D01*
X76155081Y-61240572D01*
X76182391Y-61199698D01*
X76666136Y-60715953D01*
X76687712Y-60698669D01*
X76696020Y-60693397D01*
X76723890Y-60680183D01*
X76807287Y-60652549D01*
X76950391Y-60564281D01*
X76965132Y-60549540D01*
X76980905Y-60533768D01*
X77037389Y-60501156D01*
X77102611Y-60501156D01*
X77159095Y-60533768D01*
G37*
G04 #@! TD.AperFunction*
G04 #@! TA.AperFunction,Conductor*
G36*
X108012347Y-68172552D02*
G01*
X108054295Y-68218074D01*
X108069501Y-68278080D01*
X108069501Y-68528162D01*
X108053668Y-68589310D01*
X108010151Y-68635090D01*
X107967882Y-68661437D01*
X107914438Y-68694748D01*
X107766955Y-68834941D01*
X107650714Y-69001950D01*
X107644176Y-69017187D01*
X107600366Y-69070913D01*
X107534769Y-69093334D01*
X107467239Y-69077663D01*
X107418220Y-69028644D01*
X107390385Y-68978495D01*
X107355419Y-68915498D01*
X107355418Y-68915496D01*
X107355417Y-68915495D01*
X107338224Y-68895467D01*
X107310626Y-68839800D01*
X107312987Y-68777711D01*
X107344731Y-68724301D01*
X107760123Y-68308911D01*
X107807733Y-68247532D01*
X107843942Y-68200853D01*
X107892735Y-68162759D01*
X107953782Y-68152500D01*
X108012347Y-68172552D01*
G37*
G04 #@! TD.AperFunction*
G04 #@! TA.AperFunction,Conductor*
G36*
X93878649Y-59779243D02*
G01*
X93923382Y-59817449D01*
X93945895Y-59871799D01*
X93941279Y-59930446D01*
X93910541Y-59980605D01*
X89416365Y-64474778D01*
X89400228Y-64487707D01*
X89352127Y-64538928D01*
X89349378Y-64541765D01*
X89329878Y-64561266D01*
X89327466Y-64564375D01*
X89319773Y-64573381D01*
X89289937Y-64605154D01*
X89280358Y-64622578D01*
X89269508Y-64639095D01*
X89257327Y-64654799D01*
X89240018Y-64694796D01*
X89234798Y-64705451D01*
X89213803Y-64743642D01*
X89208860Y-64762894D01*
X89202457Y-64781594D01*
X89194562Y-64799839D01*
X89187743Y-64842885D01*
X89185338Y-64854501D01*
X89174500Y-64896718D01*
X89174500Y-64916592D01*
X89172949Y-64936300D01*
X89169840Y-64955932D01*
X89173299Y-64992529D01*
X89173941Y-64999315D01*
X89174500Y-65011173D01*
X89174500Y-65754569D01*
X89155187Y-65821605D01*
X89074210Y-65950478D01*
X89014632Y-66120742D01*
X88994435Y-66299999D01*
X89014632Y-66479257D01*
X89074210Y-66649521D01*
X89177737Y-66814283D01*
X89174951Y-66816033D01*
X89192265Y-66844621D01*
X89196040Y-66904612D01*
X89171591Y-66959526D01*
X89124483Y-66996864D01*
X89065437Y-67008127D01*
X89007892Y-66990754D01*
X89007740Y-66990664D01*
X88901897Y-66928069D01*
X88744675Y-66882391D01*
X88707940Y-66879500D01*
X88232060Y-66879500D01*
X88202672Y-66881812D01*
X88195324Y-66882391D01*
X88041142Y-66927186D01*
X88038103Y-66928069D01*
X87900486Y-67009454D01*
X87836349Y-67027000D01*
X87184328Y-67027000D01*
X87181137Y-67026960D01*
X87093636Y-67024743D01*
X87093634Y-67024743D01*
X87035635Y-67035138D01*
X87026156Y-67036467D01*
X86967563Y-67042425D01*
X86938662Y-67051493D01*
X86923176Y-67055294D01*
X86893350Y-67060640D01*
X86838632Y-67082496D01*
X86829615Y-67085706D01*
X86806399Y-67092990D01*
X86781488Y-67098115D01*
X86767313Y-67099563D01*
X86607715Y-67152449D01*
X86464605Y-67240721D01*
X86345721Y-67359605D01*
X86316341Y-67407238D01*
X86269739Y-67482792D01*
X86257450Y-67502715D01*
X86255732Y-67507899D01*
X86225225Y-67557353D01*
X84839066Y-68943512D01*
X84788336Y-68974434D01*
X84729075Y-68978672D01*
X84674460Y-68955284D01*
X84662329Y-68946202D01*
X84527483Y-68895909D01*
X84523372Y-68895467D01*
X84467873Y-68889500D01*
X84467872Y-68889500D01*
X83646500Y-68889500D01*
X83583500Y-68872619D01*
X83537381Y-68826500D01*
X83520500Y-68763500D01*
X83520500Y-65590752D01*
X83533827Y-65534353D01*
X83570990Y-65489885D01*
X83608584Y-65461740D01*
X83627546Y-65447546D01*
X83713796Y-65332331D01*
X83764091Y-65197483D01*
X83770500Y-65137873D01*
X83770499Y-63191499D01*
X83787380Y-63128500D01*
X83833499Y-63082381D01*
X83896499Y-63065500D01*
X88374535Y-63065500D01*
X88395092Y-63067769D01*
X88398164Y-63067672D01*
X88398167Y-63067673D01*
X88465341Y-63065561D01*
X88469299Y-63065500D01*
X88496846Y-63065500D01*
X88496850Y-63065500D01*
X88500741Y-63065008D01*
X88512568Y-63064077D01*
X88556127Y-63062709D01*
X88575215Y-63057162D01*
X88594574Y-63053154D01*
X88614292Y-63050664D01*
X88654816Y-63034618D01*
X88666024Y-63030780D01*
X88707890Y-63018618D01*
X88724993Y-63008502D01*
X88742754Y-62999802D01*
X88761229Y-62992487D01*
X88761228Y-62992487D01*
X88761232Y-62992486D01*
X88796501Y-62966860D01*
X88806389Y-62960365D01*
X88843920Y-62938170D01*
X88857969Y-62924120D01*
X88873009Y-62911275D01*
X88878252Y-62907465D01*
X88889087Y-62899594D01*
X88916880Y-62865996D01*
X88924849Y-62857239D01*
X89766129Y-62015959D01*
X89787711Y-61998670D01*
X89796021Y-61993397D01*
X89823891Y-61980183D01*
X89907287Y-61952549D01*
X90050391Y-61864281D01*
X90050394Y-61864277D01*
X90080905Y-61833768D01*
X90137389Y-61801156D01*
X90202611Y-61801156D01*
X90259095Y-61833768D01*
X90289605Y-61864278D01*
X90289607Y-61864279D01*
X90289609Y-61864281D01*
X90432710Y-61952547D01*
X90432715Y-61952550D01*
X90592310Y-62005435D01*
X90592312Y-62005435D01*
X90592315Y-62005436D01*
X90690826Y-62015500D01*
X91224169Y-62015500D01*
X91224174Y-62015500D01*
X91322685Y-62005436D01*
X91322687Y-62005435D01*
X91322689Y-62005435D01*
X91482284Y-61952550D01*
X91482284Y-61952549D01*
X91482287Y-61952549D01*
X91625391Y-61864281D01*
X91744281Y-61745391D01*
X91832549Y-61602287D01*
X91848301Y-61554751D01*
X91885435Y-61442689D01*
X91885435Y-61442687D01*
X91885436Y-61442685D01*
X91895500Y-61344174D01*
X91895500Y-60735826D01*
X91885436Y-60637315D01*
X91881094Y-60624214D01*
X91878094Y-60555526D01*
X91911601Y-60495487D01*
X92604676Y-59802414D01*
X92645554Y-59775101D01*
X92693772Y-59765510D01*
X93821446Y-59765510D01*
X93878649Y-59779243D01*
G37*
G04 #@! TD.AperFunction*
G04 #@! TA.AperFunction,Conductor*
G36*
X99216150Y-62577833D02*
G01*
X99262382Y-62625085D01*
X99278328Y-62689240D01*
X99259599Y-62752636D01*
X99250430Y-62767503D01*
X99182449Y-62877715D01*
X99129564Y-63037310D01*
X99124960Y-63082381D01*
X99119500Y-63135826D01*
X99119500Y-63744174D01*
X99129564Y-63842685D01*
X99170716Y-63966872D01*
X99171732Y-63969939D01*
X99174731Y-64038630D01*
X99141222Y-64098668D01*
X99081184Y-64132176D01*
X99012494Y-64129176D01*
X98847689Y-64074564D01*
X98803902Y-64070091D01*
X98749174Y-64064500D01*
X98215826Y-64064500D01*
X98166570Y-64069532D01*
X98117310Y-64074564D01*
X97957715Y-64127449D01*
X97814605Y-64215721D01*
X97695721Y-64334605D01*
X97683712Y-64354075D01*
X97639599Y-64396972D01*
X97580432Y-64413864D01*
X97565284Y-64414340D01*
X97562173Y-64414438D01*
X97558219Y-64414500D01*
X97530650Y-64414500D01*
X97527518Y-64414895D01*
X97526752Y-64414992D01*
X97514937Y-64415921D01*
X97471371Y-64417290D01*
X97452281Y-64422836D01*
X97432933Y-64426843D01*
X97413209Y-64429335D01*
X97372682Y-64445381D01*
X97361457Y-64449224D01*
X97319609Y-64461383D01*
X97302499Y-64471501D01*
X97284756Y-64480193D01*
X97266267Y-64487514D01*
X97231005Y-64513132D01*
X97221088Y-64519646D01*
X97183578Y-64541829D01*
X97169518Y-64555889D01*
X97154495Y-64568720D01*
X97138413Y-64580405D01*
X97110628Y-64613990D01*
X97102641Y-64622766D01*
X95952810Y-65772598D01*
X95911936Y-65799910D01*
X95863718Y-65809501D01*
X95318959Y-65809501D01*
X95298406Y-65807232D01*
X95228174Y-65809439D01*
X95224217Y-65809501D01*
X95196647Y-65809501D01*
X95193515Y-65809896D01*
X95192749Y-65809993D01*
X95180934Y-65810922D01*
X95137367Y-65812291D01*
X95118284Y-65817836D01*
X95098924Y-65821845D01*
X95079204Y-65824336D01*
X95038671Y-65840383D01*
X95027447Y-65844226D01*
X94985605Y-65856383D01*
X94968492Y-65866503D01*
X94950750Y-65875195D01*
X94932264Y-65882515D01*
X94897011Y-65908127D01*
X94887096Y-65914640D01*
X94849577Y-65936830D01*
X94835516Y-65950890D01*
X94820491Y-65963722D01*
X94804411Y-65975405D01*
X94776631Y-66008985D01*
X94768643Y-66017763D01*
X94065272Y-66721133D01*
X94015810Y-66751642D01*
X93957916Y-66756707D01*
X93903907Y-66735250D01*
X93747834Y-66625966D01*
X93533663Y-66526096D01*
X93305409Y-66464937D01*
X93070000Y-66444341D01*
X92834590Y-66464937D01*
X92606337Y-66526096D01*
X92392170Y-66625965D01*
X92198595Y-66761507D01*
X92115595Y-66844508D01*
X92065436Y-66875246D01*
X92006789Y-66879862D01*
X91952439Y-66857349D01*
X91914233Y-66812616D01*
X91900500Y-66755413D01*
X91900500Y-66702832D01*
X91900864Y-66693265D01*
X91905337Y-66634523D01*
X91901510Y-66604475D01*
X91900500Y-66588556D01*
X91900500Y-65602609D01*
X91910091Y-65554391D01*
X91937405Y-65513514D01*
X94853523Y-62597396D01*
X94894400Y-62570082D01*
X94942618Y-62560491D01*
X99152358Y-62560491D01*
X99216150Y-62577833D01*
G37*
G04 #@! TD.AperFunction*
G04 #@! TA.AperFunction,Conductor*
G36*
X109166962Y-59294130D02*
G01*
X109206950Y-59332202D01*
X109229570Y-59366056D01*
X109248178Y-59393904D01*
X109391222Y-59536946D01*
X109456877Y-59580817D01*
X109457081Y-59580953D01*
X109516799Y-59611012D01*
X109552758Y-59667796D01*
X109554408Y-59734988D01*
X109521279Y-59793468D01*
X108577151Y-60737597D01*
X108536277Y-60764909D01*
X108488059Y-60774500D01*
X107945431Y-60774500D01*
X107878396Y-60755188D01*
X107858144Y-60742463D01*
X107823404Y-60720634D01*
X107783754Y-60680985D01*
X107765233Y-60628056D01*
X107771512Y-60572333D01*
X107801344Y-60524855D01*
X109013092Y-59313107D01*
X109059737Y-59283569D01*
X109114535Y-59276811D01*
X109166962Y-59294130D01*
G37*
G04 #@! TD.AperFunction*
G04 #@! TA.AperFunction,Conductor*
G36*
X211774487Y-47990321D02*
G01*
X211832731Y-47994486D01*
X212045648Y-48009714D01*
X212063435Y-48012272D01*
X212324657Y-48069098D01*
X212341896Y-48074158D01*
X212592392Y-48167589D01*
X212608738Y-48175054D01*
X212843374Y-48303175D01*
X212858498Y-48312895D01*
X213072509Y-48473102D01*
X213086095Y-48484875D01*
X213275124Y-48673904D01*
X213286897Y-48687490D01*
X213447104Y-48901501D01*
X213456824Y-48916625D01*
X213584945Y-49151261D01*
X213592413Y-49167613D01*
X213685838Y-49418095D01*
X213690902Y-49435345D01*
X213747726Y-49696560D01*
X213750285Y-49714354D01*
X213769679Y-49985512D01*
X213770000Y-49994501D01*
X213770000Y-81985499D01*
X213769679Y-81994488D01*
X213750285Y-82265645D01*
X213747726Y-82283439D01*
X213690902Y-82544654D01*
X213685838Y-82561904D01*
X213592413Y-82812386D01*
X213584945Y-82828738D01*
X213456824Y-83063374D01*
X213447104Y-83078498D01*
X213286897Y-83292509D01*
X213275124Y-83306095D01*
X213086095Y-83495124D01*
X213072509Y-83506897D01*
X212858498Y-83667104D01*
X212843374Y-83676824D01*
X212608738Y-83804945D01*
X212592386Y-83812413D01*
X212341904Y-83905838D01*
X212324654Y-83910902D01*
X212063439Y-83967726D01*
X212045645Y-83970285D01*
X211774488Y-83989679D01*
X211765499Y-83990000D01*
X67774501Y-83990000D01*
X67765512Y-83989679D01*
X67494354Y-83970285D01*
X67476560Y-83967726D01*
X67215345Y-83910902D01*
X67198095Y-83905838D01*
X66947613Y-83812413D01*
X66931261Y-83804945D01*
X66696625Y-83676824D01*
X66681501Y-83667104D01*
X66467490Y-83506897D01*
X66453904Y-83495124D01*
X66264875Y-83306095D01*
X66253102Y-83292509D01*
X66092895Y-83078498D01*
X66083175Y-83063374D01*
X65955054Y-82828738D01*
X65947589Y-82812392D01*
X65854158Y-82561896D01*
X65849097Y-82544654D01*
X65792273Y-82283439D01*
X65789714Y-82265644D01*
X65785043Y-82200340D01*
X65770321Y-81994487D01*
X65770000Y-81985499D01*
X65770000Y-72065373D01*
X67515723Y-72065373D01*
X67545881Y-72365157D01*
X67615731Y-72658262D01*
X67646507Y-72738170D01*
X67724023Y-72939434D01*
X67828035Y-73129233D01*
X67868826Y-73203667D01*
X68047552Y-73446236D01*
X68047554Y-73446238D01*
X68257020Y-73662824D01*
X68493485Y-73849558D01*
X68752730Y-74003109D01*
X68883339Y-74058492D01*
X69030128Y-74120736D01*
X69320726Y-74200340D01*
X69507157Y-74225412D01*
X69619347Y-74240500D01*
X69845239Y-74240500D01*
X69845244Y-74240500D01*
X70070634Y-74225412D01*
X70365903Y-74165396D01*
X70650537Y-74066560D01*
X70919459Y-73930668D01*
X71167869Y-73760144D01*
X71391333Y-73558032D01*
X71585865Y-73327939D01*
X71585867Y-73327937D01*
X71702628Y-73145033D01*
X71747993Y-73073970D01*
X71874823Y-72800658D01*
X71964093Y-72512879D01*
X72014209Y-72215770D01*
X72024277Y-71914631D01*
X71994118Y-71614838D01*
X71924269Y-71321739D01*
X71815977Y-71040566D01*
X71671175Y-70776335D01*
X71644403Y-70740000D01*
X71492447Y-70533763D01*
X71384327Y-70421968D01*
X71282980Y-70317176D01*
X71121831Y-70189918D01*
X71046518Y-70130444D01*
X71046515Y-70130442D01*
X70787270Y-69976891D01*
X70787267Y-69976890D01*
X70787266Y-69976889D01*
X70509871Y-69859263D01*
X70219273Y-69779659D01*
X69949267Y-69743348D01*
X69920653Y-69739500D01*
X69694756Y-69739500D01*
X69582060Y-69747044D01*
X69469361Y-69754588D01*
X69174096Y-69814603D01*
X68889462Y-69913439D01*
X68620545Y-70049329D01*
X68372130Y-70219856D01*
X68148665Y-70421969D01*
X67954132Y-70652062D01*
X67792007Y-70906028D01*
X67665178Y-71179338D01*
X67575906Y-71467121D01*
X67525791Y-71764227D01*
X67525790Y-71764230D01*
X67525791Y-71764230D01*
X67516387Y-72045525D01*
X67515723Y-72065373D01*
X65770000Y-72065373D01*
X65770000Y-52970848D01*
X68569500Y-52970848D01*
X68579913Y-53072775D01*
X68598075Y-53127585D01*
X68634638Y-53237926D01*
X68725976Y-53386006D01*
X68848993Y-53509023D01*
X68848995Y-53509024D01*
X68848997Y-53509026D01*
X68997075Y-53600362D01*
X69162225Y-53655087D01*
X69264152Y-53665500D01*
X69821220Y-53665500D01*
X69869438Y-53675091D01*
X69910315Y-53702405D01*
X73531539Y-57323630D01*
X73544472Y-57339771D01*
X73546713Y-57341875D01*
X73546714Y-57341877D01*
X73586494Y-57379233D01*
X73595706Y-57387884D01*
X73598517Y-57390608D01*
X73618028Y-57410119D01*
X73618029Y-57410120D01*
X73621128Y-57412524D01*
X73630149Y-57420229D01*
X73645166Y-57434331D01*
X73661918Y-57450062D01*
X73679333Y-57459636D01*
X73695860Y-57470492D01*
X73711564Y-57482673D01*
X73751557Y-57499979D01*
X73762208Y-57505196D01*
X73800408Y-57526197D01*
X73819672Y-57531143D01*
X73838353Y-57537539D01*
X73856604Y-57545437D01*
X73899655Y-57552255D01*
X73911247Y-57554655D01*
X73953481Y-57565500D01*
X73973356Y-57565500D01*
X73993066Y-57567050D01*
X74012696Y-57570160D01*
X74056079Y-57566058D01*
X74067937Y-57565500D01*
X75221220Y-57565500D01*
X75269438Y-57575091D01*
X75310315Y-57602405D01*
X76257315Y-58549405D01*
X76288053Y-58599564D01*
X76292669Y-58658211D01*
X76270156Y-58712561D01*
X76225423Y-58750767D01*
X76168220Y-58764500D01*
X76015826Y-58764500D01*
X75966570Y-58769532D01*
X75917310Y-58774564D01*
X75757715Y-58827449D01*
X75614605Y-58915721D01*
X75495721Y-59034605D01*
X75407449Y-59177715D01*
X75354564Y-59337310D01*
X75351043Y-59371777D01*
X75344500Y-59435826D01*
X75344500Y-60044174D01*
X75352886Y-60126266D01*
X75354564Y-60142686D01*
X75358905Y-60155785D01*
X75361904Y-60224475D01*
X75328395Y-60284513D01*
X75136353Y-60476554D01*
X75120217Y-60489482D01*
X75072117Y-60540702D01*
X75069368Y-60543539D01*
X75049868Y-60563040D01*
X75047456Y-60566149D01*
X75039763Y-60575155D01*
X75009927Y-60606928D01*
X75000348Y-60624352D01*
X74989498Y-60640869D01*
X74977317Y-60656573D01*
X74960008Y-60696570D01*
X74954788Y-60707225D01*
X74933793Y-60745416D01*
X74928850Y-60764668D01*
X74922447Y-60783368D01*
X74914552Y-60801613D01*
X74907733Y-60844659D01*
X74905328Y-60856275D01*
X74894490Y-60898492D01*
X74894490Y-60918366D01*
X74892939Y-60938077D01*
X74889830Y-60957706D01*
X74893931Y-61001089D01*
X74894490Y-61012947D01*
X74894490Y-66207025D01*
X74892220Y-66227582D01*
X74894428Y-66297831D01*
X74894490Y-66301789D01*
X74894490Y-66329340D01*
X74894881Y-66332433D01*
X74894981Y-66333227D01*
X74895911Y-66345050D01*
X74897280Y-66388616D01*
X74902825Y-66407701D01*
X74906833Y-66427058D01*
X74909324Y-66446780D01*
X74925367Y-66487299D01*
X74929211Y-66498526D01*
X74941372Y-66540381D01*
X74951489Y-66557489D01*
X74960184Y-66575236D01*
X74967504Y-66593722D01*
X74993119Y-66628979D01*
X74999635Y-66638898D01*
X75021821Y-66676412D01*
X75035869Y-66690460D01*
X75048709Y-66705493D01*
X75060393Y-66721575D01*
X75093977Y-66749357D01*
X75102758Y-66757348D01*
X78381149Y-70035739D01*
X78413761Y-70092223D01*
X78413761Y-70157445D01*
X78381149Y-70213930D01*
X77509061Y-71086017D01*
X77506777Y-71088243D01*
X77443347Y-71148538D01*
X77409682Y-71196906D01*
X77403920Y-71204547D01*
X77366701Y-71250192D01*
X77352673Y-71277048D01*
X77344410Y-71290686D01*
X77327104Y-71315549D01*
X77303870Y-71369691D01*
X77299765Y-71378335D01*
X77272489Y-71430554D01*
X77264154Y-71459681D01*
X77258807Y-71474700D01*
X77246858Y-71502544D01*
X77235001Y-71560238D01*
X77232720Y-71569531D01*
X77216512Y-71626180D01*
X77214210Y-71656399D01*
X77211996Y-71672188D01*
X77208234Y-71690499D01*
X77205899Y-71701861D01*
X77205899Y-71760769D01*
X77205535Y-71770336D01*
X77201061Y-71829077D01*
X77204889Y-71859126D01*
X77205899Y-71875045D01*
X77205899Y-78562071D01*
X77205859Y-78565261D01*
X77204801Y-78607039D01*
X77203642Y-78652763D01*
X77214036Y-78710757D01*
X77215365Y-78720236D01*
X77221324Y-78778837D01*
X77230394Y-78807745D01*
X77234195Y-78823231D01*
X77239540Y-78853053D01*
X77261394Y-78907765D01*
X77264604Y-78916781D01*
X77282239Y-78972987D01*
X77296943Y-78999478D01*
X77303783Y-79013880D01*
X77315022Y-79042016D01*
X77341906Y-79082808D01*
X77347439Y-79091204D01*
X77352398Y-79099390D01*
X77380990Y-79150902D01*
X77400726Y-79173892D01*
X77410328Y-79186627D01*
X77426994Y-79211915D01*
X77426996Y-79211917D01*
X77426997Y-79211918D01*
X77468663Y-79253584D01*
X77475158Y-79260593D01*
X77513533Y-79305294D01*
X77537498Y-79323844D01*
X77549460Y-79334381D01*
X78368995Y-80153916D01*
X78396309Y-80194793D01*
X78405900Y-80243011D01*
X78405900Y-81051474D01*
X78412308Y-81111081D01*
X78462604Y-81245931D01*
X78548853Y-81361146D01*
X78635102Y-81425712D01*
X78664069Y-81447396D01*
X78798917Y-81497691D01*
X78858527Y-81504100D01*
X80681472Y-81504099D01*
X80681474Y-81504099D01*
X80711277Y-81500894D01*
X80741083Y-81497691D01*
X80875931Y-81447396D01*
X80991146Y-81361146D01*
X81077396Y-81245931D01*
X81127691Y-81111083D01*
X81134100Y-81051473D01*
X81134099Y-79228528D01*
X81132313Y-79211918D01*
X81127691Y-79168918D01*
X81127691Y-79168917D01*
X81077396Y-79034069D01*
X81051501Y-78999478D01*
X80991146Y-78918853D01*
X80875931Y-78832604D01*
X80763804Y-78790783D01*
X80713469Y-78756219D01*
X80685295Y-78702049D01*
X80685898Y-78640993D01*
X80715133Y-78587391D01*
X80850156Y-78440719D01*
X80934518Y-78311592D01*
X80980031Y-78269696D01*
X81040000Y-78254510D01*
X81099969Y-78269696D01*
X81145481Y-78311592D01*
X81229844Y-78440719D01*
X81382954Y-78607040D01*
X81561351Y-78745893D01*
X81760169Y-78853488D01*
X81973986Y-78926891D01*
X82196967Y-78964100D01*
X82423030Y-78964100D01*
X82423033Y-78964100D01*
X82646014Y-78926891D01*
X82859831Y-78853488D01*
X83058649Y-78745893D01*
X83237046Y-78607040D01*
X83390156Y-78440719D01*
X83474518Y-78311592D01*
X83520031Y-78269696D01*
X83580000Y-78254510D01*
X83639969Y-78269696D01*
X83685481Y-78311592D01*
X83769844Y-78440719D01*
X83922954Y-78607040D01*
X84101351Y-78745893D01*
X84125916Y-78759186D01*
X84174185Y-78805499D01*
X84191946Y-78869996D01*
X84174188Y-78934494D01*
X84125918Y-78980811D01*
X84101355Y-78994104D01*
X83922953Y-79132960D01*
X83805458Y-79260594D01*
X83769844Y-79299281D01*
X83753800Y-79323838D01*
X83646196Y-79488537D01*
X83555388Y-79695560D01*
X83499912Y-79914631D01*
X83499893Y-79914707D01*
X83481225Y-80140000D01*
X83499893Y-80365293D01*
X83499893Y-80365296D01*
X83499894Y-80365297D01*
X83555388Y-80584439D01*
X83646196Y-80791462D01*
X83646198Y-80791465D01*
X83769844Y-80980719D01*
X83922954Y-81147040D01*
X84101351Y-81285893D01*
X84300169Y-81393488D01*
X84513986Y-81466891D01*
X84736967Y-81504100D01*
X84963030Y-81504100D01*
X84963033Y-81504100D01*
X85186014Y-81466891D01*
X85399831Y-81393488D01*
X85598649Y-81285893D01*
X85777046Y-81147040D01*
X85930156Y-80980719D01*
X86053802Y-80791465D01*
X86144611Y-80584441D01*
X86200107Y-80365293D01*
X86218775Y-80140000D01*
X86212591Y-80065373D01*
X207515723Y-80065373D01*
X207533593Y-80243011D01*
X207545882Y-80365162D01*
X207615731Y-80658261D01*
X207724023Y-80939434D01*
X207797751Y-81073971D01*
X207868826Y-81203667D01*
X208047552Y-81446236D01*
X208047554Y-81446238D01*
X208257020Y-81662824D01*
X208493485Y-81849558D01*
X208752730Y-82003109D01*
X208902366Y-82066560D01*
X209030128Y-82120736D01*
X209320726Y-82200340D01*
X209507157Y-82225412D01*
X209619347Y-82240500D01*
X209845239Y-82240500D01*
X209845244Y-82240500D01*
X210070634Y-82225412D01*
X210365903Y-82165396D01*
X210650537Y-82066560D01*
X210919459Y-81930668D01*
X211167869Y-81760144D01*
X211391333Y-81558032D01*
X211585865Y-81327939D01*
X211585867Y-81327937D01*
X211724301Y-81111083D01*
X211747993Y-81073970D01*
X211874823Y-80800658D01*
X211964093Y-80512879D01*
X212014209Y-80215770D01*
X212024277Y-79914631D01*
X211994118Y-79614838D01*
X211924269Y-79321739D01*
X211815977Y-79040566D01*
X211671175Y-78776335D01*
X211671173Y-78776332D01*
X211492447Y-78533763D01*
X211485780Y-78526869D01*
X211282980Y-78317176D01*
X211046515Y-78130442D01*
X210787270Y-77976891D01*
X210787267Y-77976890D01*
X210787266Y-77976889D01*
X210509871Y-77859263D01*
X210219273Y-77779659D01*
X209940194Y-77742128D01*
X209920653Y-77739500D01*
X209694756Y-77739500D01*
X209582061Y-77747043D01*
X209469361Y-77754588D01*
X209174096Y-77814603D01*
X208889462Y-77913439D01*
X208620545Y-78049329D01*
X208372130Y-78219856D01*
X208148665Y-78421969D01*
X207954132Y-78652062D01*
X207792007Y-78906028D01*
X207665178Y-79179338D01*
X207575906Y-79467121D01*
X207525791Y-79764227D01*
X207515723Y-80065373D01*
X86212591Y-80065373D01*
X86200107Y-79914707D01*
X86144611Y-79695559D01*
X86053802Y-79488535D01*
X85930156Y-79299281D01*
X85777046Y-79132960D01*
X85598649Y-78994107D01*
X85574084Y-78980813D01*
X85525813Y-78934497D01*
X85508054Y-78870000D01*
X85525813Y-78805503D01*
X85574084Y-78759186D01*
X85598649Y-78745893D01*
X85777046Y-78607040D01*
X85930156Y-78440719D01*
X86014518Y-78311592D01*
X86060031Y-78269696D01*
X86120000Y-78254510D01*
X86179969Y-78269696D01*
X86225481Y-78311592D01*
X86309844Y-78440719D01*
X86462954Y-78607040D01*
X86641351Y-78745893D01*
X86840169Y-78853488D01*
X87053986Y-78926891D01*
X87276967Y-78964100D01*
X87503030Y-78964100D01*
X87503033Y-78964100D01*
X87726014Y-78926891D01*
X87939831Y-78853488D01*
X88138649Y-78745893D01*
X88317046Y-78607040D01*
X88470156Y-78440719D01*
X88554518Y-78311592D01*
X88600031Y-78269696D01*
X88660000Y-78254510D01*
X88719969Y-78269696D01*
X88765481Y-78311592D01*
X88849844Y-78440719D01*
X89002954Y-78607040D01*
X89181351Y-78745893D01*
X89380169Y-78853488D01*
X89593986Y-78926891D01*
X89816967Y-78964100D01*
X90043030Y-78964100D01*
X90043033Y-78964100D01*
X90266014Y-78926891D01*
X90359692Y-78894730D01*
X90405499Y-78887999D01*
X90428341Y-78893194D01*
X90428381Y-78892947D01*
X90444104Y-78895437D01*
X90487155Y-78902255D01*
X90498747Y-78904655D01*
X90540981Y-78915500D01*
X90560856Y-78915500D01*
X90580566Y-78917050D01*
X90600196Y-78920160D01*
X90643579Y-78916058D01*
X90655437Y-78915500D01*
X96040145Y-78915500D01*
X96089745Y-78925673D01*
X96131336Y-78954550D01*
X96158201Y-78997468D01*
X96171204Y-79032331D01*
X96257453Y-79147546D01*
X96300741Y-79179951D01*
X96372669Y-79233796D01*
X96507517Y-79284091D01*
X96567127Y-79290500D01*
X99412872Y-79290499D01*
X99412874Y-79290499D01*
X99442677Y-79287295D01*
X99472483Y-79284091D01*
X99607331Y-79233796D01*
X99722546Y-79147546D01*
X99808796Y-79032331D01*
X99821799Y-78997467D01*
X99848664Y-78954550D01*
X99890255Y-78925673D01*
X99939855Y-78915500D01*
X101800145Y-78915500D01*
X101849745Y-78925673D01*
X101891336Y-78954550D01*
X101918201Y-78997468D01*
X101931204Y-79032331D01*
X102017453Y-79147546D01*
X102060741Y-79179951D01*
X102132669Y-79233796D01*
X102267517Y-79284091D01*
X102327127Y-79290500D01*
X105172872Y-79290499D01*
X105172874Y-79290499D01*
X105202677Y-79287295D01*
X105232483Y-79284091D01*
X105367331Y-79233796D01*
X105482546Y-79147546D01*
X105568796Y-79032331D01*
X105619091Y-78897483D01*
X105625500Y-78837873D01*
X105625499Y-78099999D01*
X198714341Y-78099999D01*
X198734937Y-78335409D01*
X198796096Y-78563663D01*
X198895965Y-78777830D01*
X199031507Y-78971404D01*
X199198595Y-79138492D01*
X199198598Y-79138494D01*
X199198599Y-79138495D01*
X199392170Y-79274035D01*
X199459205Y-79305294D01*
X199606336Y-79373903D01*
X199689881Y-79396288D01*
X199834592Y-79435063D01*
X200070000Y-79455659D01*
X200305408Y-79435063D01*
X200533663Y-79373903D01*
X200747830Y-79274035D01*
X200941401Y-79138495D01*
X201052493Y-79027402D01*
X201093368Y-79000091D01*
X201141586Y-78990500D01*
X203098414Y-78990500D01*
X203146632Y-79000091D01*
X203187506Y-79027402D01*
X203298599Y-79138495D01*
X203492170Y-79274035D01*
X203559205Y-79305294D01*
X203706336Y-79373903D01*
X203789881Y-79396288D01*
X203934592Y-79435063D01*
X204170000Y-79455659D01*
X204405408Y-79435063D01*
X204633663Y-79373903D01*
X204847830Y-79274035D01*
X205041401Y-79138495D01*
X205208495Y-78971401D01*
X205344035Y-78777830D01*
X205443903Y-78563663D01*
X205505063Y-78335408D01*
X205525659Y-78100000D01*
X205505063Y-77864592D01*
X205443903Y-77636337D01*
X205344035Y-77422171D01*
X205208495Y-77228599D01*
X205208494Y-77228598D01*
X205208492Y-77228595D01*
X205041404Y-77061507D01*
X204880063Y-76948535D01*
X204858180Y-76933212D01*
X204818689Y-76888180D01*
X204804452Y-76830000D01*
X204818689Y-76771820D01*
X204858181Y-76726787D01*
X205041401Y-76598495D01*
X205208495Y-76431401D01*
X205344035Y-76237830D01*
X205443903Y-76023663D01*
X205505063Y-75795408D01*
X205525659Y-75560000D01*
X205505063Y-75324592D01*
X205443903Y-75096337D01*
X205344035Y-74882171D01*
X205208495Y-74688599D01*
X205208494Y-74688598D01*
X205208492Y-74688595D01*
X205041404Y-74521507D01*
X204858181Y-74393213D01*
X204818689Y-74348180D01*
X204804452Y-74290000D01*
X204818689Y-74231820D01*
X204858181Y-74186787D01*
X204867751Y-74180086D01*
X205041401Y-74058495D01*
X205208495Y-73891401D01*
X205344035Y-73697830D01*
X205443903Y-73483663D01*
X205505063Y-73255408D01*
X205525659Y-73020000D01*
X205505063Y-72784592D01*
X205443903Y-72556337D01*
X205344035Y-72342171D01*
X205208495Y-72148599D01*
X205208494Y-72148598D01*
X205208492Y-72148595D01*
X205041404Y-71981507D01*
X204923892Y-71899224D01*
X204858180Y-71853212D01*
X204818689Y-71808180D01*
X204804452Y-71750000D01*
X204818689Y-71691820D01*
X204858181Y-71646787D01*
X204878826Y-71632331D01*
X205041401Y-71518495D01*
X205208495Y-71351401D01*
X205344035Y-71157830D01*
X205443903Y-70943663D01*
X205505063Y-70715408D01*
X205525659Y-70480000D01*
X205505063Y-70244592D01*
X205443903Y-70016337D01*
X205344035Y-69802171D01*
X205208495Y-69608599D01*
X205208494Y-69608598D01*
X205208492Y-69608595D01*
X205041404Y-69441507D01*
X204946134Y-69374798D01*
X204858180Y-69313212D01*
X204818689Y-69268180D01*
X204804452Y-69210000D01*
X204818689Y-69151820D01*
X204858181Y-69106787D01*
X205041401Y-68978495D01*
X205208495Y-68811401D01*
X205344035Y-68617830D01*
X205443903Y-68403663D01*
X205505063Y-68175408D01*
X205525659Y-67940000D01*
X205505063Y-67704592D01*
X205443903Y-67476337D01*
X205344035Y-67262171D01*
X205208495Y-67068599D01*
X205208494Y-67068598D01*
X205208492Y-67068595D01*
X205041404Y-66901507D01*
X204847830Y-66765965D01*
X204633663Y-66666096D01*
X204405409Y-66604937D01*
X204170000Y-66584341D01*
X203934590Y-66604937D01*
X203706337Y-66666096D01*
X203492170Y-66765965D01*
X203298598Y-66901505D01*
X203272918Y-66927186D01*
X203197506Y-67002597D01*
X203156632Y-67029909D01*
X203108414Y-67039500D01*
X201131586Y-67039500D01*
X201083368Y-67029909D01*
X201042493Y-67002597D01*
X200941401Y-66901505D01*
X200747830Y-66765965D01*
X200720331Y-66753142D01*
X200533663Y-66666096D01*
X200305409Y-66604937D01*
X200070000Y-66584341D01*
X199834590Y-66604937D01*
X199606337Y-66666096D01*
X199392170Y-66765965D01*
X199198595Y-66901507D01*
X199031507Y-67068595D01*
X198895965Y-67262170D01*
X198796096Y-67476337D01*
X198734937Y-67704590D01*
X198714341Y-67940000D01*
X198734937Y-68175409D01*
X198796096Y-68403663D01*
X198895965Y-68617830D01*
X199031507Y-68811404D01*
X199198595Y-68978492D01*
X199198598Y-68978494D01*
X199198599Y-68978495D01*
X199381819Y-69106787D01*
X199421311Y-69151820D01*
X199435548Y-69210000D01*
X199421311Y-69268180D01*
X199381819Y-69313213D01*
X199198595Y-69441507D01*
X199031507Y-69608595D01*
X198895965Y-69802170D01*
X198796096Y-70016337D01*
X198734937Y-70244590D01*
X198714341Y-70479999D01*
X198734937Y-70715409D01*
X198796096Y-70943663D01*
X198895965Y-71157830D01*
X199031507Y-71351404D01*
X199198595Y-71518492D01*
X199198598Y-71518494D01*
X199198599Y-71518495D01*
X199336191Y-71614838D01*
X199381819Y-71646787D01*
X199421311Y-71691820D01*
X199435548Y-71750000D01*
X199421311Y-71808180D01*
X199381819Y-71853213D01*
X199198595Y-71981507D01*
X199031507Y-72148595D01*
X198895965Y-72342170D01*
X198796096Y-72556337D01*
X198734937Y-72784590D01*
X198714341Y-73020000D01*
X198734937Y-73255409D01*
X198796096Y-73483663D01*
X198895965Y-73697830D01*
X199031507Y-73891404D01*
X199198595Y-74058492D01*
X199198598Y-74058494D01*
X199198599Y-74058495D01*
X199372249Y-74180086D01*
X199381819Y-74186787D01*
X199421311Y-74231820D01*
X199435548Y-74290000D01*
X199421311Y-74348180D01*
X199381819Y-74393213D01*
X199198595Y-74521507D01*
X199031507Y-74688595D01*
X198895965Y-74882170D01*
X198796096Y-75096337D01*
X198734937Y-75324590D01*
X198714341Y-75560000D01*
X198734937Y-75795409D01*
X198796096Y-76023663D01*
X198895965Y-76237830D01*
X199031507Y-76431404D01*
X199198595Y-76598492D01*
X199381819Y-76726787D01*
X199421311Y-76771820D01*
X199435548Y-76830000D01*
X199421311Y-76888180D01*
X199381819Y-76933213D01*
X199198595Y-77061507D01*
X199031507Y-77228595D01*
X198895965Y-77422170D01*
X198796096Y-77636337D01*
X198734937Y-77864590D01*
X198714341Y-78099999D01*
X105625499Y-78099999D01*
X105625499Y-77742128D01*
X105625216Y-77739500D01*
X105619091Y-77682518D01*
X105612371Y-77664500D01*
X105568796Y-77547669D01*
X105547112Y-77518703D01*
X105482546Y-77432453D01*
X105367331Y-77346204D01*
X105367330Y-77346203D01*
X105232483Y-77295909D01*
X105172872Y-77289500D01*
X102327125Y-77289500D01*
X102267518Y-77295908D01*
X102132668Y-77346204D01*
X102017453Y-77432453D01*
X101931204Y-77547668D01*
X101918201Y-77582532D01*
X101891336Y-77625450D01*
X101849745Y-77654327D01*
X101800145Y-77664500D01*
X99939855Y-77664500D01*
X99890255Y-77654327D01*
X99848664Y-77625450D01*
X99821799Y-77582532D01*
X99808796Y-77547669D01*
X99787112Y-77518703D01*
X99722546Y-77432453D01*
X99607331Y-77346204D01*
X99607330Y-77346203D01*
X99472483Y-77295909D01*
X99412872Y-77289500D01*
X96567125Y-77289500D01*
X96507518Y-77295908D01*
X96372668Y-77346204D01*
X96257453Y-77432453D01*
X96171204Y-77547668D01*
X96158201Y-77582532D01*
X96131336Y-77625450D01*
X96089745Y-77654327D01*
X96040145Y-77664500D01*
X91420111Y-77664500D01*
X91360142Y-77649314D01*
X91314628Y-77607416D01*
X91294541Y-77548905D01*
X91294439Y-77547669D01*
X91280107Y-77374707D01*
X91224611Y-77155559D01*
X91133802Y-76948535D01*
X91010156Y-76759281D01*
X90857046Y-76592960D01*
X90678649Y-76454107D01*
X90678648Y-76454106D01*
X90678645Y-76454104D01*
X90621530Y-76423195D01*
X90573259Y-76376879D01*
X90555500Y-76312382D01*
X90555500Y-75041280D01*
X90565091Y-74993062D01*
X90592405Y-74952185D01*
X91767185Y-73777406D01*
X91808062Y-73750092D01*
X91856280Y-73740501D01*
X98857034Y-73740501D01*
X98877591Y-73742770D01*
X98880663Y-73742673D01*
X98880666Y-73742674D01*
X98947840Y-73740562D01*
X98951798Y-73740501D01*
X98979345Y-73740501D01*
X98979349Y-73740501D01*
X98983240Y-73740009D01*
X98995067Y-73739078D01*
X99038626Y-73737710D01*
X99057714Y-73732163D01*
X99077073Y-73728155D01*
X99096791Y-73725665D01*
X99137328Y-73709614D01*
X99148524Y-73705781D01*
X99158538Y-73702871D01*
X99203574Y-73698258D01*
X99221845Y-73699696D01*
X99232057Y-73700500D01*
X99232060Y-73700500D01*
X99707936Y-73700500D01*
X99707940Y-73700500D01*
X99744675Y-73697609D01*
X99901897Y-73651931D01*
X99901897Y-73651930D01*
X99917182Y-73647490D01*
X99917541Y-73648726D01*
X99959988Y-73636729D01*
X100022582Y-73652176D01*
X100069340Y-73696564D01*
X100145718Y-73820391D01*
X100176232Y-73850905D01*
X100208844Y-73907389D01*
X100208844Y-73972611D01*
X100176232Y-74029095D01*
X100145721Y-74059605D01*
X100057449Y-74202715D01*
X100004564Y-74362310D01*
X99999788Y-74409063D01*
X99994500Y-74460826D01*
X99994500Y-74994174D01*
X99999312Y-75041280D01*
X100004564Y-75092689D01*
X100057449Y-75252284D01*
X100145721Y-75395394D01*
X100264605Y-75514278D01*
X100264607Y-75514279D01*
X100264609Y-75514281D01*
X100338726Y-75559997D01*
X100407715Y-75602550D01*
X100567310Y-75655435D01*
X100567312Y-75655435D01*
X100567315Y-75655436D01*
X100665826Y-75665500D01*
X101274169Y-75665500D01*
X101274174Y-75665500D01*
X101372685Y-75655436D01*
X101372687Y-75655435D01*
X101372689Y-75655435D01*
X101532284Y-75602550D01*
X101532284Y-75602549D01*
X101532287Y-75602549D01*
X101675391Y-75514281D01*
X101794281Y-75395391D01*
X101882549Y-75252287D01*
X101935436Y-75092685D01*
X101945500Y-74994174D01*
X101945500Y-74601281D01*
X101955091Y-74553063D01*
X101982405Y-74512185D01*
X102267187Y-74227404D01*
X102308064Y-74200091D01*
X102356282Y-74190500D01*
X103275843Y-74190500D01*
X103275848Y-74190500D01*
X103377775Y-74180087D01*
X103542925Y-74125362D01*
X103691003Y-74034026D01*
X103814026Y-73911003D01*
X103905362Y-73762925D01*
X103960087Y-73597775D01*
X103970500Y-73495848D01*
X103970500Y-72991500D01*
X103987381Y-72928500D01*
X104033500Y-72882381D01*
X104096500Y-72865500D01*
X108662041Y-72865500D01*
X108682598Y-72867769D01*
X108685670Y-72867672D01*
X108685673Y-72867673D01*
X108752847Y-72865561D01*
X108756805Y-72865500D01*
X108784352Y-72865500D01*
X108784356Y-72865500D01*
X108788247Y-72865008D01*
X108800074Y-72864077D01*
X108843633Y-72862709D01*
X108862721Y-72857162D01*
X108882080Y-72853154D01*
X108901798Y-72850664D01*
X108942322Y-72834618D01*
X108953550Y-72830775D01*
X109008849Y-72814710D01*
X109066639Y-72811757D01*
X109119654Y-72834947D01*
X109156713Y-72879388D01*
X109170000Y-72935707D01*
X109170000Y-74840001D01*
X109985435Y-75655435D01*
X110770000Y-76440000D01*
X115603333Y-76506666D01*
X118019999Y-76540000D01*
X118019999Y-76539999D01*
X118020000Y-76540000D01*
X119009532Y-75602549D01*
X119920000Y-74740001D01*
X119920000Y-70740000D01*
X119295355Y-70244592D01*
X117020000Y-68440000D01*
X117019999Y-68440000D01*
X114303227Y-68440000D01*
X114255009Y-68430409D01*
X114214132Y-68403095D01*
X112320250Y-66509213D01*
X112287811Y-66453366D01*
X112287304Y-66388783D01*
X112318861Y-66332433D01*
X112374192Y-66299121D01*
X112438759Y-66297599D01*
X112477595Y-66318554D01*
X112478234Y-66317393D01*
X112492183Y-66325061D01*
X112492184Y-66325062D01*
X112509600Y-66334636D01*
X112526119Y-66345487D01*
X112541830Y-66357674D01*
X112581831Y-66374983D01*
X112592481Y-66380199D01*
X112630674Y-66401197D01*
X112649922Y-66406139D01*
X112668627Y-66412543D01*
X112686871Y-66420438D01*
X112728673Y-66427058D01*
X112729911Y-66427254D01*
X112741538Y-66429661D01*
X112783747Y-66440500D01*
X112803622Y-66440500D01*
X112823330Y-66442050D01*
X112842962Y-66445160D01*
X112886345Y-66441058D01*
X112898203Y-66440500D01*
X113136899Y-66440500D01*
X113185117Y-66450091D01*
X113225994Y-66477405D01*
X113227176Y-66478587D01*
X113227178Y-66478588D01*
X113227180Y-66478590D01*
X113368103Y-66561931D01*
X113525325Y-66607609D01*
X113562060Y-66610500D01*
X114037936Y-66610500D01*
X114037940Y-66610500D01*
X114074675Y-66607609D01*
X114231897Y-66561931D01*
X114372820Y-66478590D01*
X114423226Y-66428184D01*
X114474006Y-66377405D01*
X114514883Y-66350091D01*
X114563101Y-66340500D01*
X114575354Y-66340500D01*
X114622808Y-66340500D01*
X114764646Y-66340500D01*
X115625354Y-66340500D01*
X115672808Y-66340500D01*
X115767192Y-66340500D01*
X115814646Y-66340500D01*
X118544811Y-66340500D01*
X118593029Y-66350091D01*
X118633906Y-66377405D01*
X119076123Y-66819622D01*
X119088964Y-66834656D01*
X119097114Y-66845874D01*
X119147485Y-66891229D01*
X119152269Y-66895769D01*
X119166621Y-66910121D01*
X119182410Y-66922908D01*
X119187420Y-66927186D01*
X119201262Y-66939649D01*
X119237785Y-66972534D01*
X119249789Y-66979464D01*
X119266073Y-66990655D01*
X119276852Y-66999384D01*
X119300455Y-67011410D01*
X119337223Y-67030144D01*
X119343022Y-67033292D01*
X119401717Y-67067180D01*
X119414891Y-67071460D01*
X119433167Y-67079030D01*
X119445513Y-67085321D01*
X119488415Y-67096816D01*
X119510951Y-67102854D01*
X119517277Y-67104727D01*
X119581745Y-67125675D01*
X119595527Y-67127123D01*
X119614962Y-67130724D01*
X119628355Y-67134313D01*
X119696034Y-67137859D01*
X119702559Y-67138372D01*
X119722809Y-67140501D01*
X119743134Y-67140501D01*
X119749728Y-67140674D01*
X119817389Y-67144220D01*
X119829890Y-67142239D01*
X119831078Y-67142052D01*
X119850787Y-67140501D01*
X120163465Y-67140501D01*
X120163485Y-67140500D01*
X192343500Y-67140500D01*
X192406500Y-67157381D01*
X192452619Y-67203500D01*
X192469500Y-67266500D01*
X192469500Y-72479214D01*
X192467949Y-72498923D01*
X192465781Y-72512612D01*
X192469327Y-72580280D01*
X192469500Y-72586874D01*
X192469500Y-72607197D01*
X192471622Y-72627397D01*
X192472139Y-72633965D01*
X192475686Y-72701645D01*
X192479274Y-72715034D01*
X192482877Y-72734473D01*
X192484325Y-72748257D01*
X192505264Y-72812698D01*
X192507137Y-72819022D01*
X192524678Y-72884484D01*
X192530971Y-72896834D01*
X192538538Y-72915103D01*
X192542820Y-72928284D01*
X192576699Y-72986963D01*
X192579846Y-72992759D01*
X192609992Y-73051923D01*
X192610617Y-73053149D01*
X192619338Y-73063918D01*
X192630535Y-73080210D01*
X192637467Y-73092216D01*
X192658432Y-73115500D01*
X192682823Y-73142590D01*
X192687101Y-73147599D01*
X192699881Y-73163380D01*
X192699883Y-73163382D01*
X192699884Y-73163383D01*
X192714230Y-73177729D01*
X192718770Y-73182512D01*
X192764129Y-73232888D01*
X192775346Y-73241037D01*
X192790378Y-73253877D01*
X194979404Y-75442904D01*
X195008710Y-75488903D01*
X195015830Y-75542977D01*
X195014341Y-75559997D01*
X195034937Y-75795409D01*
X195096096Y-76023663D01*
X195195965Y-76237830D01*
X195331507Y-76431404D01*
X195498595Y-76598492D01*
X195498598Y-76598494D01*
X195498599Y-76598495D01*
X195692170Y-76734035D01*
X195773200Y-76771820D01*
X195906336Y-76833903D01*
X195989881Y-76856288D01*
X196134592Y-76895063D01*
X196370000Y-76915659D01*
X196605408Y-76895063D01*
X196833663Y-76833903D01*
X197047830Y-76734035D01*
X197241401Y-76598495D01*
X197408495Y-76431401D01*
X197544035Y-76237830D01*
X197643903Y-76023663D01*
X197705063Y-75795408D01*
X197725659Y-75560000D01*
X197705063Y-75324592D01*
X197643903Y-75096337D01*
X197544035Y-74882171D01*
X197408495Y-74688599D01*
X197408494Y-74688598D01*
X197408492Y-74688595D01*
X197241404Y-74521507D01*
X197058181Y-74393213D01*
X197018689Y-74348180D01*
X197004452Y-74290000D01*
X197018689Y-74231820D01*
X197058181Y-74186787D01*
X197067751Y-74180086D01*
X197241401Y-74058495D01*
X197408495Y-73891401D01*
X197544035Y-73697830D01*
X197643903Y-73483663D01*
X197705063Y-73255408D01*
X197725659Y-73020000D01*
X197705063Y-72784592D01*
X197643903Y-72556337D01*
X197544035Y-72342171D01*
X197408495Y-72148599D01*
X197408494Y-72148598D01*
X197408492Y-72148595D01*
X197241404Y-71981507D01*
X197123892Y-71899224D01*
X197058180Y-71853212D01*
X197018689Y-71808180D01*
X197004452Y-71750000D01*
X197018689Y-71691820D01*
X197058181Y-71646787D01*
X197078826Y-71632331D01*
X197241401Y-71518495D01*
X197408495Y-71351401D01*
X197544035Y-71157830D01*
X197643903Y-70943663D01*
X197705063Y-70715408D01*
X197725659Y-70480000D01*
X197705063Y-70244592D01*
X197643903Y-70016337D01*
X197544035Y-69802171D01*
X197408495Y-69608599D01*
X197408494Y-69608598D01*
X197408492Y-69608595D01*
X197241404Y-69441507D01*
X197146134Y-69374798D01*
X197058180Y-69313212D01*
X197018689Y-69268180D01*
X197004452Y-69210000D01*
X197018689Y-69151820D01*
X197058181Y-69106787D01*
X197241401Y-68978495D01*
X197408495Y-68811401D01*
X197544035Y-68617830D01*
X197643903Y-68403663D01*
X197705063Y-68175408D01*
X197725659Y-67940000D01*
X197705063Y-67704592D01*
X197643903Y-67476337D01*
X197544035Y-67262171D01*
X197408495Y-67068599D01*
X197408494Y-67068598D01*
X197408492Y-67068595D01*
X197241404Y-66901507D01*
X197047830Y-66765965D01*
X196833663Y-66666096D01*
X196605409Y-66604937D01*
X196370000Y-66584341D01*
X196134590Y-66604937D01*
X195906337Y-66666096D01*
X195692170Y-66765965D01*
X195498595Y-66901507D01*
X195331507Y-67068595D01*
X195195965Y-67262170D01*
X195096096Y-67476337D01*
X195034937Y-67704590D01*
X195014341Y-67940000D01*
X195034937Y-68175409D01*
X195096096Y-68403663D01*
X195195965Y-68617830D01*
X195331507Y-68811404D01*
X195498595Y-68978492D01*
X195498598Y-68978494D01*
X195498599Y-68978495D01*
X195681819Y-69106787D01*
X195721311Y-69151820D01*
X195735548Y-69210000D01*
X195721311Y-69268180D01*
X195681819Y-69313213D01*
X195498595Y-69441507D01*
X195331507Y-69608595D01*
X195195965Y-69802170D01*
X195096096Y-70016337D01*
X195034937Y-70244590D01*
X195014341Y-70479999D01*
X195034937Y-70715409D01*
X195096096Y-70943663D01*
X195195965Y-71157830D01*
X195331507Y-71351404D01*
X195498595Y-71518492D01*
X195498598Y-71518494D01*
X195498599Y-71518495D01*
X195636191Y-71614838D01*
X195681819Y-71646787D01*
X195721311Y-71691820D01*
X195735548Y-71750000D01*
X195721311Y-71808180D01*
X195681819Y-71853213D01*
X195498595Y-71981507D01*
X195331507Y-72148595D01*
X195195965Y-72342170D01*
X195096096Y-72556337D01*
X195056162Y-72705377D01*
X195023551Y-72761861D01*
X194967066Y-72794473D01*
X194901844Y-72794473D01*
X194845360Y-72761861D01*
X194307405Y-72223906D01*
X194280091Y-72183029D01*
X194270500Y-72134811D01*
X194270500Y-66665189D01*
X194280091Y-66616971D01*
X194307405Y-66576094D01*
X197306095Y-63577405D01*
X197346972Y-63550091D01*
X197395190Y-63540500D01*
X204429214Y-63540500D01*
X204448923Y-63542051D01*
X204450279Y-63542265D01*
X204462612Y-63544219D01*
X204530279Y-63540673D01*
X204536874Y-63540500D01*
X204557187Y-63540500D01*
X204557192Y-63540500D01*
X204577428Y-63538372D01*
X204583962Y-63537859D01*
X204651646Y-63534313D01*
X204665038Y-63530723D01*
X204684467Y-63527122D01*
X204698256Y-63525674D01*
X204762720Y-63504727D01*
X204769005Y-63502866D01*
X204834488Y-63485320D01*
X204846831Y-63479029D01*
X204865107Y-63471460D01*
X204878281Y-63467180D01*
X204878281Y-63467179D01*
X204878284Y-63467179D01*
X204936995Y-63433280D01*
X204942746Y-63430158D01*
X205003149Y-63399383D01*
X205013920Y-63390659D01*
X205030209Y-63379464D01*
X205042216Y-63372533D01*
X205092610Y-63327157D01*
X205097573Y-63322918D01*
X205113380Y-63310119D01*
X205127755Y-63295742D01*
X205132524Y-63291218D01*
X205182887Y-63245872D01*
X205184803Y-63243235D01*
X205191035Y-63234655D01*
X205203872Y-63219625D01*
X207106229Y-61317268D01*
X207163130Y-61284547D01*
X207228769Y-61284886D01*
X207285332Y-61318193D01*
X207317466Y-61375431D01*
X207325937Y-61408881D01*
X207387397Y-61548996D01*
X207425828Y-61636610D01*
X207561833Y-61844782D01*
X207715602Y-62011820D01*
X207730256Y-62027738D01*
X207926491Y-62180474D01*
X208145190Y-62298828D01*
X208380386Y-62379571D01*
X208625665Y-62420500D01*
X208874332Y-62420500D01*
X208874335Y-62420500D01*
X209119614Y-62379571D01*
X209354810Y-62298828D01*
X209573509Y-62180474D01*
X209769744Y-62027738D01*
X209938164Y-61844785D01*
X210074173Y-61636607D01*
X210174063Y-61408881D01*
X210235108Y-61167821D01*
X210255643Y-60920000D01*
X210235108Y-60672179D01*
X210174063Y-60431119D01*
X210074173Y-60203393D01*
X210074172Y-60203391D01*
X210074171Y-60203389D01*
X209938166Y-59995217D01*
X209847403Y-59896622D01*
X209769744Y-59812262D01*
X209769743Y-59812261D01*
X209769742Y-59812260D01*
X209689020Y-59749432D01*
X209653213Y-59705339D01*
X209640410Y-59650000D01*
X209653213Y-59594661D01*
X209689020Y-59550568D01*
X209692588Y-59547791D01*
X209769744Y-59487738D01*
X209938164Y-59304785D01*
X210074173Y-59096607D01*
X210174063Y-58868881D01*
X210235108Y-58627821D01*
X210255643Y-58380000D01*
X210235108Y-58132179D01*
X210174063Y-57891119D01*
X210074173Y-57663393D01*
X210074172Y-57663391D01*
X210074171Y-57663389D01*
X209938166Y-57455217D01*
X209826089Y-57333469D01*
X209769744Y-57272262D01*
X209769743Y-57272261D01*
X209769741Y-57272259D01*
X209689019Y-57209430D01*
X209653212Y-57165337D01*
X209640410Y-57109998D01*
X209653213Y-57054659D01*
X209689017Y-57010569D01*
X209769744Y-56947738D01*
X209938164Y-56764785D01*
X209980548Y-56699912D01*
X210074171Y-56556610D01*
X210074170Y-56556610D01*
X210074173Y-56556607D01*
X210174063Y-56328881D01*
X210235108Y-56087821D01*
X210255643Y-55840000D01*
X210235108Y-55592179D01*
X210174063Y-55351119D01*
X210074173Y-55123393D01*
X210074172Y-55123391D01*
X210074171Y-55123389D01*
X209938166Y-54915217D01*
X209811111Y-54777199D01*
X209769744Y-54732262D01*
X209769743Y-54732261D01*
X209769742Y-54732260D01*
X209689020Y-54669432D01*
X209653213Y-54625339D01*
X209640410Y-54570000D01*
X209653213Y-54514661D01*
X209689020Y-54470568D01*
X209730902Y-54437970D01*
X209769744Y-54407738D01*
X209938164Y-54224785D01*
X210074173Y-54016607D01*
X210174063Y-53788881D01*
X210235108Y-53547821D01*
X210255643Y-53300000D01*
X210235108Y-53052179D01*
X210174063Y-52811119D01*
X210074173Y-52583393D01*
X210074172Y-52583391D01*
X210074171Y-52583389D01*
X209938166Y-52375217D01*
X209769744Y-52192262D01*
X209673141Y-52117073D01*
X209573509Y-52039526D01*
X209354810Y-51921172D01*
X209354809Y-51921171D01*
X209354806Y-51921170D01*
X209198012Y-51867343D01*
X209119614Y-51840429D01*
X208874335Y-51799500D01*
X208625665Y-51799500D01*
X208380386Y-51840429D01*
X208380383Y-51840429D01*
X208380383Y-51840430D01*
X208145193Y-51921170D01*
X207926489Y-52039527D01*
X207730255Y-52192262D01*
X207561833Y-52375217D01*
X207425828Y-52583389D01*
X207325935Y-52811123D01*
X207270429Y-53030314D01*
X207264892Y-53052179D01*
X207255586Y-53164490D01*
X207244357Y-53300000D01*
X207264892Y-53547820D01*
X207320605Y-53767826D01*
X207319939Y-53832206D01*
X207287555Y-53887852D01*
X203197483Y-57977925D01*
X203140999Y-58010537D01*
X203075777Y-58010537D01*
X203019293Y-57977925D01*
X202988657Y-57947289D01*
X202988656Y-57947288D01*
X202988577Y-57947239D01*
X202987906Y-57946538D01*
X202978242Y-57936874D01*
X202978452Y-57936663D01*
X202944701Y-57901407D01*
X202928725Y-57840000D01*
X202944701Y-57778593D01*
X202978452Y-57743336D01*
X202978242Y-57743126D01*
X202987906Y-57733461D01*
X202988577Y-57732760D01*
X202988656Y-57732712D01*
X203112712Y-57608656D01*
X203204814Y-57459334D01*
X203216074Y-57425354D01*
X203259998Y-57292801D01*
X203259998Y-57292799D01*
X203259999Y-57292797D01*
X203270500Y-57190009D01*
X203270499Y-56439992D01*
X203259999Y-56337203D01*
X203259124Y-56334561D01*
X203204815Y-56170668D01*
X203193420Y-56152194D01*
X203112712Y-56021344D01*
X203007403Y-55916035D01*
X202980091Y-55875159D01*
X202970500Y-55826941D01*
X202970500Y-54823231D01*
X202983302Y-54767893D01*
X203019108Y-54723800D01*
X203024674Y-54719467D01*
X203039744Y-54707738D01*
X203208164Y-54524785D01*
X203344173Y-54316607D01*
X203444063Y-54088881D01*
X203505108Y-53847821D01*
X203525643Y-53600000D01*
X203505108Y-53352179D01*
X203444063Y-53111119D01*
X203344173Y-52883393D01*
X203344172Y-52883391D01*
X203344171Y-52883389D01*
X203208166Y-52675217D01*
X203039744Y-52492262D01*
X202843510Y-52339527D01*
X202843509Y-52339526D01*
X202624810Y-52221172D01*
X202624809Y-52221171D01*
X202624806Y-52221170D01*
X202468012Y-52167343D01*
X202389614Y-52140429D01*
X202144335Y-52099500D01*
X201895665Y-52099500D01*
X201650386Y-52140429D01*
X201650383Y-52140429D01*
X201650383Y-52140430D01*
X201415193Y-52221170D01*
X201196489Y-52339527D01*
X201000252Y-52492265D01*
X200842701Y-52663412D01*
X200784285Y-52699321D01*
X200715715Y-52699321D01*
X200657299Y-52663412D01*
X200499747Y-52492265D01*
X200499746Y-52492264D01*
X200499744Y-52492262D01*
X200303509Y-52339526D01*
X200084810Y-52221172D01*
X200084809Y-52221171D01*
X200084806Y-52221170D01*
X199928012Y-52167343D01*
X199849614Y-52140429D01*
X199604335Y-52099500D01*
X199355665Y-52099500D01*
X199110386Y-52140429D01*
X199110383Y-52140429D01*
X199110383Y-52140430D01*
X198875193Y-52221170D01*
X198656489Y-52339527D01*
X198460252Y-52492265D01*
X198302701Y-52663412D01*
X198244285Y-52699321D01*
X198175715Y-52699321D01*
X198117299Y-52663412D01*
X197959747Y-52492265D01*
X197959746Y-52492264D01*
X197959744Y-52492262D01*
X197763509Y-52339526D01*
X197544810Y-52221172D01*
X197544809Y-52221171D01*
X197544806Y-52221170D01*
X197388012Y-52167343D01*
X197309614Y-52140429D01*
X197064335Y-52099500D01*
X196815665Y-52099500D01*
X196570386Y-52140429D01*
X196570383Y-52140429D01*
X196570383Y-52140430D01*
X196335193Y-52221170D01*
X196116489Y-52339527D01*
X195920252Y-52492265D01*
X195762701Y-52663412D01*
X195704285Y-52699321D01*
X195635715Y-52699321D01*
X195577299Y-52663412D01*
X195419747Y-52492265D01*
X195419746Y-52492264D01*
X195419744Y-52492262D01*
X195223509Y-52339526D01*
X195004810Y-52221172D01*
X195004809Y-52221171D01*
X195004806Y-52221170D01*
X194848012Y-52167343D01*
X194769614Y-52140429D01*
X194524335Y-52099500D01*
X194275665Y-52099500D01*
X194030386Y-52140429D01*
X194030383Y-52140429D01*
X194030383Y-52140430D01*
X193795193Y-52221170D01*
X193576489Y-52339527D01*
X193380252Y-52492265D01*
X193222701Y-52663412D01*
X193164285Y-52699321D01*
X193095715Y-52699321D01*
X193037299Y-52663412D01*
X192879747Y-52492265D01*
X192879746Y-52492264D01*
X192879744Y-52492262D01*
X192683509Y-52339526D01*
X192464810Y-52221172D01*
X192464809Y-52221171D01*
X192464806Y-52221170D01*
X192308012Y-52167343D01*
X192229614Y-52140429D01*
X191984335Y-52099500D01*
X191735665Y-52099500D01*
X191490386Y-52140429D01*
X191490383Y-52140429D01*
X191490383Y-52140430D01*
X191255193Y-52221170D01*
X191036489Y-52339527D01*
X190840252Y-52492265D01*
X190682701Y-52663412D01*
X190624285Y-52699321D01*
X190555715Y-52699321D01*
X190497299Y-52663412D01*
X190339747Y-52492265D01*
X190339746Y-52492264D01*
X190339744Y-52492262D01*
X190143509Y-52339526D01*
X189924810Y-52221172D01*
X189924809Y-52221171D01*
X189924806Y-52221170D01*
X189768012Y-52167343D01*
X189689614Y-52140429D01*
X189444335Y-52099500D01*
X189195665Y-52099500D01*
X188950386Y-52140429D01*
X188950383Y-52140429D01*
X188950383Y-52140430D01*
X188715193Y-52221170D01*
X188496489Y-52339527D01*
X188300252Y-52492265D01*
X188142701Y-52663412D01*
X188084285Y-52699321D01*
X188015715Y-52699321D01*
X187957299Y-52663412D01*
X187799747Y-52492265D01*
X187799746Y-52492264D01*
X187799744Y-52492262D01*
X187603509Y-52339526D01*
X187384810Y-52221172D01*
X187384809Y-52221171D01*
X187384806Y-52221170D01*
X187228012Y-52167343D01*
X187149614Y-52140429D01*
X186904335Y-52099500D01*
X186655665Y-52099500D01*
X186410386Y-52140429D01*
X186410383Y-52140429D01*
X186410383Y-52140430D01*
X186175193Y-52221170D01*
X185956489Y-52339527D01*
X185760252Y-52492265D01*
X185602701Y-52663412D01*
X185544285Y-52699321D01*
X185475715Y-52699321D01*
X185417299Y-52663412D01*
X185259747Y-52492265D01*
X185259746Y-52492264D01*
X185259744Y-52492262D01*
X185063509Y-52339526D01*
X184844810Y-52221172D01*
X184844809Y-52221171D01*
X184844806Y-52221170D01*
X184688012Y-52167343D01*
X184609614Y-52140429D01*
X184364335Y-52099500D01*
X184115665Y-52099500D01*
X183870386Y-52140429D01*
X183870383Y-52140429D01*
X183870383Y-52140430D01*
X183635193Y-52221170D01*
X183416489Y-52339527D01*
X183220252Y-52492265D01*
X183062701Y-52663412D01*
X183004285Y-52699321D01*
X182935715Y-52699321D01*
X182877299Y-52663412D01*
X182719747Y-52492265D01*
X182719746Y-52492264D01*
X182719744Y-52492262D01*
X182523509Y-52339526D01*
X182304810Y-52221172D01*
X182304809Y-52221171D01*
X182304806Y-52221170D01*
X182148012Y-52167343D01*
X182069614Y-52140429D01*
X181824335Y-52099500D01*
X181575665Y-52099500D01*
X181330386Y-52140429D01*
X181330383Y-52140429D01*
X181330383Y-52140430D01*
X181095193Y-52221170D01*
X180876489Y-52339527D01*
X180680252Y-52492265D01*
X180522701Y-52663412D01*
X180464285Y-52699321D01*
X180395715Y-52699321D01*
X180337299Y-52663412D01*
X180179747Y-52492265D01*
X180179746Y-52492264D01*
X180179744Y-52492262D01*
X179983509Y-52339526D01*
X179764810Y-52221172D01*
X179764809Y-52221171D01*
X179764806Y-52221170D01*
X179608012Y-52167343D01*
X179529614Y-52140429D01*
X179284335Y-52099500D01*
X179035665Y-52099500D01*
X178790386Y-52140429D01*
X178790383Y-52140429D01*
X178790383Y-52140430D01*
X178555193Y-52221170D01*
X178336489Y-52339527D01*
X178140252Y-52492265D01*
X177982701Y-52663412D01*
X177924285Y-52699321D01*
X177855715Y-52699321D01*
X177797299Y-52663412D01*
X177639747Y-52492265D01*
X177639746Y-52492264D01*
X177639744Y-52492262D01*
X177443509Y-52339526D01*
X177224810Y-52221172D01*
X177224809Y-52221171D01*
X177224806Y-52221170D01*
X177068012Y-52167343D01*
X176989614Y-52140429D01*
X176744335Y-52099500D01*
X176495665Y-52099500D01*
X176250386Y-52140429D01*
X176250383Y-52140429D01*
X176250383Y-52140430D01*
X176015193Y-52221170D01*
X175796489Y-52339527D01*
X175600252Y-52492265D01*
X175442701Y-52663412D01*
X175384285Y-52699321D01*
X175315715Y-52699321D01*
X175257299Y-52663412D01*
X175099747Y-52492265D01*
X175099746Y-52492264D01*
X175099744Y-52492262D01*
X174903509Y-52339526D01*
X174684810Y-52221172D01*
X174684809Y-52221171D01*
X174684806Y-52221170D01*
X174528012Y-52167343D01*
X174449614Y-52140429D01*
X174204335Y-52099500D01*
X173955665Y-52099500D01*
X173710386Y-52140429D01*
X173710383Y-52140429D01*
X173710383Y-52140430D01*
X173475193Y-52221170D01*
X173256489Y-52339527D01*
X173060255Y-52492262D01*
X172891833Y-52675217D01*
X172755828Y-52883389D01*
X172655935Y-53111123D01*
X172607245Y-53303397D01*
X172594892Y-53352179D01*
X172574357Y-53600000D01*
X172594892Y-53847821D01*
X172594892Y-53847824D01*
X172594893Y-53847825D01*
X172652625Y-54075805D01*
X172651960Y-54140185D01*
X172619576Y-54195831D01*
X166882724Y-59932685D01*
X166841847Y-59959999D01*
X166793629Y-59969590D01*
X147083190Y-59969590D01*
X147025987Y-59955857D01*
X146981254Y-59917651D01*
X146958741Y-59863301D01*
X146963357Y-59804654D01*
X146994095Y-59754495D01*
X148794135Y-57954455D01*
X154195088Y-52553500D01*
X154255781Y-52519839D01*
X154325092Y-52523423D01*
X154430386Y-52559571D01*
X154675665Y-52600500D01*
X154924332Y-52600500D01*
X154924335Y-52600500D01*
X155169614Y-52559571D01*
X155404810Y-52478828D01*
X155623509Y-52360474D01*
X155819744Y-52207738D01*
X155988164Y-52024785D01*
X156124173Y-51816607D01*
X156224063Y-51588881D01*
X156285108Y-51347821D01*
X156305643Y-51100000D01*
X156285108Y-50852179D01*
X156224063Y-50611119D01*
X156124173Y-50383393D01*
X156124172Y-50383391D01*
X156124171Y-50383389D01*
X155988166Y-50175217D01*
X155819744Y-49992262D01*
X155623510Y-49839527D01*
X155623509Y-49839526D01*
X155404810Y-49721172D01*
X155404809Y-49721171D01*
X155404806Y-49721170D01*
X155248012Y-49667343D01*
X155169614Y-49640429D01*
X154924335Y-49599500D01*
X154675665Y-49599500D01*
X154430386Y-49640429D01*
X154430383Y-49640429D01*
X154430383Y-49640430D01*
X154195193Y-49721170D01*
X153976489Y-49839527D01*
X153780252Y-49992265D01*
X153622701Y-50163412D01*
X153564285Y-50199321D01*
X153495715Y-50199321D01*
X153437299Y-50163412D01*
X153279747Y-49992265D01*
X153279746Y-49992264D01*
X153279744Y-49992262D01*
X153083509Y-49839526D01*
X152864810Y-49721172D01*
X152864809Y-49721171D01*
X152864806Y-49721170D01*
X152708012Y-49667343D01*
X152629614Y-49640429D01*
X152384335Y-49599500D01*
X152135665Y-49599500D01*
X151890386Y-49640429D01*
X151890383Y-49640429D01*
X151890383Y-49640430D01*
X151655193Y-49721170D01*
X151436489Y-49839527D01*
X151240252Y-49992265D01*
X151082701Y-50163412D01*
X151024285Y-50199321D01*
X150955715Y-50199321D01*
X150897299Y-50163412D01*
X150739747Y-49992265D01*
X150739746Y-49992264D01*
X150739744Y-49992262D01*
X150543509Y-49839526D01*
X150324810Y-49721172D01*
X150324809Y-49721171D01*
X150324806Y-49721170D01*
X150168012Y-49667343D01*
X150089614Y-49640429D01*
X149844335Y-49599500D01*
X149595665Y-49599500D01*
X149350386Y-49640429D01*
X149350383Y-49640429D01*
X149350383Y-49640430D01*
X149115193Y-49721170D01*
X148896489Y-49839527D01*
X148700252Y-49992265D01*
X148542701Y-50163412D01*
X148484285Y-50199321D01*
X148415715Y-50199321D01*
X148357299Y-50163412D01*
X148199747Y-49992265D01*
X148199746Y-49992264D01*
X148199744Y-49992262D01*
X148003509Y-49839526D01*
X147784810Y-49721172D01*
X147784809Y-49721171D01*
X147784806Y-49721170D01*
X147628012Y-49667343D01*
X147549614Y-49640429D01*
X147304335Y-49599500D01*
X147055665Y-49599500D01*
X146810386Y-49640429D01*
X146810383Y-49640429D01*
X146810383Y-49640430D01*
X146575193Y-49721170D01*
X146356489Y-49839527D01*
X146160252Y-49992265D01*
X146002701Y-50163412D01*
X145944285Y-50199321D01*
X145875715Y-50199321D01*
X145817299Y-50163412D01*
X145659747Y-49992265D01*
X145659746Y-49992264D01*
X145659744Y-49992262D01*
X145463509Y-49839526D01*
X145244810Y-49721172D01*
X145244809Y-49721171D01*
X145244806Y-49721170D01*
X145088012Y-49667343D01*
X145009614Y-49640429D01*
X144764335Y-49599500D01*
X144515665Y-49599500D01*
X144270386Y-49640429D01*
X144270383Y-49640429D01*
X144270383Y-49640430D01*
X144035193Y-49721170D01*
X143816489Y-49839527D01*
X143620252Y-49992265D01*
X143462701Y-50163412D01*
X143404285Y-50199321D01*
X143335715Y-50199321D01*
X143277299Y-50163412D01*
X143119747Y-49992265D01*
X143119746Y-49992264D01*
X143119744Y-49992262D01*
X142923509Y-49839526D01*
X142704810Y-49721172D01*
X142704809Y-49721171D01*
X142704806Y-49721170D01*
X142548012Y-49667343D01*
X142469614Y-49640429D01*
X142224335Y-49599500D01*
X141975665Y-49599500D01*
X141730386Y-49640429D01*
X141730383Y-49640429D01*
X141730383Y-49640430D01*
X141495193Y-49721170D01*
X141276489Y-49839527D01*
X141080252Y-49992265D01*
X140922701Y-50163412D01*
X140864285Y-50199321D01*
X140795715Y-50199321D01*
X140737299Y-50163412D01*
X140579747Y-49992265D01*
X140579746Y-49992264D01*
X140579744Y-49992262D01*
X140383509Y-49839526D01*
X140164810Y-49721172D01*
X140164809Y-49721171D01*
X140164806Y-49721170D01*
X140008012Y-49667343D01*
X139929614Y-49640429D01*
X139684335Y-49599500D01*
X139435665Y-49599500D01*
X139190386Y-49640429D01*
X139190383Y-49640429D01*
X139190383Y-49640430D01*
X138955193Y-49721170D01*
X138736489Y-49839527D01*
X138540252Y-49992265D01*
X138382701Y-50163412D01*
X138324285Y-50199321D01*
X138255715Y-50199321D01*
X138197299Y-50163412D01*
X138039747Y-49992265D01*
X138039746Y-49992264D01*
X138039744Y-49992262D01*
X137843509Y-49839526D01*
X137624810Y-49721172D01*
X137624809Y-49721171D01*
X137624806Y-49721170D01*
X137468012Y-49667343D01*
X137389614Y-49640429D01*
X137144335Y-49599500D01*
X136895665Y-49599500D01*
X136650386Y-49640429D01*
X136650383Y-49640429D01*
X136650383Y-49640430D01*
X136415193Y-49721170D01*
X136196489Y-49839527D01*
X136000252Y-49992265D01*
X135842701Y-50163412D01*
X135784285Y-50199321D01*
X135715715Y-50199321D01*
X135657299Y-50163412D01*
X135499747Y-49992265D01*
X135499746Y-49992264D01*
X135499744Y-49992262D01*
X135303509Y-49839526D01*
X135084810Y-49721172D01*
X135084809Y-49721171D01*
X135084806Y-49721170D01*
X134928012Y-49667343D01*
X134849614Y-49640429D01*
X134604335Y-49599500D01*
X134355665Y-49599500D01*
X134110386Y-49640429D01*
X134110383Y-49640429D01*
X134110383Y-49640430D01*
X133875193Y-49721170D01*
X133656489Y-49839527D01*
X133460252Y-49992265D01*
X133302701Y-50163412D01*
X133244285Y-50199321D01*
X133175715Y-50199321D01*
X133117299Y-50163412D01*
X132959747Y-49992265D01*
X132959746Y-49992264D01*
X132959744Y-49992262D01*
X132763509Y-49839526D01*
X132544810Y-49721172D01*
X132544809Y-49721171D01*
X132544806Y-49721170D01*
X132388012Y-49667343D01*
X132309614Y-49640429D01*
X132064335Y-49599500D01*
X131815665Y-49599500D01*
X131570386Y-49640429D01*
X131570383Y-49640429D01*
X131570383Y-49640430D01*
X131335193Y-49721170D01*
X131116489Y-49839527D01*
X130920252Y-49992265D01*
X130762701Y-50163412D01*
X130704285Y-50199321D01*
X130635715Y-50199321D01*
X130577299Y-50163412D01*
X130419747Y-49992265D01*
X130419746Y-49992264D01*
X130419744Y-49992262D01*
X130223509Y-49839526D01*
X130004810Y-49721172D01*
X130004809Y-49721171D01*
X130004806Y-49721170D01*
X129848012Y-49667343D01*
X129769614Y-49640429D01*
X129524335Y-49599500D01*
X129275665Y-49599500D01*
X129030386Y-49640429D01*
X129030383Y-49640429D01*
X129030383Y-49640430D01*
X128795193Y-49721170D01*
X128576489Y-49839527D01*
X128380252Y-49992265D01*
X128222701Y-50163412D01*
X128164285Y-50199321D01*
X128095715Y-50199321D01*
X128037299Y-50163412D01*
X127879747Y-49992265D01*
X127879746Y-49992264D01*
X127879744Y-49992262D01*
X127683509Y-49839526D01*
X127464810Y-49721172D01*
X127464809Y-49721171D01*
X127464806Y-49721170D01*
X127308012Y-49667343D01*
X127229614Y-49640429D01*
X126984335Y-49599500D01*
X126735665Y-49599500D01*
X126490386Y-49640429D01*
X126490383Y-49640429D01*
X126490383Y-49640430D01*
X126255193Y-49721170D01*
X126036489Y-49839527D01*
X125840252Y-49992265D01*
X125682701Y-50163412D01*
X125624285Y-50199321D01*
X125555715Y-50199321D01*
X125497299Y-50163412D01*
X125339747Y-49992265D01*
X125339746Y-49992264D01*
X125339744Y-49992262D01*
X125143509Y-49839526D01*
X124924810Y-49721172D01*
X124924809Y-49721171D01*
X124924806Y-49721170D01*
X124768012Y-49667343D01*
X124689614Y-49640429D01*
X124444335Y-49599500D01*
X124195665Y-49599500D01*
X123950386Y-49640429D01*
X123950383Y-49640429D01*
X123950383Y-49640430D01*
X123715193Y-49721170D01*
X123496489Y-49839527D01*
X123300252Y-49992265D01*
X123142701Y-50163412D01*
X123084285Y-50199321D01*
X123015715Y-50199321D01*
X122957299Y-50163412D01*
X122799747Y-49992265D01*
X122799746Y-49992264D01*
X122799744Y-49992262D01*
X122603509Y-49839526D01*
X122384810Y-49721172D01*
X122384809Y-49721171D01*
X122384806Y-49721170D01*
X122228012Y-49667343D01*
X122149614Y-49640429D01*
X121904335Y-49599500D01*
X121655665Y-49599500D01*
X121410386Y-49640429D01*
X121410383Y-49640429D01*
X121410383Y-49640430D01*
X121175193Y-49721170D01*
X120956489Y-49839527D01*
X120760252Y-49992265D01*
X120602701Y-50163412D01*
X120544285Y-50199321D01*
X120475715Y-50199321D01*
X120417299Y-50163412D01*
X120259747Y-49992265D01*
X120259746Y-49992264D01*
X120259744Y-49992262D01*
X120063509Y-49839526D01*
X119844810Y-49721172D01*
X119844809Y-49721171D01*
X119844806Y-49721170D01*
X119688012Y-49667343D01*
X119609614Y-49640429D01*
X119364335Y-49599500D01*
X119115665Y-49599500D01*
X118870386Y-49640429D01*
X118870383Y-49640429D01*
X118870383Y-49640430D01*
X118635193Y-49721170D01*
X118416489Y-49839527D01*
X118220252Y-49992265D01*
X118062701Y-50163412D01*
X118004285Y-50199321D01*
X117935715Y-50199321D01*
X117877299Y-50163412D01*
X117719747Y-49992265D01*
X117719746Y-49992264D01*
X117719744Y-49992262D01*
X117523509Y-49839526D01*
X117304810Y-49721172D01*
X117304809Y-49721171D01*
X117304806Y-49721170D01*
X117148012Y-49667343D01*
X117069614Y-49640429D01*
X116824335Y-49599500D01*
X116575665Y-49599500D01*
X116330386Y-49640429D01*
X116330383Y-49640429D01*
X116330383Y-49640430D01*
X116095193Y-49721170D01*
X115876489Y-49839527D01*
X115680255Y-49992262D01*
X115511833Y-50175217D01*
X115375828Y-50383389D01*
X115275935Y-50611123D01*
X115214893Y-50852174D01*
X115214892Y-50852179D01*
X115194357Y-51100000D01*
X115214892Y-51347821D01*
X115214892Y-51347824D01*
X115214893Y-51347825D01*
X115275935Y-51588876D01*
X115275936Y-51588879D01*
X115275937Y-51588881D01*
X115317762Y-51684233D01*
X115328362Y-51733108D01*
X115319112Y-51782259D01*
X115291469Y-51823939D01*
X114437831Y-52677577D01*
X114396957Y-52704889D01*
X114348739Y-52714480D01*
X107431653Y-52714480D01*
X107411095Y-52712210D01*
X107340847Y-52714418D01*
X107336889Y-52714480D01*
X107309338Y-52714480D01*
X107305444Y-52714971D01*
X107293629Y-52715901D01*
X107250058Y-52717270D01*
X107230975Y-52722815D01*
X107211615Y-52726824D01*
X107191895Y-52729315D01*
X107151362Y-52745362D01*
X107140138Y-52749205D01*
X107098296Y-52761362D01*
X107081183Y-52771482D01*
X107063441Y-52780174D01*
X107044955Y-52787494D01*
X107009702Y-52813106D01*
X106999787Y-52819619D01*
X106962268Y-52841809D01*
X106948207Y-52855869D01*
X106933182Y-52868701D01*
X106917100Y-52880385D01*
X106889318Y-52913968D01*
X106881330Y-52922746D01*
X103716031Y-56088044D01*
X103699894Y-56100973D01*
X103651793Y-56152194D01*
X103649044Y-56155031D01*
X103629544Y-56174532D01*
X103627132Y-56177641D01*
X103619439Y-56186647D01*
X103589603Y-56218420D01*
X103580024Y-56235844D01*
X103569174Y-56252361D01*
X103556993Y-56268065D01*
X103539684Y-56308062D01*
X103534464Y-56318717D01*
X103513469Y-56356908D01*
X103508526Y-56376160D01*
X103502123Y-56394860D01*
X103494228Y-56413105D01*
X103487409Y-56456151D01*
X103485004Y-56467766D01*
X103474166Y-56509983D01*
X103474165Y-56529868D01*
X103472615Y-56549561D01*
X103469506Y-56569198D01*
X103469506Y-56569199D01*
X103473606Y-56612580D01*
X103474165Y-56624435D01*
X103474165Y-58066044D01*
X103460432Y-58123247D01*
X103422226Y-58167980D01*
X103367876Y-58190493D01*
X103309229Y-58185877D01*
X103259070Y-58155139D01*
X101460300Y-56356369D01*
X101447369Y-56340229D01*
X101396115Y-56292097D01*
X101393274Y-56289343D01*
X101373811Y-56269880D01*
X101370711Y-56267475D01*
X101361693Y-56259773D01*
X101353800Y-56252361D01*
X101329922Y-56229938D01*
X101327128Y-56228402D01*
X101312497Y-56220358D01*
X101295973Y-56209503D01*
X101280274Y-56197325D01*
X101240271Y-56180014D01*
X101229625Y-56174799D01*
X101191432Y-56153803D01*
X101191429Y-56153802D01*
X101172186Y-56148861D01*
X101153484Y-56142458D01*
X101135236Y-56134561D01*
X101092195Y-56127744D01*
X101080576Y-56125338D01*
X101038361Y-56114500D01*
X101038359Y-56114500D01*
X101018484Y-56114500D01*
X100998775Y-56112949D01*
X100994883Y-56112332D01*
X100979142Y-56109839D01*
X100973535Y-56110370D01*
X100905521Y-56097723D01*
X100854437Y-56051075D01*
X100844281Y-56034609D01*
X100844279Y-56034607D01*
X100844278Y-56034605D01*
X100725394Y-55915721D01*
X100715971Y-55909909D01*
X100582287Y-55827451D01*
X100582284Y-55827449D01*
X100422689Y-55774564D01*
X100378902Y-55770091D01*
X100324174Y-55764500D01*
X99790826Y-55764500D01*
X99741570Y-55769532D01*
X99692310Y-55774564D01*
X99532715Y-55827449D01*
X99389605Y-55915721D01*
X99359095Y-55946232D01*
X99302611Y-55978844D01*
X99237389Y-55978844D01*
X99180905Y-55946232D01*
X99150394Y-55915721D01*
X99140971Y-55909909D01*
X99007287Y-55827451D01*
X99007284Y-55827449D01*
X98847689Y-55774564D01*
X98803902Y-55770091D01*
X98749174Y-55764500D01*
X98215826Y-55764500D01*
X98166570Y-55769532D01*
X98117310Y-55774564D01*
X97957715Y-55827449D01*
X97814605Y-55915721D01*
X97695720Y-56034606D01*
X97683360Y-56054646D01*
X97637526Y-56098524D01*
X97576119Y-56114500D01*
X93270283Y-56114500D01*
X93222065Y-56104909D01*
X93181188Y-56077595D01*
X91034961Y-53931368D01*
X91022030Y-53915228D01*
X90970776Y-53867096D01*
X90967935Y-53864342D01*
X90948472Y-53844879D01*
X90945372Y-53842474D01*
X90936354Y-53834772D01*
X90904583Y-53804937D01*
X90901789Y-53803401D01*
X90887158Y-53795357D01*
X90870634Y-53784502D01*
X90854935Y-53772324D01*
X90814932Y-53755013D01*
X90804286Y-53749798D01*
X90766093Y-53728802D01*
X90766090Y-53728801D01*
X90746847Y-53723860D01*
X90728145Y-53717457D01*
X90709897Y-53709560D01*
X90666856Y-53702743D01*
X90655237Y-53700337D01*
X90613022Y-53689499D01*
X90613020Y-53689499D01*
X90593145Y-53689499D01*
X90573436Y-53687948D01*
X90553805Y-53684839D01*
X90553804Y-53684839D01*
X90510422Y-53688940D01*
X90498564Y-53689499D01*
X89488960Y-53689499D01*
X89468407Y-53687230D01*
X89398175Y-53689437D01*
X89394218Y-53689499D01*
X89366649Y-53689499D01*
X89363517Y-53689894D01*
X89362751Y-53689991D01*
X89350936Y-53690920D01*
X89307368Y-53692289D01*
X89288285Y-53697834D01*
X89268926Y-53701843D01*
X89249206Y-53704334D01*
X89208671Y-53720382D01*
X89197448Y-53724225D01*
X89155608Y-53736381D01*
X89138500Y-53746499D01*
X89120755Y-53755192D01*
X89102266Y-53762513D01*
X89067004Y-53788131D01*
X89057087Y-53794645D01*
X89019577Y-53816828D01*
X89005517Y-53830888D01*
X88990494Y-53843719D01*
X88974412Y-53855404D01*
X88946627Y-53888989D01*
X88938640Y-53897765D01*
X88411364Y-54425041D01*
X88395227Y-54437970D01*
X88347126Y-54489191D01*
X88344377Y-54492028D01*
X88324877Y-54511529D01*
X88322465Y-54514638D01*
X88314772Y-54523644D01*
X88284936Y-54555417D01*
X88275357Y-54572841D01*
X88264507Y-54589358D01*
X88252326Y-54605062D01*
X88235017Y-54645059D01*
X88229797Y-54655714D01*
X88208802Y-54693905D01*
X88203859Y-54713157D01*
X88197456Y-54731857D01*
X88189561Y-54750102D01*
X88182742Y-54793148D01*
X88180337Y-54804764D01*
X88169499Y-54846981D01*
X88169499Y-54866855D01*
X88167948Y-54886566D01*
X88164839Y-54906195D01*
X88168940Y-54949578D01*
X88169499Y-54961436D01*
X88169499Y-56013500D01*
X88152618Y-56076500D01*
X88106499Y-56122619D01*
X88043499Y-56139500D01*
X86572125Y-56139500D01*
X86512518Y-56145908D01*
X86377668Y-56196204D01*
X86262453Y-56282453D01*
X86176204Y-56397668D01*
X86125909Y-56532517D01*
X86119500Y-56592127D01*
X86119500Y-58387874D01*
X86125908Y-58447481D01*
X86176204Y-58582331D01*
X86265556Y-58701691D01*
X86288943Y-58756305D01*
X86284705Y-58815565D01*
X86253783Y-58866295D01*
X85117482Y-60002595D01*
X85076606Y-60029909D01*
X85028388Y-60039500D01*
X84919996Y-60039500D01*
X84817199Y-60050001D01*
X84650668Y-60105184D01*
X84501341Y-60197290D01*
X84377288Y-60321343D01*
X84377239Y-60321424D01*
X84376513Y-60322118D01*
X84366874Y-60331758D01*
X84366663Y-60331547D01*
X84331405Y-60365299D01*
X84270000Y-60381274D01*
X84208595Y-60365299D01*
X84173336Y-60331547D01*
X84173126Y-60331758D01*
X84163486Y-60322118D01*
X84162761Y-60321424D01*
X84162711Y-60321343D01*
X84038658Y-60197290D01*
X84038658Y-60197289D01*
X84038656Y-60197288D01*
X83889334Y-60105186D01*
X83889331Y-60105184D01*
X83722801Y-60050001D01*
X83677113Y-60045333D01*
X83620009Y-60039500D01*
X83620004Y-60039500D01*
X82869995Y-60039500D01*
X82767199Y-60050001D01*
X82600668Y-60105184D01*
X82451341Y-60197290D01*
X82446037Y-60202595D01*
X82405160Y-60229909D01*
X82356942Y-60239500D01*
X80596500Y-60239500D01*
X80533500Y-60222619D01*
X80487381Y-60176500D01*
X80470500Y-60113500D01*
X80470500Y-58320786D01*
X80472051Y-58301077D01*
X80472314Y-58299415D01*
X80474219Y-58287388D01*
X80470673Y-58219727D01*
X80470500Y-58213133D01*
X80470500Y-58192813D01*
X80470500Y-58192808D01*
X80468371Y-58172558D01*
X80467858Y-58166033D01*
X80464312Y-58098354D01*
X80460723Y-58084961D01*
X80457122Y-58065525D01*
X80455674Y-58051746D01*
X80455674Y-58051744D01*
X80434726Y-57987276D01*
X80432853Y-57980950D01*
X80430551Y-57972360D01*
X80415320Y-57915512D01*
X80409029Y-57903166D01*
X80401459Y-57884890D01*
X80397179Y-57871716D01*
X80363291Y-57813021D01*
X80360143Y-57807222D01*
X80332819Y-57753595D01*
X80329383Y-57746851D01*
X80320654Y-57736072D01*
X80309463Y-57719788D01*
X80302533Y-57707784D01*
X80272770Y-57674728D01*
X80257185Y-57657419D01*
X80252907Y-57652409D01*
X80240120Y-57636620D01*
X80225768Y-57622268D01*
X80221228Y-57617484D01*
X80175873Y-57567113D01*
X80164655Y-57558963D01*
X80149621Y-57546122D01*
X80060595Y-57457096D01*
X80031289Y-57411095D01*
X80024170Y-57357018D01*
X80024324Y-57355256D01*
X80025659Y-57340000D01*
X80005063Y-57104592D01*
X79943903Y-56876337D01*
X79844035Y-56662171D01*
X79708495Y-56468599D01*
X79708494Y-56468598D01*
X79708492Y-56468595D01*
X79541404Y-56301507D01*
X79347830Y-56165965D01*
X79133663Y-56066096D01*
X78905409Y-56004937D01*
X78670000Y-55984341D01*
X78434590Y-56004937D01*
X78206337Y-56066096D01*
X77992170Y-56165965D01*
X77798595Y-56301507D01*
X77631507Y-56468595D01*
X77495965Y-56662170D01*
X77396096Y-56876337D01*
X77334937Y-57104590D01*
X77314341Y-57340000D01*
X77331844Y-57540062D01*
X77322306Y-57600276D01*
X77285617Y-57648964D01*
X77230365Y-57674728D01*
X77169484Y-57671537D01*
X77117228Y-57640138D01*
X76749352Y-57272262D01*
X76033460Y-56556369D01*
X76020529Y-56540229D01*
X75969275Y-56492097D01*
X75966434Y-56489343D01*
X75946971Y-56469880D01*
X75943871Y-56467475D01*
X75934853Y-56459773D01*
X75930996Y-56456151D01*
X75903082Y-56429938D01*
X75900288Y-56428402D01*
X75885657Y-56420358D01*
X75869133Y-56409503D01*
X75853434Y-56397325D01*
X75813431Y-56380014D01*
X75802785Y-56374799D01*
X75764592Y-56353803D01*
X75764589Y-56353802D01*
X75745346Y-56348861D01*
X75726644Y-56342458D01*
X75708396Y-56334561D01*
X75665355Y-56327744D01*
X75653736Y-56325338D01*
X75611521Y-56314500D01*
X75611519Y-56314500D01*
X75591644Y-56314500D01*
X75571935Y-56312949D01*
X75552304Y-56309840D01*
X75552303Y-56309840D01*
X75527359Y-56312198D01*
X75513417Y-56313516D01*
X75508921Y-56313941D01*
X75497063Y-56314500D01*
X74343781Y-56314500D01*
X74295563Y-56304909D01*
X74254686Y-56277595D01*
X71007405Y-53030314D01*
X70980091Y-52989437D01*
X70970500Y-52941219D01*
X70970500Y-52384157D01*
X70970500Y-52384152D01*
X70960087Y-52282225D01*
X70905362Y-52117075D01*
X70826981Y-51990000D01*
X74764389Y-51990000D01*
X74784803Y-52275424D01*
X74798748Y-52339526D01*
X74845631Y-52555046D01*
X74945633Y-52823161D01*
X75041951Y-52999554D01*
X75082775Y-53074317D01*
X75254262Y-53303397D01*
X75456602Y-53505737D01*
X75656110Y-53655087D01*
X75685685Y-53677226D01*
X75936839Y-53814367D01*
X76204954Y-53914369D01*
X76484572Y-53975196D01*
X76698552Y-53990500D01*
X76841447Y-53990500D01*
X76841448Y-53990500D01*
X77055428Y-53975196D01*
X77335046Y-53914369D01*
X77603161Y-53814367D01*
X77854315Y-53677226D01*
X78083395Y-53505739D01*
X78285739Y-53303395D01*
X78457226Y-53074315D01*
X78594367Y-52823161D01*
X78694369Y-52555046D01*
X78755196Y-52275428D01*
X78775610Y-51990000D01*
X98764389Y-51990000D01*
X98784803Y-52275424D01*
X98798748Y-52339526D01*
X98845631Y-52555046D01*
X98945633Y-52823161D01*
X99041951Y-52999554D01*
X99082775Y-53074317D01*
X99254262Y-53303397D01*
X99456602Y-53505737D01*
X99656110Y-53655087D01*
X99685685Y-53677226D01*
X99936839Y-53814367D01*
X100204954Y-53914369D01*
X100484572Y-53975196D01*
X100698552Y-53990500D01*
X100841447Y-53990500D01*
X100841448Y-53990500D01*
X101055428Y-53975196D01*
X101335046Y-53914369D01*
X101603161Y-53814367D01*
X101854315Y-53677226D01*
X102083395Y-53505739D01*
X102285739Y-53303395D01*
X102457226Y-53074315D01*
X102594367Y-52823161D01*
X102694369Y-52555046D01*
X102755196Y-52275428D01*
X102775610Y-51990000D01*
X102755196Y-51704572D01*
X102694369Y-51424954D01*
X102594367Y-51156839D01*
X102457226Y-50905685D01*
X102285739Y-50676605D01*
X102285737Y-50676602D01*
X102083397Y-50474262D01*
X101854317Y-50302775D01*
X101811961Y-50279646D01*
X101603161Y-50165633D01*
X101335046Y-50065631D01*
X101159946Y-50027540D01*
X101055424Y-50004803D01*
X100860931Y-49990893D01*
X100841448Y-49989500D01*
X100698552Y-49989500D01*
X100680694Y-49990777D01*
X100484575Y-50004803D01*
X100204953Y-50065631D01*
X100204954Y-50065631D01*
X99936839Y-50165633D01*
X99936837Y-50165633D01*
X99936837Y-50165634D01*
X99685682Y-50302775D01*
X99456602Y-50474262D01*
X99254262Y-50676602D01*
X99082775Y-50905682D01*
X98945634Y-51156837D01*
X98845631Y-51424954D01*
X98784803Y-51704575D01*
X98764389Y-51990000D01*
X78775610Y-51990000D01*
X78755196Y-51704572D01*
X78694369Y-51424954D01*
X78594367Y-51156839D01*
X78457226Y-50905685D01*
X78285739Y-50676605D01*
X78285737Y-50676602D01*
X78083397Y-50474262D01*
X77854317Y-50302775D01*
X77811961Y-50279646D01*
X77603161Y-50165633D01*
X77335046Y-50065631D01*
X77159946Y-50027540D01*
X77055424Y-50004803D01*
X76860931Y-49990893D01*
X76841448Y-49989500D01*
X76698552Y-49989500D01*
X76680694Y-49990777D01*
X76484575Y-50004803D01*
X76204953Y-50065631D01*
X76204954Y-50065631D01*
X75936839Y-50165633D01*
X75936837Y-50165633D01*
X75936837Y-50165634D01*
X75685682Y-50302775D01*
X75456602Y-50474262D01*
X75254262Y-50676602D01*
X75082775Y-50905682D01*
X74945634Y-51156837D01*
X74845631Y-51424954D01*
X74784803Y-51704575D01*
X74764389Y-51990000D01*
X70826981Y-51990000D01*
X70814026Y-51968997D01*
X70814024Y-51968995D01*
X70814023Y-51968993D01*
X70691006Y-51845976D01*
X70542926Y-51754638D01*
X70460349Y-51727275D01*
X70377775Y-51699913D01*
X70275848Y-51689500D01*
X69264152Y-51689500D01*
X69162224Y-51699913D01*
X69162225Y-51699913D01*
X68997073Y-51754638D01*
X68848993Y-51845976D01*
X68725976Y-51968993D01*
X68634638Y-52117073D01*
X68600144Y-52221172D01*
X68579913Y-52282225D01*
X68569500Y-52384152D01*
X68569500Y-52970848D01*
X65770000Y-52970848D01*
X65770000Y-49994501D01*
X65770321Y-49985513D01*
X65789714Y-49714355D01*
X65792272Y-49696566D01*
X65849098Y-49435338D01*
X65854157Y-49418107D01*
X65947591Y-49167601D01*
X65955050Y-49151268D01*
X66083178Y-48916620D01*
X66092891Y-48901506D01*
X66253108Y-48687482D01*
X66264868Y-48673911D01*
X66453911Y-48484868D01*
X66467482Y-48473108D01*
X66681506Y-48312891D01*
X66696620Y-48303178D01*
X66931268Y-48175050D01*
X66947601Y-48167591D01*
X67198107Y-48074157D01*
X67215338Y-48069098D01*
X67476566Y-48012272D01*
X67494349Y-48009714D01*
X67716128Y-47993852D01*
X67765513Y-47990321D01*
X67774501Y-47990000D01*
X211765499Y-47990000D01*
X211774487Y-47990321D01*
G37*
G04 #@! TD.AperFunction*
M02*
