%TF.GenerationSoftware,KiCad,Pcbnew,7.0.1*%
%TF.CreationDate,2023-10-20T10:46:18+03:00*%
%TF.ProjectId,modelh,6d6f6465-6c68-42e6-9b69-6361645f7063,v0.1*%
%TF.SameCoordinates,Original*%
%TF.FileFunction,Drillmap*%
%TF.FilePolarity,Positive*%
%FSLAX45Y45*%
G04 Gerber Fmt 4.5, Leading zero omitted, Abs format (unit mm)*
G04 Created by KiCad (PCBNEW 7.0.1) date 2023-10-20 10:46:18*
%MOMM*%
%LPD*%
G01*
G04 APERTURE LIST*
%ADD10C,0.001000*%
%ADD11C,0.200000*%
%ADD12C,0.030000*%
%ADD13C,0.040000*%
%ADD14C,0.092000*%
%ADD15C,0.100000*%
%ADD16C,0.101600*%
%ADD17C,0.233000*%
G04 APERTURE END LIST*
D10*
X6477000Y-8199000D02*
X6477000Y-4999000D01*
X21177000Y-8499000D02*
X6777000Y-8499000D01*
X6777000Y-4699000D02*
X21177000Y-4699000D01*
X21177000Y-8499000D02*
G75*
G03*
X21477000Y-8199000I0J300000D01*
G01*
X6477000Y-8199000D02*
G75*
G03*
X6777000Y-8499000I300000J0D01*
G01*
X21477000Y-4999000D02*
G75*
G03*
X21177000Y-4699000I-300000J0D01*
G01*
X6777000Y-4699000D02*
G75*
G03*
X6477000Y-4999000I0J-300000D01*
G01*
X21477000Y-4999000D02*
X21477000Y-8199000D01*
D11*
D12*
X8905000Y-6915000D02*
X8935000Y-6945000D01*
X8935000Y-6915000D02*
X8905000Y-6945000D01*
X8965000Y-6615000D02*
X8995000Y-6645000D01*
X8995000Y-6615000D02*
X8965000Y-6645000D01*
X9787000Y-7234000D02*
X9817000Y-7264000D01*
X9817000Y-7234000D02*
X9787000Y-7264000D01*
X10112000Y-6706500D02*
X10142000Y-6736500D01*
X10142000Y-6706500D02*
X10112000Y-6736500D01*
X10195000Y-6255000D02*
X10225000Y-6285000D01*
X10225000Y-6255000D02*
X10195000Y-6285000D01*
X10682000Y-6199000D02*
X10712000Y-6229000D01*
X10712000Y-6199000D02*
X10682000Y-6229000D01*
X10687805Y-6514805D02*
X10717805Y-6544805D01*
X10717805Y-6514805D02*
X10687805Y-6544805D01*
X10725000Y-6125000D02*
X10755000Y-6155000D01*
X10755000Y-6125000D02*
X10725000Y-6155000D01*
X10762000Y-6199000D02*
X10792000Y-6229000D01*
X10792000Y-6199000D02*
X10762000Y-6229000D01*
X10772000Y-6519000D02*
X10802000Y-6549000D01*
X10802000Y-6519000D02*
X10772000Y-6549000D01*
X10837000Y-7139000D02*
X10867000Y-7169000D01*
X10867000Y-7139000D02*
X10837000Y-7169000D01*
X10842000Y-6199000D02*
X10872000Y-6229000D01*
X10872000Y-6199000D02*
X10842000Y-6229000D01*
X10852000Y-6519000D02*
X10882000Y-6549000D01*
X10882000Y-6519000D02*
X10852000Y-6549000D01*
X10922000Y-6199000D02*
X10952000Y-6229000D01*
X10952000Y-6199000D02*
X10922000Y-6229000D01*
X10937816Y-6521670D02*
X10967816Y-6551670D01*
X10967816Y-6521670D02*
X10937816Y-6551670D01*
X11002000Y-6199000D02*
X11032000Y-6229000D01*
X11032000Y-6199000D02*
X11002000Y-6229000D01*
X11512000Y-6199000D02*
X11542000Y-6229000D01*
X11542000Y-6199000D02*
X11512000Y-6229000D01*
X11592000Y-6199000D02*
X11622000Y-6229000D01*
X11622000Y-6199000D02*
X11592000Y-6229000D01*
X11672000Y-6199000D02*
X11702000Y-6229000D01*
X11702000Y-6199000D02*
X11672000Y-6229000D01*
X11752000Y-6199000D02*
X11782000Y-6229000D01*
X11782000Y-6199000D02*
X11752000Y-6229000D01*
X11832000Y-6199000D02*
X11862000Y-6229000D01*
X11862000Y-6199000D02*
X11832000Y-6229000D01*
X12032000Y-6519000D02*
X12062000Y-6549000D01*
X12062000Y-6519000D02*
X12032000Y-6549000D01*
X12112000Y-6519000D02*
X12142000Y-6549000D01*
X12142000Y-6519000D02*
X12112000Y-6549000D01*
X12192000Y-6519000D02*
X12222000Y-6549000D01*
X12222000Y-6519000D02*
X12192000Y-6549000D01*
D13*
X6720000Y-5100000D02*
G75*
G03*
X6720000Y-5100000I-20000J0D01*
G01*
X6720000Y-5300000D02*
G75*
G03*
X6720000Y-5300000I-20000J0D01*
G01*
X6720000Y-5500000D02*
G75*
G03*
X6720000Y-5500000I-20000J0D01*
G01*
X6720000Y-5700000D02*
G75*
G03*
X6720000Y-5700000I-20000J0D01*
G01*
X6720000Y-5900000D02*
G75*
G03*
X6720000Y-5900000I-20000J0D01*
G01*
X6720000Y-6100000D02*
G75*
G03*
X6720000Y-6100000I-20000J0D01*
G01*
X6720000Y-6300000D02*
G75*
G03*
X6720000Y-6300000I-20000J0D01*
G01*
X6720000Y-6500000D02*
G75*
G03*
X6720000Y-6500000I-20000J0D01*
G01*
X6720000Y-6700000D02*
G75*
G03*
X6720000Y-6700000I-20000J0D01*
G01*
X6720000Y-6900000D02*
G75*
G03*
X6720000Y-6900000I-20000J0D01*
G01*
X6720000Y-7500000D02*
G75*
G03*
X6720000Y-7500000I-20000J0D01*
G01*
X6720000Y-7700000D02*
G75*
G03*
X6720000Y-7700000I-20000J0D01*
G01*
X6720000Y-7900000D02*
G75*
G03*
X6720000Y-7900000I-20000J0D01*
G01*
X6720000Y-8100000D02*
G75*
G03*
X6720000Y-8100000I-20000J0D01*
G01*
X6920000Y-4900000D02*
G75*
G03*
X6920000Y-4900000I-20000J0D01*
G01*
X6920000Y-8300000D02*
G75*
G03*
X6920000Y-8300000I-20000J0D01*
G01*
X7120000Y-4900000D02*
G75*
G03*
X7120000Y-4900000I-20000J0D01*
G01*
X7120000Y-8300000D02*
G75*
G03*
X7120000Y-8300000I-20000J0D01*
G01*
X7320000Y-4900000D02*
G75*
G03*
X7320000Y-4900000I-20000J0D01*
G01*
X7320000Y-8300000D02*
G75*
G03*
X7320000Y-8300000I-20000J0D01*
G01*
X7520000Y-4900000D02*
G75*
G03*
X7520000Y-4900000I-20000J0D01*
G01*
X7657000Y-6434000D02*
G75*
G03*
X7657000Y-6434000I-20000J0D01*
G01*
X7657000Y-6544000D02*
G75*
G03*
X7657000Y-6544000I-20000J0D01*
G01*
X7720000Y-4900000D02*
G75*
G03*
X7720000Y-4900000I-20000J0D01*
G01*
X7720000Y-8300000D02*
G75*
G03*
X7720000Y-8300000I-20000J0D01*
G01*
X7757000Y-6484000D02*
G75*
G03*
X7757000Y-6484000I-20000J0D01*
G01*
X7757000Y-6594000D02*
G75*
G03*
X7757000Y-6594000I-20000J0D01*
G01*
X7920000Y-4900000D02*
G75*
G03*
X7920000Y-4900000I-20000J0D01*
G01*
X7920000Y-8300000D02*
G75*
G03*
X7920000Y-8300000I-20000J0D01*
G01*
X8120000Y-4900000D02*
G75*
G03*
X8120000Y-4900000I-20000J0D01*
G01*
X8120000Y-8300000D02*
G75*
G03*
X8120000Y-8300000I-20000J0D01*
G01*
X8320000Y-4900000D02*
G75*
G03*
X8320000Y-4900000I-20000J0D01*
G01*
X8320000Y-8300000D02*
G75*
G03*
X8320000Y-8300000I-20000J0D01*
G01*
X8520000Y-4900000D02*
G75*
G03*
X8520000Y-4900000I-20000J0D01*
G01*
X8520000Y-8300000D02*
G75*
G03*
X8520000Y-8300000I-20000J0D01*
G01*
X8620000Y-5000000D02*
G75*
G03*
X8620000Y-5000000I-20000J0D01*
G01*
X8620000Y-5200000D02*
G75*
G03*
X8620000Y-5200000I-20000J0D01*
G01*
X8707000Y-6344000D02*
G75*
G03*
X8707000Y-6344000I-20000J0D01*
G01*
X8707000Y-6444000D02*
G75*
G03*
X8707000Y-6444000I-20000J0D01*
G01*
X8720000Y-8300000D02*
G75*
G03*
X8720000Y-8300000I-20000J0D01*
G01*
X8807000Y-6344000D02*
G75*
G03*
X8807000Y-6344000I-20000J0D01*
G01*
X8807000Y-6444000D02*
G75*
G03*
X8807000Y-6444000I-20000J0D01*
G01*
X8820000Y-5000000D02*
G75*
G03*
X8820000Y-5000000I-20000J0D01*
G01*
X8820000Y-5200000D02*
G75*
G03*
X8820000Y-5200000I-20000J0D01*
G01*
X8907000Y-6344000D02*
G75*
G03*
X8907000Y-6344000I-20000J0D01*
G01*
X8907000Y-6444000D02*
G75*
G03*
X8907000Y-6444000I-20000J0D01*
G01*
X8920000Y-8300000D02*
G75*
G03*
X8920000Y-8300000I-20000J0D01*
G01*
X9020000Y-5000000D02*
G75*
G03*
X9020000Y-5000000I-20000J0D01*
G01*
X9020000Y-5200000D02*
G75*
G03*
X9020000Y-5200000I-20000J0D01*
G01*
X9120000Y-8300000D02*
G75*
G03*
X9120000Y-8300000I-20000J0D01*
G01*
X9220000Y-5000000D02*
G75*
G03*
X9220000Y-5000000I-20000J0D01*
G01*
X9220000Y-5200000D02*
G75*
G03*
X9220000Y-5200000I-20000J0D01*
G01*
X9320000Y-4900000D02*
G75*
G03*
X9320000Y-4900000I-20000J0D01*
G01*
X9320000Y-8300000D02*
G75*
G03*
X9320000Y-8300000I-20000J0D01*
G01*
X9520000Y-4900000D02*
G75*
G03*
X9520000Y-4900000I-20000J0D01*
G01*
X9670000Y-7450000D02*
G75*
G03*
X9670000Y-7450000I-20000J0D01*
G01*
X9670000Y-7600000D02*
G75*
G03*
X9670000Y-7600000I-20000J0D01*
G01*
X9720000Y-4900000D02*
G75*
G03*
X9720000Y-4900000I-20000J0D01*
G01*
X9845000Y-7450000D02*
G75*
G03*
X9845000Y-7450000I-20000J0D01*
G01*
X9845000Y-7600000D02*
G75*
G03*
X9845000Y-7600000I-20000J0D01*
G01*
X9907000Y-6044000D02*
G75*
G03*
X9907000Y-6044000I-20000J0D01*
G01*
X9920000Y-4900000D02*
G75*
G03*
X9920000Y-4900000I-20000J0D01*
G01*
X9997000Y-6044000D02*
G75*
G03*
X9997000Y-6044000I-20000J0D01*
G01*
X10087000Y-6045999D02*
G75*
G03*
X10087000Y-6045999I-20000J0D01*
G01*
X10120000Y-4900000D02*
G75*
G03*
X10120000Y-4900000I-20000J0D01*
G01*
X10247000Y-6911000D02*
G75*
G03*
X10247000Y-6911000I-20000J0D01*
G01*
X10320000Y-4900000D02*
G75*
G03*
X10320000Y-4900000I-20000J0D01*
G01*
X10347000Y-6911001D02*
G75*
G03*
X10347000Y-6911001I-20000J0D01*
G01*
X10447000Y-6911001D02*
G75*
G03*
X10447000Y-6911001I-20000J0D01*
G01*
X10470000Y-7375000D02*
G75*
G03*
X10470000Y-7375000I-20000J0D01*
G01*
X10520000Y-4900000D02*
G75*
G03*
X10520000Y-4900000I-20000J0D01*
G01*
X10620000Y-8300000D02*
G75*
G03*
X10620000Y-8300000I-20000J0D01*
G01*
X10645000Y-7375000D02*
G75*
G03*
X10645000Y-7375000I-20000J0D01*
G01*
X10720000Y-4900000D02*
G75*
G03*
X10720000Y-4900000I-20000J0D01*
G01*
X10799499Y-6854000D02*
G75*
G03*
X10799499Y-6854000I-20000J0D01*
G01*
X10820000Y-6060000D02*
G75*
G03*
X10820000Y-6060000I-20000J0D01*
G01*
X10820000Y-7375000D02*
G75*
G03*
X10820000Y-7375000I-20000J0D01*
G01*
X10820000Y-8300000D02*
G75*
G03*
X10820000Y-8300000I-20000J0D01*
G01*
X10890000Y-5990000D02*
G75*
G03*
X10890000Y-5990000I-20000J0D01*
G01*
X10920000Y-4900000D02*
G75*
G03*
X10920000Y-4900000I-20000J0D01*
G01*
X10957000Y-6914000D02*
G75*
G03*
X10957000Y-6914000I-20000J0D01*
G01*
X10957000Y-7014000D02*
G75*
G03*
X10957000Y-7014000I-20000J0D01*
G01*
X11020000Y-8300000D02*
G75*
G03*
X11020000Y-8300000I-20000J0D01*
G01*
X11120000Y-4900000D02*
G75*
G03*
X11120000Y-4900000I-20000J0D01*
G01*
X11220000Y-8300000D02*
G75*
G03*
X11220000Y-8300000I-20000J0D01*
G01*
X11320000Y-4900000D02*
G75*
G03*
X11320000Y-4900000I-20000J0D01*
G01*
X11377000Y-7714000D02*
G75*
G03*
X11377000Y-7714000I-20000J0D01*
G01*
X11420000Y-8300000D02*
G75*
G03*
X11420000Y-8300000I-20000J0D01*
G01*
X11477000Y-7714000D02*
G75*
G03*
X11477000Y-7714000I-20000J0D01*
G01*
X11487000Y-6544000D02*
G75*
G03*
X11487000Y-6544000I-20000J0D01*
G01*
X11520000Y-4900000D02*
G75*
G03*
X11520000Y-4900000I-20000J0D01*
G01*
X11577000Y-6669000D02*
G75*
G03*
X11577000Y-6669000I-20000J0D01*
G01*
X11577000Y-7714000D02*
G75*
G03*
X11577000Y-7714000I-20000J0D01*
G01*
X11592000Y-6544000D02*
G75*
G03*
X11592000Y-6544000I-20000J0D01*
G01*
X11620000Y-8300000D02*
G75*
G03*
X11620000Y-8300000I-20000J0D01*
G01*
X11690000Y-6670000D02*
G75*
G03*
X11690000Y-6670000I-20000J0D01*
G01*
X11720000Y-4900000D02*
G75*
G03*
X11720000Y-4900000I-20000J0D01*
G01*
X11800000Y-6670000D02*
G75*
G03*
X11800000Y-6670000I-20000J0D01*
G01*
X11820000Y-8300000D02*
G75*
G03*
X11820000Y-8300000I-20000J0D01*
G01*
X11920000Y-4900000D02*
G75*
G03*
X11920000Y-4900000I-20000J0D01*
G01*
X12020000Y-6900000D02*
G75*
G03*
X12020000Y-6900000I-20000J0D01*
G01*
X12020000Y-8300000D02*
G75*
G03*
X12020000Y-8300000I-20000J0D01*
G01*
X12120000Y-4900000D02*
G75*
G03*
X12120000Y-4900000I-20000J0D01*
G01*
X12220000Y-6900000D02*
G75*
G03*
X12220000Y-6900000I-20000J0D01*
G01*
X12220000Y-8300000D02*
G75*
G03*
X12220000Y-8300000I-20000J0D01*
G01*
X12320000Y-4900000D02*
G75*
G03*
X12320000Y-4900000I-20000J0D01*
G01*
X12420000Y-6900000D02*
G75*
G03*
X12420000Y-6900000I-20000J0D01*
G01*
X12420000Y-8300000D02*
G75*
G03*
X12420000Y-8300000I-20000J0D01*
G01*
X12520000Y-4900000D02*
G75*
G03*
X12520000Y-4900000I-20000J0D01*
G01*
X12620000Y-6900000D02*
G75*
G03*
X12620000Y-6900000I-20000J0D01*
G01*
X12620000Y-7100000D02*
G75*
G03*
X12620000Y-7100000I-20000J0D01*
G01*
X12620000Y-7300000D02*
G75*
G03*
X12620000Y-7300000I-20000J0D01*
G01*
X12620000Y-7500000D02*
G75*
G03*
X12620000Y-7500000I-20000J0D01*
G01*
X12620000Y-7700000D02*
G75*
G03*
X12620000Y-7700000I-20000J0D01*
G01*
X12620000Y-7900000D02*
G75*
G03*
X12620000Y-7900000I-20000J0D01*
G01*
X12620000Y-8100000D02*
G75*
G03*
X12620000Y-8100000I-20000J0D01*
G01*
X12620000Y-8300000D02*
G75*
G03*
X12620000Y-8300000I-20000J0D01*
G01*
X12720000Y-4900000D02*
G75*
G03*
X12720000Y-4900000I-20000J0D01*
G01*
X12820000Y-6900000D02*
G75*
G03*
X12820000Y-6900000I-20000J0D01*
G01*
X12820000Y-8300000D02*
G75*
G03*
X12820000Y-8300000I-20000J0D01*
G01*
X12920000Y-4900000D02*
G75*
G03*
X12920000Y-4900000I-20000J0D01*
G01*
X13020000Y-6900000D02*
G75*
G03*
X13020000Y-6900000I-20000J0D01*
G01*
X13020000Y-8300000D02*
G75*
G03*
X13020000Y-8300000I-20000J0D01*
G01*
X13120000Y-4900000D02*
G75*
G03*
X13120000Y-4900000I-20000J0D01*
G01*
X13220000Y-6900000D02*
G75*
G03*
X13220000Y-6900000I-20000J0D01*
G01*
X13220000Y-8300000D02*
G75*
G03*
X13220000Y-8300000I-20000J0D01*
G01*
X13320000Y-4900000D02*
G75*
G03*
X13320000Y-4900000I-20000J0D01*
G01*
X13420000Y-6900000D02*
G75*
G03*
X13420000Y-6900000I-20000J0D01*
G01*
X13420000Y-8300000D02*
G75*
G03*
X13420000Y-8300000I-20000J0D01*
G01*
X13520000Y-4900000D02*
G75*
G03*
X13520000Y-4900000I-20000J0D01*
G01*
X13620000Y-6900000D02*
G75*
G03*
X13620000Y-6900000I-20000J0D01*
G01*
X13620000Y-8300000D02*
G75*
G03*
X13620000Y-8300000I-20000J0D01*
G01*
X13720000Y-4900000D02*
G75*
G03*
X13720000Y-4900000I-20000J0D01*
G01*
X13820000Y-6900000D02*
G75*
G03*
X13820000Y-6900000I-20000J0D01*
G01*
X13820000Y-8300000D02*
G75*
G03*
X13820000Y-8300000I-20000J0D01*
G01*
X13920000Y-4900000D02*
G75*
G03*
X13920000Y-4900000I-20000J0D01*
G01*
X14020000Y-6900000D02*
G75*
G03*
X14020000Y-6900000I-20000J0D01*
G01*
X14020000Y-8300000D02*
G75*
G03*
X14020000Y-8300000I-20000J0D01*
G01*
X14120000Y-4900000D02*
G75*
G03*
X14120000Y-4900000I-20000J0D01*
G01*
X14220000Y-6900000D02*
G75*
G03*
X14220000Y-6900000I-20000J0D01*
G01*
X14220000Y-8300000D02*
G75*
G03*
X14220000Y-8300000I-20000J0D01*
G01*
X14320000Y-4900000D02*
G75*
G03*
X14320000Y-4900000I-20000J0D01*
G01*
X14420000Y-6900000D02*
G75*
G03*
X14420000Y-6900000I-20000J0D01*
G01*
X14420000Y-8300000D02*
G75*
G03*
X14420000Y-8300000I-20000J0D01*
G01*
X14520000Y-4900000D02*
G75*
G03*
X14520000Y-4900000I-20000J0D01*
G01*
X14620000Y-6900000D02*
G75*
G03*
X14620000Y-6900000I-20000J0D01*
G01*
X14620000Y-8300000D02*
G75*
G03*
X14620000Y-8300000I-20000J0D01*
G01*
X14720000Y-4900000D02*
G75*
G03*
X14720000Y-4900000I-20000J0D01*
G01*
X14820000Y-6900000D02*
G75*
G03*
X14820000Y-6900000I-20000J0D01*
G01*
X14820000Y-8300000D02*
G75*
G03*
X14820000Y-8300000I-20000J0D01*
G01*
X14920000Y-4900000D02*
G75*
G03*
X14920000Y-4900000I-20000J0D01*
G01*
X14920000Y-5900000D02*
G75*
G03*
X14920000Y-5900000I-20000J0D01*
G01*
X15020000Y-6900000D02*
G75*
G03*
X15020000Y-6900000I-20000J0D01*
G01*
X15020000Y-8300000D02*
G75*
G03*
X15020000Y-8300000I-20000J0D01*
G01*
X15120000Y-4900000D02*
G75*
G03*
X15120000Y-4900000I-20000J0D01*
G01*
X15120000Y-5900000D02*
G75*
G03*
X15120000Y-5900000I-20000J0D01*
G01*
X15220000Y-6900000D02*
G75*
G03*
X15220000Y-6900000I-20000J0D01*
G01*
X15220000Y-8300000D02*
G75*
G03*
X15220000Y-8300000I-20000J0D01*
G01*
X15320000Y-4900000D02*
G75*
G03*
X15320000Y-4900000I-20000J0D01*
G01*
X15320000Y-5900000D02*
G75*
G03*
X15320000Y-5900000I-20000J0D01*
G01*
X15420000Y-6900000D02*
G75*
G03*
X15420000Y-6900000I-20000J0D01*
G01*
X15420000Y-8300000D02*
G75*
G03*
X15420000Y-8300000I-20000J0D01*
G01*
X15520000Y-4900000D02*
G75*
G03*
X15520000Y-4900000I-20000J0D01*
G01*
X15520000Y-5900000D02*
G75*
G03*
X15520000Y-5900000I-20000J0D01*
G01*
X15620000Y-6900000D02*
G75*
G03*
X15620000Y-6900000I-20000J0D01*
G01*
X15620000Y-8300000D02*
G75*
G03*
X15620000Y-8300000I-20000J0D01*
G01*
X15720000Y-4900000D02*
G75*
G03*
X15720000Y-4900000I-20000J0D01*
G01*
X15720000Y-5900000D02*
G75*
G03*
X15720000Y-5900000I-20000J0D01*
G01*
X15820000Y-6900000D02*
G75*
G03*
X15820000Y-6900000I-20000J0D01*
G01*
X15820000Y-8300000D02*
G75*
G03*
X15820000Y-8300000I-20000J0D01*
G01*
X15920000Y-4900000D02*
G75*
G03*
X15920000Y-4900000I-20000J0D01*
G01*
X15920000Y-5900000D02*
G75*
G03*
X15920000Y-5900000I-20000J0D01*
G01*
X16020000Y-6900000D02*
G75*
G03*
X16020000Y-6900000I-20000J0D01*
G01*
X16020000Y-8300000D02*
G75*
G03*
X16020000Y-8300000I-20000J0D01*
G01*
X16120000Y-4900000D02*
G75*
G03*
X16120000Y-4900000I-20000J0D01*
G01*
X16120000Y-5900000D02*
G75*
G03*
X16120000Y-5900000I-20000J0D01*
G01*
X16220000Y-6900000D02*
G75*
G03*
X16220000Y-6900000I-20000J0D01*
G01*
X16220000Y-8300000D02*
G75*
G03*
X16220000Y-8300000I-20000J0D01*
G01*
X16320000Y-4900000D02*
G75*
G03*
X16320000Y-4900000I-20000J0D01*
G01*
X16320000Y-5900000D02*
G75*
G03*
X16320000Y-5900000I-20000J0D01*
G01*
X16420000Y-6900000D02*
G75*
G03*
X16420000Y-6900000I-20000J0D01*
G01*
X16420000Y-8300000D02*
G75*
G03*
X16420000Y-8300000I-20000J0D01*
G01*
X16520000Y-4900000D02*
G75*
G03*
X16520000Y-4900000I-20000J0D01*
G01*
X16520000Y-5900000D02*
G75*
G03*
X16520000Y-5900000I-20000J0D01*
G01*
X16620000Y-6900000D02*
G75*
G03*
X16620000Y-6900000I-20000J0D01*
G01*
X16620000Y-8300000D02*
G75*
G03*
X16620000Y-8300000I-20000J0D01*
G01*
X16720000Y-4900000D02*
G75*
G03*
X16720000Y-4900000I-20000J0D01*
G01*
X16720000Y-5900000D02*
G75*
G03*
X16720000Y-5900000I-20000J0D01*
G01*
X16820000Y-6900000D02*
G75*
G03*
X16820000Y-6900000I-20000J0D01*
G01*
X16820000Y-8300000D02*
G75*
G03*
X16820000Y-8300000I-20000J0D01*
G01*
X16920000Y-4900000D02*
G75*
G03*
X16920000Y-4900000I-20000J0D01*
G01*
X17020000Y-6900000D02*
G75*
G03*
X17020000Y-6900000I-20000J0D01*
G01*
X17020000Y-8300000D02*
G75*
G03*
X17020000Y-8300000I-20000J0D01*
G01*
X17120000Y-4900000D02*
G75*
G03*
X17120000Y-4900000I-20000J0D01*
G01*
X17220000Y-6900000D02*
G75*
G03*
X17220000Y-6900000I-20000J0D01*
G01*
X17220000Y-8300000D02*
G75*
G03*
X17220000Y-8300000I-20000J0D01*
G01*
X17320000Y-4900000D02*
G75*
G03*
X17320000Y-4900000I-20000J0D01*
G01*
X17420000Y-6900000D02*
G75*
G03*
X17420000Y-6900000I-20000J0D01*
G01*
X17420000Y-8300000D02*
G75*
G03*
X17420000Y-8300000I-20000J0D01*
G01*
X17520000Y-4900000D02*
G75*
G03*
X17520000Y-4900000I-20000J0D01*
G01*
X17620000Y-6900000D02*
G75*
G03*
X17620000Y-6900000I-20000J0D01*
G01*
X17620000Y-8300000D02*
G75*
G03*
X17620000Y-8300000I-20000J0D01*
G01*
X17720000Y-4900000D02*
G75*
G03*
X17720000Y-4900000I-20000J0D01*
G01*
X17820000Y-6900000D02*
G75*
G03*
X17820000Y-6900000I-20000J0D01*
G01*
X17820000Y-7100000D02*
G75*
G03*
X17820000Y-7100000I-20000J0D01*
G01*
X17820000Y-7300000D02*
G75*
G03*
X17820000Y-7300000I-20000J0D01*
G01*
X17820000Y-7500000D02*
G75*
G03*
X17820000Y-7500000I-20000J0D01*
G01*
X17820000Y-7700000D02*
G75*
G03*
X17820000Y-7700000I-20000J0D01*
G01*
X17820000Y-7900000D02*
G75*
G03*
X17820000Y-7900000I-20000J0D01*
G01*
X17820000Y-8100000D02*
G75*
G03*
X17820000Y-8100000I-20000J0D01*
G01*
X17820000Y-8300000D02*
G75*
G03*
X17820000Y-8300000I-20000J0D01*
G01*
X17920000Y-4900000D02*
G75*
G03*
X17920000Y-4900000I-20000J0D01*
G01*
X18020000Y-6900000D02*
G75*
G03*
X18020000Y-6900000I-20000J0D01*
G01*
X18020000Y-8300000D02*
G75*
G03*
X18020000Y-8300000I-20000J0D01*
G01*
X18120000Y-4900000D02*
G75*
G03*
X18120000Y-4900000I-20000J0D01*
G01*
X18220000Y-6900000D02*
G75*
G03*
X18220000Y-6900000I-20000J0D01*
G01*
X18220000Y-8300000D02*
G75*
G03*
X18220000Y-8300000I-20000J0D01*
G01*
X18320000Y-4900000D02*
G75*
G03*
X18320000Y-4900000I-20000J0D01*
G01*
X18420000Y-6900000D02*
G75*
G03*
X18420000Y-6900000I-20000J0D01*
G01*
X18420000Y-8300000D02*
G75*
G03*
X18420000Y-8300000I-20000J0D01*
G01*
X18520000Y-4900000D02*
G75*
G03*
X18520000Y-4900000I-20000J0D01*
G01*
X18620000Y-6900000D02*
G75*
G03*
X18620000Y-6900000I-20000J0D01*
G01*
X18620000Y-8300000D02*
G75*
G03*
X18620000Y-8300000I-20000J0D01*
G01*
X18720000Y-4900000D02*
G75*
G03*
X18720000Y-4900000I-20000J0D01*
G01*
X18820000Y-6900000D02*
G75*
G03*
X18820000Y-6900000I-20000J0D01*
G01*
X18820000Y-8300000D02*
G75*
G03*
X18820000Y-8300000I-20000J0D01*
G01*
X18874000Y-6247000D02*
G75*
G03*
X18874000Y-6247000I-20000J0D01*
G01*
X18877000Y-6454000D02*
G75*
G03*
X18877000Y-6454000I-20000J0D01*
G01*
X18879000Y-6042000D02*
G75*
G03*
X18879000Y-6042000I-20000J0D01*
G01*
X18920000Y-4900000D02*
G75*
G03*
X18920000Y-4900000I-20000J0D01*
G01*
X19020000Y-6900000D02*
G75*
G03*
X19020000Y-6900000I-20000J0D01*
G01*
X19020000Y-8300000D02*
G75*
G03*
X19020000Y-8300000I-20000J0D01*
G01*
X19120000Y-4900000D02*
G75*
G03*
X19120000Y-4900000I-20000J0D01*
G01*
X19220000Y-8300000D02*
G75*
G03*
X19220000Y-8300000I-20000J0D01*
G01*
X19320000Y-4900000D02*
G75*
G03*
X19320000Y-4900000I-20000J0D01*
G01*
X19420000Y-8300000D02*
G75*
G03*
X19420000Y-8300000I-20000J0D01*
G01*
X19435734Y-6142734D02*
G75*
G03*
X19435734Y-6142734I-20000J0D01*
G01*
X19437000Y-6244000D02*
G75*
G03*
X19437000Y-6244000I-20000J0D01*
G01*
X19437016Y-6042741D02*
G75*
G03*
X19437016Y-6042741I-20000J0D01*
G01*
X19520000Y-4900000D02*
G75*
G03*
X19520000Y-4900000I-20000J0D01*
G01*
X19620000Y-8300000D02*
G75*
G03*
X19620000Y-8300000I-20000J0D01*
G01*
X19720000Y-4900000D02*
G75*
G03*
X19720000Y-4900000I-20000J0D01*
G01*
X19720000Y-6500000D02*
G75*
G03*
X19720000Y-6500000I-20000J0D01*
G01*
X19820000Y-8300000D02*
G75*
G03*
X19820000Y-8300000I-20000J0D01*
G01*
X19920000Y-4900000D02*
G75*
G03*
X19920000Y-4900000I-20000J0D01*
G01*
X19920000Y-6500000D02*
G75*
G03*
X19920000Y-6500000I-20000J0D01*
G01*
X19967000Y-6044000D02*
G75*
G03*
X19967000Y-6044000I-20000J0D01*
G01*
X19967000Y-6144000D02*
G75*
G03*
X19967000Y-6144000I-20000J0D01*
G01*
X20020000Y-8300000D02*
G75*
G03*
X20020000Y-8300000I-20000J0D01*
G01*
X20120000Y-4900000D02*
G75*
G03*
X20120000Y-4900000I-20000J0D01*
G01*
X20120000Y-6500000D02*
G75*
G03*
X20120000Y-6500000I-20000J0D01*
G01*
X20220000Y-8300000D02*
G75*
G03*
X20220000Y-8300000I-20000J0D01*
G01*
X20320000Y-4900000D02*
G75*
G03*
X20320000Y-4900000I-20000J0D01*
G01*
X20320000Y-6500000D02*
G75*
G03*
X20320000Y-6500000I-20000J0D01*
G01*
X20420000Y-8300000D02*
G75*
G03*
X20420000Y-8300000I-20000J0D01*
G01*
X20520000Y-4900000D02*
G75*
G03*
X20520000Y-4900000I-20000J0D01*
G01*
X20520000Y-5100000D02*
G75*
G03*
X20520000Y-5100000I-20000J0D01*
G01*
X20520000Y-5300000D02*
G75*
G03*
X20520000Y-5300000I-20000J0D01*
G01*
X20520000Y-5500000D02*
G75*
G03*
X20520000Y-5500000I-20000J0D01*
G01*
X20520000Y-6500000D02*
G75*
G03*
X20520000Y-6500000I-20000J0D01*
G01*
X20620000Y-8300000D02*
G75*
G03*
X20620000Y-8300000I-20000J0D01*
G01*
X20720000Y-4900000D02*
G75*
G03*
X20720000Y-4900000I-20000J0D01*
G01*
X20820000Y-8300000D02*
G75*
G03*
X20820000Y-8300000I-20000J0D01*
G01*
X20920000Y-4900000D02*
G75*
G03*
X20920000Y-4900000I-20000J0D01*
G01*
X21120000Y-4900000D02*
G75*
G03*
X21120000Y-4900000I-20000J0D01*
G01*
X21320000Y-5100000D02*
G75*
G03*
X21320000Y-5100000I-20000J0D01*
G01*
X21320000Y-5300000D02*
G75*
G03*
X21320000Y-5300000I-20000J0D01*
G01*
X21320000Y-5500000D02*
G75*
G03*
X21320000Y-5500000I-20000J0D01*
G01*
X21320000Y-5700000D02*
G75*
G03*
X21320000Y-5700000I-20000J0D01*
G01*
X21320000Y-5900000D02*
G75*
G03*
X21320000Y-5900000I-20000J0D01*
G01*
X21320000Y-6100000D02*
G75*
G03*
X21320000Y-6100000I-20000J0D01*
G01*
X21320000Y-6300000D02*
G75*
G03*
X21320000Y-6300000I-20000J0D01*
G01*
X21320000Y-6500000D02*
G75*
G03*
X21320000Y-6500000I-20000J0D01*
G01*
X21320000Y-6700000D02*
G75*
G03*
X21320000Y-6700000I-20000J0D01*
G01*
X21320000Y-6900000D02*
G75*
G03*
X21320000Y-6900000I-20000J0D01*
G01*
X21320000Y-7100000D02*
G75*
G03*
X21320000Y-7100000I-20000J0D01*
G01*
X21320000Y-7300000D02*
G75*
G03*
X21320000Y-7300000I-20000J0D01*
G01*
X21320000Y-7500000D02*
G75*
G03*
X21320000Y-7500000I-20000J0D01*
G01*
X21320000Y-7700000D02*
G75*
G03*
X21320000Y-7700000I-20000J0D01*
G01*
X21320000Y-7900000D02*
G75*
G03*
X21320000Y-7900000I-20000J0D01*
G01*
D14*
X8747000Y-5503000D02*
X8747000Y-5595000D01*
X8701000Y-5549000D02*
X8793000Y-5549000D01*
X8747000Y-5703000D02*
X8747000Y-5795000D01*
X8701000Y-5749000D02*
X8793000Y-5749000D01*
X8997000Y-5503000D02*
X8997000Y-5595000D01*
X8951000Y-5549000D02*
X9043000Y-5549000D01*
X8997000Y-5703000D02*
X8997000Y-5795000D01*
X8951000Y-5749000D02*
X9043000Y-5749000D01*
D15*
X7902356Y-5769356D02*
X7902356Y-5698644D01*
X7831644Y-5698644D01*
X7831644Y-5769356D01*
X7902356Y-5769356D01*
X9342356Y-6561356D02*
X9342356Y-6490644D01*
X9271644Y-6490644D01*
X9271644Y-6561356D01*
X9342356Y-6561356D01*
X9342356Y-6815356D02*
X9342356Y-6744644D01*
X9271644Y-6744644D01*
X9271644Y-6815356D01*
X9342356Y-6815356D01*
X9342356Y-7069356D02*
X9342356Y-6998644D01*
X9271644Y-6998644D01*
X9271644Y-7069356D01*
X9342356Y-7069356D01*
X9596356Y-6561356D02*
X9596356Y-6490644D01*
X9525644Y-6490644D01*
X9525644Y-6561356D01*
X9596356Y-6561356D01*
X9596356Y-6815356D02*
X9596356Y-6744644D01*
X9525644Y-6744644D01*
X9525644Y-6815356D01*
X9596356Y-6815356D01*
X9596356Y-7069356D02*
X9596356Y-6998644D01*
X9525644Y-6998644D01*
X9525644Y-7069356D01*
X9596356Y-7069356D01*
X11705356Y-5145356D02*
X11705356Y-5074644D01*
X11634644Y-5074644D01*
X11634644Y-5145356D01*
X11705356Y-5145356D01*
X11959356Y-5145356D02*
X11959356Y-5074644D01*
X11888644Y-5074644D01*
X11888644Y-5145356D01*
X11959356Y-5145356D01*
X12213356Y-5145356D02*
X12213356Y-5074644D01*
X12142644Y-5074644D01*
X12142644Y-5145356D01*
X12213356Y-5145356D01*
X12467356Y-5145356D02*
X12467356Y-5074644D01*
X12396644Y-5074644D01*
X12396644Y-5145356D01*
X12467356Y-5145356D01*
X12721356Y-5145356D02*
X12721356Y-5074644D01*
X12650644Y-5074644D01*
X12650644Y-5145356D01*
X12721356Y-5145356D01*
X12975356Y-5145356D02*
X12975356Y-5074644D01*
X12904644Y-5074644D01*
X12904644Y-5145356D01*
X12975356Y-5145356D01*
X13229356Y-5145356D02*
X13229356Y-5074644D01*
X13158644Y-5074644D01*
X13158644Y-5145356D01*
X13229356Y-5145356D01*
X13483356Y-5145356D02*
X13483356Y-5074644D01*
X13412644Y-5074644D01*
X13412644Y-5145356D01*
X13483356Y-5145356D01*
X13737356Y-5145356D02*
X13737356Y-5074644D01*
X13666644Y-5074644D01*
X13666644Y-5145356D01*
X13737356Y-5145356D01*
X13991356Y-5145356D02*
X13991356Y-5074644D01*
X13920644Y-5074644D01*
X13920644Y-5145356D01*
X13991356Y-5145356D01*
X14245356Y-5145356D02*
X14245356Y-5074644D01*
X14174644Y-5074644D01*
X14174644Y-5145356D01*
X14245356Y-5145356D01*
X14499356Y-5145356D02*
X14499356Y-5074644D01*
X14428644Y-5074644D01*
X14428644Y-5145356D01*
X14499356Y-5145356D01*
X14753356Y-5145356D02*
X14753356Y-5074644D01*
X14682644Y-5074644D01*
X14682644Y-5145356D01*
X14753356Y-5145356D01*
X15007356Y-5145356D02*
X15007356Y-5074644D01*
X14936644Y-5074644D01*
X14936644Y-5145356D01*
X15007356Y-5145356D01*
X15261356Y-5145356D02*
X15261356Y-5074644D01*
X15190644Y-5074644D01*
X15190644Y-5145356D01*
X15261356Y-5145356D01*
X15515356Y-5145356D02*
X15515356Y-5074644D01*
X15444644Y-5074644D01*
X15444644Y-5145356D01*
X15515356Y-5145356D01*
X17443356Y-5395356D02*
X17443356Y-5324644D01*
X17372644Y-5324644D01*
X17372644Y-5395356D01*
X17443356Y-5395356D01*
X17697356Y-5395356D02*
X17697356Y-5324644D01*
X17626644Y-5324644D01*
X17626644Y-5395356D01*
X17697356Y-5395356D01*
X17951356Y-5395356D02*
X17951356Y-5324644D01*
X17880644Y-5324644D01*
X17880644Y-5395356D01*
X17951356Y-5395356D01*
X18205356Y-5395356D02*
X18205356Y-5324644D01*
X18134644Y-5324644D01*
X18134644Y-5395356D01*
X18205356Y-5395356D01*
X18459356Y-5395356D02*
X18459356Y-5324644D01*
X18388644Y-5324644D01*
X18388644Y-5395356D01*
X18459356Y-5395356D01*
X18713356Y-5395356D02*
X18713356Y-5324644D01*
X18642644Y-5324644D01*
X18642644Y-5395356D01*
X18713356Y-5395356D01*
X18967356Y-5395356D02*
X18967356Y-5324644D01*
X18896644Y-5324644D01*
X18896644Y-5395356D01*
X18967356Y-5395356D01*
X19221356Y-5395356D02*
X19221356Y-5324644D01*
X19150644Y-5324644D01*
X19150644Y-5395356D01*
X19221356Y-5395356D01*
X19475356Y-5395356D02*
X19475356Y-5324644D01*
X19404644Y-5324644D01*
X19404644Y-5395356D01*
X19475356Y-5395356D01*
X19672356Y-6829356D02*
X19672356Y-6758644D01*
X19601644Y-6758644D01*
X19601644Y-6829356D01*
X19672356Y-6829356D01*
X19672356Y-7083356D02*
X19672356Y-7012644D01*
X19601644Y-7012644D01*
X19601644Y-7083356D01*
X19672356Y-7083356D01*
X19672356Y-7337356D02*
X19672356Y-7266644D01*
X19601644Y-7266644D01*
X19601644Y-7337356D01*
X19672356Y-7337356D01*
X19672356Y-7591356D02*
X19672356Y-7520644D01*
X19601644Y-7520644D01*
X19601644Y-7591356D01*
X19672356Y-7591356D01*
X19672356Y-7845356D02*
X19672356Y-7774644D01*
X19601644Y-7774644D01*
X19601644Y-7845356D01*
X19672356Y-7845356D01*
X19729356Y-5395356D02*
X19729356Y-5324644D01*
X19658644Y-5324644D01*
X19658644Y-5395356D01*
X19729356Y-5395356D01*
X19983356Y-5395356D02*
X19983356Y-5324644D01*
X19912644Y-5324644D01*
X19912644Y-5395356D01*
X19983356Y-5395356D01*
X20042356Y-6829356D02*
X20042356Y-6758644D01*
X19971644Y-6758644D01*
X19971644Y-6829356D01*
X20042356Y-6829356D01*
X20042356Y-7083356D02*
X20042356Y-7012644D01*
X19971644Y-7012644D01*
X19971644Y-7083356D01*
X20042356Y-7083356D01*
X20042356Y-7337356D02*
X20042356Y-7266644D01*
X19971644Y-7266644D01*
X19971644Y-7337356D01*
X20042356Y-7337356D01*
X20042356Y-7591356D02*
X20042356Y-7520644D01*
X19971644Y-7520644D01*
X19971644Y-7591356D01*
X20042356Y-7591356D01*
X20042356Y-7845356D02*
X20042356Y-7774644D01*
X19971644Y-7774644D01*
X19971644Y-7845356D01*
X20042356Y-7845356D01*
X20237356Y-5395356D02*
X20237356Y-5324644D01*
X20166644Y-5324644D01*
X20166644Y-5395356D01*
X20237356Y-5395356D01*
X20452356Y-6829356D02*
X20452356Y-6758644D01*
X20381644Y-6758644D01*
X20381644Y-6829356D01*
X20452356Y-6829356D01*
X20452356Y-7083356D02*
X20452356Y-7012644D01*
X20381644Y-7012644D01*
X20381644Y-7083356D01*
X20452356Y-7083356D01*
X20452356Y-7337356D02*
X20452356Y-7266644D01*
X20381644Y-7266644D01*
X20381644Y-7337356D01*
X20452356Y-7337356D01*
X20452356Y-7591356D02*
X20452356Y-7520644D01*
X20381644Y-7520644D01*
X20381644Y-7591356D01*
X20452356Y-7591356D01*
X20452356Y-7845356D02*
X20452356Y-7774644D01*
X20381644Y-7774644D01*
X20381644Y-7845356D01*
X20452356Y-7845356D01*
X20910356Y-5365356D02*
X20910356Y-5294644D01*
X20839644Y-5294644D01*
X20839644Y-5365356D01*
X20910356Y-5365356D01*
X20910356Y-5619356D02*
X20910356Y-5548644D01*
X20839644Y-5548644D01*
X20839644Y-5619356D01*
X20910356Y-5619356D01*
X20910356Y-5873356D02*
X20910356Y-5802644D01*
X20839644Y-5802644D01*
X20839644Y-5873356D01*
X20910356Y-5873356D01*
X20910356Y-6127356D02*
X20910356Y-6056644D01*
X20839644Y-6056644D01*
X20839644Y-6127356D01*
X20910356Y-6127356D01*
D16*
X7977000Y-7810800D02*
X8027800Y-7760000D01*
X7977000Y-7709200D01*
X7926200Y-7760000D01*
X7977000Y-7810800D01*
X7977000Y-8064800D02*
X8027800Y-8014000D01*
X7977000Y-7963200D01*
X7926200Y-8014000D01*
X7977000Y-8064800D01*
X8231000Y-7810800D02*
X8281800Y-7760000D01*
X8231000Y-7709200D01*
X8180200Y-7760000D01*
X8231000Y-7810800D01*
X8231000Y-8064800D02*
X8281800Y-8014000D01*
X8231000Y-7963200D01*
X8180200Y-8014000D01*
X8231000Y-8064800D01*
X8485000Y-7810800D02*
X8535800Y-7760000D01*
X8485000Y-7709200D01*
X8434200Y-7760000D01*
X8485000Y-7810800D01*
X8485000Y-8064800D02*
X8535800Y-8014000D01*
X8485000Y-7963200D01*
X8434200Y-8014000D01*
X8485000Y-8064800D01*
X8739000Y-7810800D02*
X8789800Y-7760000D01*
X8739000Y-7709200D01*
X8688200Y-7760000D01*
X8739000Y-7810800D01*
X8739000Y-8064800D02*
X8789800Y-8014000D01*
X8739000Y-7963200D01*
X8688200Y-8014000D01*
X8739000Y-8064800D01*
X8993000Y-7810800D02*
X9043800Y-7760000D01*
X8993000Y-7709200D01*
X8942200Y-7760000D01*
X8993000Y-7810800D01*
X8993000Y-8064800D02*
X9043800Y-8014000D01*
X8993000Y-7963200D01*
X8942200Y-8014000D01*
X8993000Y-8064800D01*
D17*
X8153500Y-5161500D02*
X8386500Y-5394500D01*
X8386500Y-5161500D02*
X8153500Y-5394500D01*
X8386500Y-5278000D02*
G75*
G03*
X8386500Y-5278000I-116500J0D01*
G01*
X9357500Y-5161500D02*
X9590500Y-5394500D01*
X9590500Y-5161500D02*
X9357500Y-5394500D01*
X9590500Y-5278000D02*
G75*
G03*
X9590500Y-5278000I-116500J0D01*
G01*
D11*
X6724569Y-8811574D02*
X6724569Y-8611574D01*
X6724569Y-8611574D02*
X6772188Y-8611574D01*
X6772188Y-8611574D02*
X6800759Y-8621098D01*
X6800759Y-8621098D02*
X6819807Y-8640145D01*
X6819807Y-8640145D02*
X6829331Y-8659193D01*
X6829331Y-8659193D02*
X6838855Y-8697288D01*
X6838855Y-8697288D02*
X6838855Y-8725860D01*
X6838855Y-8725860D02*
X6829331Y-8763955D01*
X6829331Y-8763955D02*
X6819807Y-8783002D01*
X6819807Y-8783002D02*
X6800759Y-8802050D01*
X6800759Y-8802050D02*
X6772188Y-8811574D01*
X6772188Y-8811574D02*
X6724569Y-8811574D01*
X6924569Y-8811574D02*
X6924569Y-8678240D01*
X6924569Y-8716336D02*
X6934093Y-8697288D01*
X6934093Y-8697288D02*
X6943617Y-8687764D01*
X6943617Y-8687764D02*
X6962664Y-8678240D01*
X6962664Y-8678240D02*
X6981712Y-8678240D01*
X7048378Y-8811574D02*
X7048378Y-8678240D01*
X7048378Y-8611574D02*
X7038855Y-8621098D01*
X7038855Y-8621098D02*
X7048378Y-8630621D01*
X7048378Y-8630621D02*
X7057902Y-8621098D01*
X7057902Y-8621098D02*
X7048378Y-8611574D01*
X7048378Y-8611574D02*
X7048378Y-8630621D01*
X7172188Y-8811574D02*
X7153140Y-8802050D01*
X7153140Y-8802050D02*
X7143617Y-8783002D01*
X7143617Y-8783002D02*
X7143617Y-8611574D01*
X7276950Y-8811574D02*
X7257902Y-8802050D01*
X7257902Y-8802050D02*
X7248378Y-8783002D01*
X7248378Y-8783002D02*
X7248378Y-8611574D01*
X7505521Y-8811574D02*
X7505521Y-8611574D01*
X7505521Y-8611574D02*
X7572188Y-8754431D01*
X7572188Y-8754431D02*
X7638855Y-8611574D01*
X7638855Y-8611574D02*
X7638855Y-8811574D01*
X7819807Y-8811574D02*
X7819807Y-8706812D01*
X7819807Y-8706812D02*
X7810283Y-8687764D01*
X7810283Y-8687764D02*
X7791236Y-8678240D01*
X7791236Y-8678240D02*
X7753140Y-8678240D01*
X7753140Y-8678240D02*
X7734093Y-8687764D01*
X7819807Y-8802050D02*
X7800759Y-8811574D01*
X7800759Y-8811574D02*
X7753140Y-8811574D01*
X7753140Y-8811574D02*
X7734093Y-8802050D01*
X7734093Y-8802050D02*
X7724569Y-8783002D01*
X7724569Y-8783002D02*
X7724569Y-8763955D01*
X7724569Y-8763955D02*
X7734093Y-8744907D01*
X7734093Y-8744907D02*
X7753140Y-8735383D01*
X7753140Y-8735383D02*
X7800759Y-8735383D01*
X7800759Y-8735383D02*
X7819807Y-8725860D01*
X7915045Y-8678240D02*
X7915045Y-8878240D01*
X7915045Y-8687764D02*
X7934093Y-8678240D01*
X7934093Y-8678240D02*
X7972188Y-8678240D01*
X7972188Y-8678240D02*
X7991236Y-8687764D01*
X7991236Y-8687764D02*
X8000759Y-8697288D01*
X8000759Y-8697288D02*
X8010283Y-8716336D01*
X8010283Y-8716336D02*
X8010283Y-8773479D01*
X8010283Y-8773479D02*
X8000759Y-8792526D01*
X8000759Y-8792526D02*
X7991236Y-8802050D01*
X7991236Y-8802050D02*
X7972188Y-8811574D01*
X7972188Y-8811574D02*
X7934093Y-8811574D01*
X7934093Y-8811574D02*
X7915045Y-8802050D01*
X8095998Y-8792526D02*
X8105521Y-8802050D01*
X8105521Y-8802050D02*
X8095998Y-8811574D01*
X8095998Y-8811574D02*
X8086474Y-8802050D01*
X8086474Y-8802050D02*
X8095998Y-8792526D01*
X8095998Y-8792526D02*
X8095998Y-8811574D01*
X8095998Y-8687764D02*
X8105521Y-8697288D01*
X8105521Y-8697288D02*
X8095998Y-8706812D01*
X8095998Y-8706812D02*
X8086474Y-8697288D01*
X8086474Y-8697288D02*
X8095998Y-8687764D01*
X8095998Y-8687764D02*
X8095998Y-8706812D01*
D12*
X6446950Y-9124050D02*
X6476950Y-9154050D01*
X6476950Y-9124050D02*
X6446950Y-9154050D01*
D11*
X6762664Y-9031574D02*
X6781712Y-9031574D01*
X6781712Y-9031574D02*
X6800759Y-9041098D01*
X6800759Y-9041098D02*
X6810283Y-9050621D01*
X6810283Y-9050621D02*
X6819807Y-9069669D01*
X6819807Y-9069669D02*
X6829331Y-9107764D01*
X6829331Y-9107764D02*
X6829331Y-9155383D01*
X6829331Y-9155383D02*
X6819807Y-9193479D01*
X6819807Y-9193479D02*
X6810283Y-9212526D01*
X6810283Y-9212526D02*
X6800759Y-9222050D01*
X6800759Y-9222050D02*
X6781712Y-9231574D01*
X6781712Y-9231574D02*
X6762664Y-9231574D01*
X6762664Y-9231574D02*
X6743617Y-9222050D01*
X6743617Y-9222050D02*
X6734093Y-9212526D01*
X6734093Y-9212526D02*
X6724569Y-9193479D01*
X6724569Y-9193479D02*
X6715045Y-9155383D01*
X6715045Y-9155383D02*
X6715045Y-9107764D01*
X6715045Y-9107764D02*
X6724569Y-9069669D01*
X6724569Y-9069669D02*
X6734093Y-9050621D01*
X6734093Y-9050621D02*
X6743617Y-9041098D01*
X6743617Y-9041098D02*
X6762664Y-9031574D01*
X6915045Y-9212526D02*
X6924569Y-9222050D01*
X6924569Y-9222050D02*
X6915045Y-9231574D01*
X6915045Y-9231574D02*
X6905521Y-9222050D01*
X6905521Y-9222050D02*
X6915045Y-9212526D01*
X6915045Y-9212526D02*
X6915045Y-9231574D01*
X6991236Y-9031574D02*
X7115045Y-9031574D01*
X7115045Y-9031574D02*
X7048378Y-9107764D01*
X7048378Y-9107764D02*
X7076950Y-9107764D01*
X7076950Y-9107764D02*
X7095998Y-9117288D01*
X7095998Y-9117288D02*
X7105521Y-9126812D01*
X7105521Y-9126812D02*
X7115045Y-9145860D01*
X7115045Y-9145860D02*
X7115045Y-9193479D01*
X7115045Y-9193479D02*
X7105521Y-9212526D01*
X7105521Y-9212526D02*
X7095998Y-9222050D01*
X7095998Y-9222050D02*
X7076950Y-9231574D01*
X7076950Y-9231574D02*
X7019807Y-9231574D01*
X7019807Y-9231574D02*
X7000759Y-9222050D01*
X7000759Y-9222050D02*
X6991236Y-9212526D01*
X7238855Y-9031574D02*
X7257902Y-9031574D01*
X7257902Y-9031574D02*
X7276950Y-9041098D01*
X7276950Y-9041098D02*
X7286474Y-9050621D01*
X7286474Y-9050621D02*
X7295998Y-9069669D01*
X7295998Y-9069669D02*
X7305521Y-9107764D01*
X7305521Y-9107764D02*
X7305521Y-9155383D01*
X7305521Y-9155383D02*
X7295998Y-9193479D01*
X7295998Y-9193479D02*
X7286474Y-9212526D01*
X7286474Y-9212526D02*
X7276950Y-9222050D01*
X7276950Y-9222050D02*
X7257902Y-9231574D01*
X7257902Y-9231574D02*
X7238855Y-9231574D01*
X7238855Y-9231574D02*
X7219807Y-9222050D01*
X7219807Y-9222050D02*
X7210283Y-9212526D01*
X7210283Y-9212526D02*
X7200759Y-9193479D01*
X7200759Y-9193479D02*
X7191236Y-9155383D01*
X7191236Y-9155383D02*
X7191236Y-9107764D01*
X7191236Y-9107764D02*
X7200759Y-9069669D01*
X7200759Y-9069669D02*
X7210283Y-9050621D01*
X7210283Y-9050621D02*
X7219807Y-9041098D01*
X7219807Y-9041098D02*
X7238855Y-9031574D01*
X7429331Y-9031574D02*
X7448379Y-9031574D01*
X7448379Y-9031574D02*
X7467426Y-9041098D01*
X7467426Y-9041098D02*
X7476950Y-9050621D01*
X7476950Y-9050621D02*
X7486474Y-9069669D01*
X7486474Y-9069669D02*
X7495998Y-9107764D01*
X7495998Y-9107764D02*
X7495998Y-9155383D01*
X7495998Y-9155383D02*
X7486474Y-9193479D01*
X7486474Y-9193479D02*
X7476950Y-9212526D01*
X7476950Y-9212526D02*
X7467426Y-9222050D01*
X7467426Y-9222050D02*
X7448379Y-9231574D01*
X7448379Y-9231574D02*
X7429331Y-9231574D01*
X7429331Y-9231574D02*
X7410283Y-9222050D01*
X7410283Y-9222050D02*
X7400759Y-9212526D01*
X7400759Y-9212526D02*
X7391236Y-9193479D01*
X7391236Y-9193479D02*
X7381712Y-9155383D01*
X7381712Y-9155383D02*
X7381712Y-9107764D01*
X7381712Y-9107764D02*
X7391236Y-9069669D01*
X7391236Y-9069669D02*
X7400759Y-9050621D01*
X7400759Y-9050621D02*
X7410283Y-9041098D01*
X7410283Y-9041098D02*
X7429331Y-9031574D01*
X7581712Y-9231574D02*
X7581712Y-9098240D01*
X7581712Y-9117288D02*
X7591236Y-9107764D01*
X7591236Y-9107764D02*
X7610283Y-9098240D01*
X7610283Y-9098240D02*
X7638855Y-9098240D01*
X7638855Y-9098240D02*
X7657902Y-9107764D01*
X7657902Y-9107764D02*
X7667426Y-9126812D01*
X7667426Y-9126812D02*
X7667426Y-9231574D01*
X7667426Y-9126812D02*
X7676950Y-9107764D01*
X7676950Y-9107764D02*
X7695998Y-9098240D01*
X7695998Y-9098240D02*
X7724569Y-9098240D01*
X7724569Y-9098240D02*
X7743617Y-9107764D01*
X7743617Y-9107764D02*
X7753140Y-9126812D01*
X7753140Y-9126812D02*
X7753140Y-9231574D01*
X7848379Y-9231574D02*
X7848379Y-9098240D01*
X7848379Y-9117288D02*
X7857902Y-9107764D01*
X7857902Y-9107764D02*
X7876950Y-9098240D01*
X7876950Y-9098240D02*
X7905521Y-9098240D01*
X7905521Y-9098240D02*
X7924569Y-9107764D01*
X7924569Y-9107764D02*
X7934093Y-9126812D01*
X7934093Y-9126812D02*
X7934093Y-9231574D01*
X7934093Y-9126812D02*
X7943617Y-9107764D01*
X7943617Y-9107764D02*
X7962664Y-9098240D01*
X7962664Y-9098240D02*
X7991236Y-9098240D01*
X7991236Y-9098240D02*
X8010283Y-9107764D01*
X8010283Y-9107764D02*
X8019807Y-9126812D01*
X8019807Y-9126812D02*
X8019807Y-9231574D01*
X8410283Y-9022050D02*
X8238855Y-9279193D01*
X8667426Y-9031574D02*
X8686474Y-9031574D01*
X8686474Y-9031574D02*
X8705522Y-9041098D01*
X8705522Y-9041098D02*
X8715045Y-9050621D01*
X8715045Y-9050621D02*
X8724569Y-9069669D01*
X8724569Y-9069669D02*
X8734093Y-9107764D01*
X8734093Y-9107764D02*
X8734093Y-9155383D01*
X8734093Y-9155383D02*
X8724569Y-9193479D01*
X8724569Y-9193479D02*
X8715045Y-9212526D01*
X8715045Y-9212526D02*
X8705522Y-9222050D01*
X8705522Y-9222050D02*
X8686474Y-9231574D01*
X8686474Y-9231574D02*
X8667426Y-9231574D01*
X8667426Y-9231574D02*
X8648379Y-9222050D01*
X8648379Y-9222050D02*
X8638855Y-9212526D01*
X8638855Y-9212526D02*
X8629331Y-9193479D01*
X8629331Y-9193479D02*
X8619807Y-9155383D01*
X8619807Y-9155383D02*
X8619807Y-9107764D01*
X8619807Y-9107764D02*
X8629331Y-9069669D01*
X8629331Y-9069669D02*
X8638855Y-9050621D01*
X8638855Y-9050621D02*
X8648379Y-9041098D01*
X8648379Y-9041098D02*
X8667426Y-9031574D01*
X8819807Y-9212526D02*
X8829331Y-9222050D01*
X8829331Y-9222050D02*
X8819807Y-9231574D01*
X8819807Y-9231574D02*
X8810284Y-9222050D01*
X8810284Y-9222050D02*
X8819807Y-9212526D01*
X8819807Y-9212526D02*
X8819807Y-9231574D01*
X8953141Y-9031574D02*
X8972188Y-9031574D01*
X8972188Y-9031574D02*
X8991236Y-9041098D01*
X8991236Y-9041098D02*
X9000760Y-9050621D01*
X9000760Y-9050621D02*
X9010284Y-9069669D01*
X9010284Y-9069669D02*
X9019807Y-9107764D01*
X9019807Y-9107764D02*
X9019807Y-9155383D01*
X9019807Y-9155383D02*
X9010284Y-9193479D01*
X9010284Y-9193479D02*
X9000760Y-9212526D01*
X9000760Y-9212526D02*
X8991236Y-9222050D01*
X8991236Y-9222050D02*
X8972188Y-9231574D01*
X8972188Y-9231574D02*
X8953141Y-9231574D01*
X8953141Y-9231574D02*
X8934093Y-9222050D01*
X8934093Y-9222050D02*
X8924569Y-9212526D01*
X8924569Y-9212526D02*
X8915045Y-9193479D01*
X8915045Y-9193479D02*
X8905522Y-9155383D01*
X8905522Y-9155383D02*
X8905522Y-9107764D01*
X8905522Y-9107764D02*
X8915045Y-9069669D01*
X8915045Y-9069669D02*
X8924569Y-9050621D01*
X8924569Y-9050621D02*
X8934093Y-9041098D01*
X8934093Y-9041098D02*
X8953141Y-9031574D01*
X9210284Y-9231574D02*
X9095998Y-9231574D01*
X9153141Y-9231574D02*
X9153141Y-9031574D01*
X9153141Y-9031574D02*
X9134093Y-9060145D01*
X9134093Y-9060145D02*
X9115045Y-9079193D01*
X9115045Y-9079193D02*
X9095998Y-9088717D01*
X9400760Y-9231574D02*
X9286474Y-9231574D01*
X9343617Y-9231574D02*
X9343617Y-9031574D01*
X9343617Y-9031574D02*
X9324569Y-9060145D01*
X9324569Y-9060145D02*
X9305522Y-9079193D01*
X9305522Y-9079193D02*
X9286474Y-9088717D01*
X9515045Y-9117288D02*
X9495998Y-9107764D01*
X9495998Y-9107764D02*
X9486474Y-9098240D01*
X9486474Y-9098240D02*
X9476950Y-9079193D01*
X9476950Y-9079193D02*
X9476950Y-9069669D01*
X9476950Y-9069669D02*
X9486474Y-9050621D01*
X9486474Y-9050621D02*
X9495998Y-9041098D01*
X9495998Y-9041098D02*
X9515045Y-9031574D01*
X9515045Y-9031574D02*
X9553141Y-9031574D01*
X9553141Y-9031574D02*
X9572188Y-9041098D01*
X9572188Y-9041098D02*
X9581712Y-9050621D01*
X9581712Y-9050621D02*
X9591236Y-9069669D01*
X9591236Y-9069669D02*
X9591236Y-9079193D01*
X9591236Y-9079193D02*
X9581712Y-9098240D01*
X9581712Y-9098240D02*
X9572188Y-9107764D01*
X9572188Y-9107764D02*
X9553141Y-9117288D01*
X9553141Y-9117288D02*
X9515045Y-9117288D01*
X9515045Y-9117288D02*
X9495998Y-9126812D01*
X9495998Y-9126812D02*
X9486474Y-9136336D01*
X9486474Y-9136336D02*
X9476950Y-9155383D01*
X9476950Y-9155383D02*
X9476950Y-9193479D01*
X9476950Y-9193479D02*
X9486474Y-9212526D01*
X9486474Y-9212526D02*
X9495998Y-9222050D01*
X9495998Y-9222050D02*
X9515045Y-9231574D01*
X9515045Y-9231574D02*
X9553141Y-9231574D01*
X9553141Y-9231574D02*
X9572188Y-9222050D01*
X9572188Y-9222050D02*
X9581712Y-9212526D01*
X9581712Y-9212526D02*
X9591236Y-9193479D01*
X9591236Y-9193479D02*
X9591236Y-9155383D01*
X9591236Y-9155383D02*
X9581712Y-9136336D01*
X9581712Y-9136336D02*
X9572188Y-9126812D01*
X9572188Y-9126812D02*
X9553141Y-9117288D01*
X9667426Y-9031574D02*
X9667426Y-9069669D01*
X9743617Y-9031574D02*
X9743617Y-9069669D01*
X10038855Y-9307764D02*
X10029331Y-9298240D01*
X10029331Y-9298240D02*
X10010284Y-9269669D01*
X10010284Y-9269669D02*
X10000760Y-9250621D01*
X10000760Y-9250621D02*
X9991236Y-9222050D01*
X9991236Y-9222050D02*
X9981712Y-9174431D01*
X9981712Y-9174431D02*
X9981712Y-9136336D01*
X9981712Y-9136336D02*
X9991236Y-9088717D01*
X9991236Y-9088717D02*
X10000760Y-9060145D01*
X10000760Y-9060145D02*
X10010284Y-9041098D01*
X10010284Y-9041098D02*
X10029331Y-9012526D01*
X10029331Y-9012526D02*
X10038855Y-9003002D01*
X10105522Y-9050621D02*
X10115046Y-9041098D01*
X10115046Y-9041098D02*
X10134093Y-9031574D01*
X10134093Y-9031574D02*
X10181712Y-9031574D01*
X10181712Y-9031574D02*
X10200760Y-9041098D01*
X10200760Y-9041098D02*
X10210284Y-9050621D01*
X10210284Y-9050621D02*
X10219807Y-9069669D01*
X10219807Y-9069669D02*
X10219807Y-9088717D01*
X10219807Y-9088717D02*
X10210284Y-9117288D01*
X10210284Y-9117288D02*
X10095998Y-9231574D01*
X10095998Y-9231574D02*
X10219807Y-9231574D01*
X10391236Y-9098240D02*
X10391236Y-9231574D01*
X10343617Y-9022050D02*
X10295998Y-9164907D01*
X10295998Y-9164907D02*
X10419807Y-9164907D01*
X10648379Y-9231574D02*
X10648379Y-9031574D01*
X10734093Y-9231574D02*
X10734093Y-9126812D01*
X10734093Y-9126812D02*
X10724569Y-9107764D01*
X10724569Y-9107764D02*
X10705522Y-9098240D01*
X10705522Y-9098240D02*
X10676950Y-9098240D01*
X10676950Y-9098240D02*
X10657903Y-9107764D01*
X10657903Y-9107764D02*
X10648379Y-9117288D01*
X10857903Y-9231574D02*
X10838855Y-9222050D01*
X10838855Y-9222050D02*
X10829331Y-9212526D01*
X10829331Y-9212526D02*
X10819808Y-9193479D01*
X10819808Y-9193479D02*
X10819808Y-9136336D01*
X10819808Y-9136336D02*
X10829331Y-9117288D01*
X10829331Y-9117288D02*
X10838855Y-9107764D01*
X10838855Y-9107764D02*
X10857903Y-9098240D01*
X10857903Y-9098240D02*
X10886474Y-9098240D01*
X10886474Y-9098240D02*
X10905522Y-9107764D01*
X10905522Y-9107764D02*
X10915046Y-9117288D01*
X10915046Y-9117288D02*
X10924569Y-9136336D01*
X10924569Y-9136336D02*
X10924569Y-9193479D01*
X10924569Y-9193479D02*
X10915046Y-9212526D01*
X10915046Y-9212526D02*
X10905522Y-9222050D01*
X10905522Y-9222050D02*
X10886474Y-9231574D01*
X10886474Y-9231574D02*
X10857903Y-9231574D01*
X11038855Y-9231574D02*
X11019808Y-9222050D01*
X11019808Y-9222050D02*
X11010284Y-9203002D01*
X11010284Y-9203002D02*
X11010284Y-9031574D01*
X11191236Y-9222050D02*
X11172189Y-9231574D01*
X11172189Y-9231574D02*
X11134093Y-9231574D01*
X11134093Y-9231574D02*
X11115046Y-9222050D01*
X11115046Y-9222050D02*
X11105522Y-9203002D01*
X11105522Y-9203002D02*
X11105522Y-9126812D01*
X11105522Y-9126812D02*
X11115046Y-9107764D01*
X11115046Y-9107764D02*
X11134093Y-9098240D01*
X11134093Y-9098240D02*
X11172189Y-9098240D01*
X11172189Y-9098240D02*
X11191236Y-9107764D01*
X11191236Y-9107764D02*
X11200760Y-9126812D01*
X11200760Y-9126812D02*
X11200760Y-9145860D01*
X11200760Y-9145860D02*
X11105522Y-9164907D01*
X11276950Y-9222050D02*
X11295998Y-9231574D01*
X11295998Y-9231574D02*
X11334093Y-9231574D01*
X11334093Y-9231574D02*
X11353141Y-9222050D01*
X11353141Y-9222050D02*
X11362665Y-9203002D01*
X11362665Y-9203002D02*
X11362665Y-9193479D01*
X11362665Y-9193479D02*
X11353141Y-9174431D01*
X11353141Y-9174431D02*
X11334093Y-9164907D01*
X11334093Y-9164907D02*
X11305522Y-9164907D01*
X11305522Y-9164907D02*
X11286474Y-9155383D01*
X11286474Y-9155383D02*
X11276950Y-9136336D01*
X11276950Y-9136336D02*
X11276950Y-9126812D01*
X11276950Y-9126812D02*
X11286474Y-9107764D01*
X11286474Y-9107764D02*
X11305522Y-9098240D01*
X11305522Y-9098240D02*
X11334093Y-9098240D01*
X11334093Y-9098240D02*
X11353141Y-9107764D01*
X11429331Y-9307764D02*
X11438855Y-9298240D01*
X11438855Y-9298240D02*
X11457903Y-9269669D01*
X11457903Y-9269669D02*
X11467427Y-9250621D01*
X11467427Y-9250621D02*
X11476950Y-9222050D01*
X11476950Y-9222050D02*
X11486474Y-9174431D01*
X11486474Y-9174431D02*
X11486474Y-9136336D01*
X11486474Y-9136336D02*
X11476950Y-9088717D01*
X11476950Y-9088717D02*
X11467427Y-9060145D01*
X11467427Y-9060145D02*
X11457903Y-9041098D01*
X11457903Y-9041098D02*
X11438855Y-9012526D01*
X11438855Y-9012526D02*
X11429331Y-9003002D01*
D13*
X6476950Y-9403050D02*
G75*
G03*
X6476950Y-9403050I-20000J0D01*
G01*
D11*
X6762664Y-9295574D02*
X6781712Y-9295574D01*
X6781712Y-9295574D02*
X6800759Y-9305098D01*
X6800759Y-9305098D02*
X6810283Y-9314621D01*
X6810283Y-9314621D02*
X6819807Y-9333669D01*
X6819807Y-9333669D02*
X6829331Y-9371764D01*
X6829331Y-9371764D02*
X6829331Y-9419383D01*
X6829331Y-9419383D02*
X6819807Y-9457479D01*
X6819807Y-9457479D02*
X6810283Y-9476526D01*
X6810283Y-9476526D02*
X6800759Y-9486050D01*
X6800759Y-9486050D02*
X6781712Y-9495574D01*
X6781712Y-9495574D02*
X6762664Y-9495574D01*
X6762664Y-9495574D02*
X6743617Y-9486050D01*
X6743617Y-9486050D02*
X6734093Y-9476526D01*
X6734093Y-9476526D02*
X6724569Y-9457479D01*
X6724569Y-9457479D02*
X6715045Y-9419383D01*
X6715045Y-9419383D02*
X6715045Y-9371764D01*
X6715045Y-9371764D02*
X6724569Y-9333669D01*
X6724569Y-9333669D02*
X6734093Y-9314621D01*
X6734093Y-9314621D02*
X6743617Y-9305098D01*
X6743617Y-9305098D02*
X6762664Y-9295574D01*
X6915045Y-9476526D02*
X6924569Y-9486050D01*
X6924569Y-9486050D02*
X6915045Y-9495574D01*
X6915045Y-9495574D02*
X6905521Y-9486050D01*
X6905521Y-9486050D02*
X6915045Y-9476526D01*
X6915045Y-9476526D02*
X6915045Y-9495574D01*
X7095998Y-9362240D02*
X7095998Y-9495574D01*
X7048378Y-9286050D02*
X7000759Y-9428907D01*
X7000759Y-9428907D02*
X7124569Y-9428907D01*
X7238855Y-9295574D02*
X7257902Y-9295574D01*
X7257902Y-9295574D02*
X7276950Y-9305098D01*
X7276950Y-9305098D02*
X7286474Y-9314621D01*
X7286474Y-9314621D02*
X7295998Y-9333669D01*
X7295998Y-9333669D02*
X7305521Y-9371764D01*
X7305521Y-9371764D02*
X7305521Y-9419383D01*
X7305521Y-9419383D02*
X7295998Y-9457479D01*
X7295998Y-9457479D02*
X7286474Y-9476526D01*
X7286474Y-9476526D02*
X7276950Y-9486050D01*
X7276950Y-9486050D02*
X7257902Y-9495574D01*
X7257902Y-9495574D02*
X7238855Y-9495574D01*
X7238855Y-9495574D02*
X7219807Y-9486050D01*
X7219807Y-9486050D02*
X7210283Y-9476526D01*
X7210283Y-9476526D02*
X7200759Y-9457479D01*
X7200759Y-9457479D02*
X7191236Y-9419383D01*
X7191236Y-9419383D02*
X7191236Y-9371764D01*
X7191236Y-9371764D02*
X7200759Y-9333669D01*
X7200759Y-9333669D02*
X7210283Y-9314621D01*
X7210283Y-9314621D02*
X7219807Y-9305098D01*
X7219807Y-9305098D02*
X7238855Y-9295574D01*
X7429331Y-9295574D02*
X7448379Y-9295574D01*
X7448379Y-9295574D02*
X7467426Y-9305098D01*
X7467426Y-9305098D02*
X7476950Y-9314621D01*
X7476950Y-9314621D02*
X7486474Y-9333669D01*
X7486474Y-9333669D02*
X7495998Y-9371764D01*
X7495998Y-9371764D02*
X7495998Y-9419383D01*
X7495998Y-9419383D02*
X7486474Y-9457479D01*
X7486474Y-9457479D02*
X7476950Y-9476526D01*
X7476950Y-9476526D02*
X7467426Y-9486050D01*
X7467426Y-9486050D02*
X7448379Y-9495574D01*
X7448379Y-9495574D02*
X7429331Y-9495574D01*
X7429331Y-9495574D02*
X7410283Y-9486050D01*
X7410283Y-9486050D02*
X7400759Y-9476526D01*
X7400759Y-9476526D02*
X7391236Y-9457479D01*
X7391236Y-9457479D02*
X7381712Y-9419383D01*
X7381712Y-9419383D02*
X7381712Y-9371764D01*
X7381712Y-9371764D02*
X7391236Y-9333669D01*
X7391236Y-9333669D02*
X7400759Y-9314621D01*
X7400759Y-9314621D02*
X7410283Y-9305098D01*
X7410283Y-9305098D02*
X7429331Y-9295574D01*
X7581712Y-9495574D02*
X7581712Y-9362240D01*
X7581712Y-9381288D02*
X7591236Y-9371764D01*
X7591236Y-9371764D02*
X7610283Y-9362240D01*
X7610283Y-9362240D02*
X7638855Y-9362240D01*
X7638855Y-9362240D02*
X7657902Y-9371764D01*
X7657902Y-9371764D02*
X7667426Y-9390812D01*
X7667426Y-9390812D02*
X7667426Y-9495574D01*
X7667426Y-9390812D02*
X7676950Y-9371764D01*
X7676950Y-9371764D02*
X7695998Y-9362240D01*
X7695998Y-9362240D02*
X7724569Y-9362240D01*
X7724569Y-9362240D02*
X7743617Y-9371764D01*
X7743617Y-9371764D02*
X7753140Y-9390812D01*
X7753140Y-9390812D02*
X7753140Y-9495574D01*
X7848379Y-9495574D02*
X7848379Y-9362240D01*
X7848379Y-9381288D02*
X7857902Y-9371764D01*
X7857902Y-9371764D02*
X7876950Y-9362240D01*
X7876950Y-9362240D02*
X7905521Y-9362240D01*
X7905521Y-9362240D02*
X7924569Y-9371764D01*
X7924569Y-9371764D02*
X7934093Y-9390812D01*
X7934093Y-9390812D02*
X7934093Y-9495574D01*
X7934093Y-9390812D02*
X7943617Y-9371764D01*
X7943617Y-9371764D02*
X7962664Y-9362240D01*
X7962664Y-9362240D02*
X7991236Y-9362240D01*
X7991236Y-9362240D02*
X8010283Y-9371764D01*
X8010283Y-9371764D02*
X8019807Y-9390812D01*
X8019807Y-9390812D02*
X8019807Y-9495574D01*
X8410283Y-9286050D02*
X8238855Y-9543193D01*
X8667426Y-9295574D02*
X8686474Y-9295574D01*
X8686474Y-9295574D02*
X8705522Y-9305098D01*
X8705522Y-9305098D02*
X8715045Y-9314621D01*
X8715045Y-9314621D02*
X8724569Y-9333669D01*
X8724569Y-9333669D02*
X8734093Y-9371764D01*
X8734093Y-9371764D02*
X8734093Y-9419383D01*
X8734093Y-9419383D02*
X8724569Y-9457479D01*
X8724569Y-9457479D02*
X8715045Y-9476526D01*
X8715045Y-9476526D02*
X8705522Y-9486050D01*
X8705522Y-9486050D02*
X8686474Y-9495574D01*
X8686474Y-9495574D02*
X8667426Y-9495574D01*
X8667426Y-9495574D02*
X8648379Y-9486050D01*
X8648379Y-9486050D02*
X8638855Y-9476526D01*
X8638855Y-9476526D02*
X8629331Y-9457479D01*
X8629331Y-9457479D02*
X8619807Y-9419383D01*
X8619807Y-9419383D02*
X8619807Y-9371764D01*
X8619807Y-9371764D02*
X8629331Y-9333669D01*
X8629331Y-9333669D02*
X8638855Y-9314621D01*
X8638855Y-9314621D02*
X8648379Y-9305098D01*
X8648379Y-9305098D02*
X8667426Y-9295574D01*
X8819807Y-9476526D02*
X8829331Y-9486050D01*
X8829331Y-9486050D02*
X8819807Y-9495574D01*
X8819807Y-9495574D02*
X8810284Y-9486050D01*
X8810284Y-9486050D02*
X8819807Y-9476526D01*
X8819807Y-9476526D02*
X8819807Y-9495574D01*
X8953141Y-9295574D02*
X8972188Y-9295574D01*
X8972188Y-9295574D02*
X8991236Y-9305098D01*
X8991236Y-9305098D02*
X9000760Y-9314621D01*
X9000760Y-9314621D02*
X9010284Y-9333669D01*
X9010284Y-9333669D02*
X9019807Y-9371764D01*
X9019807Y-9371764D02*
X9019807Y-9419383D01*
X9019807Y-9419383D02*
X9010284Y-9457479D01*
X9010284Y-9457479D02*
X9000760Y-9476526D01*
X9000760Y-9476526D02*
X8991236Y-9486050D01*
X8991236Y-9486050D02*
X8972188Y-9495574D01*
X8972188Y-9495574D02*
X8953141Y-9495574D01*
X8953141Y-9495574D02*
X8934093Y-9486050D01*
X8934093Y-9486050D02*
X8924569Y-9476526D01*
X8924569Y-9476526D02*
X8915045Y-9457479D01*
X8915045Y-9457479D02*
X8905522Y-9419383D01*
X8905522Y-9419383D02*
X8905522Y-9371764D01*
X8905522Y-9371764D02*
X8915045Y-9333669D01*
X8915045Y-9333669D02*
X8924569Y-9314621D01*
X8924569Y-9314621D02*
X8934093Y-9305098D01*
X8934093Y-9305098D02*
X8953141Y-9295574D01*
X9210284Y-9495574D02*
X9095998Y-9495574D01*
X9153141Y-9495574D02*
X9153141Y-9295574D01*
X9153141Y-9295574D02*
X9134093Y-9324145D01*
X9134093Y-9324145D02*
X9115045Y-9343193D01*
X9115045Y-9343193D02*
X9095998Y-9352717D01*
X9391236Y-9295574D02*
X9295998Y-9295574D01*
X9295998Y-9295574D02*
X9286474Y-9390812D01*
X9286474Y-9390812D02*
X9295998Y-9381288D01*
X9295998Y-9381288D02*
X9315045Y-9371764D01*
X9315045Y-9371764D02*
X9362665Y-9371764D01*
X9362665Y-9371764D02*
X9381712Y-9381288D01*
X9381712Y-9381288D02*
X9391236Y-9390812D01*
X9391236Y-9390812D02*
X9400760Y-9409860D01*
X9400760Y-9409860D02*
X9400760Y-9457479D01*
X9400760Y-9457479D02*
X9391236Y-9476526D01*
X9391236Y-9476526D02*
X9381712Y-9486050D01*
X9381712Y-9486050D02*
X9362665Y-9495574D01*
X9362665Y-9495574D02*
X9315045Y-9495574D01*
X9315045Y-9495574D02*
X9295998Y-9486050D01*
X9295998Y-9486050D02*
X9286474Y-9476526D01*
X9467426Y-9295574D02*
X9600760Y-9295574D01*
X9600760Y-9295574D02*
X9515045Y-9495574D01*
X9667426Y-9295574D02*
X9667426Y-9333669D01*
X9743617Y-9295574D02*
X9743617Y-9333669D01*
X10038855Y-9571764D02*
X10029331Y-9562240D01*
X10029331Y-9562240D02*
X10010284Y-9533669D01*
X10010284Y-9533669D02*
X10000760Y-9514621D01*
X10000760Y-9514621D02*
X9991236Y-9486050D01*
X9991236Y-9486050D02*
X9981712Y-9438431D01*
X9981712Y-9438431D02*
X9981712Y-9400336D01*
X9981712Y-9400336D02*
X9991236Y-9352717D01*
X9991236Y-9352717D02*
X10000760Y-9324145D01*
X10000760Y-9324145D02*
X10010284Y-9305098D01*
X10010284Y-9305098D02*
X10029331Y-9276526D01*
X10029331Y-9276526D02*
X10038855Y-9267002D01*
X10105522Y-9314621D02*
X10115046Y-9305098D01*
X10115046Y-9305098D02*
X10134093Y-9295574D01*
X10134093Y-9295574D02*
X10181712Y-9295574D01*
X10181712Y-9295574D02*
X10200760Y-9305098D01*
X10200760Y-9305098D02*
X10210284Y-9314621D01*
X10210284Y-9314621D02*
X10219807Y-9333669D01*
X10219807Y-9333669D02*
X10219807Y-9352717D01*
X10219807Y-9352717D02*
X10210284Y-9381288D01*
X10210284Y-9381288D02*
X10095998Y-9495574D01*
X10095998Y-9495574D02*
X10219807Y-9495574D01*
X10334093Y-9381288D02*
X10315046Y-9371764D01*
X10315046Y-9371764D02*
X10305522Y-9362240D01*
X10305522Y-9362240D02*
X10295998Y-9343193D01*
X10295998Y-9343193D02*
X10295998Y-9333669D01*
X10295998Y-9333669D02*
X10305522Y-9314621D01*
X10305522Y-9314621D02*
X10315046Y-9305098D01*
X10315046Y-9305098D02*
X10334093Y-9295574D01*
X10334093Y-9295574D02*
X10372188Y-9295574D01*
X10372188Y-9295574D02*
X10391236Y-9305098D01*
X10391236Y-9305098D02*
X10400760Y-9314621D01*
X10400760Y-9314621D02*
X10410284Y-9333669D01*
X10410284Y-9333669D02*
X10410284Y-9343193D01*
X10410284Y-9343193D02*
X10400760Y-9362240D01*
X10400760Y-9362240D02*
X10391236Y-9371764D01*
X10391236Y-9371764D02*
X10372188Y-9381288D01*
X10372188Y-9381288D02*
X10334093Y-9381288D01*
X10334093Y-9381288D02*
X10315046Y-9390812D01*
X10315046Y-9390812D02*
X10305522Y-9400336D01*
X10305522Y-9400336D02*
X10295998Y-9419383D01*
X10295998Y-9419383D02*
X10295998Y-9457479D01*
X10295998Y-9457479D02*
X10305522Y-9476526D01*
X10305522Y-9476526D02*
X10315046Y-9486050D01*
X10315046Y-9486050D02*
X10334093Y-9495574D01*
X10334093Y-9495574D02*
X10372188Y-9495574D01*
X10372188Y-9495574D02*
X10391236Y-9486050D01*
X10391236Y-9486050D02*
X10400760Y-9476526D01*
X10400760Y-9476526D02*
X10410284Y-9457479D01*
X10410284Y-9457479D02*
X10410284Y-9419383D01*
X10410284Y-9419383D02*
X10400760Y-9400336D01*
X10400760Y-9400336D02*
X10391236Y-9390812D01*
X10391236Y-9390812D02*
X10372188Y-9381288D01*
X10534093Y-9295574D02*
X10553141Y-9295574D01*
X10553141Y-9295574D02*
X10572188Y-9305098D01*
X10572188Y-9305098D02*
X10581712Y-9314621D01*
X10581712Y-9314621D02*
X10591236Y-9333669D01*
X10591236Y-9333669D02*
X10600760Y-9371764D01*
X10600760Y-9371764D02*
X10600760Y-9419383D01*
X10600760Y-9419383D02*
X10591236Y-9457479D01*
X10591236Y-9457479D02*
X10581712Y-9476526D01*
X10581712Y-9476526D02*
X10572188Y-9486050D01*
X10572188Y-9486050D02*
X10553141Y-9495574D01*
X10553141Y-9495574D02*
X10534093Y-9495574D01*
X10534093Y-9495574D02*
X10515046Y-9486050D01*
X10515046Y-9486050D02*
X10505522Y-9476526D01*
X10505522Y-9476526D02*
X10495998Y-9457479D01*
X10495998Y-9457479D02*
X10486474Y-9419383D01*
X10486474Y-9419383D02*
X10486474Y-9371764D01*
X10486474Y-9371764D02*
X10495998Y-9333669D01*
X10495998Y-9333669D02*
X10505522Y-9314621D01*
X10505522Y-9314621D02*
X10515046Y-9305098D01*
X10515046Y-9305098D02*
X10534093Y-9295574D01*
X10838855Y-9495574D02*
X10838855Y-9295574D01*
X10924569Y-9495574D02*
X10924569Y-9390812D01*
X10924569Y-9390812D02*
X10915046Y-9371764D01*
X10915046Y-9371764D02*
X10895998Y-9362240D01*
X10895998Y-9362240D02*
X10867427Y-9362240D01*
X10867427Y-9362240D02*
X10848379Y-9371764D01*
X10848379Y-9371764D02*
X10838855Y-9381288D01*
X11048379Y-9495574D02*
X11029331Y-9486050D01*
X11029331Y-9486050D02*
X11019808Y-9476526D01*
X11019808Y-9476526D02*
X11010284Y-9457479D01*
X11010284Y-9457479D02*
X11010284Y-9400336D01*
X11010284Y-9400336D02*
X11019808Y-9381288D01*
X11019808Y-9381288D02*
X11029331Y-9371764D01*
X11029331Y-9371764D02*
X11048379Y-9362240D01*
X11048379Y-9362240D02*
X11076950Y-9362240D01*
X11076950Y-9362240D02*
X11095998Y-9371764D01*
X11095998Y-9371764D02*
X11105522Y-9381288D01*
X11105522Y-9381288D02*
X11115046Y-9400336D01*
X11115046Y-9400336D02*
X11115046Y-9457479D01*
X11115046Y-9457479D02*
X11105522Y-9476526D01*
X11105522Y-9476526D02*
X11095998Y-9486050D01*
X11095998Y-9486050D02*
X11076950Y-9495574D01*
X11076950Y-9495574D02*
X11048379Y-9495574D01*
X11229331Y-9495574D02*
X11210284Y-9486050D01*
X11210284Y-9486050D02*
X11200760Y-9467002D01*
X11200760Y-9467002D02*
X11200760Y-9295574D01*
X11381712Y-9486050D02*
X11362665Y-9495574D01*
X11362665Y-9495574D02*
X11324569Y-9495574D01*
X11324569Y-9495574D02*
X11305522Y-9486050D01*
X11305522Y-9486050D02*
X11295998Y-9467002D01*
X11295998Y-9467002D02*
X11295998Y-9390812D01*
X11295998Y-9390812D02*
X11305522Y-9371764D01*
X11305522Y-9371764D02*
X11324569Y-9362240D01*
X11324569Y-9362240D02*
X11362665Y-9362240D01*
X11362665Y-9362240D02*
X11381712Y-9371764D01*
X11381712Y-9371764D02*
X11391236Y-9390812D01*
X11391236Y-9390812D02*
X11391236Y-9409860D01*
X11391236Y-9409860D02*
X11295998Y-9428907D01*
X11467427Y-9486050D02*
X11486474Y-9495574D01*
X11486474Y-9495574D02*
X11524569Y-9495574D01*
X11524569Y-9495574D02*
X11543617Y-9486050D01*
X11543617Y-9486050D02*
X11553141Y-9467002D01*
X11553141Y-9467002D02*
X11553141Y-9457479D01*
X11553141Y-9457479D02*
X11543617Y-9438431D01*
X11543617Y-9438431D02*
X11524569Y-9428907D01*
X11524569Y-9428907D02*
X11495998Y-9428907D01*
X11495998Y-9428907D02*
X11476950Y-9419383D01*
X11476950Y-9419383D02*
X11467427Y-9400336D01*
X11467427Y-9400336D02*
X11467427Y-9390812D01*
X11467427Y-9390812D02*
X11476950Y-9371764D01*
X11476950Y-9371764D02*
X11495998Y-9362240D01*
X11495998Y-9362240D02*
X11524569Y-9362240D01*
X11524569Y-9362240D02*
X11543617Y-9371764D01*
X11619808Y-9571764D02*
X11629331Y-9562240D01*
X11629331Y-9562240D02*
X11648379Y-9533669D01*
X11648379Y-9533669D02*
X11657903Y-9514621D01*
X11657903Y-9514621D02*
X11667427Y-9486050D01*
X11667427Y-9486050D02*
X11676950Y-9438431D01*
X11676950Y-9438431D02*
X11676950Y-9400336D01*
X11676950Y-9400336D02*
X11667427Y-9352717D01*
X11667427Y-9352717D02*
X11657903Y-9324145D01*
X11657903Y-9324145D02*
X11648379Y-9305098D01*
X11648379Y-9305098D02*
X11629331Y-9276526D01*
X11629331Y-9276526D02*
X11619808Y-9267002D01*
D14*
X6430950Y-9621050D02*
X6430950Y-9713050D01*
X6384950Y-9667050D02*
X6476950Y-9667050D01*
D11*
X6762664Y-9559574D02*
X6781712Y-9559574D01*
X6781712Y-9559574D02*
X6800759Y-9569098D01*
X6800759Y-9569098D02*
X6810283Y-9578621D01*
X6810283Y-9578621D02*
X6819807Y-9597669D01*
X6819807Y-9597669D02*
X6829331Y-9635764D01*
X6829331Y-9635764D02*
X6829331Y-9683383D01*
X6829331Y-9683383D02*
X6819807Y-9721479D01*
X6819807Y-9721479D02*
X6810283Y-9740526D01*
X6810283Y-9740526D02*
X6800759Y-9750050D01*
X6800759Y-9750050D02*
X6781712Y-9759574D01*
X6781712Y-9759574D02*
X6762664Y-9759574D01*
X6762664Y-9759574D02*
X6743617Y-9750050D01*
X6743617Y-9750050D02*
X6734093Y-9740526D01*
X6734093Y-9740526D02*
X6724569Y-9721479D01*
X6724569Y-9721479D02*
X6715045Y-9683383D01*
X6715045Y-9683383D02*
X6715045Y-9635764D01*
X6715045Y-9635764D02*
X6724569Y-9597669D01*
X6724569Y-9597669D02*
X6734093Y-9578621D01*
X6734093Y-9578621D02*
X6743617Y-9569098D01*
X6743617Y-9569098D02*
X6762664Y-9559574D01*
X6915045Y-9740526D02*
X6924569Y-9750050D01*
X6924569Y-9750050D02*
X6915045Y-9759574D01*
X6915045Y-9759574D02*
X6905521Y-9750050D01*
X6905521Y-9750050D02*
X6915045Y-9740526D01*
X6915045Y-9740526D02*
X6915045Y-9759574D01*
X7019807Y-9759574D02*
X7057902Y-9759574D01*
X7057902Y-9759574D02*
X7076950Y-9750050D01*
X7076950Y-9750050D02*
X7086474Y-9740526D01*
X7086474Y-9740526D02*
X7105521Y-9711955D01*
X7105521Y-9711955D02*
X7115045Y-9673860D01*
X7115045Y-9673860D02*
X7115045Y-9597669D01*
X7115045Y-9597669D02*
X7105521Y-9578621D01*
X7105521Y-9578621D02*
X7095998Y-9569098D01*
X7095998Y-9569098D02*
X7076950Y-9559574D01*
X7076950Y-9559574D02*
X7038855Y-9559574D01*
X7038855Y-9559574D02*
X7019807Y-9569098D01*
X7019807Y-9569098D02*
X7010283Y-9578621D01*
X7010283Y-9578621D02*
X7000759Y-9597669D01*
X7000759Y-9597669D02*
X7000759Y-9645288D01*
X7000759Y-9645288D02*
X7010283Y-9664336D01*
X7010283Y-9664336D02*
X7019807Y-9673860D01*
X7019807Y-9673860D02*
X7038855Y-9683383D01*
X7038855Y-9683383D02*
X7076950Y-9683383D01*
X7076950Y-9683383D02*
X7095998Y-9673860D01*
X7095998Y-9673860D02*
X7105521Y-9664336D01*
X7105521Y-9664336D02*
X7115045Y-9645288D01*
X7191236Y-9578621D02*
X7200759Y-9569098D01*
X7200759Y-9569098D02*
X7219807Y-9559574D01*
X7219807Y-9559574D02*
X7267426Y-9559574D01*
X7267426Y-9559574D02*
X7286474Y-9569098D01*
X7286474Y-9569098D02*
X7295998Y-9578621D01*
X7295998Y-9578621D02*
X7305521Y-9597669D01*
X7305521Y-9597669D02*
X7305521Y-9616717D01*
X7305521Y-9616717D02*
X7295998Y-9645288D01*
X7295998Y-9645288D02*
X7181712Y-9759574D01*
X7181712Y-9759574D02*
X7305521Y-9759574D01*
X7429331Y-9559574D02*
X7448379Y-9559574D01*
X7448379Y-9559574D02*
X7467426Y-9569098D01*
X7467426Y-9569098D02*
X7476950Y-9578621D01*
X7476950Y-9578621D02*
X7486474Y-9597669D01*
X7486474Y-9597669D02*
X7495998Y-9635764D01*
X7495998Y-9635764D02*
X7495998Y-9683383D01*
X7495998Y-9683383D02*
X7486474Y-9721479D01*
X7486474Y-9721479D02*
X7476950Y-9740526D01*
X7476950Y-9740526D02*
X7467426Y-9750050D01*
X7467426Y-9750050D02*
X7448379Y-9759574D01*
X7448379Y-9759574D02*
X7429331Y-9759574D01*
X7429331Y-9759574D02*
X7410283Y-9750050D01*
X7410283Y-9750050D02*
X7400759Y-9740526D01*
X7400759Y-9740526D02*
X7391236Y-9721479D01*
X7391236Y-9721479D02*
X7381712Y-9683383D01*
X7381712Y-9683383D02*
X7381712Y-9635764D01*
X7381712Y-9635764D02*
X7391236Y-9597669D01*
X7391236Y-9597669D02*
X7400759Y-9578621D01*
X7400759Y-9578621D02*
X7410283Y-9569098D01*
X7410283Y-9569098D02*
X7429331Y-9559574D01*
X7581712Y-9759574D02*
X7581712Y-9626240D01*
X7581712Y-9645288D02*
X7591236Y-9635764D01*
X7591236Y-9635764D02*
X7610283Y-9626240D01*
X7610283Y-9626240D02*
X7638855Y-9626240D01*
X7638855Y-9626240D02*
X7657902Y-9635764D01*
X7657902Y-9635764D02*
X7667426Y-9654812D01*
X7667426Y-9654812D02*
X7667426Y-9759574D01*
X7667426Y-9654812D02*
X7676950Y-9635764D01*
X7676950Y-9635764D02*
X7695998Y-9626240D01*
X7695998Y-9626240D02*
X7724569Y-9626240D01*
X7724569Y-9626240D02*
X7743617Y-9635764D01*
X7743617Y-9635764D02*
X7753140Y-9654812D01*
X7753140Y-9654812D02*
X7753140Y-9759574D01*
X7848379Y-9759574D02*
X7848379Y-9626240D01*
X7848379Y-9645288D02*
X7857902Y-9635764D01*
X7857902Y-9635764D02*
X7876950Y-9626240D01*
X7876950Y-9626240D02*
X7905521Y-9626240D01*
X7905521Y-9626240D02*
X7924569Y-9635764D01*
X7924569Y-9635764D02*
X7934093Y-9654812D01*
X7934093Y-9654812D02*
X7934093Y-9759574D01*
X7934093Y-9654812D02*
X7943617Y-9635764D01*
X7943617Y-9635764D02*
X7962664Y-9626240D01*
X7962664Y-9626240D02*
X7991236Y-9626240D01*
X7991236Y-9626240D02*
X8010283Y-9635764D01*
X8010283Y-9635764D02*
X8019807Y-9654812D01*
X8019807Y-9654812D02*
X8019807Y-9759574D01*
X8410283Y-9550050D02*
X8238855Y-9807193D01*
X8667426Y-9559574D02*
X8686474Y-9559574D01*
X8686474Y-9559574D02*
X8705522Y-9569098D01*
X8705522Y-9569098D02*
X8715045Y-9578621D01*
X8715045Y-9578621D02*
X8724569Y-9597669D01*
X8724569Y-9597669D02*
X8734093Y-9635764D01*
X8734093Y-9635764D02*
X8734093Y-9683383D01*
X8734093Y-9683383D02*
X8724569Y-9721479D01*
X8724569Y-9721479D02*
X8715045Y-9740526D01*
X8715045Y-9740526D02*
X8705522Y-9750050D01*
X8705522Y-9750050D02*
X8686474Y-9759574D01*
X8686474Y-9759574D02*
X8667426Y-9759574D01*
X8667426Y-9759574D02*
X8648379Y-9750050D01*
X8648379Y-9750050D02*
X8638855Y-9740526D01*
X8638855Y-9740526D02*
X8629331Y-9721479D01*
X8629331Y-9721479D02*
X8619807Y-9683383D01*
X8619807Y-9683383D02*
X8619807Y-9635764D01*
X8619807Y-9635764D02*
X8629331Y-9597669D01*
X8629331Y-9597669D02*
X8638855Y-9578621D01*
X8638855Y-9578621D02*
X8648379Y-9569098D01*
X8648379Y-9569098D02*
X8667426Y-9559574D01*
X8819807Y-9740526D02*
X8829331Y-9750050D01*
X8829331Y-9750050D02*
X8819807Y-9759574D01*
X8819807Y-9759574D02*
X8810284Y-9750050D01*
X8810284Y-9750050D02*
X8819807Y-9740526D01*
X8819807Y-9740526D02*
X8819807Y-9759574D01*
X8953141Y-9559574D02*
X8972188Y-9559574D01*
X8972188Y-9559574D02*
X8991236Y-9569098D01*
X8991236Y-9569098D02*
X9000760Y-9578621D01*
X9000760Y-9578621D02*
X9010284Y-9597669D01*
X9010284Y-9597669D02*
X9019807Y-9635764D01*
X9019807Y-9635764D02*
X9019807Y-9683383D01*
X9019807Y-9683383D02*
X9010284Y-9721479D01*
X9010284Y-9721479D02*
X9000760Y-9740526D01*
X9000760Y-9740526D02*
X8991236Y-9750050D01*
X8991236Y-9750050D02*
X8972188Y-9759574D01*
X8972188Y-9759574D02*
X8953141Y-9759574D01*
X8953141Y-9759574D02*
X8934093Y-9750050D01*
X8934093Y-9750050D02*
X8924569Y-9740526D01*
X8924569Y-9740526D02*
X8915045Y-9721479D01*
X8915045Y-9721479D02*
X8905522Y-9683383D01*
X8905522Y-9683383D02*
X8905522Y-9635764D01*
X8905522Y-9635764D02*
X8915045Y-9597669D01*
X8915045Y-9597669D02*
X8924569Y-9578621D01*
X8924569Y-9578621D02*
X8934093Y-9569098D01*
X8934093Y-9569098D02*
X8953141Y-9559574D01*
X9086474Y-9559574D02*
X9210284Y-9559574D01*
X9210284Y-9559574D02*
X9143617Y-9635764D01*
X9143617Y-9635764D02*
X9172188Y-9635764D01*
X9172188Y-9635764D02*
X9191236Y-9645288D01*
X9191236Y-9645288D02*
X9200760Y-9654812D01*
X9200760Y-9654812D02*
X9210284Y-9673860D01*
X9210284Y-9673860D02*
X9210284Y-9721479D01*
X9210284Y-9721479D02*
X9200760Y-9740526D01*
X9200760Y-9740526D02*
X9191236Y-9750050D01*
X9191236Y-9750050D02*
X9172188Y-9759574D01*
X9172188Y-9759574D02*
X9115045Y-9759574D01*
X9115045Y-9759574D02*
X9095998Y-9750050D01*
X9095998Y-9750050D02*
X9086474Y-9740526D01*
X9381712Y-9559574D02*
X9343617Y-9559574D01*
X9343617Y-9559574D02*
X9324569Y-9569098D01*
X9324569Y-9569098D02*
X9315045Y-9578621D01*
X9315045Y-9578621D02*
X9295998Y-9607193D01*
X9295998Y-9607193D02*
X9286474Y-9645288D01*
X9286474Y-9645288D02*
X9286474Y-9721479D01*
X9286474Y-9721479D02*
X9295998Y-9740526D01*
X9295998Y-9740526D02*
X9305522Y-9750050D01*
X9305522Y-9750050D02*
X9324569Y-9759574D01*
X9324569Y-9759574D02*
X9362665Y-9759574D01*
X9362665Y-9759574D02*
X9381712Y-9750050D01*
X9381712Y-9750050D02*
X9391236Y-9740526D01*
X9391236Y-9740526D02*
X9400760Y-9721479D01*
X9400760Y-9721479D02*
X9400760Y-9673860D01*
X9400760Y-9673860D02*
X9391236Y-9654812D01*
X9391236Y-9654812D02*
X9381712Y-9645288D01*
X9381712Y-9645288D02*
X9362665Y-9635764D01*
X9362665Y-9635764D02*
X9324569Y-9635764D01*
X9324569Y-9635764D02*
X9305522Y-9645288D01*
X9305522Y-9645288D02*
X9295998Y-9654812D01*
X9295998Y-9654812D02*
X9286474Y-9673860D01*
X9476950Y-9578621D02*
X9486474Y-9569098D01*
X9486474Y-9569098D02*
X9505522Y-9559574D01*
X9505522Y-9559574D02*
X9553141Y-9559574D01*
X9553141Y-9559574D02*
X9572188Y-9569098D01*
X9572188Y-9569098D02*
X9581712Y-9578621D01*
X9581712Y-9578621D02*
X9591236Y-9597669D01*
X9591236Y-9597669D02*
X9591236Y-9616717D01*
X9591236Y-9616717D02*
X9581712Y-9645288D01*
X9581712Y-9645288D02*
X9467426Y-9759574D01*
X9467426Y-9759574D02*
X9591236Y-9759574D01*
X9667426Y-9559574D02*
X9667426Y-9597669D01*
X9743617Y-9559574D02*
X9743617Y-9597669D01*
X10038855Y-9835764D02*
X10029331Y-9826240D01*
X10029331Y-9826240D02*
X10010284Y-9797669D01*
X10010284Y-9797669D02*
X10000760Y-9778621D01*
X10000760Y-9778621D02*
X9991236Y-9750050D01*
X9991236Y-9750050D02*
X9981712Y-9702431D01*
X9981712Y-9702431D02*
X9981712Y-9664336D01*
X9981712Y-9664336D02*
X9991236Y-9616717D01*
X9991236Y-9616717D02*
X10000760Y-9588145D01*
X10000760Y-9588145D02*
X10010284Y-9569098D01*
X10010284Y-9569098D02*
X10029331Y-9540526D01*
X10029331Y-9540526D02*
X10038855Y-9531002D01*
X10200760Y-9626240D02*
X10200760Y-9759574D01*
X10153141Y-9550050D02*
X10105522Y-9692907D01*
X10105522Y-9692907D02*
X10229331Y-9692907D01*
X10457903Y-9759574D02*
X10457903Y-9559574D01*
X10543617Y-9759574D02*
X10543617Y-9654812D01*
X10543617Y-9654812D02*
X10534093Y-9635764D01*
X10534093Y-9635764D02*
X10515046Y-9626240D01*
X10515046Y-9626240D02*
X10486474Y-9626240D01*
X10486474Y-9626240D02*
X10467427Y-9635764D01*
X10467427Y-9635764D02*
X10457903Y-9645288D01*
X10667427Y-9759574D02*
X10648379Y-9750050D01*
X10648379Y-9750050D02*
X10638855Y-9740526D01*
X10638855Y-9740526D02*
X10629331Y-9721479D01*
X10629331Y-9721479D02*
X10629331Y-9664336D01*
X10629331Y-9664336D02*
X10638855Y-9645288D01*
X10638855Y-9645288D02*
X10648379Y-9635764D01*
X10648379Y-9635764D02*
X10667427Y-9626240D01*
X10667427Y-9626240D02*
X10695998Y-9626240D01*
X10695998Y-9626240D02*
X10715046Y-9635764D01*
X10715046Y-9635764D02*
X10724569Y-9645288D01*
X10724569Y-9645288D02*
X10734093Y-9664336D01*
X10734093Y-9664336D02*
X10734093Y-9721479D01*
X10734093Y-9721479D02*
X10724569Y-9740526D01*
X10724569Y-9740526D02*
X10715046Y-9750050D01*
X10715046Y-9750050D02*
X10695998Y-9759574D01*
X10695998Y-9759574D02*
X10667427Y-9759574D01*
X10848379Y-9759574D02*
X10829331Y-9750050D01*
X10829331Y-9750050D02*
X10819808Y-9731002D01*
X10819808Y-9731002D02*
X10819808Y-9559574D01*
X11000760Y-9750050D02*
X10981712Y-9759574D01*
X10981712Y-9759574D02*
X10943617Y-9759574D01*
X10943617Y-9759574D02*
X10924569Y-9750050D01*
X10924569Y-9750050D02*
X10915046Y-9731002D01*
X10915046Y-9731002D02*
X10915046Y-9654812D01*
X10915046Y-9654812D02*
X10924569Y-9635764D01*
X10924569Y-9635764D02*
X10943617Y-9626240D01*
X10943617Y-9626240D02*
X10981712Y-9626240D01*
X10981712Y-9626240D02*
X11000760Y-9635764D01*
X11000760Y-9635764D02*
X11010284Y-9654812D01*
X11010284Y-9654812D02*
X11010284Y-9673860D01*
X11010284Y-9673860D02*
X10915046Y-9692907D01*
X11086474Y-9750050D02*
X11105522Y-9759574D01*
X11105522Y-9759574D02*
X11143617Y-9759574D01*
X11143617Y-9759574D02*
X11162665Y-9750050D01*
X11162665Y-9750050D02*
X11172189Y-9731002D01*
X11172189Y-9731002D02*
X11172189Y-9721479D01*
X11172189Y-9721479D02*
X11162665Y-9702431D01*
X11162665Y-9702431D02*
X11143617Y-9692907D01*
X11143617Y-9692907D02*
X11115046Y-9692907D01*
X11115046Y-9692907D02*
X11095998Y-9683383D01*
X11095998Y-9683383D02*
X11086474Y-9664336D01*
X11086474Y-9664336D02*
X11086474Y-9654812D01*
X11086474Y-9654812D02*
X11095998Y-9635764D01*
X11095998Y-9635764D02*
X11115046Y-9626240D01*
X11115046Y-9626240D02*
X11143617Y-9626240D01*
X11143617Y-9626240D02*
X11162665Y-9635764D01*
X11238855Y-9835764D02*
X11248379Y-9826240D01*
X11248379Y-9826240D02*
X11267427Y-9797669D01*
X11267427Y-9797669D02*
X11276950Y-9778621D01*
X11276950Y-9778621D02*
X11286474Y-9750050D01*
X11286474Y-9750050D02*
X11295998Y-9702431D01*
X11295998Y-9702431D02*
X11295998Y-9664336D01*
X11295998Y-9664336D02*
X11286474Y-9616717D01*
X11286474Y-9616717D02*
X11276950Y-9588145D01*
X11276950Y-9588145D02*
X11267427Y-9569098D01*
X11267427Y-9569098D02*
X11248379Y-9540526D01*
X11248379Y-9540526D02*
X11238855Y-9531002D01*
D15*
X6462306Y-9966406D02*
X6462306Y-9895694D01*
X6391594Y-9895694D01*
X6391594Y-9966406D01*
X6462306Y-9966406D01*
D11*
X6829331Y-10023574D02*
X6715045Y-10023574D01*
X6772188Y-10023574D02*
X6772188Y-9823574D01*
X6772188Y-9823574D02*
X6753140Y-9852145D01*
X6753140Y-9852145D02*
X6734093Y-9871193D01*
X6734093Y-9871193D02*
X6715045Y-9880717D01*
X6915045Y-10004526D02*
X6924569Y-10014050D01*
X6924569Y-10014050D02*
X6915045Y-10023574D01*
X6915045Y-10023574D02*
X6905521Y-10014050D01*
X6905521Y-10014050D02*
X6915045Y-10004526D01*
X6915045Y-10004526D02*
X6915045Y-10023574D01*
X7048378Y-9823574D02*
X7067426Y-9823574D01*
X7067426Y-9823574D02*
X7086474Y-9833098D01*
X7086474Y-9833098D02*
X7095998Y-9842621D01*
X7095998Y-9842621D02*
X7105521Y-9861669D01*
X7105521Y-9861669D02*
X7115045Y-9899764D01*
X7115045Y-9899764D02*
X7115045Y-9947383D01*
X7115045Y-9947383D02*
X7105521Y-9985479D01*
X7105521Y-9985479D02*
X7095998Y-10004526D01*
X7095998Y-10004526D02*
X7086474Y-10014050D01*
X7086474Y-10014050D02*
X7067426Y-10023574D01*
X7067426Y-10023574D02*
X7048378Y-10023574D01*
X7048378Y-10023574D02*
X7029331Y-10014050D01*
X7029331Y-10014050D02*
X7019807Y-10004526D01*
X7019807Y-10004526D02*
X7010283Y-9985479D01*
X7010283Y-9985479D02*
X7000759Y-9947383D01*
X7000759Y-9947383D02*
X7000759Y-9899764D01*
X7000759Y-9899764D02*
X7010283Y-9861669D01*
X7010283Y-9861669D02*
X7019807Y-9842621D01*
X7019807Y-9842621D02*
X7029331Y-9833098D01*
X7029331Y-9833098D02*
X7048378Y-9823574D01*
X7238855Y-9823574D02*
X7257902Y-9823574D01*
X7257902Y-9823574D02*
X7276950Y-9833098D01*
X7276950Y-9833098D02*
X7286474Y-9842621D01*
X7286474Y-9842621D02*
X7295998Y-9861669D01*
X7295998Y-9861669D02*
X7305521Y-9899764D01*
X7305521Y-9899764D02*
X7305521Y-9947383D01*
X7305521Y-9947383D02*
X7295998Y-9985479D01*
X7295998Y-9985479D02*
X7286474Y-10004526D01*
X7286474Y-10004526D02*
X7276950Y-10014050D01*
X7276950Y-10014050D02*
X7257902Y-10023574D01*
X7257902Y-10023574D02*
X7238855Y-10023574D01*
X7238855Y-10023574D02*
X7219807Y-10014050D01*
X7219807Y-10014050D02*
X7210283Y-10004526D01*
X7210283Y-10004526D02*
X7200759Y-9985479D01*
X7200759Y-9985479D02*
X7191236Y-9947383D01*
X7191236Y-9947383D02*
X7191236Y-9899764D01*
X7191236Y-9899764D02*
X7200759Y-9861669D01*
X7200759Y-9861669D02*
X7210283Y-9842621D01*
X7210283Y-9842621D02*
X7219807Y-9833098D01*
X7219807Y-9833098D02*
X7238855Y-9823574D01*
X7429331Y-9823574D02*
X7448379Y-9823574D01*
X7448379Y-9823574D02*
X7467426Y-9833098D01*
X7467426Y-9833098D02*
X7476950Y-9842621D01*
X7476950Y-9842621D02*
X7486474Y-9861669D01*
X7486474Y-9861669D02*
X7495998Y-9899764D01*
X7495998Y-9899764D02*
X7495998Y-9947383D01*
X7495998Y-9947383D02*
X7486474Y-9985479D01*
X7486474Y-9985479D02*
X7476950Y-10004526D01*
X7476950Y-10004526D02*
X7467426Y-10014050D01*
X7467426Y-10014050D02*
X7448379Y-10023574D01*
X7448379Y-10023574D02*
X7429331Y-10023574D01*
X7429331Y-10023574D02*
X7410283Y-10014050D01*
X7410283Y-10014050D02*
X7400759Y-10004526D01*
X7400759Y-10004526D02*
X7391236Y-9985479D01*
X7391236Y-9985479D02*
X7381712Y-9947383D01*
X7381712Y-9947383D02*
X7381712Y-9899764D01*
X7381712Y-9899764D02*
X7391236Y-9861669D01*
X7391236Y-9861669D02*
X7400759Y-9842621D01*
X7400759Y-9842621D02*
X7410283Y-9833098D01*
X7410283Y-9833098D02*
X7429331Y-9823574D01*
X7581712Y-10023574D02*
X7581712Y-9890240D01*
X7581712Y-9909288D02*
X7591236Y-9899764D01*
X7591236Y-9899764D02*
X7610283Y-9890240D01*
X7610283Y-9890240D02*
X7638855Y-9890240D01*
X7638855Y-9890240D02*
X7657902Y-9899764D01*
X7657902Y-9899764D02*
X7667426Y-9918812D01*
X7667426Y-9918812D02*
X7667426Y-10023574D01*
X7667426Y-9918812D02*
X7676950Y-9899764D01*
X7676950Y-9899764D02*
X7695998Y-9890240D01*
X7695998Y-9890240D02*
X7724569Y-9890240D01*
X7724569Y-9890240D02*
X7743617Y-9899764D01*
X7743617Y-9899764D02*
X7753140Y-9918812D01*
X7753140Y-9918812D02*
X7753140Y-10023574D01*
X7848379Y-10023574D02*
X7848379Y-9890240D01*
X7848379Y-9909288D02*
X7857902Y-9899764D01*
X7857902Y-9899764D02*
X7876950Y-9890240D01*
X7876950Y-9890240D02*
X7905521Y-9890240D01*
X7905521Y-9890240D02*
X7924569Y-9899764D01*
X7924569Y-9899764D02*
X7934093Y-9918812D01*
X7934093Y-9918812D02*
X7934093Y-10023574D01*
X7934093Y-9918812D02*
X7943617Y-9899764D01*
X7943617Y-9899764D02*
X7962664Y-9890240D01*
X7962664Y-9890240D02*
X7991236Y-9890240D01*
X7991236Y-9890240D02*
X8010283Y-9899764D01*
X8010283Y-9899764D02*
X8019807Y-9918812D01*
X8019807Y-9918812D02*
X8019807Y-10023574D01*
X8410283Y-9814050D02*
X8238855Y-10071193D01*
X8667426Y-9823574D02*
X8686474Y-9823574D01*
X8686474Y-9823574D02*
X8705522Y-9833098D01*
X8705522Y-9833098D02*
X8715045Y-9842621D01*
X8715045Y-9842621D02*
X8724569Y-9861669D01*
X8724569Y-9861669D02*
X8734093Y-9899764D01*
X8734093Y-9899764D02*
X8734093Y-9947383D01*
X8734093Y-9947383D02*
X8724569Y-9985479D01*
X8724569Y-9985479D02*
X8715045Y-10004526D01*
X8715045Y-10004526D02*
X8705522Y-10014050D01*
X8705522Y-10014050D02*
X8686474Y-10023574D01*
X8686474Y-10023574D02*
X8667426Y-10023574D01*
X8667426Y-10023574D02*
X8648379Y-10014050D01*
X8648379Y-10014050D02*
X8638855Y-10004526D01*
X8638855Y-10004526D02*
X8629331Y-9985479D01*
X8629331Y-9985479D02*
X8619807Y-9947383D01*
X8619807Y-9947383D02*
X8619807Y-9899764D01*
X8619807Y-9899764D02*
X8629331Y-9861669D01*
X8629331Y-9861669D02*
X8638855Y-9842621D01*
X8638855Y-9842621D02*
X8648379Y-9833098D01*
X8648379Y-9833098D02*
X8667426Y-9823574D01*
X8819807Y-10004526D02*
X8829331Y-10014050D01*
X8829331Y-10014050D02*
X8819807Y-10023574D01*
X8819807Y-10023574D02*
X8810284Y-10014050D01*
X8810284Y-10014050D02*
X8819807Y-10004526D01*
X8819807Y-10004526D02*
X8819807Y-10023574D01*
X8953141Y-9823574D02*
X8972188Y-9823574D01*
X8972188Y-9823574D02*
X8991236Y-9833098D01*
X8991236Y-9833098D02*
X9000760Y-9842621D01*
X9000760Y-9842621D02*
X9010284Y-9861669D01*
X9010284Y-9861669D02*
X9019807Y-9899764D01*
X9019807Y-9899764D02*
X9019807Y-9947383D01*
X9019807Y-9947383D02*
X9010284Y-9985479D01*
X9010284Y-9985479D02*
X9000760Y-10004526D01*
X9000760Y-10004526D02*
X8991236Y-10014050D01*
X8991236Y-10014050D02*
X8972188Y-10023574D01*
X8972188Y-10023574D02*
X8953141Y-10023574D01*
X8953141Y-10023574D02*
X8934093Y-10014050D01*
X8934093Y-10014050D02*
X8924569Y-10004526D01*
X8924569Y-10004526D02*
X8915045Y-9985479D01*
X8915045Y-9985479D02*
X8905522Y-9947383D01*
X8905522Y-9947383D02*
X8905522Y-9899764D01*
X8905522Y-9899764D02*
X8915045Y-9861669D01*
X8915045Y-9861669D02*
X8924569Y-9842621D01*
X8924569Y-9842621D02*
X8934093Y-9833098D01*
X8934093Y-9833098D02*
X8953141Y-9823574D01*
X9086474Y-9823574D02*
X9210284Y-9823574D01*
X9210284Y-9823574D02*
X9143617Y-9899764D01*
X9143617Y-9899764D02*
X9172188Y-9899764D01*
X9172188Y-9899764D02*
X9191236Y-9909288D01*
X9191236Y-9909288D02*
X9200760Y-9918812D01*
X9200760Y-9918812D02*
X9210284Y-9937860D01*
X9210284Y-9937860D02*
X9210284Y-9985479D01*
X9210284Y-9985479D02*
X9200760Y-10004526D01*
X9200760Y-10004526D02*
X9191236Y-10014050D01*
X9191236Y-10014050D02*
X9172188Y-10023574D01*
X9172188Y-10023574D02*
X9115045Y-10023574D01*
X9115045Y-10023574D02*
X9095998Y-10014050D01*
X9095998Y-10014050D02*
X9086474Y-10004526D01*
X9305522Y-10023574D02*
X9343617Y-10023574D01*
X9343617Y-10023574D02*
X9362665Y-10014050D01*
X9362665Y-10014050D02*
X9372188Y-10004526D01*
X9372188Y-10004526D02*
X9391236Y-9975955D01*
X9391236Y-9975955D02*
X9400760Y-9937860D01*
X9400760Y-9937860D02*
X9400760Y-9861669D01*
X9400760Y-9861669D02*
X9391236Y-9842621D01*
X9391236Y-9842621D02*
X9381712Y-9833098D01*
X9381712Y-9833098D02*
X9362665Y-9823574D01*
X9362665Y-9823574D02*
X9324569Y-9823574D01*
X9324569Y-9823574D02*
X9305522Y-9833098D01*
X9305522Y-9833098D02*
X9295998Y-9842621D01*
X9295998Y-9842621D02*
X9286474Y-9861669D01*
X9286474Y-9861669D02*
X9286474Y-9909288D01*
X9286474Y-9909288D02*
X9295998Y-9928336D01*
X9295998Y-9928336D02*
X9305522Y-9937860D01*
X9305522Y-9937860D02*
X9324569Y-9947383D01*
X9324569Y-9947383D02*
X9362665Y-9947383D01*
X9362665Y-9947383D02*
X9381712Y-9937860D01*
X9381712Y-9937860D02*
X9391236Y-9928336D01*
X9391236Y-9928336D02*
X9400760Y-9909288D01*
X9572188Y-9890240D02*
X9572188Y-10023574D01*
X9524569Y-9814050D02*
X9476950Y-9956907D01*
X9476950Y-9956907D02*
X9600760Y-9956907D01*
X9667426Y-9823574D02*
X9667426Y-9861669D01*
X9743617Y-9823574D02*
X9743617Y-9861669D01*
X10038855Y-10099764D02*
X10029331Y-10090240D01*
X10029331Y-10090240D02*
X10010284Y-10061669D01*
X10010284Y-10061669D02*
X10000760Y-10042621D01*
X10000760Y-10042621D02*
X9991236Y-10014050D01*
X9991236Y-10014050D02*
X9981712Y-9966431D01*
X9981712Y-9966431D02*
X9981712Y-9928336D01*
X9981712Y-9928336D02*
X9991236Y-9880717D01*
X9991236Y-9880717D02*
X10000760Y-9852145D01*
X10000760Y-9852145D02*
X10010284Y-9833098D01*
X10010284Y-9833098D02*
X10029331Y-9804526D01*
X10029331Y-9804526D02*
X10038855Y-9795002D01*
X10210284Y-9823574D02*
X10115046Y-9823574D01*
X10115046Y-9823574D02*
X10105522Y-9918812D01*
X10105522Y-9918812D02*
X10115046Y-9909288D01*
X10115046Y-9909288D02*
X10134093Y-9899764D01*
X10134093Y-9899764D02*
X10181712Y-9899764D01*
X10181712Y-9899764D02*
X10200760Y-9909288D01*
X10200760Y-9909288D02*
X10210284Y-9918812D01*
X10210284Y-9918812D02*
X10219807Y-9937860D01*
X10219807Y-9937860D02*
X10219807Y-9985479D01*
X10219807Y-9985479D02*
X10210284Y-10004526D01*
X10210284Y-10004526D02*
X10200760Y-10014050D01*
X10200760Y-10014050D02*
X10181712Y-10023574D01*
X10181712Y-10023574D02*
X10134093Y-10023574D01*
X10134093Y-10023574D02*
X10115046Y-10014050D01*
X10115046Y-10014050D02*
X10105522Y-10004526D01*
X10391236Y-9890240D02*
X10391236Y-10023574D01*
X10343617Y-9814050D02*
X10295998Y-9956907D01*
X10295998Y-9956907D02*
X10419807Y-9956907D01*
X10648379Y-10023574D02*
X10648379Y-9823574D01*
X10734093Y-10023574D02*
X10734093Y-9918812D01*
X10734093Y-9918812D02*
X10724569Y-9899764D01*
X10724569Y-9899764D02*
X10705522Y-9890240D01*
X10705522Y-9890240D02*
X10676950Y-9890240D01*
X10676950Y-9890240D02*
X10657903Y-9899764D01*
X10657903Y-9899764D02*
X10648379Y-9909288D01*
X10857903Y-10023574D02*
X10838855Y-10014050D01*
X10838855Y-10014050D02*
X10829331Y-10004526D01*
X10829331Y-10004526D02*
X10819808Y-9985479D01*
X10819808Y-9985479D02*
X10819808Y-9928336D01*
X10819808Y-9928336D02*
X10829331Y-9909288D01*
X10829331Y-9909288D02*
X10838855Y-9899764D01*
X10838855Y-9899764D02*
X10857903Y-9890240D01*
X10857903Y-9890240D02*
X10886474Y-9890240D01*
X10886474Y-9890240D02*
X10905522Y-9899764D01*
X10905522Y-9899764D02*
X10915046Y-9909288D01*
X10915046Y-9909288D02*
X10924569Y-9928336D01*
X10924569Y-9928336D02*
X10924569Y-9985479D01*
X10924569Y-9985479D02*
X10915046Y-10004526D01*
X10915046Y-10004526D02*
X10905522Y-10014050D01*
X10905522Y-10014050D02*
X10886474Y-10023574D01*
X10886474Y-10023574D02*
X10857903Y-10023574D01*
X11038855Y-10023574D02*
X11019808Y-10014050D01*
X11019808Y-10014050D02*
X11010284Y-9995002D01*
X11010284Y-9995002D02*
X11010284Y-9823574D01*
X11191236Y-10014050D02*
X11172189Y-10023574D01*
X11172189Y-10023574D02*
X11134093Y-10023574D01*
X11134093Y-10023574D02*
X11115046Y-10014050D01*
X11115046Y-10014050D02*
X11105522Y-9995002D01*
X11105522Y-9995002D02*
X11105522Y-9918812D01*
X11105522Y-9918812D02*
X11115046Y-9899764D01*
X11115046Y-9899764D02*
X11134093Y-9890240D01*
X11134093Y-9890240D02*
X11172189Y-9890240D01*
X11172189Y-9890240D02*
X11191236Y-9899764D01*
X11191236Y-9899764D02*
X11200760Y-9918812D01*
X11200760Y-9918812D02*
X11200760Y-9937860D01*
X11200760Y-9937860D02*
X11105522Y-9956907D01*
X11276950Y-10014050D02*
X11295998Y-10023574D01*
X11295998Y-10023574D02*
X11334093Y-10023574D01*
X11334093Y-10023574D02*
X11353141Y-10014050D01*
X11353141Y-10014050D02*
X11362665Y-9995002D01*
X11362665Y-9995002D02*
X11362665Y-9985479D01*
X11362665Y-9985479D02*
X11353141Y-9966431D01*
X11353141Y-9966431D02*
X11334093Y-9956907D01*
X11334093Y-9956907D02*
X11305522Y-9956907D01*
X11305522Y-9956907D02*
X11286474Y-9947383D01*
X11286474Y-9947383D02*
X11276950Y-9928336D01*
X11276950Y-9928336D02*
X11276950Y-9918812D01*
X11276950Y-9918812D02*
X11286474Y-9899764D01*
X11286474Y-9899764D02*
X11305522Y-9890240D01*
X11305522Y-9890240D02*
X11334093Y-9890240D01*
X11334093Y-9890240D02*
X11353141Y-9899764D01*
X11429331Y-10099764D02*
X11438855Y-10090240D01*
X11438855Y-10090240D02*
X11457903Y-10061669D01*
X11457903Y-10061669D02*
X11467427Y-10042621D01*
X11467427Y-10042621D02*
X11476950Y-10014050D01*
X11476950Y-10014050D02*
X11486474Y-9966431D01*
X11486474Y-9966431D02*
X11486474Y-9928336D01*
X11486474Y-9928336D02*
X11476950Y-9880717D01*
X11476950Y-9880717D02*
X11467427Y-9852145D01*
X11467427Y-9852145D02*
X11457903Y-9833098D01*
X11457903Y-9833098D02*
X11438855Y-9804526D01*
X11438855Y-9804526D02*
X11429331Y-9795002D01*
D16*
X6426150Y-10245850D02*
X6476950Y-10195050D01*
X6426150Y-10144250D01*
X6375350Y-10195050D01*
X6426150Y-10245850D01*
D11*
X6829331Y-10287574D02*
X6715045Y-10287574D01*
X6772188Y-10287574D02*
X6772188Y-10087574D01*
X6772188Y-10087574D02*
X6753140Y-10116145D01*
X6753140Y-10116145D02*
X6734093Y-10135193D01*
X6734093Y-10135193D02*
X6715045Y-10144717D01*
X6915045Y-10268526D02*
X6924569Y-10278050D01*
X6924569Y-10278050D02*
X6915045Y-10287574D01*
X6915045Y-10287574D02*
X6905521Y-10278050D01*
X6905521Y-10278050D02*
X6915045Y-10268526D01*
X6915045Y-10268526D02*
X6915045Y-10287574D01*
X7048378Y-10087574D02*
X7067426Y-10087574D01*
X7067426Y-10087574D02*
X7086474Y-10097098D01*
X7086474Y-10097098D02*
X7095998Y-10106621D01*
X7095998Y-10106621D02*
X7105521Y-10125669D01*
X7105521Y-10125669D02*
X7115045Y-10163764D01*
X7115045Y-10163764D02*
X7115045Y-10211383D01*
X7115045Y-10211383D02*
X7105521Y-10249479D01*
X7105521Y-10249479D02*
X7095998Y-10268526D01*
X7095998Y-10268526D02*
X7086474Y-10278050D01*
X7086474Y-10278050D02*
X7067426Y-10287574D01*
X7067426Y-10287574D02*
X7048378Y-10287574D01*
X7048378Y-10287574D02*
X7029331Y-10278050D01*
X7029331Y-10278050D02*
X7019807Y-10268526D01*
X7019807Y-10268526D02*
X7010283Y-10249479D01*
X7010283Y-10249479D02*
X7000759Y-10211383D01*
X7000759Y-10211383D02*
X7000759Y-10163764D01*
X7000759Y-10163764D02*
X7010283Y-10125669D01*
X7010283Y-10125669D02*
X7019807Y-10106621D01*
X7019807Y-10106621D02*
X7029331Y-10097098D01*
X7029331Y-10097098D02*
X7048378Y-10087574D01*
X7305521Y-10287574D02*
X7191236Y-10287574D01*
X7248378Y-10287574D02*
X7248378Y-10087574D01*
X7248378Y-10087574D02*
X7229331Y-10116145D01*
X7229331Y-10116145D02*
X7210283Y-10135193D01*
X7210283Y-10135193D02*
X7191236Y-10144717D01*
X7476950Y-10087574D02*
X7438855Y-10087574D01*
X7438855Y-10087574D02*
X7419807Y-10097098D01*
X7419807Y-10097098D02*
X7410283Y-10106621D01*
X7410283Y-10106621D02*
X7391236Y-10135193D01*
X7391236Y-10135193D02*
X7381712Y-10173288D01*
X7381712Y-10173288D02*
X7381712Y-10249479D01*
X7381712Y-10249479D02*
X7391236Y-10268526D01*
X7391236Y-10268526D02*
X7400759Y-10278050D01*
X7400759Y-10278050D02*
X7419807Y-10287574D01*
X7419807Y-10287574D02*
X7457902Y-10287574D01*
X7457902Y-10287574D02*
X7476950Y-10278050D01*
X7476950Y-10278050D02*
X7486474Y-10268526D01*
X7486474Y-10268526D02*
X7495998Y-10249479D01*
X7495998Y-10249479D02*
X7495998Y-10201860D01*
X7495998Y-10201860D02*
X7486474Y-10182812D01*
X7486474Y-10182812D02*
X7476950Y-10173288D01*
X7476950Y-10173288D02*
X7457902Y-10163764D01*
X7457902Y-10163764D02*
X7419807Y-10163764D01*
X7419807Y-10163764D02*
X7400759Y-10173288D01*
X7400759Y-10173288D02*
X7391236Y-10182812D01*
X7391236Y-10182812D02*
X7381712Y-10201860D01*
X7581712Y-10287574D02*
X7581712Y-10154240D01*
X7581712Y-10173288D02*
X7591236Y-10163764D01*
X7591236Y-10163764D02*
X7610283Y-10154240D01*
X7610283Y-10154240D02*
X7638855Y-10154240D01*
X7638855Y-10154240D02*
X7657902Y-10163764D01*
X7657902Y-10163764D02*
X7667426Y-10182812D01*
X7667426Y-10182812D02*
X7667426Y-10287574D01*
X7667426Y-10182812D02*
X7676950Y-10163764D01*
X7676950Y-10163764D02*
X7695998Y-10154240D01*
X7695998Y-10154240D02*
X7724569Y-10154240D01*
X7724569Y-10154240D02*
X7743617Y-10163764D01*
X7743617Y-10163764D02*
X7753140Y-10182812D01*
X7753140Y-10182812D02*
X7753140Y-10287574D01*
X7848379Y-10287574D02*
X7848379Y-10154240D01*
X7848379Y-10173288D02*
X7857902Y-10163764D01*
X7857902Y-10163764D02*
X7876950Y-10154240D01*
X7876950Y-10154240D02*
X7905521Y-10154240D01*
X7905521Y-10154240D02*
X7924569Y-10163764D01*
X7924569Y-10163764D02*
X7934093Y-10182812D01*
X7934093Y-10182812D02*
X7934093Y-10287574D01*
X7934093Y-10182812D02*
X7943617Y-10163764D01*
X7943617Y-10163764D02*
X7962664Y-10154240D01*
X7962664Y-10154240D02*
X7991236Y-10154240D01*
X7991236Y-10154240D02*
X8010283Y-10163764D01*
X8010283Y-10163764D02*
X8019807Y-10182812D01*
X8019807Y-10182812D02*
X8019807Y-10287574D01*
X8410283Y-10078050D02*
X8238855Y-10335193D01*
X8667426Y-10087574D02*
X8686474Y-10087574D01*
X8686474Y-10087574D02*
X8705522Y-10097098D01*
X8705522Y-10097098D02*
X8715045Y-10106621D01*
X8715045Y-10106621D02*
X8724569Y-10125669D01*
X8724569Y-10125669D02*
X8734093Y-10163764D01*
X8734093Y-10163764D02*
X8734093Y-10211383D01*
X8734093Y-10211383D02*
X8724569Y-10249479D01*
X8724569Y-10249479D02*
X8715045Y-10268526D01*
X8715045Y-10268526D02*
X8705522Y-10278050D01*
X8705522Y-10278050D02*
X8686474Y-10287574D01*
X8686474Y-10287574D02*
X8667426Y-10287574D01*
X8667426Y-10287574D02*
X8648379Y-10278050D01*
X8648379Y-10278050D02*
X8638855Y-10268526D01*
X8638855Y-10268526D02*
X8629331Y-10249479D01*
X8629331Y-10249479D02*
X8619807Y-10211383D01*
X8619807Y-10211383D02*
X8619807Y-10163764D01*
X8619807Y-10163764D02*
X8629331Y-10125669D01*
X8629331Y-10125669D02*
X8638855Y-10106621D01*
X8638855Y-10106621D02*
X8648379Y-10097098D01*
X8648379Y-10097098D02*
X8667426Y-10087574D01*
X8819807Y-10268526D02*
X8829331Y-10278050D01*
X8829331Y-10278050D02*
X8819807Y-10287574D01*
X8819807Y-10287574D02*
X8810284Y-10278050D01*
X8810284Y-10278050D02*
X8819807Y-10268526D01*
X8819807Y-10268526D02*
X8819807Y-10287574D01*
X8953141Y-10087574D02*
X8972188Y-10087574D01*
X8972188Y-10087574D02*
X8991236Y-10097098D01*
X8991236Y-10097098D02*
X9000760Y-10106621D01*
X9000760Y-10106621D02*
X9010284Y-10125669D01*
X9010284Y-10125669D02*
X9019807Y-10163764D01*
X9019807Y-10163764D02*
X9019807Y-10211383D01*
X9019807Y-10211383D02*
X9010284Y-10249479D01*
X9010284Y-10249479D02*
X9000760Y-10268526D01*
X9000760Y-10268526D02*
X8991236Y-10278050D01*
X8991236Y-10278050D02*
X8972188Y-10287574D01*
X8972188Y-10287574D02*
X8953141Y-10287574D01*
X8953141Y-10287574D02*
X8934093Y-10278050D01*
X8934093Y-10278050D02*
X8924569Y-10268526D01*
X8924569Y-10268526D02*
X8915045Y-10249479D01*
X8915045Y-10249479D02*
X8905522Y-10211383D01*
X8905522Y-10211383D02*
X8905522Y-10163764D01*
X8905522Y-10163764D02*
X8915045Y-10125669D01*
X8915045Y-10125669D02*
X8924569Y-10106621D01*
X8924569Y-10106621D02*
X8934093Y-10097098D01*
X8934093Y-10097098D02*
X8953141Y-10087574D01*
X9191236Y-10154240D02*
X9191236Y-10287574D01*
X9143617Y-10078050D02*
X9095998Y-10220907D01*
X9095998Y-10220907D02*
X9219807Y-10220907D01*
X9334093Y-10087574D02*
X9353141Y-10087574D01*
X9353141Y-10087574D02*
X9372188Y-10097098D01*
X9372188Y-10097098D02*
X9381712Y-10106621D01*
X9381712Y-10106621D02*
X9391236Y-10125669D01*
X9391236Y-10125669D02*
X9400760Y-10163764D01*
X9400760Y-10163764D02*
X9400760Y-10211383D01*
X9400760Y-10211383D02*
X9391236Y-10249479D01*
X9391236Y-10249479D02*
X9381712Y-10268526D01*
X9381712Y-10268526D02*
X9372188Y-10278050D01*
X9372188Y-10278050D02*
X9353141Y-10287574D01*
X9353141Y-10287574D02*
X9334093Y-10287574D01*
X9334093Y-10287574D02*
X9315045Y-10278050D01*
X9315045Y-10278050D02*
X9305522Y-10268526D01*
X9305522Y-10268526D02*
X9295998Y-10249479D01*
X9295998Y-10249479D02*
X9286474Y-10211383D01*
X9286474Y-10211383D02*
X9286474Y-10163764D01*
X9286474Y-10163764D02*
X9295998Y-10125669D01*
X9295998Y-10125669D02*
X9305522Y-10106621D01*
X9305522Y-10106621D02*
X9315045Y-10097098D01*
X9315045Y-10097098D02*
X9334093Y-10087574D01*
X9524569Y-10087574D02*
X9543617Y-10087574D01*
X9543617Y-10087574D02*
X9562665Y-10097098D01*
X9562665Y-10097098D02*
X9572188Y-10106621D01*
X9572188Y-10106621D02*
X9581712Y-10125669D01*
X9581712Y-10125669D02*
X9591236Y-10163764D01*
X9591236Y-10163764D02*
X9591236Y-10211383D01*
X9591236Y-10211383D02*
X9581712Y-10249479D01*
X9581712Y-10249479D02*
X9572188Y-10268526D01*
X9572188Y-10268526D02*
X9562665Y-10278050D01*
X9562665Y-10278050D02*
X9543617Y-10287574D01*
X9543617Y-10287574D02*
X9524569Y-10287574D01*
X9524569Y-10287574D02*
X9505522Y-10278050D01*
X9505522Y-10278050D02*
X9495998Y-10268526D01*
X9495998Y-10268526D02*
X9486474Y-10249479D01*
X9486474Y-10249479D02*
X9476950Y-10211383D01*
X9476950Y-10211383D02*
X9476950Y-10163764D01*
X9476950Y-10163764D02*
X9486474Y-10125669D01*
X9486474Y-10125669D02*
X9495998Y-10106621D01*
X9495998Y-10106621D02*
X9505522Y-10097098D01*
X9505522Y-10097098D02*
X9524569Y-10087574D01*
X9667426Y-10087574D02*
X9667426Y-10125669D01*
X9743617Y-10087574D02*
X9743617Y-10125669D01*
X10038855Y-10363764D02*
X10029331Y-10354240D01*
X10029331Y-10354240D02*
X10010284Y-10325669D01*
X10010284Y-10325669D02*
X10000760Y-10306621D01*
X10000760Y-10306621D02*
X9991236Y-10278050D01*
X9991236Y-10278050D02*
X9981712Y-10230431D01*
X9981712Y-10230431D02*
X9981712Y-10192336D01*
X9981712Y-10192336D02*
X9991236Y-10144717D01*
X9991236Y-10144717D02*
X10000760Y-10116145D01*
X10000760Y-10116145D02*
X10010284Y-10097098D01*
X10010284Y-10097098D02*
X10029331Y-10068526D01*
X10029331Y-10068526D02*
X10038855Y-10059002D01*
X10219807Y-10287574D02*
X10105522Y-10287574D01*
X10162665Y-10287574D02*
X10162665Y-10087574D01*
X10162665Y-10087574D02*
X10143617Y-10116145D01*
X10143617Y-10116145D02*
X10124569Y-10135193D01*
X10124569Y-10135193D02*
X10105522Y-10144717D01*
X10343617Y-10087574D02*
X10362665Y-10087574D01*
X10362665Y-10087574D02*
X10381712Y-10097098D01*
X10381712Y-10097098D02*
X10391236Y-10106621D01*
X10391236Y-10106621D02*
X10400760Y-10125669D01*
X10400760Y-10125669D02*
X10410284Y-10163764D01*
X10410284Y-10163764D02*
X10410284Y-10211383D01*
X10410284Y-10211383D02*
X10400760Y-10249479D01*
X10400760Y-10249479D02*
X10391236Y-10268526D01*
X10391236Y-10268526D02*
X10381712Y-10278050D01*
X10381712Y-10278050D02*
X10362665Y-10287574D01*
X10362665Y-10287574D02*
X10343617Y-10287574D01*
X10343617Y-10287574D02*
X10324569Y-10278050D01*
X10324569Y-10278050D02*
X10315046Y-10268526D01*
X10315046Y-10268526D02*
X10305522Y-10249479D01*
X10305522Y-10249479D02*
X10295998Y-10211383D01*
X10295998Y-10211383D02*
X10295998Y-10163764D01*
X10295998Y-10163764D02*
X10305522Y-10125669D01*
X10305522Y-10125669D02*
X10315046Y-10106621D01*
X10315046Y-10106621D02*
X10324569Y-10097098D01*
X10324569Y-10097098D02*
X10343617Y-10087574D01*
X10648379Y-10287574D02*
X10648379Y-10087574D01*
X10734093Y-10287574D02*
X10734093Y-10182812D01*
X10734093Y-10182812D02*
X10724569Y-10163764D01*
X10724569Y-10163764D02*
X10705522Y-10154240D01*
X10705522Y-10154240D02*
X10676950Y-10154240D01*
X10676950Y-10154240D02*
X10657903Y-10163764D01*
X10657903Y-10163764D02*
X10648379Y-10173288D01*
X10857903Y-10287574D02*
X10838855Y-10278050D01*
X10838855Y-10278050D02*
X10829331Y-10268526D01*
X10829331Y-10268526D02*
X10819808Y-10249479D01*
X10819808Y-10249479D02*
X10819808Y-10192336D01*
X10819808Y-10192336D02*
X10829331Y-10173288D01*
X10829331Y-10173288D02*
X10838855Y-10163764D01*
X10838855Y-10163764D02*
X10857903Y-10154240D01*
X10857903Y-10154240D02*
X10886474Y-10154240D01*
X10886474Y-10154240D02*
X10905522Y-10163764D01*
X10905522Y-10163764D02*
X10915046Y-10173288D01*
X10915046Y-10173288D02*
X10924569Y-10192336D01*
X10924569Y-10192336D02*
X10924569Y-10249479D01*
X10924569Y-10249479D02*
X10915046Y-10268526D01*
X10915046Y-10268526D02*
X10905522Y-10278050D01*
X10905522Y-10278050D02*
X10886474Y-10287574D01*
X10886474Y-10287574D02*
X10857903Y-10287574D01*
X11038855Y-10287574D02*
X11019808Y-10278050D01*
X11019808Y-10278050D02*
X11010284Y-10259002D01*
X11010284Y-10259002D02*
X11010284Y-10087574D01*
X11191236Y-10278050D02*
X11172189Y-10287574D01*
X11172189Y-10287574D02*
X11134093Y-10287574D01*
X11134093Y-10287574D02*
X11115046Y-10278050D01*
X11115046Y-10278050D02*
X11105522Y-10259002D01*
X11105522Y-10259002D02*
X11105522Y-10182812D01*
X11105522Y-10182812D02*
X11115046Y-10163764D01*
X11115046Y-10163764D02*
X11134093Y-10154240D01*
X11134093Y-10154240D02*
X11172189Y-10154240D01*
X11172189Y-10154240D02*
X11191236Y-10163764D01*
X11191236Y-10163764D02*
X11200760Y-10182812D01*
X11200760Y-10182812D02*
X11200760Y-10201860D01*
X11200760Y-10201860D02*
X11105522Y-10220907D01*
X11276950Y-10278050D02*
X11295998Y-10287574D01*
X11295998Y-10287574D02*
X11334093Y-10287574D01*
X11334093Y-10287574D02*
X11353141Y-10278050D01*
X11353141Y-10278050D02*
X11362665Y-10259002D01*
X11362665Y-10259002D02*
X11362665Y-10249479D01*
X11362665Y-10249479D02*
X11353141Y-10230431D01*
X11353141Y-10230431D02*
X11334093Y-10220907D01*
X11334093Y-10220907D02*
X11305522Y-10220907D01*
X11305522Y-10220907D02*
X11286474Y-10211383D01*
X11286474Y-10211383D02*
X11276950Y-10192336D01*
X11276950Y-10192336D02*
X11276950Y-10182812D01*
X11276950Y-10182812D02*
X11286474Y-10163764D01*
X11286474Y-10163764D02*
X11305522Y-10154240D01*
X11305522Y-10154240D02*
X11334093Y-10154240D01*
X11334093Y-10154240D02*
X11353141Y-10163764D01*
X11429331Y-10363764D02*
X11438855Y-10354240D01*
X11438855Y-10354240D02*
X11457903Y-10325669D01*
X11457903Y-10325669D02*
X11467427Y-10306621D01*
X11467427Y-10306621D02*
X11476950Y-10278050D01*
X11476950Y-10278050D02*
X11486474Y-10230431D01*
X11486474Y-10230431D02*
X11486474Y-10192336D01*
X11486474Y-10192336D02*
X11476950Y-10144717D01*
X11476950Y-10144717D02*
X11467427Y-10116145D01*
X11467427Y-10116145D02*
X11457903Y-10097098D01*
X11457903Y-10097098D02*
X11438855Y-10068526D01*
X11438855Y-10068526D02*
X11429331Y-10059002D01*
X6276950Y-10359050D02*
X6476950Y-10559050D01*
X6476950Y-10359050D02*
X6276950Y-10559050D01*
X6476950Y-10459050D02*
G75*
G03*
X6476950Y-10459050I-100000J0D01*
G01*
X6715045Y-10370621D02*
X6724569Y-10361098D01*
X6724569Y-10361098D02*
X6743617Y-10351574D01*
X6743617Y-10351574D02*
X6791236Y-10351574D01*
X6791236Y-10351574D02*
X6810283Y-10361098D01*
X6810283Y-10361098D02*
X6819807Y-10370621D01*
X6819807Y-10370621D02*
X6829331Y-10389669D01*
X6829331Y-10389669D02*
X6829331Y-10408717D01*
X6829331Y-10408717D02*
X6819807Y-10437288D01*
X6819807Y-10437288D02*
X6705521Y-10551574D01*
X6705521Y-10551574D02*
X6829331Y-10551574D01*
X6915045Y-10532526D02*
X6924569Y-10542050D01*
X6924569Y-10542050D02*
X6915045Y-10551574D01*
X6915045Y-10551574D02*
X6905521Y-10542050D01*
X6905521Y-10542050D02*
X6915045Y-10532526D01*
X6915045Y-10532526D02*
X6915045Y-10551574D01*
X6991236Y-10351574D02*
X7115045Y-10351574D01*
X7115045Y-10351574D02*
X7048378Y-10427764D01*
X7048378Y-10427764D02*
X7076950Y-10427764D01*
X7076950Y-10427764D02*
X7095998Y-10437288D01*
X7095998Y-10437288D02*
X7105521Y-10446812D01*
X7105521Y-10446812D02*
X7115045Y-10465860D01*
X7115045Y-10465860D02*
X7115045Y-10513479D01*
X7115045Y-10513479D02*
X7105521Y-10532526D01*
X7105521Y-10532526D02*
X7095998Y-10542050D01*
X7095998Y-10542050D02*
X7076950Y-10551574D01*
X7076950Y-10551574D02*
X7019807Y-10551574D01*
X7019807Y-10551574D02*
X7000759Y-10542050D01*
X7000759Y-10542050D02*
X6991236Y-10532526D01*
X7181712Y-10351574D02*
X7305521Y-10351574D01*
X7305521Y-10351574D02*
X7238855Y-10427764D01*
X7238855Y-10427764D02*
X7267426Y-10427764D01*
X7267426Y-10427764D02*
X7286474Y-10437288D01*
X7286474Y-10437288D02*
X7295998Y-10446812D01*
X7295998Y-10446812D02*
X7305521Y-10465860D01*
X7305521Y-10465860D02*
X7305521Y-10513479D01*
X7305521Y-10513479D02*
X7295998Y-10532526D01*
X7295998Y-10532526D02*
X7286474Y-10542050D01*
X7286474Y-10542050D02*
X7267426Y-10551574D01*
X7267426Y-10551574D02*
X7210283Y-10551574D01*
X7210283Y-10551574D02*
X7191236Y-10542050D01*
X7191236Y-10542050D02*
X7181712Y-10532526D01*
X7429331Y-10351574D02*
X7448379Y-10351574D01*
X7448379Y-10351574D02*
X7467426Y-10361098D01*
X7467426Y-10361098D02*
X7476950Y-10370621D01*
X7476950Y-10370621D02*
X7486474Y-10389669D01*
X7486474Y-10389669D02*
X7495998Y-10427764D01*
X7495998Y-10427764D02*
X7495998Y-10475383D01*
X7495998Y-10475383D02*
X7486474Y-10513479D01*
X7486474Y-10513479D02*
X7476950Y-10532526D01*
X7476950Y-10532526D02*
X7467426Y-10542050D01*
X7467426Y-10542050D02*
X7448379Y-10551574D01*
X7448379Y-10551574D02*
X7429331Y-10551574D01*
X7429331Y-10551574D02*
X7410283Y-10542050D01*
X7410283Y-10542050D02*
X7400759Y-10532526D01*
X7400759Y-10532526D02*
X7391236Y-10513479D01*
X7391236Y-10513479D02*
X7381712Y-10475383D01*
X7381712Y-10475383D02*
X7381712Y-10427764D01*
X7381712Y-10427764D02*
X7391236Y-10389669D01*
X7391236Y-10389669D02*
X7400759Y-10370621D01*
X7400759Y-10370621D02*
X7410283Y-10361098D01*
X7410283Y-10361098D02*
X7429331Y-10351574D01*
X7581712Y-10551574D02*
X7581712Y-10418240D01*
X7581712Y-10437288D02*
X7591236Y-10427764D01*
X7591236Y-10427764D02*
X7610283Y-10418240D01*
X7610283Y-10418240D02*
X7638855Y-10418240D01*
X7638855Y-10418240D02*
X7657902Y-10427764D01*
X7657902Y-10427764D02*
X7667426Y-10446812D01*
X7667426Y-10446812D02*
X7667426Y-10551574D01*
X7667426Y-10446812D02*
X7676950Y-10427764D01*
X7676950Y-10427764D02*
X7695998Y-10418240D01*
X7695998Y-10418240D02*
X7724569Y-10418240D01*
X7724569Y-10418240D02*
X7743617Y-10427764D01*
X7743617Y-10427764D02*
X7753140Y-10446812D01*
X7753140Y-10446812D02*
X7753140Y-10551574D01*
X7848379Y-10551574D02*
X7848379Y-10418240D01*
X7848379Y-10437288D02*
X7857902Y-10427764D01*
X7857902Y-10427764D02*
X7876950Y-10418240D01*
X7876950Y-10418240D02*
X7905521Y-10418240D01*
X7905521Y-10418240D02*
X7924569Y-10427764D01*
X7924569Y-10427764D02*
X7934093Y-10446812D01*
X7934093Y-10446812D02*
X7934093Y-10551574D01*
X7934093Y-10446812D02*
X7943617Y-10427764D01*
X7943617Y-10427764D02*
X7962664Y-10418240D01*
X7962664Y-10418240D02*
X7991236Y-10418240D01*
X7991236Y-10418240D02*
X8010283Y-10427764D01*
X8010283Y-10427764D02*
X8019807Y-10446812D01*
X8019807Y-10446812D02*
X8019807Y-10551574D01*
X8410283Y-10342050D02*
X8238855Y-10599193D01*
X8667426Y-10351574D02*
X8686474Y-10351574D01*
X8686474Y-10351574D02*
X8705522Y-10361098D01*
X8705522Y-10361098D02*
X8715045Y-10370621D01*
X8715045Y-10370621D02*
X8724569Y-10389669D01*
X8724569Y-10389669D02*
X8734093Y-10427764D01*
X8734093Y-10427764D02*
X8734093Y-10475383D01*
X8734093Y-10475383D02*
X8724569Y-10513479D01*
X8724569Y-10513479D02*
X8715045Y-10532526D01*
X8715045Y-10532526D02*
X8705522Y-10542050D01*
X8705522Y-10542050D02*
X8686474Y-10551574D01*
X8686474Y-10551574D02*
X8667426Y-10551574D01*
X8667426Y-10551574D02*
X8648379Y-10542050D01*
X8648379Y-10542050D02*
X8638855Y-10532526D01*
X8638855Y-10532526D02*
X8629331Y-10513479D01*
X8629331Y-10513479D02*
X8619807Y-10475383D01*
X8619807Y-10475383D02*
X8619807Y-10427764D01*
X8619807Y-10427764D02*
X8629331Y-10389669D01*
X8629331Y-10389669D02*
X8638855Y-10370621D01*
X8638855Y-10370621D02*
X8648379Y-10361098D01*
X8648379Y-10361098D02*
X8667426Y-10351574D01*
X8819807Y-10532526D02*
X8829331Y-10542050D01*
X8829331Y-10542050D02*
X8819807Y-10551574D01*
X8819807Y-10551574D02*
X8810284Y-10542050D01*
X8810284Y-10542050D02*
X8819807Y-10532526D01*
X8819807Y-10532526D02*
X8819807Y-10551574D01*
X8953141Y-10351574D02*
X8972188Y-10351574D01*
X8972188Y-10351574D02*
X8991236Y-10361098D01*
X8991236Y-10361098D02*
X9000760Y-10370621D01*
X9000760Y-10370621D02*
X9010284Y-10389669D01*
X9010284Y-10389669D02*
X9019807Y-10427764D01*
X9019807Y-10427764D02*
X9019807Y-10475383D01*
X9019807Y-10475383D02*
X9010284Y-10513479D01*
X9010284Y-10513479D02*
X9000760Y-10532526D01*
X9000760Y-10532526D02*
X8991236Y-10542050D01*
X8991236Y-10542050D02*
X8972188Y-10551574D01*
X8972188Y-10551574D02*
X8953141Y-10551574D01*
X8953141Y-10551574D02*
X8934093Y-10542050D01*
X8934093Y-10542050D02*
X8924569Y-10532526D01*
X8924569Y-10532526D02*
X8915045Y-10513479D01*
X8915045Y-10513479D02*
X8905522Y-10475383D01*
X8905522Y-10475383D02*
X8905522Y-10427764D01*
X8905522Y-10427764D02*
X8915045Y-10389669D01*
X8915045Y-10389669D02*
X8924569Y-10370621D01*
X8924569Y-10370621D02*
X8934093Y-10361098D01*
X8934093Y-10361098D02*
X8953141Y-10351574D01*
X9115045Y-10551574D02*
X9153141Y-10551574D01*
X9153141Y-10551574D02*
X9172188Y-10542050D01*
X9172188Y-10542050D02*
X9181712Y-10532526D01*
X9181712Y-10532526D02*
X9200760Y-10503955D01*
X9200760Y-10503955D02*
X9210284Y-10465860D01*
X9210284Y-10465860D02*
X9210284Y-10389669D01*
X9210284Y-10389669D02*
X9200760Y-10370621D01*
X9200760Y-10370621D02*
X9191236Y-10361098D01*
X9191236Y-10361098D02*
X9172188Y-10351574D01*
X9172188Y-10351574D02*
X9134093Y-10351574D01*
X9134093Y-10351574D02*
X9115045Y-10361098D01*
X9115045Y-10361098D02*
X9105522Y-10370621D01*
X9105522Y-10370621D02*
X9095998Y-10389669D01*
X9095998Y-10389669D02*
X9095998Y-10437288D01*
X9095998Y-10437288D02*
X9105522Y-10456336D01*
X9105522Y-10456336D02*
X9115045Y-10465860D01*
X9115045Y-10465860D02*
X9134093Y-10475383D01*
X9134093Y-10475383D02*
X9172188Y-10475383D01*
X9172188Y-10475383D02*
X9191236Y-10465860D01*
X9191236Y-10465860D02*
X9200760Y-10456336D01*
X9200760Y-10456336D02*
X9210284Y-10437288D01*
X9400760Y-10551574D02*
X9286474Y-10551574D01*
X9343617Y-10551574D02*
X9343617Y-10351574D01*
X9343617Y-10351574D02*
X9324569Y-10380145D01*
X9324569Y-10380145D02*
X9305522Y-10399193D01*
X9305522Y-10399193D02*
X9286474Y-10408717D01*
X9467426Y-10351574D02*
X9600760Y-10351574D01*
X9600760Y-10351574D02*
X9515045Y-10551574D01*
X9667426Y-10351574D02*
X9667426Y-10389669D01*
X9743617Y-10351574D02*
X9743617Y-10389669D01*
X10038855Y-10627764D02*
X10029331Y-10618240D01*
X10029331Y-10618240D02*
X10010284Y-10589669D01*
X10010284Y-10589669D02*
X10000760Y-10570621D01*
X10000760Y-10570621D02*
X9991236Y-10542050D01*
X9991236Y-10542050D02*
X9981712Y-10494431D01*
X9981712Y-10494431D02*
X9981712Y-10456336D01*
X9981712Y-10456336D02*
X9991236Y-10408717D01*
X9991236Y-10408717D02*
X10000760Y-10380145D01*
X10000760Y-10380145D02*
X10010284Y-10361098D01*
X10010284Y-10361098D02*
X10029331Y-10332526D01*
X10029331Y-10332526D02*
X10038855Y-10323002D01*
X10105522Y-10370621D02*
X10115046Y-10361098D01*
X10115046Y-10361098D02*
X10134093Y-10351574D01*
X10134093Y-10351574D02*
X10181712Y-10351574D01*
X10181712Y-10351574D02*
X10200760Y-10361098D01*
X10200760Y-10361098D02*
X10210284Y-10370621D01*
X10210284Y-10370621D02*
X10219807Y-10389669D01*
X10219807Y-10389669D02*
X10219807Y-10408717D01*
X10219807Y-10408717D02*
X10210284Y-10437288D01*
X10210284Y-10437288D02*
X10095998Y-10551574D01*
X10095998Y-10551574D02*
X10219807Y-10551574D01*
X10457903Y-10551574D02*
X10457903Y-10351574D01*
X10543617Y-10551574D02*
X10543617Y-10446812D01*
X10543617Y-10446812D02*
X10534093Y-10427764D01*
X10534093Y-10427764D02*
X10515046Y-10418240D01*
X10515046Y-10418240D02*
X10486474Y-10418240D01*
X10486474Y-10418240D02*
X10467427Y-10427764D01*
X10467427Y-10427764D02*
X10457903Y-10437288D01*
X10667427Y-10551574D02*
X10648379Y-10542050D01*
X10648379Y-10542050D02*
X10638855Y-10532526D01*
X10638855Y-10532526D02*
X10629331Y-10513479D01*
X10629331Y-10513479D02*
X10629331Y-10456336D01*
X10629331Y-10456336D02*
X10638855Y-10437288D01*
X10638855Y-10437288D02*
X10648379Y-10427764D01*
X10648379Y-10427764D02*
X10667427Y-10418240D01*
X10667427Y-10418240D02*
X10695998Y-10418240D01*
X10695998Y-10418240D02*
X10715046Y-10427764D01*
X10715046Y-10427764D02*
X10724569Y-10437288D01*
X10724569Y-10437288D02*
X10734093Y-10456336D01*
X10734093Y-10456336D02*
X10734093Y-10513479D01*
X10734093Y-10513479D02*
X10724569Y-10532526D01*
X10724569Y-10532526D02*
X10715046Y-10542050D01*
X10715046Y-10542050D02*
X10695998Y-10551574D01*
X10695998Y-10551574D02*
X10667427Y-10551574D01*
X10848379Y-10551574D02*
X10829331Y-10542050D01*
X10829331Y-10542050D02*
X10819808Y-10523002D01*
X10819808Y-10523002D02*
X10819808Y-10351574D01*
X11000760Y-10542050D02*
X10981712Y-10551574D01*
X10981712Y-10551574D02*
X10943617Y-10551574D01*
X10943617Y-10551574D02*
X10924569Y-10542050D01*
X10924569Y-10542050D02*
X10915046Y-10523002D01*
X10915046Y-10523002D02*
X10915046Y-10446812D01*
X10915046Y-10446812D02*
X10924569Y-10427764D01*
X10924569Y-10427764D02*
X10943617Y-10418240D01*
X10943617Y-10418240D02*
X10981712Y-10418240D01*
X10981712Y-10418240D02*
X11000760Y-10427764D01*
X11000760Y-10427764D02*
X11010284Y-10446812D01*
X11010284Y-10446812D02*
X11010284Y-10465860D01*
X11010284Y-10465860D02*
X10915046Y-10484907D01*
X11086474Y-10542050D02*
X11105522Y-10551574D01*
X11105522Y-10551574D02*
X11143617Y-10551574D01*
X11143617Y-10551574D02*
X11162665Y-10542050D01*
X11162665Y-10542050D02*
X11172189Y-10523002D01*
X11172189Y-10523002D02*
X11172189Y-10513479D01*
X11172189Y-10513479D02*
X11162665Y-10494431D01*
X11162665Y-10494431D02*
X11143617Y-10484907D01*
X11143617Y-10484907D02*
X11115046Y-10484907D01*
X11115046Y-10484907D02*
X11095998Y-10475383D01*
X11095998Y-10475383D02*
X11086474Y-10456336D01*
X11086474Y-10456336D02*
X11086474Y-10446812D01*
X11086474Y-10446812D02*
X11095998Y-10427764D01*
X11095998Y-10427764D02*
X11115046Y-10418240D01*
X11115046Y-10418240D02*
X11143617Y-10418240D01*
X11143617Y-10418240D02*
X11162665Y-10427764D01*
X11238855Y-10627764D02*
X11248379Y-10618240D01*
X11248379Y-10618240D02*
X11267427Y-10589669D01*
X11267427Y-10589669D02*
X11276950Y-10570621D01*
X11276950Y-10570621D02*
X11286474Y-10542050D01*
X11286474Y-10542050D02*
X11295998Y-10494431D01*
X11295998Y-10494431D02*
X11295998Y-10456336D01*
X11295998Y-10456336D02*
X11286474Y-10408717D01*
X11286474Y-10408717D02*
X11276950Y-10380145D01*
X11276950Y-10380145D02*
X11267427Y-10361098D01*
X11267427Y-10361098D02*
X11248379Y-10332526D01*
X11248379Y-10332526D02*
X11238855Y-10323002D01*
M02*
